<?xml version="1.0" encoding="UTF-8" standalone="no"?>
<!DOCTYPE svg PUBLIC "-//W3C//DTD SVG 1.1//EN" "http://www.w3.org/Graphics/SVG/1.1/DTD/svg11.dtd">
<svg
   xmlns:svg="http://www.w3.org/2000/svg"
   xmlns="http://www.w3.org/2000/svg"
   version="1.1"
   id="svg3695"
   width="1000"
   height="320.98767">
  <defs
     id="defs3697" />
  <path
     style="fill:#eb443f;fill-opacity:1"
     id="path3440"
     d="M 1000,234.5679 1000,0 0,0 l 0,320.98766 864.19753,0 0,-86.41976" />
  <path
     style="fill:#ffffff;fill-opacity:1"
     id="path3442"
     d="m 694.37036,259.25926 c 0,13.62963 -11.06173,24.69136 -24.69136,24.69136 l -40.04938,0 c -13.62963,0 -24.69136,-11.06173 -24.69136,-24.69136 l 0,-209.87654 c 0,-6.79012 5.51852,-12.34568 12.34568,-12.34568 l 23.17284,0 c 6.82716,0 12.34568,5.55556 12.34568,12.34568 l 0,87.03704 41.5679,41.60493 0,81.23457 z m 128.76545,0 c 0,13.62963 -11.07408,24.69136 -24.69137,24.69136 l -42.5926,0 c -13.62963,0 -24.69135,-11.06173 -24.69135,-24.69136 l 0,-197.530861 c 0,-13.629629 11.06172,-24.691359 24.69135,-24.691359 l 182.41977,0 c 13.62963,0 24.69135,11.06173 24.69135,24.691359 l 0,104.135801 c 0,13.62963 -11.06172,24.69136 -24.69135,24.69136 l -102.80247,0 c -6.82716,0 -12.34568,5.51852 -12.34568,12.34568 l 0,56.35802 z M 778.9753,130.33334 c 0,6.81481 5.51852,12.34568 12.34568,12.34568 l 111.33334,0 c 6.82716,0 12.34568,-5.53087 12.34568,-12.34568 l 0,-33.086423 c 0,-6.790123 -5.51852,-12.345679 -12.34568,-12.345679 l -111.33334,0 c -6.82716,0 -12.34568,5.555556 -12.34568,12.345679 l 0,33.086423 z M 506.17283,37.03704 c -6.82716,0 -12.34568,5.53087 -12.34568,12.34568 l 0,67.53086 c 0,13.61729 -11.07407,24.69136 -24.69135,24.69136 l -87.95062,0 c -13.62963,0 -24.69136,-11.07407 -24.69136,-24.69136 l 0,-67.53086 c 0,-6.81481 -5.53086,-12.34568 -12.34568,-12.34568 l -23.16049,0 c -6.82716,0 -12.34568,5.53087 -12.34568,12.34568 l 0,209.87654 c 0,13.62963 11.04938,24.69136 24.69136,24.69136 l 41.30864,0 c 13.62963,0 24.69136,-11.06173 24.69136,-24.69136 l 0,-45.09876 c 0,-13.62963 11.06173,-24.69136 24.69136,-24.69136 l 45.11111,0 c 13.61728,0 24.69135,11.06173 24.69135,24.69136 l 0,57.44444 c 0,6.82716 5.51852,12.34568 12.34568,12.34568 l 23.1605,0 c 6.82716,0 12.34568,-5.51852 12.34568,-12.34568 l 0,-222.22222 c 0,-6.81481 -5.51852,-12.34568 -12.34568,-12.34568 l -23.1605,0 z M 266.32098,259.25926 c 0,13.62963 -11.06172,24.69136 -24.69135,24.69136 l -179.90124,0 c -13.62962,0 -24.69135,-11.06173 -24.69135,-24.69136 l 0,-197.530861 c 0,-13.641975 11.06173,-24.691359 24.69135,-24.691359 l 179.90124,0 c 13.62963,0 24.69135,11.049384 24.69135,24.691359 l 0,46.049381 c 0,6.82716 -5.53086,12.34568 -12.34567,12.34568 l -24.96297,0 c -5.8395,0 -10.5679,-4.71605 -10.5679,-10.54321 l 0,-12.345678 c 0,-6.814815 -5.53086,-12.345679 -12.34568,-12.345679 l -96.50617,0 c -13.62963,0 -24.69136,11.061728 -24.69136,24.691357 l 0,26.83951 41.58025,41.5679 0,33.38271 c 0,13.66667 11.06173,24.69136 24.69136,24.69136 l 54.93827,0 c 6.79012,0 12.34568,-5.48148 12.34568,-12.34568 l 0,-6.08642 c 0,-6.82716 5.51852,-12.34568 12.34568,-12.34568 l 23.17284,0 c 6.81481,0 12.34567,5.51852 12.34567,12.34568 l 0,41.62963 z" />
</svg>
