<?xml version="1.0" encoding="UTF-8"?>
<svg width="534px" height="409px" viewBox="0 0 534 409" version="1.1" xmlns="http://www.w3.org/2000/svg" xmlns:xlink="http://www.w3.org/1999/xlink">
    <!-- Generator: Sketch 62 (91390) - https://sketch.com -->
    <title>提问配图</title>
    <desc>Created with Sketch.</desc>
    <defs>
        <linearGradient x1="-25.7062592%" y1="17.2290482%" x2="137.025067%" y2="84.4186816%" id="linearGradient-1">
            <stop stop-color="#44CAE0" offset="0%"></stop>
            <stop stop-color="#68FF87" offset="100%"></stop>
        </linearGradient>
        <linearGradient x1="11.1396679%" y1="32.7560375%" x2="116.101997%" y2="90.3431836%" id="linearGradient-2">
            <stop stop-color="#4DCCFF" offset="0%"></stop>
            <stop stop-color="#4489FF" offset="100%"></stop>
        </linearGradient>
        <path d="M91,339 C90.6814823,339 90.3803553,338.925542 90.1130752,338.793081 C39.7950991,335.522273 0,293.884379 0,243 C0,193.932454 37.0040542,153.462887 84.764774,147.70269 C99.6699277,95.3432525 147.857191,57 205,57 C264.930503,57 315.010359,99.1756335 327.177917,155.46525 C360.68258,170.517415 384,204.049779 384,243 C384,296.019336 340.795478,339 287.5,339 C286.772299,339 286.046479,338.991987 285.322625,338.976045 C285.218409,338.99108 285.110246,339 285,339 L91,339 Z" id="path-3"></path>
        <filter x="-26.2%" y="-35.6%" width="152.3%" height="171.3%" filterUnits="objectBoundingBox" id="filter-4">
            <feGaussianBlur stdDeviation="100" in="SourceAlpha" result="shadowBlurInner1"></feGaussianBlur>
            <feOffset dx="0" dy="1" in="shadowBlurInner1" result="shadowOffsetInner1"></feOffset>
            <feComposite in="shadowOffsetInner1" in2="SourceAlpha" operator="arithmetic" k2="-1" k3="1" result="shadowInnerInner1"></feComposite>
            <feColorMatrix values="0 0 0 0 1   0 0 0 0 1   0 0 0 0 1  0 0 0 0.5 0" type="matrix" in="shadowInnerInner1"></feColorMatrix>
        </filter>
        <filter x="-33.9%" y="-68.3%" width="167.7%" height="232.4%" filterUnits="objectBoundingBox" id="filter-5">
            <feOffset dx="9" dy="35" in="SourceAlpha" result="shadowOffsetOuter1"></feOffset>
            <feGaussianBlur stdDeviation="18" in="shadowOffsetOuter1" result="shadowBlurOuter1"></feGaussianBlur>
            <feColorMatrix values="0 0 0 0 0.396078431   0 0 0 0 0.647058824   0 0 0 0 0.929411765  0 0 0 0.124535621 0" type="matrix" in="shadowBlurOuter1" result="shadowMatrixOuter1"></feColorMatrix>
            <feMerge>
                <feMergeNode in="shadowMatrixOuter1"></feMergeNode>
                <feMergeNode in="SourceGraphic"></feMergeNode>
            </feMerge>
        </filter>
        <linearGradient x1="-25.7062592%" y1="-8.47744166%" x2="137.025067%" y2="111.417699%" id="linearGradient-6">
            <stop stop-color="#44CAE0" offset="0%"></stop>
            <stop stop-color="#68FF87" offset="100%"></stop>
        </linearGradient>
        <linearGradient x1="-25.7062592%" y1="-8.338085%" x2="137.025067%" y2="111.271335%" id="linearGradient-7">
            <stop stop-color="#44CAE0" offset="0%"></stop>
            <stop stop-color="#68FF87" offset="100%"></stop>
        </linearGradient>
    </defs>
    <g id="页面-1" stroke="none" stroke-width="1" fill="none" fill-rule="evenodd">
        <g id="同步助手web-导航条上滑" transform="translate(-1058.000000, -5076.000000)">
            <g id="banner备份-6" transform="translate(0.000000, 4906.000000)">
                <g id="编组-10" transform="translate(360.000000, 59.000000)">
                    <g id="编组-7" transform="translate(0.000000, 79.000000)">
                        <g id="提问配图" transform="translate(698.000000, 32.000000)">
                            <path d="M404.2,62 C404.020375,62 403.849967,61.9605334 403.696976,61.8897986 C392.629314,60.8164147 384,52.0972398 384,41.5 C384,31.2081579 392.139111,22.6876939 402.746721,21.2225874 C405.689484,9.05930231 416.998314,0 430.5,0 C444.675108,0 456.43316,9.98553966 458.631184,23.064278 C465.954241,26.391325 471,33.3965885 471,41.5 C471,51.2990171 463.621709,59.4922393 453.759512,61.5189896 C453.541582,61.8112381 453.192835,62 452.8,62 L404.2,62 Z" id="形状结合备份-7" fill="url(#linearGradient-1)" opacity="0.100000001"></path>
                            <g id="形状结合" opacity="0.08">
                                <use fill="url(#linearGradient-2)" fill-rule="evenodd" xlink:href="#path-3"></use>
                                <use fill="black" fill-opacity="1" filter="url(#filter-4)" xlink:href="#path-3"></use>
                            </g>
                            <g id="编组-27" transform="translate(99.000000, 125.000000)">
                                <g id="编组-17" filter="url(#filter-5)">
                                    <rect id="矩形" stroke="#78B7FF" stroke-width="16.2" fill="#DAEBFF" x="42.3935065" y="0" width="317.951299" height="190.914344" rx="5.4"></rect>
                                    <g id="编组备份" transform="translate(162.900974, 68.744877)">
                                        <path d="M31.0885714,5.89241803 C48.2583153,5.89241803 62.1771429,16.7614947 62.1771429,30.1691803 C62.1771429,35.2437731 60.1832702,39.95471 56.773916,43.8503312 C61.2338058,40.9069672 64.2968182,37.1795406 64.2968182,32.2904508 C64.2968182,30.8851007 64.1438983,29.5076412 63.8503433,28.1676654 C70.4485981,31.1087088 74.8951948,36.6467313 74.8951948,42.9940132 C74.8951948,47.9008732 72.237779,52.3240962 67.9832021,55.4375166 L67.6690566,55.6629783 C66.6508847,56.3796325 66.147337,57.6265569 66.3823174,58.8492799 L66.6761364,60.3781009 C66.7887094,60.963849 66.4051252,61.5299501 65.8193771,61.6425231 C65.5954018,61.6855681 65.3635487,61.6566022 65.1570478,61.5597767 L61.3096818,59.7557991 C60.4967281,59.3746156 59.5801519,59.2743911 58.7040316,59.4708796 C58.5434843,59.5068858 58.4222799,59.5328927 58.3404184,59.5489003 C56.6286316,59.8836318 54.8368976,60.061387 52.9918831,60.061387 C46.3487553,60.061387 40.396367,57.7569325 36.3794845,54.117963 L36.3906685,54.0942822 C34.66763,54.3254827 32.8961153,54.4459426 31.0885714,54.4459426 C28.4698411,54.4459426 25.9267348,54.1931022 23.4971021,53.7169776 C23.3031039,53.6789606 22.9534339,53.6012935 22.448092,53.4839762 C21.5622236,53.2783181 20.6329175,53.3768011 19.8098284,53.7635601 L19.8098284,53.7635601 L13.0173617,56.9553054 C12.8107977,57.0523688 12.578794,57.0814978 12.3546463,57.038512 C11.7688535,56.926172 11.3850441,56.3602236 11.497384,55.7744308 L11.497384,55.7744308 L12.1393321,52.427015 C12.4446794,50.8347917 11.7710753,49.2138974 10.4271821,48.3070551 C10.3621356,48.2631628 10.3052263,48.2240153 10.2564542,48.1896126 C3.95805073,43.7468607 6.02697497e-12,37.3189684 6.02697497e-12,30.1691803 C6.02697497e-12,16.7614947 13.9188275,5.89241803 31.0885714,5.89241803 Z" id="形状结合" fill="#50A2FF" opacity="0.600000024"></path>
                                        <path d="M63.8501233,22.2742434 C70.4477056,25.2151793 74.8951948,30.7536763 74.8951948,37.1015952 C74.8951948,42.0084552 72.237779,46.4316782 67.9832021,49.5450986 L67.6690566,49.7705603 C66.6508847,50.4872145 66.147337,51.7341388 66.3823174,52.9568619 L66.6761364,54.4856829 C66.7887094,55.071431 66.4051252,55.637532 65.8193771,55.750105 C65.5954018,55.7931501 65.3635487,55.7641841 65.1570478,55.6673587 L61.3096818,53.8633811 C60.4967281,53.4821976 59.5801519,53.3819731 58.7040316,53.5784616 C58.5434843,53.6144677 58.4222799,53.6404746 58.3404184,53.6564822 C56.6286316,53.9912137 54.8368976,54.168969 52.9918831,54.168969 C47.6839084,54.168969 42.8169218,52.6977389 39.0258979,50.25006 C53.4154288,48.1230359 64.2968182,38.2528446 64.2968182,26.3980328 C64.2968182,24.9923317 64.1438219,23.6145351 63.8501233,22.2742434 Z M31.0885714,1.35035152e-12 C48.2583153,1.35035152e-12 62.1771429,10.8690767 62.1771429,24.2767623 C62.1771429,37.6844479 48.2583153,48.5535246 31.0885714,48.5535246 C28.4698411,48.5535246 25.9267348,48.3006841 23.4971021,47.8245595 C23.3031039,47.7865426 22.9534339,47.7088754 22.448092,47.5915582 C21.5622236,47.3859001 20.6329175,47.4843831 19.8098284,47.871142 L19.8098284,47.871142 L13.0173617,51.0628874 C12.8107977,51.1599507 12.578794,51.1890797 12.3546463,51.146094 C11.7688535,51.033754 11.3850441,50.4678056 11.497384,49.8820127 L11.497384,49.8820127 L12.1393321,46.534597 C12.4446794,44.9423737 11.7710753,43.3214793 10.4271821,42.4146371 C10.3621356,42.3707448 10.3052263,42.3315973 10.2564542,42.2971946 C3.95805073,37.8544426 2.94232363e-12,31.4265504 2.94232363e-12,24.2767623 C2.94232363e-12,10.8690767 13.9188275,1.35035152e-12 31.0885714,1.35035152e-12 Z" id="形状结合" fill="#FFFFFF"></path>
                                        <path d="M26.8477188,12.727623 C27.1803243,12.727623 27.4571078,12.9593199 27.5165083,13.2806414 L27.5227895,13.3212631 L29.391247,28.2919281 C29.4191966,28.515869 29.553484,28.7087411 29.7522919,28.8104837 C30.0818141,28.9791211 30.4926722,28.8546245 30.6906398,28.5334885 L30.7125207,28.4955672 L39.0006711,13.1176241 C39.1219433,12.892614 39.3505979,12.7456842 39.5999076,12.7291769 L39.646874,12.727623 L45.0162907,12.727623 C45.0589616,12.727623 45.1013993,12.7314914 45.1430835,12.7391808 C45.3025482,12.7685969 45.437364,12.850177 45.5340461,12.9632509 L45.6645793,12.9633197 L47.2651631,18.2962587 C47.377415,18.6702675 47.165447,19.0645282 46.7917195,19.1768645 C46.7257862,19.196683 46.6573126,19.2067518 46.5884694,19.2067518 L46.3874752,19.2067461 C45.2470503,19.2067134 44.2600335,19.9997498 44.0144279,21.1134135 L40.7416802,35.9532251 L40.7416802,35.9532251 C40.670702,36.2750585 40.3907478,36.5125039 40.0672831,36.5317323 L40.0248589,36.5329918 L35.7909134,36.5329918 C35.7482425,36.5329918 35.7058048,36.5291234 35.6641206,36.521434 C35.2965373,36.4536266 35.0599258,36.1086446 35.119455,35.7396622 L35.1272965,35.6985782 L38.289149,21.3619284 C38.3578301,21.0505109 38.2127187,20.7391541 37.9339279,20.5997514 C37.6027774,20.4341674 37.192925,20.5623431 36.9978107,20.885152 L36.9762672,20.9232573 L28.9481841,36.1372493 C28.8278863,36.3652252 28.5977041,36.5146239 28.3462871,36.5314114 L28.2989192,36.5329918 L24.9910607,36.5329918 C24.6576627,36.5329918 24.3804762,36.3002177 24.3218966,35.9779378 L24.3157244,35.937197 L22.3895288,20.1024899 C22.3535096,19.8063861 22.1336726,19.5722443 21.8409854,19.5182529 C21.4734021,19.4504455 21.1090719,19.684573 21.0075561,20.0458102 L20.9973713,20.0864618 L17.4980624,35.9532251 C17.4270842,36.2750585 17.1471299,36.5125039 16.8236652,36.5317323 L16.781241,36.5329918 L16.4898406,36.5329918 L16.4371104,36.539381 C16.3411449,36.5484407 16.2461383,36.5460931 16.1536365,36.5332916 L16.1405118,36.5329918 C16.0978409,36.5329918 16.0554032,36.5291234 16.013719,36.521434 C15.8955132,36.4996288 15.7908513,36.4491607 15.7052259,36.378449 C15.4554508,36.2335812 15.2569622,36.0009443 15.1582891,35.7106244 L13.6617404,31.3074192 C13.5779689,31.0609432 13.7097166,30.7931734 13.9560074,30.7093388 C14.0205736,30.6873612 14.0891387,30.6796765 14.1569634,30.686816 L14.3675369,30.7089673 C15.59746,30.838349 16.72837,30.0233524 16.9947284,28.8156672 L20.4151223,13.3073897 L20.4151223,13.3073897 C20.4861005,12.9855563 20.7660547,12.7481109 21.0895194,12.7288825 L21.1319436,12.727623 L26.8477188,12.727623 Z" id="路径" fill="#50A2FF"></path>
                                    </g>
                                    <path d="M11.6163785,190.914344 L387.50152,190.914344 C390.483858,190.914344 392.90152,193.332007 392.90152,196.314344 C392.90152,197.903443 392.201579,199.411873 390.988109,200.437898 L382.386173,207.711095 C378.487011,211.007955 373.545964,212.816881 368.439816,212.816881 L18.467346,212.816881 L18.467346,212.816881 L7.48800452,199.795225 C5.56556735,197.515187 5.85546008,194.108407 8.13549805,192.18597 C9.10946427,191.364761 10.3424102,190.914344 11.6163785,190.914344 Z" id="路径-21" fill="#65A5ED"></path>
                                </g>
                            </g>
                            <g id="编组-30备份" transform="translate(108.000000, 57.000000)">
                                <path d="M25.9491506,0 C40.2804707,0 51.8983012,11.4167389 51.8983012,25.5 C51.8983012,31.0416304 50.0994564,36.1703903 47.0442732,40.3531636 L53.3925574,49.4267524 C53.7091532,49.8792848 53.598955,50.5027863 53.1464227,50.8193822 C52.9783816,50.9369454 52.7782578,51 52.5731751,51 L25.9491506,51 C11.6178304,51 0,39.5832611 0,25.5 C0,11.4167389 11.6178304,0 25.9491506,0 Z" id="形状结合" fill="url(#linearGradient-6)"></path>
                                <path d="M27.6157205,32.7582418 L27.6157205,32.1813187 C27.6157205,31.1923077 27.8231441,30.3269231 28.2379913,29.5027473 C28.6113537,28.760989 29.150655,28.0604396 29.8973799,27.4423077 C31.8886463,25.7115385 33.0917031,24.5989011 33.4650655,24.1868132 C34.4606987,22.8681319 35,21.1785714 35,19.1181319 C35,16.6043956 34.1703057,14.6263736 32.510917,13.1840659 C30.8515284,11.7005495 28.6528384,11 25.9563319,11 C22.8864629,11 20.4803493,11.8653846 18.6965066,13.5961538 C16.871179,15.3269231 16,17.717033 16,20.7664835 L20.7292576,20.7664835 C20.7292576,19.0357143 21.0611354,17.6758242 21.7663755,16.728022 C22.5545852,15.5741758 23.8406114,15.0384615 25.6659389,15.0384615 C27.0764192,15.0384615 28.1965066,15.4093407 28.9847162,16.1923077 C29.731441,16.9752747 30.1462882,18.0467033 30.1462882,19.4065934 C30.1462882,20.4368132 29.7729258,21.4258242 29.0262009,22.3324176 L28.5283843,22.9093407 C25.8318777,25.2994505 24.2139738,27.0302198 23.6746725,28.1428571 C23.0938865,29.2554945 22.8449782,30.6153846 22.8449782,32.1813187 L22.8449782,32.7582418 L27.6157205,32.7582418 Z M25.209607,41 C26.1222707,41 26.8689956,40.7115385 27.4912664,40.1346154 C28.1135371,39.5576923 28.4454148,38.7747253 28.4454148,37.8681319 C28.4454148,36.9615385 28.1135371,36.2197802 27.5327511,35.6428571 C26.9104803,35.0659341 26.1222707,34.7774725 25.209607,34.7774725 C24.2969432,34.7774725 23.5502183,35.0659341 22.9279476,35.6428571 C22.3056769,36.2197802 22.0152838,36.9615385 22.0152838,37.8681319 C22.0152838,38.7747253 22.3056769,39.5164835 22.9279476,40.0934066 C23.5502183,40.6703297 24.2969432,41 25.209607,41 Z" id="？" fill="#FFFFFF" fill-rule="nonzero"></path>
                            </g>
                            <g id="编组-30" transform="translate(402.000000, 267.000000)">
                                <path d="M48.0119116,0 C74.5281582,0 96.0238232,21.2664744 96.0238232,47.5 C96.0238232,57.822649 92.695543,67.3762249 87.0427454,75.1676671 L99.7335529,93.4293467 C100.048716,93.882878 99.9365464,94.506028 99.483015,94.8211911 C99.3154891,94.9376064 99.1163654,95 98.9123618,95 L48.0119116,95 C21.495665,95 1.0658141e-13,73.7335256 1.0658141e-13,47.5 C1.0658141e-13,21.2664744 21.495665,0 48.0119116,0 Z" id="形状结合" fill="url(#linearGradient-7)"></path>
                                <path d="M51.3973799,60.8901099 L51.3973799,59.8324176 C51.3973799,58.0192308 51.779476,56.4326923 52.5436681,54.9217033 C53.231441,53.5618132 54.2248908,52.2774725 55.6004367,51.1442308 C59.268559,47.9711538 61.4847162,45.9313187 62.1724891,45.1758242 C64.0065502,42.7582418 65,39.6607143 65,35.8832418 C65,31.2747253 63.4716157,27.6483516 60.4148472,25.0041209 C57.3580786,22.2843407 53.3078603,21 48.3406114,21 C42.6855895,21 38.2532751,22.5865385 34.9672489,25.7596154 C31.6048035,28.9326923 30,33.3145604 30,38.9052198 L38.7117904,38.9052198 C38.7117904,35.7321429 39.3231441,33.239011 40.6222707,31.5013736 C42.0742358,29.385989 44.4432314,28.4038462 47.8056769,28.4038462 C50.4039301,28.4038462 52.4672489,29.0837912 53.919214,30.5192308 C55.2947598,31.9546703 56.058952,33.918956 56.058952,36.4120879 C56.058952,38.3008242 55.371179,40.114011 53.9956332,41.7760989 L53.0786026,42.8337912 C48.1113537,47.2156593 45.1310044,50.3887363 44.1375546,52.4285714 C43.0676856,54.4684066 42.6091703,56.9615385 42.6091703,59.8324176 L42.6091703,60.8901099 L51.3973799,60.8901099 Z M46.9650655,76 C48.6462882,76 50.0218341,75.4711538 51.1681223,74.4134615 C52.3144105,73.3557692 52.9257642,71.9203297 52.9257642,70.2582418 C52.9257642,68.5961538 52.3144105,67.2362637 51.2445415,66.1785714 C50.0982533,65.1208791 48.6462882,64.592033 46.9650655,64.592033 C45.2838428,64.592033 43.9082969,65.1208791 42.7620087,66.1785714 C41.6157205,67.2362637 41.080786,68.5961538 41.080786,70.2582418 C41.080786,71.9203297 41.6157205,73.2802198 42.7620087,74.3379121 C43.9082969,75.3956044 45.2838428,76 46.9650655,76 Z" id="？" fill="#FFFFFF" fill-rule="nonzero"></path>
                            </g>
                        </g>
                    </g>
                </g>
            </g>
        </g>
    </g>
</svg>