<?xml version="1.0" encoding="UTF-8"?>
<svg width="428px" height="82px" viewBox="0 0 428 82" version="1.1" xmlns="http://www.w3.org/2000/svg" xmlns:xlink="http://www.w3.org/1999/xlink">
    <!-- Generator: Sketch 62 (91390) - https://sketch.com -->
    <title>instantly插图2</title>
    <desc>Created with Sketch.</desc>
    <defs>
        <linearGradient x1="-81.5656035%" y1="-47.2718194%" x2="170.370374%" y2="127.743026%" id="linearGradient-1">
            <stop stop-color="#2CADFF" offset="0%"></stop>
            <stop stop-color="#4376FF" offset="100%"></stop>
        </linearGradient>
        <linearGradient x1="-25.7062592%" y1="-14.5274022%" x2="173.560532%" y2="157.61046%" id="linearGradient-2">
            <stop stop-color="#44CAE0" offset="0%"></stop>
            <stop stop-color="#68FF87" offset="100%"></stop>
        </linearGradient>
    </defs>
    <g id="页面-1" stroke="none" stroke-width="1" fill="none" fill-rule="evenodd">
        <g id="同步助手web-导航条上滑" transform="translate(-873.000000, -2216.000000)">
            <g id="banner备份-2" transform="translate(0.000000, 1805.000000)">
                <g id="编组-10" transform="translate(873.000000, 135.000000)">
                    <g id="编组-24">
                        <g id="instantly插图2" transform="translate(0.000000, 276.000000)">
                            <rect id="矩形" fill="#F9F9F9" x="0" y="0" width="428" height="82" rx="40"></rect>
                            <g id="编组-22" transform="translate(14.000000, 14.000000)">
                                <path d="M27,0 C41.9116882,0 54,12.0883118 54,27 C54,41.9116882 41.9116882,54 27,54 C12.0883118,54 0,41.9116882 0,27 C0,12.0883118 12.0883118,0 27,0 Z M26.6857306,20.2903102 C25.5726635,20.2903102 23.8496604,19.0538069 22.0251484,19.086665 C19.6277732,19.1212525 17.4166447,20.4520068 16.1826496,22.5557918 C13.6917097,26.7901401 15.5444676,33.0625842 17.9727369,36.4971235 C19.1590669,38.1780762 20.5740126,40.0656893 22.431184,39.9982437 C24.2195058,39.928204 24.896526,38.8646382 27.0582241,38.8646382 C29.2199221,38.8646382 29.8280928,39.9982437 31.7214543,39.9636562 C33.6457099,39.928204 34.8655819,38.25071 36.0439678,36.5645691 C37.4059523,34.6146985 37.9673406,32.7262207 38,32.6293757 C37.9576311,32.6103526 34.246819,31.2182055 34.2097462,27.0322527 C34.1744388,23.5277007 37.1270235,21.8476126 37.2585437,21.7637379 C35.599094,19.3849823 33.0145894,19.0598597 32.0939478,19.0218135 C29.8942943,18.8039122 27.8023284,20.2903102 26.6857306,20.2903102 Z M31.9686113,12 C30.4801224,12.0536113 28.6761738,12.8707767 27.6086062,13.9681828 C26.6502007,14.9421206 25.8120584,16.4968469 26.0368582,17.9898391 C27.6983411,18.1035599 29.3940528,17.2482168 30.4283167,16.1508107 C31.4616554,15.0501554 32.1591822,13.523047 31.9686113,12 Z" id="形状结合" fill="url(#linearGradient-1)"></path>
                                <path d="M308,0 C322.911688,0 335,12.0883118 335,27 C335,41.9116882 322.911688,54 308,54 C293.088312,54 281,41.9116882 281,27 C281,12.0883118 293.088312,0 308,0 Z M307.685731,20.2903102 C306.572664,20.2903102 304.84966,19.0538069 303.025148,19.086665 C300.627773,19.1212525 298.416645,20.4520068 297.18265,22.5557918 C294.69171,26.7901401 296.544468,33.0625842 298.972737,36.4971235 C300.159067,38.1780762 301.574013,40.0656893 303.431184,39.9982437 C305.219506,39.928204 305.896526,38.8646382 308.058224,38.8646382 C310.219922,38.8646382 310.828093,39.9982437 312.721454,39.9636562 C314.64571,39.928204 315.865582,38.25071 317.043968,36.5645691 C318.405952,34.6146985 318.967341,32.7262207 319,32.6293757 C318.957631,32.6103526 315.246819,31.2182055 315.209746,27.0322527 C315.174439,23.5277007 318.127024,21.8476126 318.258544,21.7637379 C316.599094,19.3849823 314.014589,19.0598597 313.093948,19.0218135 C310.894294,18.8039122 308.802328,20.2903102 307.685731,20.2903102 Z M312.968611,12 C311.480122,12.0536113 309.676174,12.8707767 308.608606,13.9681828 C307.650201,14.9421206 306.812058,16.4968469 307.036858,17.9898391 C308.698341,18.1035599 310.394053,17.2482168 311.428317,16.1508107 C312.461655,15.0501554 313.159182,13.523047 312.968611,12 Z" id="形状结合备份" fill="url(#linearGradient-1)"></path>
                                <path d="M92,0 C106.911688,0 119,12.0883118 119,27 C119,41.9116882 106.911688,54 92,54 C77.0883118,54 65,41.9116882 65,27 C65,12.0883118 77.0883118,0 92,0 Z M100.594271,21.9627158 L84.3770278,21.9627158 L84.3770278,34.9927367 C84.3770278,35.4174176 84.5159813,35.7745361 84.793945,36.0640921 C85.0719087,36.3536481 85.4121667,36.4984261 85.8147192,36.4984261 L85.8147192,36.4984261 L86.1310266,36.4984261 L86.1310266,40.5522294 C86.1310077,40.9382978 86.2699801,41.2761099 86.5479438,41.565666 C86.8259075,41.855222 87.1565797,42 87.5399603,42 L87.5399603,42 L88.3737947,42 C88.776366,42 89.1166241,41.855222 89.3945689,41.565666 C89.6725137,41.2761099 89.8114861,40.9382978 89.8114861,40.5522294 L89.8114861,40.5522294 L89.8114861,36.4984261 L95.1022405,36.4984261 L95.1022405,40.5522294 C95.1022216,40.9382978 95.241194,41.2761099 95.5191577,41.565666 C95.7971214,41.855222 96.127803,42 96.5112025,42 L96.5112025,42 L97.3450369,42 C97.7475894,42 98.0878474,41.855222 98.3658111,41.565666 C98.6437748,41.2761099 98.7827567,40.9382978 98.7827567,40.5522294 L98.7827567,40.5522294 L98.7827567,36.4984261 L99.1853091,36.4984261 C99.5878805,36.4984641 99.9281386,36.3536956 100.206083,36.0641206 C100.484028,35.7745456 100.623001,35.4174271 100.623001,34.9927652 L100.623001,34.9927652 L100.594271,21.9627158 Z M104.41852,22.6866153 L103.900964,22.6866153 C103.460068,22.6866153 103.086264,22.8265906 102.779552,23.1064839 C102.47284,23.3863773 102.319484,23.7290208 102.319484,24.1344145 L102.319484,24.1344145 L102.319484,32.676298 C102.319484,33.0623664 102.47284,33.3953568 102.779552,33.6752692 C103.086264,33.9551816 103.460068,34.0951378 103.900964,34.0951378 L103.900964,34.0951378 L104.41852,34.0951378 C104.859416,34.0951378 105.23322,33.9551816 105.539932,33.6752692 C105.846644,33.3953568 106,33.0623664 106,32.676298 L106,32.676298 L106,24.1344145 C106,23.7290398 105.846644,23.3863963 105.539932,23.1064839 C105.23322,22.8265715 104.859416,22.6866153 104.41852,22.6866153 L104.41852,22.6866153 Z M81.0990357,22.6866153 L80.5814804,22.6866153 C80.1405842,22.6866153 79.7667801,22.8265906 79.4600681,23.1064839 C79.153356,23.3863773 79,23.7290208 79,24.1344145 L79,24.1344145 L79,32.676298 C79,33.0623664 79.1533277,33.3953568 79.4600397,33.6752692 C79.7667518,33.9551816 80.1405559,34.0951378 80.5814521,34.0951378 L80.5814521,34.0951378 L81.0990357,34.0951378 C81.5399319,34.0951378 81.9041501,33.9551816 82.1916903,33.6752692 C82.4792305,33.3953568 82.6230006,33.0623664 82.6230006,32.676298 L82.6230006,32.676298 L82.6230006,24.1344145 C82.6230006,23.7290398 82.4792305,23.3863963 82.1916903,23.1064839 C81.9041501,22.8265715 81.5399319,22.6866153 81.0990357,22.6866153 L81.0990357,22.6866153 Z M86.964861,13.0009636 C86.8306769,12.99132 86.6869068,13.0540606 86.5335508,13.1891855 C86.3610418,13.3050611 86.2604036,13.4160674 86.2316364,13.5222044 C86.2028692,13.6283413 86.2076574,13.7007161 86.2460011,13.7393286 L86.2460011,13.7393286 L87.7124504,16.0557958 C87.0415296,16.4418832 86.3753971,16.9630859 85.7140528,17.619404 C85.0527085,18.2757221 84.5686803,19.1154308 84.2619682,20.13853 L84.2619682,20.13853 L100.594243,20.13853 C100.47923,19.6559493 100.292328,19.1974872 100.033537,18.7631436 C99.7747448,18.3288001 99.4728304,17.9282378 99.1277935,17.5614567 C98.7827567,17.1946756 98.4233362,16.8761696 98.049532,16.6059389 C97.6757279,16.3357082 97.316298,16.1233677 96.9712422,15.9689176 L96.9712422,15.9689176 L98.4377198,13.623548 C98.4760446,13.5849355 98.4808329,13.5270167 98.4520845,13.4497916 C98.4233362,13.3725665 98.3131216,13.2857073 98.1214407,13.189214 C97.9105502,13.0733764 97.7523965,13.0154576 97.6469796,13.0154576 C97.5415626,13.0154576 97.4696823,13.0347638 97.4313386,13.0733764 L97.4313386,13.0733764 L95.9073738,15.4766933 C94.7763849,14.9361747 93.5591321,14.6659155 92.2556154,14.6659155 C91.6230383,14.6659155 91.0096237,14.7334779 90.4153715,14.8686028 C89.8211193,15.0037277 89.2556248,15.1967713 88.7188882,15.4477338 L88.7188882,15.4477338 L87.2236245,13.0733764 C87.1852997,13.0347448 87.0990452,13.0106072 86.964861,13.0009636 Z M88.9488656,16.6638577 C89.1980431,16.6638577 89.4089053,16.7507264 89.5814521,16.9244638 C89.7539989,17.0982013 89.8402628,17.3105417 89.8402439,17.5614852 C89.840225,17.8124287 89.7539611,18.0247691 89.5814521,18.1985065 C89.4089431,18.3722439 89.1980809,18.4591127 88.9488656,18.4591127 C88.6996125,18.4591127 88.4887503,18.3722439 88.3162791,18.1985065 C88.1438079,18.0247691 88.0575534,17.8124287 88.0575156,17.5614852 C88.0574778,17.3105417 88.1437323,17.0982013 88.3162791,16.9244638 C88.4888259,16.7507264 88.699688,16.6638577 88.9488656,16.6638577 Z M96.0223766,16.5480486 C96.2716108,16.5480676 96.482473,16.6349268 96.6549631,16.8086262 C96.8274532,16.9823256 96.9137077,17.194666 96.9137266,17.4456476 C96.9137455,17.6966291 96.827491,17.908979 96.6549631,18.0826974 C96.4824352,18.2564158 96.2715731,18.343275 96.0223766,18.343275 C95.7731424,18.3433131 95.5622708,18.2564539 95.3897618,18.0826974 C95.2172528,17.908941 95.1309983,17.696591 95.1309983,17.4456476 C95.1309983,17.1947041 95.2172528,16.9823636 95.3897618,16.8086262 C95.5622708,16.6348888 95.7731424,16.5480296 96.0223766,16.5480486 Z" id="形状结合" fill="url(#linearGradient-2)"></path>
                                <path d="M373,0 C387.911688,0 400,12.0883118 400,27 C400,41.9116882 387.911688,54 373,54 C358.088312,54 346,41.9116882 346,27 C346,12.0883118 358.088312,0 373,0 Z M381.594271,21.9627158 L365.377028,21.9627158 L365.377028,34.9927367 C365.377028,35.4174176 365.515981,35.7745361 365.793945,36.0640921 C366.071909,36.3536481 366.412167,36.4984261 366.814719,36.4984261 L366.814719,36.4984261 L367.131027,36.4984261 L367.131027,40.5522294 C367.131008,40.9382978 367.26998,41.2761099 367.547944,41.565666 C367.825908,41.855222 368.15658,42 368.53996,42 L368.53996,42 L369.373795,42 C369.776366,42 370.116624,41.855222 370.394569,41.565666 C370.672514,41.2761099 370.811486,40.9382978 370.811486,40.5522294 L370.811486,40.5522294 L370.811486,36.4984261 L376.10224,36.4984261 L376.10224,40.5522294 C376.102222,40.9382978 376.241194,41.2761099 376.519158,41.565666 C376.797121,41.855222 377.127803,42 377.511202,42 L377.511202,42 L378.345037,42 C378.747589,42 379.087847,41.855222 379.365811,41.565666 C379.643775,41.2761099 379.782757,40.9382978 379.782757,40.5522294 L379.782757,40.5522294 L379.782757,36.4984261 L380.185309,36.4984261 C380.58788,36.4984641 380.928139,36.3536956 381.206083,36.0641206 C381.484028,35.7745456 381.623001,35.4174271 381.623001,34.9927652 L381.623001,34.9927652 L381.594271,21.9627158 Z M385.41852,22.6866153 L384.900964,22.6866153 C384.460068,22.6866153 384.086264,22.8265906 383.779552,23.1064839 C383.47284,23.3863773 383.319484,23.7290208 383.319484,24.1344145 L383.319484,24.1344145 L383.319484,32.676298 C383.319484,33.0623664 383.47284,33.3953568 383.779552,33.6752692 C384.086264,33.9551816 384.460068,34.0951378 384.900964,34.0951378 L384.900964,34.0951378 L385.41852,34.0951378 C385.859416,34.0951378 386.23322,33.9551816 386.539932,33.6752692 C386.846644,33.3953568 387,33.0623664 387,32.676298 L387,32.676298 L387,24.1344145 C387,23.7290398 386.846644,23.3863963 386.539932,23.1064839 C386.23322,22.8265715 385.859416,22.6866153 385.41852,22.6866153 L385.41852,22.6866153 Z M362.099036,22.6866153 L361.58148,22.6866153 C361.140584,22.6866153 360.76678,22.8265906 360.460068,23.1064839 C360.153356,23.3863773 360,23.7290208 360,24.1344145 L360,24.1344145 L360,32.676298 C360,33.0623664 360.153328,33.3953568 360.46004,33.6752692 C360.766752,33.9551816 361.140556,34.0951378 361.581452,34.0951378 L361.581452,34.0951378 L362.099036,34.0951378 C362.539932,34.0951378 362.90415,33.9551816 363.19169,33.6752692 C363.47923,33.3953568 363.623001,33.0623664 363.623001,32.676298 L363.623001,32.676298 L363.623001,24.1344145 C363.623001,23.7290398 363.47923,23.3863963 363.19169,23.1064839 C362.90415,22.8265715 362.539932,22.6866153 362.099036,22.6866153 L362.099036,22.6866153 Z M367.964861,13.0009636 C367.830677,12.99132 367.686907,13.0540606 367.533551,13.1891855 C367.361042,13.3050611 367.260404,13.4160674 367.231636,13.5222044 C367.202869,13.6283413 367.207657,13.7007161 367.246001,13.7393286 L367.246001,13.7393286 L368.71245,16.0557958 C368.04153,16.4418832 367.375397,16.9630859 366.714053,17.619404 C366.052708,18.2757221 365.56868,19.1154308 365.261968,20.13853 L365.261968,20.13853 L381.594243,20.13853 C381.47923,19.6559493 381.292328,19.1974872 381.033537,18.7631436 C380.774745,18.3288001 380.47283,17.9282378 380.127794,17.5614567 C379.782757,17.1946756 379.423336,16.8761696 379.049532,16.6059389 C378.675728,16.3357082 378.316298,16.1233677 377.971242,15.9689176 L377.971242,15.9689176 L379.43772,13.623548 C379.476045,13.5849355 379.480833,13.5270167 379.452085,13.4497916 C379.423336,13.3725665 379.313122,13.2857073 379.121441,13.189214 C378.91055,13.0733764 378.752396,13.0154576 378.64698,13.0154576 C378.541563,13.0154576 378.469682,13.0347638 378.431339,13.0733764 L378.431339,13.0733764 L376.907374,15.4766933 C375.776385,14.9361747 374.559132,14.6659155 373.255615,14.6659155 C372.623038,14.6659155 372.009624,14.7334779 371.415371,14.8686028 C370.821119,15.0037277 370.255625,15.1967713 369.718888,15.4477338 L369.718888,15.4477338 L368.223625,13.0733764 C368.1853,13.0347448 368.099045,13.0106072 367.964861,13.0009636 Z M369.948866,16.6638577 C370.198043,16.6638577 370.408905,16.7507264 370.581452,16.9244638 C370.753999,17.0982013 370.840263,17.3105417 370.840244,17.5614852 C370.840225,17.8124287 370.753961,18.0247691 370.581452,18.1985065 C370.408943,18.3722439 370.198081,18.4591127 369.948866,18.4591127 C369.699612,18.4591127 369.48875,18.3722439 369.316279,18.1985065 C369.143808,18.0247691 369.057553,17.8124287 369.057516,17.5614852 C369.057478,17.3105417 369.143732,17.0982013 369.316279,16.9244638 C369.488826,16.7507264 369.699688,16.6638577 369.948866,16.6638577 Z M377.022377,16.5480486 C377.271611,16.5480676 377.482473,16.6349268 377.654963,16.8086262 C377.827453,16.9823256 377.913708,17.194666 377.913727,17.4456476 C377.913746,17.6966291 377.827491,17.908979 377.654963,18.0826974 C377.482435,18.2564158 377.271573,18.343275 377.022377,18.343275 C376.773142,18.3433131 376.562271,18.2564539 376.389762,18.0826974 C376.217253,17.908941 376.130998,17.696591 376.130998,17.4456476 C376.130998,17.1947041 376.217253,16.9823636 376.389762,16.8086262 C376.562271,16.6348888 376.773142,16.5480296 377.022377,16.5480486 Z" id="形状结合备份-2" fill="url(#linearGradient-2)"></path>
                                <path d="M139,20.13853 L260.569668,20.13853 L251.587045,12" id="路径-9" stroke="#3695FF" stroke-width="2" stroke-dasharray="5"></path>
                                <path d="M139,38.13853 L260.569668,38.13853 L251.587045,30" id="路径-9备份" stroke="#4CD6CC" stroke-width="2" stroke-dasharray="5" transform="translate(199.784834, 34.069265) scale(-1, -1) translate(-199.784834, -34.069265) "></path>
                                <line x1="251.957566" y1="12.4194769" x2="260.569668" y2="20.13853" id="路径-10" stroke="#3695FF" stroke-width="2"></line>
                                <line x1="139" y1="30" x2="147.612102" y2="37.7190531" id="路径-10备份" stroke="#4CD6CC" stroke-width="2"></line>
                            </g>
                        </g>
                    </g>
                </g>
            </g>
        </g>
    </g>
</svg>