<?xml version="1.0" encoding="UTF-8"?>
<svg width="21px" height="20px" viewBox="0 0 21 20" version="1.1" xmlns="http://www.w3.org/2000/svg" xmlns:xlink="http://www.w3.org/1999/xlink">
    <!-- Generator: Sketch 62 (91390) - https://sketch.com -->
    <title>形状结合</title>
    <desc>Created with Sketch.</desc>
    <g id="页面-1" stroke="none" stroke-width="1" fill="none" fill-rule="evenodd">
        <g id="同步助手web-导航条上滑" transform="translate(-360.000000, -5048.000000)" fill="#1890FF">
            <g id="banner备份-6" transform="translate(0.000000, 4906.000000)">
                <g id="编组-10" transform="translate(360.000000, 59.000000)">
                    <g id="编组-7" transform="translate(0.000000, 79.000000)">
                        <path d="M10,4 C15.5228475,4 20,8.4771525 20,14 C20,16.1729382 19.3069405,18.1840036 18.1298144,19.8242034 L19.9230114,22.4334712 C20.2358967,22.888577 20.1206041,23.5111567 19.6654983,23.8240419 C19.4988,23.9386471 19.3012631,24 19.0989695,24 L10,24 C4.4771525,24 0,19.5228475 0,14 C0,8.4771525 4.4771525,4 10,4 Z M9.888,17.584 C9.536,17.584 9.248,17.696 9.008,17.92 C8.768,18.144 8.656,18.432 8.656,18.784 C8.656,19.136 8.768,19.424 9.008,19.648 C9.248,19.872 9.536,20 9.888,20 C10.24,20 10.528,19.888 10.768,19.664 C11.008,19.44 11.136,19.136 11.136,18.784 C11.136,18.432 11.008,18.144 10.784,17.92 C10.544,17.696 10.24,17.584 9.888,17.584 Z M10.176,8.352 C8.992,8.352 8.064,8.688 7.376,9.36 C6.672,10.032 6.336,10.96 6.336,12.144 L8.16,12.144 C8.16,11.472 8.288,10.944 8.56,10.576 C8.864,10.128 9.36,9.92 10.064,9.92 C10.608,9.92 11.04,10.064 11.344,10.368 C11.632,10.672 11.792,11.088 11.792,11.616 C11.792,12.016 11.648,12.4 11.36,12.752 L11.168,12.976 C10.128,13.904 9.504,14.576 9.296,15.008 C9.072,15.44 8.976,15.968 8.976,16.576 L8.976,16.8 L10.816,16.8 L10.816,16.576 C10.816,16.192 10.896,15.856 11.056,15.536 C11.2,15.248 11.408,14.976 11.696,14.736 C12.464,14.064 12.928,13.632 13.072,13.472 C13.456,12.96 13.664,12.304 13.664,11.504 C13.664,10.528 13.344,9.76 12.704,9.2 C12.064,8.624 11.216,8.352 10.176,8.352 Z" id="形状结合"></path>
                    </g>
                </g>
            </g>
        </g>
    </g>
</svg>