<?xml version="1.0" encoding="UTF-8"?>
<svg width="497px" height="324px" viewBox="0 0 497 324" version="1.1" xmlns="http://www.w3.org/2000/svg" xmlns:xlink="http://www.w3.org/1999/xlink">
    <!-- Generator: Sketch 62 (91390) - https://sketch.com -->
    <title>配图1</title>
    <desc>Created with Sketch.</desc>
    <defs>
        <linearGradient x1="-25.7062592%" y1="16.4161209%" x2="137.025067%" y2="85.2724831%" id="linearGradient-1">
            <stop stop-color="#44CAE0" offset="0%"></stop>
            <stop stop-color="#68FF87" offset="100%"></stop>
        </linearGradient>
        <linearGradient x1="11.1396679%" y1="32.8707763%" x2="116.101997%" y2="90.074746%" id="linearGradient-2">
            <stop stop-color="#4DCCFF" offset="0%"></stop>
            <stop stop-color="#4489FF" offset="100%"></stop>
        </linearGradient>
        <path d="M243,282 C242.650153,282 242.321285,281.910174 242.035204,281.752327 C198.940411,278.474806 165,242.677273 165,199 C165,156.270377 197.483603,121.082276 239.243283,116.504254 C252.223686,71.7310151 293.539474,39 342.5,39 C393.852023,39 436.794248,75.0066267 447.45707,123.150276 C476.648684,136.081788 497,165.178473 497,199 C497,244.839634 459.615777,282 413.5,282 C412.7781,282 412.05834,281.990894 411.34083,281.972791 C411.230803,281.990028 411.116566,282 411,282 L243,282 Z" id="path-3"></path>
        <filter x="-30.3%" y="-41.4%" width="160.5%" height="182.7%" filterUnits="objectBoundingBox" id="filter-4">
            <feGaussianBlur stdDeviation="100" in="SourceAlpha" result="shadowBlurInner1"></feGaussianBlur>
            <feOffset dx="0" dy="1" in="shadowBlurInner1" result="shadowOffsetInner1"></feOffset>
            <feComposite in="shadowOffsetInner1" in2="SourceAlpha" operator="arithmetic" k2="-1" k3="1" result="shadowInnerInner1"></feComposite>
            <feColorMatrix values="0 0 0 0 1   0 0 0 0 1   0 0 0 0 1  0 0 0 0.5 0" type="matrix" in="shadowInnerInner1"></feColorMatrix>
        </filter>
        <linearGradient x1="-25.7062592%" y1="-14.5274022%" x2="137.025067%" y2="117.771853%" id="linearGradient-5">
            <stop stop-color="#44CAE0" offset="0%"></stop>
            <stop stop-color="#68FF87" offset="100%"></stop>
        </linearGradient>
        <filter x="-29.4%" y="-59.2%" width="158.8%" height="214.7%" filterUnits="objectBoundingBox" id="filter-6">
            <feOffset dx="6" dy="23" in="SourceAlpha" result="shadowOffsetOuter1"></feOffset>
            <feGaussianBlur stdDeviation="12" in="shadowOffsetOuter1" result="shadowBlurOuter1"></feGaussianBlur>
            <feColorMatrix values="0 0 0 0 0.396078431   0 0 0 0 0.647058824   0 0 0 0 0.929411765  0 0 0 0.124535621 0" type="matrix" in="shadowBlurOuter1" result="shadowMatrixOuter1"></feColorMatrix>
            <feMerge>
                <feMergeNode in="shadowMatrixOuter1"></feMergeNode>
                <feMergeNode in="SourceGraphic"></feMergeNode>
            </feMerge>
        </filter>
        <linearGradient x1="19.3428795%" y1="-14.5274022%" x2="85.2406524%" y2="117.771853%" id="linearGradient-7">
            <stop stop-color="#44CAE0" offset="0%"></stop>
            <stop stop-color="#68FF87" offset="100%"></stop>
        </linearGradient>
        <linearGradient x1="23.6832766%" y1="-14.5274022%" x2="80.2513245%" y2="117.771853%" id="linearGradient-8">
            <stop stop-color="#44CAE0" offset="0%"></stop>
            <stop stop-color="#68FF87" offset="100%"></stop>
        </linearGradient>
        <filter x="-83.5%" y="-48.8%" width="267.0%" height="197.6%" filterUnits="objectBoundingBox" id="filter-9">
            <feOffset dx="0" dy="12" in="SourceAlpha" result="shadowOffsetOuter1"></feOffset>
            <feGaussianBlur stdDeviation="15" in="shadowOffsetOuter1" result="shadowBlurOuter1"></feGaussianBlur>
            <feColorMatrix values="0 0 0 0 0   0 0 0 0 0   0 0 0 0 0  0 0 0 0.0508085664 0" type="matrix" in="shadowBlurOuter1" result="shadowMatrixOuter1"></feColorMatrix>
            <feMerge>
                <feMergeNode in="shadowMatrixOuter1"></feMergeNode>
                <feMergeNode in="SourceGraphic"></feMergeNode>
            </feMerge>
        </filter>
        <linearGradient x1="19.1189323%" y1="-49.4870446%" x2="73.6931433%" y2="146.905997%" id="linearGradient-10">
            <stop stop-color="#FFFFFF" offset="0%"></stop>
            <stop stop-color="#FEFFFF" offset="0%"></stop>
            <stop stop-color="#E6EFFF" offset="100%"></stop>
        </linearGradient>
    </defs>
    <g id="页面-1" stroke="none" stroke-width="1" fill="none" fill-rule="evenodd">
        <g id="同步助手web-竞品词" transform="translate(-394.000000, -1241.000000)">
            <g id="配图1" transform="translate(394.000000, 1241.000000)">
                <path d="M33.2,151 C33.0291369,151 32.8666144,150.96429 32.7194886,150.899926 C14.4128802,149.581766 0,135.355505 0,118 C0,101.169214 13.5545477,87.2813171 31.0698762,85.2544574 C35.5715638,65.0873463 53.7542857,50 75.5,50 C98.4149481,50 117.37345,66.7534117 120.536279,88.5511105 C132.085041,93.9957729 140,105.13866 140,118 C140,133.511174 128.487608,146.522841 112.972305,150.054356 C112.856507,150.594771 112.375577,151 111.8,151 L33.2,151 Z" id="形状结合备份-7" fill="url(#linearGradient-1)" opacity="0.100000001"></path>
                <g id="形状结合" opacity="0.08">
                    <use fill="url(#linearGradient-2)" fill-rule="evenodd" xlink:href="#path-3"></use>
                    <use fill="black" fill-opacity="1" filter="url(#filter-4)" xlink:href="#path-3"></use>
                </g>
                <rect id="矩形" fill="url(#linearGradient-5)" opacity="0.100000001" x="77" y="252" width="30" height="30" rx="15"></rect>
                <rect id="矩形备份-10" fill="url(#linearGradient-5)" opacity="0.100000001" x="0" y="250" width="15" height="15" rx="7.5"></rect>
                <g id="编组-27" transform="translate(69.000000, 73.000000)">
                    <g id="编组-17" filter="url(#filter-6)">
                        <rect id="矩形" stroke="#78B7FF" stroke-width="10.8" fill="#DAEBFF" x="32" y="0" width="243" height="145.8" rx="3.6"></rect>
                        <g id="social-whatsapp备份-2" transform="translate(129.000000, 46.000000)">
                            <path d="M0,53 L3.39111054,40.4182292 C1.29605129,36.7274166 0.195655007,32.5404226 0.200895144,28.2795 C0.205917539,14.8912708 10.927693,4 24.1003896,4 C30.4938786,4.0030625 36.493613,6.53166668 41.0057186,11.1203125 C45.5011498,15.6673214 48.0196855,21.8531738 48,28.2988958 C47.9938573,41.6861041 37.2720818,52.5794166 24.1003896,52.5794167 L24.0903449,52.5794167 C20.090522,52.577375 16.1600078,51.5585834 12.6694542,49.6241042 L0,53 Z" id="路径备份-2" fill="#78B7FF" opacity="0.800000012"></path>
                            <path d="M1,49 L4.39111054,36.4182292 C2.29605129,32.7274166 1.19565501,28.5404226 1.20089514,24.2795 C1.20591754,10.8912708 11.927693,0 25.1003896,0 C31.4938786,0.0030625 37.493613,2.53166668 42.0057186,7.1203125 C46.5011498,11.6673214 49.0196855,17.8531738 49,24.2988958 C48.9938573,37.6861041 38.2720818,48.5794166 25.1003896,48.5794167 L25.0903449,48.5794167 C21.090522,48.577375 17.1600078,47.5585834 13.6694542,45.6241042 L1,49 Z" id="路径" fill="#FFFFFF"></path>
                            <path d="M18.8465842,15.0666818 C18.3877673,13.8789726 17.9213351,14.0400005 17.5738908,14.0205131 C17.2435806,14.0030769 16.8666273,14 16.4887221,14 C16.1108169,14 15.4987436,14.151797 14.9799569,14.7620621 C14.4611701,15.3723272 13,16.84722 13,19.8472626 C13,22.8483309 15.027552,25.7468337 15.310267,26.1529933 C15.592982,26.5601786 19.3006416,32.7171892 24.9777872,35.3572268 C26.3275848,35.9849281 27.3813407,36.360318 28.2037843,36.6413476 C29.5592933,37.104944 30.7929587,37.0403277 31.7677067,36.8834024 C32.8547792,36.7080153 35.1155472,35.4085096 35.5876908,33.9848996 C36.0588825,32.560264 36.0588825,31.3397338 35.9180009,31.0853712 C35.7761675,30.8320343 35.3992141,30.6792116 34.8328322,30.3735662 C34.2674023,30.0689465 31.4849917,28.5940537 30.9662049,28.3909739 C30.4474181,28.1868685 30.0704648,28.0853286 29.6925596,28.6955936 C29.3156062,29.3058587 28.2313894,30.6792116 27.9010794,31.0853712 C27.5707692,31.4925564 27.2404591,31.5438392 26.6750291,31.2392195 C26.1086472,30.9335742 24.2857542,30.2894624 22.1249359,28.2135355 C20.4419726,26.5971022 19.306353,24.6001508 18.9760429,23.9898856 C18.6457328,23.3796206 18.9408225,23.0503851 19.2235375,22.7457654 C19.4786474,22.472941 19.7899194,22.0339604 20.0726344,21.6790835 C20.3563013,21.3221554 20.4505396,21.0677928 20.6390163,20.6616332 C20.827493,20.2544479 20.7332547,19.8985454 20.5914212,19.5929 C20.4505397,19.2882803 19.3187278,16.2882376 18.8465842,15.0677075 L18.8465842,15.0666818 Z" id="路径" fill="#50A2FF"></path>
                        </g>
                        <path d="M7.74800939,145.8 L297.588976,145.8 C299.577201,145.8 301.188976,147.411775 301.188976,149.4 C301.188976,150.459866 300.721939,151.46588 299.912349,152.149898 L291.65509,159.12641 C289.056236,161.322167 285.76386,162.52682 282.361597,162.52682 L14.1140014,162.52682 L14.1140014,162.52682 L4.99662063,151.721607 C3.71443239,150.202057 3.90685215,147.930799 5.4264022,146.648611 C6.07586067,146.100602 6.89823834,145.8 7.74800939,145.8 Z" id="路径-21" fill="#65A5ED"></path>
                    </g>
                </g>
                <path d="M110.702841,64.5172472 L132.505218,64.5172472 C135.266641,64.5172472 137.505218,66.7558234 137.505218,69.5172472 C137.505218,70.6965738 137.088359,71.8379436 136.328299,72.739676 L61.6292222,161.362476 C59.8495239,163.473906 56.6951415,163.742827 54.5837119,161.963129 C52.9366607,160.57485 52.3638731,158.287765 53.1621725,156.287061 L72.8221839,107.015001 C73.8455601,104.450208 72.5959951,101.541423 70.0312023,100.518046 C69.4417338,100.282843 68.812876,100.162015 68.1782157,100.162015 L45,100.162015 C42.2385763,100.162015 40,97.9234383 40,95.1620145 C40,94.5591321 40.109033,93.9612193 40.3218351,93.3971426 L74.3361138,3.2351281 C75.0705141,1.28844512 76.9336734,-5.05977422e-16 79.0142787,0 L138.815133,0 C141.576557,-6.72451425e-15 143.815133,2.23857625 143.815133,5 C143.815133,6.0756172 143.468271,7.12256021 142.826041,7.98540055 L106.691933,56.5318466 C105.043142,58.74701 105.502277,61.8793641 107.717441,63.5281553 C108.580281,64.1703849 109.627224,64.5172472 110.702841,64.5172472 Z" id="形状" fill="url(#linearGradient-7)" fill-rule="nonzero"></path>
                <path d="M445.858152,184.31948 C447.739316,184.31948 449.264301,185.844465 449.264301,187.725629 C449.264301,188.522987 448.984567,189.295075 448.473832,189.907388 L428.47457,213.884222 C427.576341,214.961096 425.975203,215.105917 424.898329,214.207687 C424.057174,213.506074 423.760766,212.344131 424.163046,211.325321 L427.581942,202.666666 C428.474415,200.4064 427.365599,197.850599 425.105333,196.958126 C424.590796,196.75496 424.042562,196.650643 423.489367,196.650643 C421.009958,196.650643 419,194.640685 419,192.161276 C419,191.62516 419.096028,191.093378 419.283534,190.591122 L428.743605,165.251253 C429.473499,163.296148 431.340914,162 433.427821,162 L445.128579,162 C447.890003,162 450.128579,164.238576 450.128579,167 C450.128579,168.067055 449.78721,169.106125 449.154387,169.965277 L442.89698,178.460643 C441.692392,180.096053 442.041641,182.398327 443.677051,183.602916 C444.308997,184.068387 445.073282,184.31948 445.858152,184.31948 Z" id="形状备份" fill="url(#linearGradient-8)" fill-rule="nonzero"></path>
                <g id="编组-21" filter="url(#filter-9)" transform="translate(310.000000, 116.000000)">
                    <path d="M13.1746032,0 L82.868254,0 C90.1443864,4.39752998e-16 96.0428571,5.89847076 96.0428571,13.1746032 L96.0428571,152.430159 C96.0428571,159.706291 90.1443864,165.604762 82.868254,165.604762 L13.1746032,165.604762 C5.89847076,165.604762 2.66742607e-15,159.706291 0,152.430159 L0,13.1746032 C8.85287612e-16,5.89847076 5.89847076,8.4420312e-15 13.1746032,0 Z" id="矩形" fill="#676669"></path>
                    <path d="M12.2698413,9 L21.3627285,9 C23.3536256,9 25.1197051,10.2777729 25.742453,12.1687663 L26.2452132,13.6954132 C27.1348531,16.3968324 29.6578239,18.2222222 32.5019626,18.2222222 L61.9507525,18.2222222 C64.7809004,18.2222222 67.2645297,16.3370152 68.0255711,13.6111111 L68.3717514,12.3711595 C68.9281449,10.3782651 70.7439134,9 72.8130199,9 L83.5444444,9 C86.4548974,9 88.8142857,11.3593883 88.8142857,14.2698413 L88.8142857,151.285714 C88.8142857,154.196167 86.4548974,156.555556 83.5444444,156.555556 L12.2698413,156.555556 C9.3593883,156.555556 7,154.196167 7,151.285714 L7,14.2698413 C7,11.3593883 9.3593883,9 12.2698413,9 Z" id="矩形" fill="url(#linearGradient-10)"></path>
                    <g id="social-whatsapp" transform="translate(33.000000, 65.000000)">
                        <path d="M0,35 L2.19009222,26.7833333 C0.837033127,24.3730067 0.126360525,21.6386433 0.12974478,18.856 C0.13298841,10.1126667 7.05746841,3 15.564835,3 C19.6939633,3.002 23.5687917,4.65333334 26.4828599,7.65 C29.3861592,10.6194752 31.0127136,14.6592156 31,18.8686667 C30.9960328,27.6113333 24.0715528,34.7253333 15.564835,34.7253333 L15.5583477,34.7253333 C12.9751288,34.724 10.4366717,34.0586667 8.18235583,32.7953333 L0,35 Z" id="路径备份-2" fill="#78B7FF" opacity="0.800000012"></path>
                        <path d="M0,32 L2.19009222,23.7833333 C0.837033127,21.3730067 0.126360525,18.6386433 0.12974478,15.856 C0.13298841,7.11266666 7.05746841,0 15.564835,0 C19.6939633,0.002 23.5687917,1.65333334 26.4828599,4.65 C29.3861592,7.61947517 31.0127136,11.6592156 31,15.8686667 C30.9960328,24.6113333 24.0715528,31.7253333 15.564835,31.7253333 L15.5583477,31.7253333 C12.9751288,31.724 10.4366717,31.0586667 8.18235583,29.7953333 L0,32 Z" id="路径" fill="#FFFFFF"></path>
                        <path d="M11.8129897,9.69566205 C11.5137613,8.92106909 11.2095664,9.0260873 10.9829722,9.0133781 C10.7675526,9.00200669 10.5217135,9 10.2752535,9 C10.0287936,9 9.6296154,9.09899805 9.29127622,9.49699701 C8.95293701,9.89499598 8,10.8568826 8,12.8134322 C8,14.7706506 9.32231652,16.6609785 9.50669587,16.9258652 C9.69107522,17.1914208 12.1091141,21.2068625 15.8116004,22.9286262 C16.6919031,23.3379966 17.3791352,23.5828161 17.9155115,23.7660963 C18.7995391,24.0684417 19.6041035,24.0263007 20.2398087,23.9239581 C20.948769,23.8095752 22.423183,22.9620715 22.7311027,22.0336302 C23.0384016,21.10452 23.0384016,20.308522 22.9465223,20.1426334 C22.8540223,19.9774136 22.6081831,19.8777467 22.2388036,19.6784127 C21.8700449,19.4797477 20.0554294,18.5178611 19.7170902,18.3854178 C19.3787509,18.2523055 19.1329118,18.1860838 18.8864519,18.5840828 C18.6406128,18.9820818 17.9335149,19.8777467 17.7180952,20.1426334 C17.5026756,20.408189 17.287256,20.4416343 16.9184972,20.2429693 C16.5491178,20.0436353 15.3602745,19.6235624 13.9510452,18.269697 C12.8534604,17.2155015 12.1128389,15.9131418 11.8974193,15.5151428 C11.6819996,15.1171438 11.8744495,14.9024251 12.0588288,14.70376 C12.2252048,14.5258311 12.4282083,14.2395394 12.6125877,14.008098 C12.7975878,13.7753187 12.8590476,13.6094301 12.9819672,13.3445434 C13.1048867,13.0789878 13.043427,12.8468775 12.9509269,12.6475435 C12.8590476,12.4488785 12.1209094,10.4923289 11.8129897,9.69633097 L11.8129897,9.69566205 Z" id="路径" fill="#50A2FF"></path>
                    </g>
                </g>
            </g>
        </g>
    </g>
</svg>