<?xml version="1.0" encoding="UTF-8"?>
<svg width="1920px" height="432px" viewBox="0 0 1920 432" version="1.1" xmlns="http://www.w3.org/2000/svg" xmlns:xlink="http://www.w3.org/1999/xlink">
    <!-- Generator: Sketch 62 (91390) - https://sketch.com -->
    <title>banner1背景</title>
    <desc>Created with Sketch.</desc>
    <defs>
        <rect id="path-1" x="0" y="0" width="1920" height="432"></rect>
        <linearGradient x1="-25.7062592%" y1="17.5861719%" x2="137.025067%" y2="84.0436017%" id="linearGradient-3">
            <stop stop-color="#44CAE0" offset="0%"></stop>
            <stop stop-color="#68FF87" offset="100%"></stop>
        </linearGradient>
        <path d="M1917,702 C1916.53569,702 1916.10834,701.841782 1915.76892,701.576321 C1790.39713,694.220219 1691,590.217832 1691,463 C1691,337.710504 1787.4067,234.937999 1910.08463,224.817945 C1947.38525,94.9800176 2066.86857,0 2208.5,0 C2358.45728,0 2483.58595,106.475104 2512.63862,248.063198 C2592.18894,286.861262 2647,368.529726 2647,463 C2647,566.561843 2581.13155,654.739285 2489.00358,687.92341 L2489,700 C2489,701.104569 2488.10457,702 2487,702 L1917,702 Z" id="path-4"></path>
        <filter x="-10.5%" y="-14.3%" width="121.0%" height="128.6%" filterUnits="objectBoundingBox" id="filter-5">
            <feGaussianBlur stdDeviation="100" in="SourceAlpha" result="shadowBlurInner1"></feGaussianBlur>
            <feOffset dx="0" dy="1" in="shadowBlurInner1" result="shadowOffsetInner1"></feOffset>
            <feComposite in="shadowOffsetInner1" in2="SourceAlpha" operator="arithmetic" k2="-1" k3="1" result="shadowInnerInner1"></feComposite>
            <feColorMatrix values="0 0 0 0 1   0 0 0 0 1   0 0 0 0 1  0 0 0 0.5 0" type="matrix" in="shadowInnerInner1"></feColorMatrix>
        </filter>
        <linearGradient x1="-3.03198159%" y1="-49.795707%" x2="94.4609845%" y2="135.832867%" id="linearGradient-6">
            <stop stop-color="#D982FF" offset="0%"></stop>
            <stop stop-color="#6E7AEF" offset="100%"></stop>
        </linearGradient>
        <linearGradient x1="-50.7568913%" y1="-35.3877018%" x2="134.472623%" y2="123.440746%" id="linearGradient-7">
            <stop stop-color="#D982FF" offset="0%"></stop>
            <stop stop-color="#6E7AEF" offset="100%"></stop>
        </linearGradient>
        <linearGradient x1="-10.4717763%" y1="0.917694904%" x2="119.973741%" y2="101.713935%" id="linearGradient-8">
            <stop stop-color="#F7D822" offset="0%"></stop>
            <stop stop-color="#FFBB1E" offset="100%"></stop>
        </linearGradient>
        <filter x="-65.8%" y="-37.7%" width="231.6%" height="175.5%" filterUnits="objectBoundingBox" id="filter-9">
            <feOffset dx="0" dy="18" in="SourceAlpha" result="shadowOffsetOuter1"></feOffset>
            <feGaussianBlur stdDeviation="23" in="shadowOffsetOuter1" result="shadowBlurOuter1"></feGaussianBlur>
            <feColorMatrix values="0 0 0 0 0   0 0 0 0 0   0 0 0 0 0  0 0 0 0.0508085664 0" type="matrix" in="shadowBlurOuter1" result="shadowMatrixOuter1"></feColorMatrix>
            <feMerge>
                <feMergeNode in="shadowMatrixOuter1"></feMergeNode>
                <feMergeNode in="SourceGraphic"></feMergeNode>
            </feMerge>
        </filter>
        <linearGradient x1="69.622553%" y1="-4.72526475%" x2="50%" y2="100%" id="linearGradient-10">
            <stop stop-color="#EDEEFF" offset="0%"></stop>
            <stop stop-color="#D7D8FF" offset="100%"></stop>
        </linearGradient>
        <linearGradient x1="140.252397%" y1="49.1926612%" x2="-16.6782108%" y2="52.0097592%" id="linearGradient-11">
            <stop stop-color="#44CAE0" offset="0%"></stop>
            <stop stop-color="#BAF9C7" stop-opacity="0" offset="100%"></stop>
        </linearGradient>
        <linearGradient x1="-25.7062592%" y1="17.847938%" x2="137.025067%" y2="83.768674%" id="linearGradient-12">
            <stop stop-color="#44CAE0" offset="0%"></stop>
            <stop stop-color="#68FF87" offset="100%"></stop>
        </linearGradient>
        <linearGradient x1="-50.7568913%" y1="-49.795707%" x2="134.472623%" y2="135.832867%" id="linearGradient-13">
            <stop stop-color="#68DAFF" offset="0%"></stop>
            <stop stop-color="#4589FC" offset="100%"></stop>
        </linearGradient>
        <filter x="-85.7%" y="-49.7%" width="271.4%" height="199.3%" filterUnits="objectBoundingBox" id="filter-14">
            <feOffset dx="0" dy="22" in="SourceAlpha" result="shadowOffsetOuter1"></feOffset>
            <feGaussianBlur stdDeviation="28" in="shadowOffsetOuter1" result="shadowBlurOuter1"></feGaussianBlur>
            <feColorMatrix values="0 0 0 0 0   0 0 0 0 0   0 0 0 0 0  0 0 0 0.0508085664 0" type="matrix" in="shadowBlurOuter1" result="shadowMatrixOuter1"></feColorMatrix>
            <feMerge>
                <feMergeNode in="shadowMatrixOuter1"></feMergeNode>
                <feMergeNode in="SourceGraphic"></feMergeNode>
            </feMerge>
        </filter>
        <linearGradient x1="19.1189323%" y1="-49.4870446%" x2="73.6931433%" y2="146.905997%" id="linearGradient-15">
            <stop stop-color="#FFFFFF" offset="0%"></stop>
            <stop stop-color="#FEFFFF" offset="0%"></stop>
            <stop stop-color="#E6EFFF" offset="100%"></stop>
        </linearGradient>
        <linearGradient x1="-48.2456127%" y1="50.4612435%" x2="180.501259%" y2="49.117115%" id="linearGradient-16">
            <stop stop-color="#66C7FF" stop-opacity="0.805179196" offset="0%"></stop>
            <stop stop-color="#3695FF" offset="100%"></stop>
        </linearGradient>
    </defs>
    <g id="页面-1" stroke="none" stroke-width="1" fill="none" fill-rule="evenodd">
        <g id="同步助手web-关于我们" transform="translate(0.000000, -70.000000)">
            <g id="banner" transform="translate(0.000000, 70.000000)">
                <g id="banner1背景">
                    <mask id="mask-2" fill="white">
                        <use xlink:href="#path-1"></use>
                    </mask>
                    <use id="矩形" fill="#4ABBFF" xlink:href="#path-1"></use>
                    <g id="编组-9" mask="url(#mask-2)">
                        <g transform="translate(-306.000000, -17.000000)">
                            <path d="M178.2,876 C177.537258,876 177,875.462742 177,874.8 L176.998405,874.581764 C77.2338071,863.181182 0,784.44029 0,689 C0,595.262054 74.5031796,517.633093 171.681793,504.092269 C198.400361,392.32715 302.121594,309 426,309 C555.514436,309 662.995815,400.081814 683.481595,519.522989 C752.313834,549.323434 800,614.006395 800,689 C800,776.96513 734.390756,850.74431 646.002226,870.688023 L646,874.8 C646,875.462742 645.462742,876 644.8,876 L178.2,876 Z" id="形状结合备份-7" stroke="none" fill="url(#linearGradient-3)" fill-rule="evenodd" opacity="0.300000012"></path>
                            <g id="形状结合" stroke="none" fill="none" opacity="0.879999995">
                                <use fill="#FFFFFF" fill-rule="evenodd" xlink:href="#path-4"></use>
                                <use fill="black" fill-opacity="1" filter="url(#filter-5)" xlink:href="#path-4"></use>
                            </g>
                            <g id="语音-(2)" stroke="none" stroke-width="1" fill="none" fill-rule="evenodd" transform="translate(2070.000000, 281.400000)">
                                <path d="M41.4832968,27.6 C43.0941475,27.6 44.4,28.8977813 44.4,30.4986758 C44.4,41.6808006 35.9833669,50.9401371 25.1167032,52.3653194 L25.1167032,52.3653194 L25.1167032,55.4026485 L41.4832968,55.4026485 C43.0941475,55.4026485 44.4,56.7004298 44.4,58.3013242 C44.4,59.9022187 43.0941475,61.2 41.4832968,61.2 L41.4832968,61.2 L2.91670318,61.2 C1.30585249,61.2 0,59.9022187 0,58.3013242 C0,56.7004298 1.30585249,55.4026485 2.91670318,55.4026485 L2.91670318,55.4026485 L19.2832968,55.4026485 L19.2832968,52.3653194 C8.41711929,50.9406203 0,41.6808005 0,30.4986758 C0,28.8979533 1.30602552,27.6004403 2.91670321,27.6004403 C4.5273809,27.6004403 5.83316172,28.8979533 5.83340635,30.4986758 C5.83340635,39.4671786 13.1752343,46.7641117 22.1995139,46.7641117 C31.2242796,46.7641116 38.5665936,39.4671785 38.5665936,30.4986758 C38.5665936,28.8977813 39.8724461,27.6 41.4832968,27.6 Z M21.0002479,0 C27.2860044,0 32.4,5.15257426 32.4,11.485749 L32.4,11.485749 L32.4,30.5142511 C32.4,36.8479254 27.2860044,42 21.0002479,42 C14.7134997,42 9.6,36.8479254 9.6,30.5142511 L9.6,30.5142511 L9.6,11.485749 C9.6,5.15257426 14.7134996,0 21.0002479,0 Z" id="形状结合" fill="url(#linearGradient-6)" fill-rule="nonzero"></path>
                            </g>
                            <path d="M1997.84211,136 L1964.15789,136 C1962.36842,136 1961,137.418879 1961,139.274336 L1961,169.725664 C1961,171.471976 1962.36842,173 1964.15789,173 L1997.84211,173 C1999.52632,173 2001,171.471976 2001,169.725664 L2001,139.274336 C2001,137.528024 1999.63158,136 1997.84211,136 Z M1971.5,142 C1973.35937,142 1975,143.53125 1975,145.5 C1975,147.46875 1973.46875,149 1971.5,149 C1969.64063,149 1968,147.46875 1968,145.5 C1968,143.53125 1969.64062,142 1971.5,142 Z M1969.42408,168 C1969.11072,168 1968.79736,167.890338 1968.48399,167.671013 C1967.85727,167.122701 1967.85727,166.355065 1968.37954,165.697091 L1974.8557,156.156469 C1975.37797,155.608158 1976.10915,155.498495 1976.73588,155.937145 L1982.37641,160.104313 L1992.50847,148.699432 C1993.03074,148.15112 1995.53764,145.2999 1997,148.480107 L1997,167.890338 C1997,168 1969.42408,168 1969.42408,168 L1969.42408,168 Z" id="形状" stroke="none" fill="url(#linearGradient-7)" fill-rule="nonzero"></path>
                            <path d="M1803.85584,213.233642 C1803.85584,212.274753 1803.56753,212 1802.56133,212 L1759.44155,212 C1758.43535,212 1758,212.274753 1758,213.373766 L1758,234.878702 C1758,237.755368 1759.29452,239 1762.16898,239 L1799.83102,239 C1802.71413,239 1804,237.766358 1804,235.027068 C1803.85584,227.616974 1803.85584,220.492622 1803.85584,213.233642 L1803.85584,213.233642 Z M1759.30317,209 L1801.55512,209 C1804,209 1804,209 1804,206.856091 C1804,204.318238 1802.84676,203.372238 1800.25196,203.372238 L1782.01341,203.372238 C1779.70693,203.372238 1779.70693,203.372238 1779.70693,201.228329 C1779.70693,198.955786 1778.55368,198.012466 1776.11457,198.012466 L1761.74804,198.012466 C1759.15324,197.878471 1758.15569,198.816431 1758,201.228329 L1758,207.799411 C1758.02018,208.868686 1758.30849,209 1759.30317,209 Z" id="形状" stroke="none" fill="url(#linearGradient-8)" fill-rule="nonzero" opacity="0.889999986"></path>
                            <g id="编组-21备份" filter="url(#filter-9)" stroke="none" stroke-width="1" fill="none" fill-rule="evenodd" transform="translate(1853.000000, 205.000000)">
                                <path d="M10.8,0 L176.2,0 C182.164675,-1.87651376e-14 187,4.8353247 187,10.8 L187,315.2 C187,321.164675 182.164675,326 176.2,326 L10.8,326 C4.8353247,326 -2.82225163e-15,321.164675 0,315.2 L0,10.8 C-7.30462051e-16,4.8353247 4.8353247,1.17538341e-14 10.8,0 Z" id="矩形" fill="#7C7FF4"></path>
                                <path d="M18.4,22 L168.6,22 C171.582338,22 174,24.4176624 174,27.4 L174,273.6 C174,276.582338 171.582338,279 168.6,279 L18.4,279 C15.4176624,279 13,276.582338 13,273.6 L13,27.4 C13,24.4176624 15.4176624,22 18.4,22 Z" id="矩形" fill="url(#linearGradient-10)"></path>
                                <g id="social-whatsapp备份" transform="translate(62.000000, 82.000000)">
                                    <path d="M0,70 L4.4084437,53.6237269 C1.68486668,48.819812 0.254351509,43.3700739 0.261163687,37.8241111 C0.2676928,20.398162 14.2060009,6.22222222 31.3305065,6.22222222 C39.6420422,6.22620833 47.4416969,9.51740743 53.3074342,15.4899306 C59.1514947,21.4082595 62.4255912,29.4596866 62.4,37.8493565 C62.3920144,55.2739768 48.4537063,69.452574 31.3305065,69.4525741 L31.3174484,69.4525741 C26.1176786,69.4499167 21.0080102,68.1238704 16.4702904,65.6059769 L0,70 Z" id="路径备份-2" fill="#7C7FF4" opacity="0.800000012"></path>
                                    <path d="M1.56,63.7777778 L5.9684437,47.4015047 C3.24486668,42.5975898 1.81435151,37.1478517 1.82116369,31.6018889 C1.8276928,14.1759398 15.7660009,0 32.8905065,0 C41.2020422,0.00398611111 49.0016969,3.29518521 54.8674342,9.26770833 C60.7114947,15.1860373 63.9855912,23.2374643 63.96,31.6271342 C63.9520144,49.0517546 50.0137063,63.2303518 32.8905065,63.2303519 L32.8774484,63.2303519 C27.6776786,63.2276944 22.5680102,61.9016482 18.0302904,59.3837547 L1.56,63.7777778 Z" id="路径" fill="#FFFFFF"></path>
                                    <path d="M25.0910186,20.0373786 C24.4686234,18.5111435 23.8358981,18.7180683 23.3645822,18.6930265 C22.9165094,18.6706206 22.405164,18.6666667 21.8925273,18.6666667 C21.3798907,18.6666667 20.5496,18.8617295 19.8458545,19.6459349 C19.142109,20.4301402 17.16,22.3254131 17.16,26.1805404 C17.16,30.0369857 19.9104184,33.7616317 20.2939274,34.2835566 C20.6774364,34.8067995 25.7069573,42.7187069 33.4081288,46.111219 C35.2391585,46.9178303 36.6686013,47.4002154 37.7842639,47.7613453 C39.6230413,48.3570778 41.2965353,48.2740443 42.6188021,48.0723915 C44.0934396,47.8470148 47.1602206,46.1771187 47.8006936,44.3477454 C48.4398753,42.5170542 48.4398753,40.9486434 48.2487665,40.6217813 C48.0563663,40.2962373 47.5450209,40.0998564 46.7767116,39.7070947 C46.0096935,39.315651 42.2352931,37.4203782 41.5315475,37.1594157 C40.827802,36.8971353 40.3164566,36.7666541 39.8038199,37.5508594 C39.2924745,38.3350648 37.8217109,40.0998565 37.3736381,40.6217813 C36.9255652,41.1450242 36.4774924,41.2109238 35.7104743,40.8194802 C34.9421649,40.4267185 32.4693709,39.5990193 29.5381739,36.9314031 C27.2551976,34.8542473 25.714705,32.2881164 25.2666321,31.503911 C24.8185593,30.7197057 25.2188549,30.2966301 25.602364,29.9051865 C25.948426,29.5546005 26.3706733,28.9904999 26.7541823,28.5344745 C27.1389826,28.0758132 27.266819,27.7489511 27.5224917,27.2270262 C27.7781644,26.7037834 27.6503281,26.24644 27.4579279,25.8536783 C27.266819,25.4622346 25.7314916,21.6071073 25.0910186,20.0386966 L25.0910186,20.0373786 Z" id="路径" fill="#7C7FF4"></path>
                                </g>
                                <text id="Android" font-family="PingFangSC-Semibold, PingFang SC" font-size="19.2" font-weight="500" fill="#7C7FF4">
                                    <tspan x="57.8552" y="201">Android</tspan>
                                </text>
                            </g>
                            <polyline id="路径" stroke="url(#linearGradient-11)" stroke-width="12" fill="none" transform="translate(1801.074000, 364.487307) scale(-1, -1) translate(-1801.074000, -364.487307) " points="1749 371.104349 1837.98238 371.104349 1837.98238 371.104349 1853.148 371.104349 1838.6088 357.870266 1838.6088 366.849196"></polyline>
                            <path d="M250.2,183 C249.916286,183 249.655568,182.901541 249.450152,182.736927 C232.269799,180.729092 219,167.509243 219,151.5 C219,136.270496 231.008652,123.565285 246.968774,120.635832 C251.238303,101.418675 269.106082,87 290.5,87 C312.690368,87 331.087167,102.51221 334.450485,122.801883 C346.570378,127.752429 355,138.740235 355,151.5 C355,166.100072 343.963465,178.380196 328.989293,181.951363 C328.915718,182.543019 328.411226,183 327.8,183 L250.2,183 Z" id="形状结合备份-2" stroke="none" fill="url(#linearGradient-12)" fill-rule="evenodd" opacity="0.400000006"></path>
                        </g>
                    </g>
                    <g id="编组-18" mask="url(#mask-2)">
                        <g transform="translate(222.000000, 88.000000)">
                            <g id="编组-5" stroke="none" stroke-width="1" fill-rule="evenodd" transform="translate(57.000000, 0.000000)">
                                <path d="M61.2,30.6 C61.2,13.7051782 47.5016812,2.13162821e-14 30.6,2.13162821e-14 C13.6983188,2.13162821e-14 2.13162821e-14,13.7051782 2.13162821e-14,30.6 C2.13162821e-14,47.5016812 13.6983188,61.2 30.6,61.2 L57.9623403,61.2 C58.9226631,61.2 59.6977808,60.4248823 59.6977808,59.4782784 L53.8466711,50.4992603 C58.4356422,45.1488904 61.2,38.200269 61.2,30.6 Z" id="路径" fill="url(#linearGradient-13)" fill-rule="nonzero"></path>
                                <path d="M43.0154746,26.4 C40.926525,26.4 39.2309491,28.0129032 39.2309491,30 C39.2309491,31.9870968 40.926525,33.6 43.0154746,33.6 C45.1044241,33.6 46.8,31.9870968 46.8,30 C46.8,28.0129032 45.1044241,26.4 43.0154746,26.4 L43.0154746,26.4 Z M15.7845254,26.4 C13.6955759,26.4 12,28.0129032 12,30 C12,31.9870968 13.6955759,33.6 15.7845254,33.6 C17.873475,33.6 19.5690509,31.9870968 19.5690509,30 C19.5690509,28.0129032 17.873475,26.4 15.7845254,26.4 L15.7845254,26.4 Z M29.4033912,26.4 C27.3144416,26.4 25.6188657,28.0129032 25.6188657,30 C25.6188657,31.9870968 27.3144416,33.6 29.4033912,33.6 C31.4923407,33.6 33.1879166,31.9870968 33.1879166,30 C33.1811343,28.0129032 31.4923407,26.4 29.4033912,26.4 L29.4033912,26.4 Z" id="形状" fill="#FFFFFF" fill-rule="nonzero"></path>
                            </g>
                            <g id="编组-6" stroke="none" stroke-width="1" fill-rule="evenodd" transform="translate(0.000000, 171.000000)">
                                <g id="编组-21" filter="url(#filter-14)" transform="translate(0.400000, 0.000000)">
                                    <path d="M24,0 L150.96,0 C164.214834,-2.4348735e-15 174.96,10.745166 174.96,24 L174.96,277.68 C174.96,290.934834 164.214834,301.68 150.96,301.68 L24,301.68 C10.745166,301.68 1.623249e-15,290.934834 0,277.68 L0,24 C1.92946468e-15,10.745166 10.745166,2.4348735e-15 24,0 Z" id="矩形" fill="#676669"></path>
                                    <path d="M22.8,16.8 L39.3643921,16.8 C42.991183,16.8 46.2084266,19.1277019 47.3428783,22.5724996 L48.2587499,25.3535719 C49.8793951,30.2747115 54.4754575,33.6 59.6565873,33.6 L113.303058,33.6 C118.4587,33.6 122.983095,30.1657433 124.369474,25.2 L125.000106,22.9411967 C126.013681,19.3107674 129.321442,16.8 133.090706,16.8 L152.64,16.8 C157.941934,16.8 162.24,21.0980664 162.24,26.4 L162.24,276 C162.24,281.301934 157.941934,285.6 152.64,285.6 L22.8,285.6 C17.4980664,285.6 13.2,281.301934 13.2,276 L13.2,26.4 C13.2,21.0980664 17.4980664,16.8 22.8,16.8 Z" id="矩形" fill="url(#linearGradient-15)"></path>
                                    <text id="iOS" font-family="PingFangSC-Semibold, PingFang SC" font-size="23.04" font-weight="500" fill="#50A2FF">
                                        <tspan x="68.4" y="196.8">iOS</tspan>
                                    </text>
                                </g>
                                <g id="social-whatsapp" transform="translate(62.800000, 98.400000)">
                                    <path d="M0,56.4 L3.56066606,43.150625 C1.36085386,39.2639734 0.205437757,34.8548124 0.210939901,30.3678 C0.216213416,16.269175 11.4740777,4.8 25.3054091,4.8 C32.0185725,4.803225 38.3182936,7.46600002 43.0560045,12.298125 C47.7762073,17.0864037 50.4206698,23.6004851 50.4,30.388225 C50.3935501,44.485775 39.1356859,55.9571 25.3054091,55.9571 L25.2948621,55.9571 C21.0950481,55.95495 16.9680082,54.8821 13.3029269,52.844975 L0,56.4 Z" id="路径备份-2" fill="#78B7FF" opacity="0.800000012"></path>
                                    <path d="M0,51.6 L3.56066606,38.350625 C1.36085386,34.4639734 0.205437757,30.0548124 0.210939901,25.5678 C0.216213416,11.469175 11.4740777,0 25.3054091,0 C32.0185725,0.003225 38.3182936,2.66600002 43.0560045,7.498125 C47.7762073,12.2864037 50.4206698,18.8004851 50.4,25.588225 C50.3935501,39.685775 39.1356859,51.1571 25.3054091,51.1571 L25.2948621,51.1571 C21.0950481,51.15495 16.9680082,50.0821 13.3029269,48.044975 L0,51.6 Z" id="路径" fill="#FFFFFF"></path>
                                    <path d="M18.4058227,15.5130593 C17.9031189,14.2737105 17.3920715,14.4417397 17.0113933,14.421405 C16.6494883,14.4032107 16.2364786,14.4 15.8224259,14.4 C15.4083733,14.4 14.7377539,14.5583969 14.169344,15.1951952 C13.6009342,15.8319936 12,17.3710121 12,20.5014914 C12,23.633041 14.2214918,26.6575656 14.5312491,27.0813843 C14.8410064,27.5062733 18.9033117,33.9309801 25.1234886,36.6858019 C26.6023972,37.3407945 27.7569472,37.7325058 28.6580593,38.0257541 C30.1432257,38.5095068 31.4948939,38.4420811 32.5628786,38.2783329 C33.753932,38.0953203 36.2309474,36.7393144 36.7482525,35.2538083 C37.2645147,33.767232 37.2645147,32.4936353 37.1101575,32.2282134 C36.9547574,31.9638618 36.5417477,31.8043947 35.9211901,31.4854604 C35.3016755,31.1675963 32.2531213,29.6285778 31.6847115,29.4166684 C31.1163016,29.2036888 30.7032919,29.0977341 30.2892392,29.7345325 C29.8762294,30.3713308 28.688305,31.8043947 28.3264,32.2282134 C27.964495,32.6531024 27.60259,32.7066149 26.9830754,32.3887508 C26.3625178,32.0698165 24.3652611,31.3976999 21.9977559,29.2315153 C20.1538134,27.5448023 18.9095694,25.4610269 18.5476644,24.8242285 C18.1857594,24.1874302 18.5090751,23.8438801 18.8188324,23.5260161 C19.0983441,23.2413297 19.43939,22.783263 19.7491473,22.4129567 C20.0599475,22.04051 20.1631999,21.7750881 20.3697049,21.3512694 C20.5762097,20.9263805 20.4729573,20.5550039 20.3175572,20.2360696 C20.1632,19.9182055 18.9231278,16.7877262 18.4058227,15.5141296 L18.4058227,15.5130593 Z" id="路径" fill="#50A2FF"></path>
                                </g>
                            </g>
                            <polyline id="路径" stroke="url(#linearGradient-16)" stroke-width="12" points="100 121.383158 215.765309 121.383158 215.765309 121.383158 198.591175 106 198.591175 118.6"></polyline>
                        </g>
                    </g>
                </g>
            </g>
        </g>
    </g>
</svg>