<?xml version="1.0" encoding="UTF-8"?>
<svg width="1920px" height="700px" viewBox="0 0 1920 700" version="1.1" xmlns="http://www.w3.org/2000/svg" xmlns:xlink="http://www.w3.org/1999/xlink">
    <!-- Generator: Sketch 62 (91390) - https://sketch.com -->
    <title>banner</title>
    <desc>Created with Sketch.</desc>
    <defs>
        <rect id="path-1" x="0" y="0" width="1920" height="700"></rect>
        <linearGradient x1="-25.7062592%" y1="17.5861719%" x2="137.025067%" y2="84.0436017%" id="linearGradient-3">
            <stop stop-color="#44CAE0" offset="0%"></stop>
            <stop stop-color="#68FF87" offset="100%"></stop>
        </linearGradient>
        <path d="M1472,702 C1471.53569,702 1471.10834,701.841782 1470.76892,701.576321 C1345.39713,694.220219 1246,590.217832 1246,463 C1246,337.710504 1342.4067,234.937999 1465.08463,224.817945 C1502.38525,94.9800176 1621.86857,0 1763.5,0 C1913.45728,0 2038.58595,106.475104 2067.63862,248.063198 C2147.18894,286.861262 2202,368.529726 2202,463 C2202,566.561843 2136.13155,654.739285 2044.00358,687.92341 L2044,700 C2044,701.104569 2043.10457,702 2042,702 L1472,702 Z" id="path-4"></path>
        <filter x="-10.5%" y="-14.3%" width="121.0%" height="128.6%" filterUnits="objectBoundingBox" id="filter-5">
            <feGaussianBlur stdDeviation="100" in="SourceAlpha" result="shadowBlurInner1"></feGaussianBlur>
            <feOffset dx="0" dy="1" in="shadowBlurInner1" result="shadowOffsetInner1"></feOffset>
            <feComposite in="shadowOffsetInner1" in2="SourceAlpha" operator="arithmetic" k2="-1" k3="1" result="shadowInnerInner1"></feComposite>
            <feColorMatrix values="0 0 0 0 1   0 0 0 0 1   0 0 0 0 1  0 0 0 0.5 0" type="matrix" in="shadowInnerInner1"></feColorMatrix>
        </filter>
        <linearGradient x1="-17.8014227%" y1="24.2066801%" x2="134.472623%" y2="96.1835871%" id="linearGradient-6">
            <stop stop-color="#FFFFFF" offset="0%"></stop>
            <stop stop-color="#CFEDFF" offset="100%"></stop>
        </linearGradient>
        <path d="M1672,1094 C1671.44968,1094 1670.95128,1093.77774 1670.58966,1093.41808 L1670.58624,1093.42905 C1491.24907,1083.1174 1349,934.420726 1349,752.5 C1349,573.277826 1487.06022,426.301344 1662.63038,412.120833 L1662.61738,412.11707 C1716.35836,227.164106 1886.9123,92 2089,92 C2303.14593,92 2481.8827,243.775356 2523.73673,445.738211 C2637.01396,501.315672 2715,617.800528 2715,752.5 C2715,900.191202 2621.24502,1025.98476 2490.00442,1073.61131 L2490,1092 C2490,1093.10457 2489.10457,1094 2488,1094 L1672,1094 Z" id="path-7"></path>
        <filter x="-3.7%" y="-5.0%" width="107.4%" height="110.1%" filterUnits="objectBoundingBox" id="filter-8">
            <feGaussianBlur stdDeviation="50" in="SourceAlpha" result="shadowBlurInner1"></feGaussianBlur>
            <feOffset dx="0" dy="1" in="shadowBlurInner1" result="shadowOffsetInner1"></feOffset>
            <feComposite in="shadowOffsetInner1" in2="SourceAlpha" operator="arithmetic" k2="-1" k3="1" result="shadowInnerInner1"></feComposite>
            <feColorMatrix values="0 0 0 0 1   0 0 0 0 1   0 0 0 0 1  0 0 0 0.5 0" type="matrix" in="shadowInnerInner1"></feColorMatrix>
        </filter>
        <linearGradient x1="-25.7062592%" y1="17.847938%" x2="137.025067%" y2="83.768674%" id="linearGradient-9">
            <stop stop-color="#44CAE0" offset="0%"></stop>
            <stop stop-color="#68FF87" offset="100%"></stop>
        </linearGradient>
        <linearGradient x1="50%" y1="0%" x2="50%" y2="115.66082%" id="linearGradient-10">
            <stop stop-color="#B3B6FA" offset="0%"></stop>
            <stop stop-color="#7C7FF4" offset="100%"></stop>
        </linearGradient>
        <path d="M73.2347625,253.130924 L73.2347625,260.657612 C73.2347625,263.770093 74.8429373,266.661649 77.487134,268.303527 L144.443257,309.879032 L144.443257,309.879032" id="path-11"></path>
        <filter x="-52.2%" y="-35.6%" width="194.7%" height="218.8%" filterUnits="objectBoundingBox" id="filter-12">
            <feMorphology radius="2.7" operator="dilate" in="SourceAlpha" result="shadowSpreadOuter1"></feMorphology>
            <feOffset dx="-4" dy="13" in="shadowSpreadOuter1" result="shadowOffsetOuter1"></feOffset>
            <feMorphology radius="2.7" operator="erode" in="SourceAlpha" result="shadowInner"></feMorphology>
            <feOffset dx="-4" dy="13" in="shadowInner" result="shadowInner"></feOffset>
            <feComposite in="shadowOffsetOuter1" in2="shadowInner" operator="out" result="shadowOffsetOuter1"></feComposite>
            <feGaussianBlur stdDeviation="8" in="shadowOffsetOuter1" result="shadowBlurOuter1"></feGaussianBlur>
            <feColorMatrix values="0 0 0 0 0.77671195   0 0 0 0 0.86580276   0 0 0 0 0.937075408  0 0 0 1 0" type="matrix" in="shadowBlurOuter1"></feColorMatrix>
        </filter>
        <linearGradient x1="58.9966623%" y1="-4.72526475%" x2="50%" y2="100%" id="linearGradient-13">
            <stop stop-color="#EDEEFF" offset="0%"></stop>
            <stop stop-color="#D7D8FF" offset="100%"></stop>
        </linearGradient>
        <linearGradient x1="50%" y1="0%" x2="50%" y2="100%" id="linearGradient-14">
            <stop stop-color="#8DC5EF" offset="0%"></stop>
            <stop stop-color="#5593DB" offset="100%"></stop>
        </linearGradient>
        <linearGradient x1="50%" y1="0%" x2="50%" y2="100%" id="linearGradient-15">
            <stop stop-color="#8EC5EF" offset="0%"></stop>
            <stop stop-color="#5593DB" offset="100%"></stop>
        </linearGradient>
        <linearGradient x1="-50.7568913%" y1="15.5537464%" x2="134.472623%" y2="79.6267323%" id="linearGradient-16">
            <stop stop-color="#90DFFF" offset="0%"></stop>
            <stop stop-color="#7DADFF" offset="100%"></stop>
        </linearGradient>
        <linearGradient x1="50%" y1="0%" x2="50%" y2="100%" id="linearGradient-17">
            <stop stop-color="#EFF7FF" offset="0%"></stop>
            <stop stop-color="#DAEBFF" offset="100%"></stop>
        </linearGradient>
        <linearGradient x1="50%" y1="0%" x2="50%" y2="115.66082%" id="linearGradient-18">
            <stop stop-color="#99D0F9" offset="0%"></stop>
            <stop stop-color="#66AEFF" offset="100%"></stop>
        </linearGradient>
        <path d="M550.003706,282.538967 L644.829393,338.901521 C648.949574,341.393032 650.269674,346.752542 647.777918,350.872321 C647.128866,351.94544 646.255896,352.865901 645.218595,353.570875 L436.647861,488.199792 C433.758258,490.163631 429.975221,490.212893 427.035451,488.324963 L380.048156,459.491495" id="path-19"></path>
        <filter x="-14.2%" y="-10.2%" width="125.1%" height="132.5%" filterUnits="objectBoundingBox" id="filter-20">
            <feMorphology radius="2.7" operator="dilate" in="SourceAlpha" result="shadowSpreadOuter1"></feMorphology>
            <feOffset dx="-4" dy="13" in="shadowSpreadOuter1" result="shadowOffsetOuter1"></feOffset>
            <feMorphology radius="2.7" operator="erode" in="SourceAlpha" result="shadowInner"></feMorphology>
            <feOffset dx="-4" dy="13" in="shadowInner" result="shadowInner"></feOffset>
            <feComposite in="shadowOffsetOuter1" in2="shadowInner" operator="out" result="shadowOffsetOuter1"></feComposite>
            <feGaussianBlur stdDeviation="8" in="shadowOffsetOuter1" result="shadowBlurOuter1"></feGaussianBlur>
            <feColorMatrix values="0 0 0 0 0.77671195   0 0 0 0 0.86580276   0 0 0 0 0.937075408  0 0 0 1 0" type="matrix" in="shadowBlurOuter1"></feColorMatrix>
        </filter>
        <linearGradient x1="50%" y1="0%" x2="50%" y2="100%" id="linearGradient-21">
            <stop stop-color="#727272" offset="0%"></stop>
            <stop stop-color="#3E3E3E" offset="100%"></stop>
        </linearGradient>
        <linearGradient x1="50%" y1="0%" x2="50%" y2="100%" id="linearGradient-22">
            <stop stop-color="#F0F0F1" offset="0%"></stop>
            <stop stop-color="#DCDCDE" offset="100%"></stop>
        </linearGradient>
        <filter x="-35.6%" y="-68.2%" width="169.6%" height="239.0%" filterUnits="objectBoundingBox" id="filter-23">
            <feGaussianBlur stdDeviation="14.4" in="SourceGraphic"></feGaussianBlur>
        </filter>
        <filter x="-16.3%" y="-45.3%" width="132.7%" height="191.5%" filterUnits="objectBoundingBox" id="filter-24">
            <feGaussianBlur stdDeviation="18" in="SourceGraphic"></feGaussianBlur>
        </filter>
        <filter x="-18.4%" y="-50.2%" width="136.7%" height="201.3%" filterUnits="objectBoundingBox" id="filter-25">
            <feGaussianBlur stdDeviation="12.6" in="SourceGraphic"></feGaussianBlur>
        </filter>
    </defs>
    <g id="页面-1" stroke="none" stroke-width="1" fill="none" fill-rule="evenodd">
        <g id="同步助手web首页" transform="translate(0.000000, -70.000000)">
            <g id="banner" transform="translate(0.000000, 70.000000)">
                <g id="banner1背景">
                    <mask id="mask-2" fill="white">
                        <use xlink:href="#path-1"></use>
                    </mask>
                    <use id="矩形" fill="#4ABBFF" xlink:href="#path-1"></use>
                    <g id="编组-9" mask="url(#mask-2)">
                        <g transform="translate(-130.000000, -58.000000)">
                            <path d="M178.2,859 C177.537258,859 177,858.462742 177,857.8 L176.998405,857.581764 C77.2338071,846.181182 0,767.44029 0,672 C0,578.262054 74.5031796,500.633093 171.681793,487.092269 C198.400361,375.32715 302.121594,292 426,292 C555.514436,292 662.995815,383.081814 683.481595,502.522989 C752.313834,532.323434 800,597.006395 800,672 C800,759.96513 734.390756,833.74431 646.002226,853.688023 L646,857.8 C646,858.462742 645.462742,859 644.8,859 L178.2,859 Z" id="形状结合备份-7" fill="url(#linearGradient-3)" fill-rule="evenodd" opacity="0.300000012"></path>
                            <g id="形状结合" fill="none" opacity="0.5">
                                <use fill="#FFFFFF" fill-rule="evenodd" xlink:href="#path-4"></use>
                                <use fill="black" fill-opacity="1" filter="url(#filter-5)" xlink:href="#path-4"></use>
                            </g>
                            <g id="形状结合备份-8" fill="none">
                                <use fill="url(#linearGradient-6)" fill-rule="evenodd" xlink:href="#path-7"></use>
                                <use fill="black" fill-opacity="1" filter="url(#filter-8)" xlink:href="#path-7"></use>
                            </g>
                            <path d="M1323.2,180 C1322.91629,180 1322.65557,179.901541 1322.45015,179.736927 C1305.2698,177.729092 1292,164.509243 1292,148.5 C1292,133.270496 1304.00865,120.565285 1319.96877,117.635832 C1324.2383,98.4186753 1342.10608,84 1363.5,84 C1385.69037,84 1404.08717,99.5122104 1407.45049,119.801883 C1419.57038,124.752429 1428,135.740235 1428,148.5 C1428,163.100072 1416.96347,175.380196 1401.98929,178.951363 C1401.91572,179.543019 1401.41123,180 1400.8,180 L1323.2,180 Z" id="形状结合备份-2" fill="url(#linearGradient-9)" fill-rule="evenodd" opacity="0.400000006"></path>
                            <g id="传输中" stroke-width="1" fill="none" fill-rule="evenodd" transform="translate(1345.000000, 161.000000)">
                                <g id="编组-19" transform="translate(1.000000, 0.000000)">
                                    <g id="路径" stroke-linecap="round" stroke-linejoin="round">
                                        <use fill="black" fill-opacity="1" filter="url(#filter-12)" xlink:href="#path-11"></use>
                                        <use stroke="url(#linearGradient-10)" stroke-width="5.4" xlink:href="#path-11"></use>
                                    </g>
                                    <g id="编组-18">
                                        <path d="M3.26635729,56.7860044 L115.206768,0.814880561 C116.860244,-0.0118709223 118.933046,0.200887187 120.595927,1.3680386 L125.392942,4.73499364 C127.026622,5.88164949 128.004893,7.76754648 127.948251,9.66107879 L121.646506,220.323748 C121.596931,221.981002 120.759481,223.430979 119.390779,224.229359 L14.2936658,285.53368 C12.7250121,286.448693 10.6910901,286.374629 8.98516161,285.340373 L3.64659282,282.103752 C1.87225279,281.02802 0.751038477,279.095348 0.751038477,277.112595 L0.751038477,60.9863947 C0.751038477,59.1592461 1.70457888,57.5669064 3.26635729,56.7860044 Z" id="路径-17备份-2" fill="#6567C8"></path>
                                        <path d="M13.2360164,61.6242101 L125.013071,5.5880613 C126.493725,4.84577873 128.424709,5.52267615 129.326044,7.099954 C129.625384,7.62378007 129.783715,8.20531643 129.783715,8.780942 L129.783715,224.018585 C129.783715,226.727711 128.385948,229.095096 126.08635,230.280776 L14.2677822,287.934782 C12.7965412,288.693358 10.8607977,288.03597 9.94417803,286.466463 C9.63392196,285.935219 9.46946258,285.34264 9.46946258,284.755973 L9.46946258,67.9215792 C9.46946258,65.1835342 10.8970011,62.7968068 13.2360164,61.6242101 Z" id="路径-17备份" fill="#7C7FF4"></path>
                                        <path d="M65.2280416,242.989516 L81.0237747,235.313946 C83.4029772,234.157828 85.3317019,236.033112 85.3317019,239.50251 C85.3317019,242.971909 83.4029772,246.721631 81.0237747,247.877749 L65.2280416,255.553319 C62.8488391,256.709437 60.9201144,254.834153 60.9201144,251.364755 C60.9201144,247.895356 62.8488391,244.145634 65.2280416,242.989516 Z" id="矩形" fill="#9FA1F1"></path>
                                        <path d="M23.3360522,69.7984806 L116.685357,24.2019948 C117.512635,23.7979104 118.582892,24.1838146 119.075842,25.0639359 C119.236692,25.3511204 119.321606,25.6685984 119.321606,25.982799 L119.321606,205.671986 C119.321606,208.10399 118.054559,210.224317 115.977908,211.267465 L22.5830167,258.181767 C21.760797,258.594786 20.687838,258.219495 20.1864958,257.343531 C20.0197711,257.052223 19.9315715,256.728715 19.9315715,256.40849 L19.9315715,75.4240686 C19.9315715,72.9667748 21.2248969,70.8296748 23.3360522,69.7984806 Z" id="路径-17" fill="url(#linearGradient-13)"></path>
                                        <g id="编组备份" transform="translate(44.379591, 116.336347)">
                                            <path d="M25.8899183,2.67730213 C39.8475064,-3.61008364 51.1623671,1.54134382 51.1623671,14.1833374 C51.1623671,26.825331 39.8475064,42.6743206 25.8899183,49.5830466 C24.1159082,50.461146 22.3845898,51.1479247 20.713769,51.6503674 L19.7186787,51.9293358 C19.5437887,51.9748117 19.2132669,52.0497864 18.7271131,52.1541768 C18.2030594,52.2665659 17.6573982,52.5694545 17.1518067,53.0248928 L16.8537536,53.3162502 L14.7031331,62.0496558 L10.9150001,60.0449787 C10.2728348,59.7051453 9.91552123,58.9966289 10.0240081,58.2782324 L10.5379814,54.8747155 L10.5379814,54.8747155 C10.7574417,53.387075 10.2647291,52.2257919 9.29052614,51.9329729 L8.95512221,51.8242843 C3.83503877,49.94744 0.617469421,45.1498222 0.617469421,38.0770113 C0.617469421,24.8136775 11.9323302,8.96468789 25.8899183,2.67730213 Z" id="形状" fill="#7C7FF4"></path>
                                            <path d="M32.6593527,4.87732478 C46.6169408,-1.41006099 57.9318015,3.74136647 57.9318015,16.3833601 C57.9318015,29.0253536 46.6169408,44.8743433 32.6593527,51.7830692 C30.8853426,52.6611686 29.1540242,53.3479474 27.4832034,53.85039 L26.4881131,54.1293585 C26.3132231,54.1748344 25.9827013,54.2498091 25.4965475,54.3541995 C24.9724938,54.4665885 24.4268326,54.7694771 23.9212411,55.2249155 L23.623188,55.5162729 L17.769618,61.7245294 C17.6231584,61.8803292 17.4586812,61.9870214 17.2997801,62.0292754 C16.9363256,62.1258821 16.6825636,61.8705777 16.6782072,61.4427174 L16.6920172,61.2493205 L17.3074158,57.0747382 C17.5268761,55.5870976 17.0341635,54.4258146 16.0599605,54.1329956 L15.7245566,54.0243069 C10.6044732,52.1474626 7.38690382,47.3498449 7.38690382,40.277034 C7.38690382,27.0137002 18.7017646,11.1647105 32.6593527,4.87732478 Z" id="形状" fill="#FFFFFF"></path>
                                            <path d="M26.9726552,21.8039997 C26.5927848,20.9273037 26.3028878,20.8941913 25.7246709,20.8728784 C25.5050041,20.8595588 25.2849498,20.8525053 25.0647974,20.8517272 C24.3115573,20.8532184 23.5245659,21.0665188 23.0470278,21.5342601 C22.4709703,22.1016512 21.0301803,23.4262898 21.0247563,26.1420582 C21.01936,28.8546183 23.0755404,31.4748713 23.3514405,31.8416662 C23.6406756,32.2068306 27.3589523,37.849144 33.1419807,40.139593 C37.6661626,41.9320519 39.0096622,41.7625648 40.0416232,41.5487794 C41.5470572,41.2346019 43.4356198,40.1625262 43.9131286,38.8734808 C44.3906438,37.5812272 44.3928373,36.4808036 44.2549879,36.2468765 C44.1154688,36.0145568 43.7341148,35.8821707 43.1564094,35.6041992 C42.5770344,35.3278352 39.7667097,33.9987794 39.2337973,33.8217782 C38.7125693,33.6351293 38.215833,33.7018811 37.8214836,34.2368303 C37.2634022,34.982242 36.7186269,35.7404602 36.2761069,36.1969034 C35.9287733,36.5537034 35.3604208,36.5997436 34.8875233,36.4113948 C34.2514471,36.1559965 32.4695304,35.559587 30.2718837,33.683921 C28.573331,32.230752 27.4187543,30.4203937 27.0848797,29.8772615 C26.7493642,29.3212997 27.0516362,28.9982752 27.3188678,28.6977777 C27.6078529,28.352322 27.8866378,28.1079454 28.1772446,27.7849441 C28.4678514,27.4619428 28.6281642,27.294798 28.8155623,26.9158571 C29.0129369,26.5481252 28.8753752,26.1698277 28.7359458,25.8925928 C28.5981827,25.6153545 27.4454029,22.9034831 26.972652,21.8056038 L26.9726552,21.8039997 Z" id="路径" fill="#7C7FF4" transform="translate(32.679325, 31.264716) rotate(15.000000) translate(-32.679325, -31.264716) "></path>
                                        </g>
                                        <g id="编组-22" transform="translate(79.387895, 180.876548) rotate(28.000000) translate(-79.387895, -180.876548) translate(37.387895, 140.376548)"></g>
                                    </g>
                                    <g id="编组-14" transform="translate(19.180533, 141.224686)">
                                        <path d="M155.227815,149.537796 L149.618605,7.43316325 L160.197275,3.48580877 C161.710292,2.92123753 163.396574,3.06346323 164.793654,3.87348003 L385.324855,131.735853 C388.101429,133.34569 389.8106,136.312327 389.8106,139.521834 L389.8106,290.936839 C389.8106,293.919177 387.392938,296.336839 384.4106,296.336839 C383.410485,296.336839 382.430019,296.059097 381.578489,295.534572 L377.785488,293.198159 L377.785488,293.198159 L155.227815,149.537796 Z" id="路径-7备份" fill="url(#linearGradient-14)"></path>
                                        <path d="M145.768723,155.98714 L0,243.812968 L0,250.181562 L234.563032,387.406866 L383.81235,305.186128 C386.424534,303.747088 387.375555,300.462923 385.936515,297.850739 C385.467781,296.99988 384.778203,296.29122 383.940452,295.799441 L145.768723,155.98714 L145.768723,155.98714 Z" id="路径-6" fill="url(#linearGradient-15)"></path>
                                        <polygon id="路径-6" fill="url(#linearGradient-16)" points="145.768723 155.98714 0 243.812968 234.411336 380.808516 382.668341 295.387561"></polygon>
                                        <path d="M103.30289,218.098135 C104.523406,218.838202 104.236677,220.18552 102.662464,221.107454 L92.6861841,226.95004 C91.1119706,227.871974 88.8463948,228.019408 87.6258788,227.279341 L73.2612711,218.569284 C72.0407551,217.829218 72.3274836,216.4819 73.901697,215.559965 L83.8779767,209.71738 C85.4521901,208.795445 87.7177659,208.648012 88.9382819,209.388078 L103.30289,218.098135 Z M285.512414,328.581858 C286.73293,329.321924 286.446201,330.669242 284.871988,331.591177 L274.895708,337.433762 C273.321495,338.355697 271.055919,338.50313 269.835403,337.763064 L255.470795,329.053007 C254.250279,328.31294 254.537008,326.965623 256.111221,326.043688 L266.087501,320.201102 C267.661714,319.279168 269.92729,319.131735 271.147806,319.871801 L285.512414,328.581858 Z M255.457235,310.357739 C256.677751,311.097805 256.391022,312.445123 254.816809,313.367058 L244.840529,319.209643 C243.266316,320.131578 241.00074,320.279011 239.780224,319.538945 L225.415616,310.828888 C224.1951,310.088821 224.481829,308.741503 226.056042,307.819569 L236.032322,301.976983 C237.606535,301.055049 239.872111,300.907615 241.092627,301.647682 L255.457235,310.357739 Z M223.523607,290.994612 C224.744123,291.734679 224.457394,293.081997 222.883181,294.003931 L212.906901,299.846517 C211.332688,300.768451 209.067112,300.915884 207.846596,300.175818 L193.481988,291.465761 C192.261472,290.725695 192.548201,289.378377 194.122414,288.456442 L204.098694,282.613857 C205.672907,281.691922 207.938483,281.544489 209.158999,282.284555 L223.523607,290.994612 Z M195.346876,273.9095 C196.567392,274.649567 196.280664,275.996885 194.70645,276.918819 L184.730171,282.761405 C183.155957,283.683339 180.890381,283.830773 179.669865,283.090706 L165.305258,274.380649 C164.084742,273.640583 164.37147,272.293265 165.945683,271.37133 L175.921963,265.528745 C177.496177,264.60681 179.761752,264.459377 180.982268,265.199443 L195.346876,273.9095 Z M191.536048,300.450792 C194.582915,302.280458 193.867133,305.61143 189.937304,307.890728 L165.032752,322.335346 C161.102923,324.614643 155.447192,324.979142 152.400325,323.149477 L90.4922606,286.856204 C87.445393,285.026538 88.1611753,281.695566 92.0910049,279.416268 L116.995556,264.971651 C120.925386,262.692353 126.581116,262.327854 129.627984,264.157519 L191.536048,300.450792 Z M165.291697,255.685381 C166.512213,256.425448 166.225484,257.772766 164.651271,258.6947 L154.674991,264.537286 C153.100778,265.45922 150.835202,265.606654 149.614686,264.866587 L135.250078,256.15653 C134.029562,255.416464 134.316291,254.069146 135.890504,253.147211 L145.866784,247.304626 C147.440997,246.382691 149.706573,246.235258 150.927089,246.975324 L165.291697,255.685381 Z M133.358069,236.322255 C134.578585,237.062321 134.291856,238.409639 132.717643,239.331574 L122.741363,245.174159 C121.16715,246.096094 118.901574,246.243527 117.681058,245.50346 L103.31645,236.793404 C102.095934,236.053337 102.382663,234.706019 103.956876,233.784085 L113.933156,227.941499 C115.507369,227.019564 117.772945,226.872131 118.993461,227.612198 L133.358069,236.322255 Z M157.993372,221.894645 C159.213888,222.634712 158.927159,223.98203 157.352946,224.903964 L147.376666,230.74655 C145.802453,231.668484 143.536877,231.815918 142.316361,231.075851 L127.951753,222.365794 C126.731237,221.625728 127.017966,220.27841 128.592179,219.356475 L138.568459,213.51389 C140.142672,212.591955 142.408248,212.444522 143.628764,213.184588 L157.993372,221.894645 Z M189.927,241.257772 C191.147516,241.997838 190.860787,243.345156 189.286574,244.267091 L179.310294,250.109676 C177.736081,251.031611 175.470505,251.179044 174.249989,250.438978 L159.885381,241.728921 C158.664865,240.988854 158.951594,239.641536 160.525807,238.719602 L170.502087,232.877016 C172.0763,231.955082 174.341876,231.807649 175.562392,232.547715 L189.927,241.257772 Z M219.982179,259.481891 C221.202695,260.221958 220.915966,261.569275 219.341753,262.49121 L209.365473,268.333796 C207.79126,269.25573 205.525684,269.403163 204.305168,268.663097 L189.94056,259.95304 C188.720044,259.212974 189.006773,257.865656 190.580986,256.943721 L200.557266,251.101136 C202.131479,250.179201 204.397055,250.031768 205.617571,250.771834 L219.982179,259.481891 Z M248.158909,276.567003 C249.379425,277.307069 249.092697,278.654387 247.518483,279.576322 L237.542204,285.418907 C235.96799,286.340842 233.702415,286.488275 232.481899,285.748209 L218.117291,277.038152 C216.896775,276.298085 217.183503,274.950767 218.757717,274.028833 L228.733996,268.186247 C230.30821,267.264313 232.573786,267.116879 233.794302,267.856946 L248.158909,276.567003 Z M280.092537,295.930129 C281.313053,296.670196 281.026325,298.017514 279.452111,298.939448 L269.475832,304.782034 C267.901618,305.703969 265.636042,305.851402 264.415526,305.111335 L250.050919,296.401278 C248.830403,295.661212 249.117131,294.313894 250.691345,293.391959 L260.667624,287.549374 C262.241838,286.627439 264.507414,286.480006 265.72793,287.220073 L280.092537,295.930129 Z M310.147717,314.154249 C311.368233,314.894315 311.081504,316.241633 309.507291,317.163568 L299.531011,323.006153 C297.956798,323.928088 295.691222,324.075521 294.470706,323.335455 L280.106098,314.625398 C278.885582,313.885331 279.172311,312.538013 280.746524,311.616079 L290.722804,305.773493 C292.297017,304.851559 294.562593,304.704125 295.783109,305.444192 L310.147717,314.154249 Z M127.938192,203.670526 C129.158708,204.410593 128.87198,205.75791 127.297766,206.679845 L117.321487,212.522431 C115.747273,213.444365 113.481698,213.591798 112.261182,212.851732 L97.8965738,204.141675 C96.6760579,203.401609 96.9627863,202.054291 98.5369998,201.132356 L108.513279,195.289771 C110.087493,194.367836 112.353069,194.220403 113.573585,194.960469 L127.938192,203.670526 Z M152.573495,189.242917 C153.794011,189.982983 153.507283,191.330301 151.933069,192.252236 L141.95679,198.094821 C140.382576,199.016756 138.117,199.164189 136.896484,198.424123 L122.531877,189.714066 C121.311361,188.973999 121.598089,187.626681 123.172303,186.704747 L133.148582,180.862161 C134.722796,179.940227 136.988371,179.792793 138.208887,180.53286 L152.573495,189.242917 Z M182.628674,207.467036 C183.84919,208.207102 183.562462,209.55442 181.988248,210.476355 L172.011969,216.318941 C170.437755,217.240875 168.17218,217.388308 166.951664,216.648242 L152.587056,207.938185 C151.36654,207.198119 151.653268,205.850801 153.227482,204.928866 L163.203761,199.08628 C164.777975,198.164346 167.043551,198.016913 168.264067,198.756979 L182.628674,207.467036 Z M214.562302,226.830163 C215.782818,227.570229 215.49609,228.917547 213.921876,229.839482 L203.945597,235.682067 C202.371383,236.604002 200.105807,236.751435 198.885291,236.011369 L184.520684,227.301312 C183.300168,226.561245 183.586896,225.213927 185.16111,224.291993 L195.137389,218.449407 C196.711603,217.527473 198.977179,217.380039 200.197695,218.120106 L214.562302,226.830163 Z M272.794212,262.139394 C274.014728,262.87946 273.728,264.226778 272.153786,265.148712 L262.177507,270.991298 C260.603293,271.913233 258.337717,272.060666 257.117201,271.320599 L242.752594,262.610543 C241.532078,261.870476 241.818806,260.523158 243.39302,259.601224 L253.369299,253.758638 C254.943513,252.836703 257.209088,252.68927 258.429604,253.429337 L272.794212,262.139394 Z M304.72784,281.50252 C305.948356,282.242587 305.661628,283.589905 304.087414,284.511839 L294.111134,290.354425 C292.536921,291.276359 290.271345,291.423793 289.050829,290.683726 L274.686222,281.973669 C273.465706,281.233603 273.752434,279.886285 275.326647,278.96435 L285.302927,273.121765 C286.877141,272.19983 289.142716,272.052397 290.363232,272.792463 L304.72784,281.50252 Z M334.783019,299.726639 C336.003535,300.466706 335.716807,301.814024 334.142593,302.735958 L324.166314,308.578544 C322.5921,309.500478 320.326524,309.647912 319.106008,308.907845 L304.741401,300.197788 C303.520885,299.457722 303.807613,298.110404 305.381827,297.188469 L315.358106,291.345884 C316.93232,290.423949 319.197896,290.276516 320.418412,291.016582 L334.783019,299.726639 Z M244.617482,245.054282 C245.837998,245.794348 245.551269,247.141666 243.977056,248.063601 L234.000776,253.906186 C232.426563,254.828121 230.160987,254.975554 228.940471,254.235488 L214.575863,245.525431 C213.355347,244.785364 213.642076,243.438046 215.216289,242.516112 L225.192569,236.673526 C226.766782,235.751592 229.032358,235.604158 230.252874,236.344225 L244.617482,245.054282 Z M170.490079,178.75011 C171.710595,179.490176 171.554086,180.761232 170.140507,181.589091 L166.301239,183.83755 C164.887659,184.665409 162.752303,184.73658 161.531787,183.996513 L147.167179,175.286456 C145.946663,174.54639 146.103172,173.275335 147.516752,172.447475 L151.35602,170.199017 C152.769599,169.371157 154.904955,169.299987 156.125471,170.040053 L170.490079,178.75011 Z M200.545258,196.974229 C201.765774,197.714296 201.609265,198.985351 200.195686,199.81321 L196.356418,202.061669 C194.942838,202.889529 192.807482,202.960699 191.586966,202.220633 L177.222359,193.510576 C176.001843,192.770509 176.158351,191.499454 177.571931,190.671595 L181.411199,188.423136 C182.824778,187.595276 184.960134,187.524106 186.18065,188.264172 L200.545258,196.974229 Z M232.478886,216.337356 C233.699402,217.077422 233.542893,218.348477 232.129314,219.176337 L228.290046,221.424796 C226.876466,222.252655 224.74111,222.323826 223.520594,221.583759 L209.155986,212.873702 C207.935471,212.133636 208.091979,210.862581 209.505559,210.034721 L213.344827,207.786263 C214.758406,206.958403 216.893762,206.887233 218.114278,207.627299 L232.478886,216.337356 Z M262.534065,234.561475 C263.754581,235.301541 263.598072,236.572597 262.184493,237.400456 L258.345225,239.648915 C256.931646,240.476774 254.796289,240.547945 253.575773,239.807878 L239.211166,231.097821 C237.99065,230.357755 238.147159,229.0867 239.560738,228.25884 L243.400006,226.010382 C244.813585,225.182522 246.948942,225.111352 248.169458,225.851418 L262.534065,234.561475 Z M290.710796,251.646587 C291.931312,252.386653 291.774803,253.657708 290.361224,254.485568 L286.521956,256.734027 C285.108376,257.561886 282.97302,257.633057 281.752504,256.89299 L267.387896,248.182933 C266.16738,247.442867 266.323889,246.171812 267.737469,245.343952 L271.576737,243.095493 C272.990316,242.267634 275.125672,242.196463 276.346188,242.93653 L290.710796,251.646587 Z M322.644424,271.009713 C323.86494,271.74978 323.708431,273.020835 322.294852,273.848695 L318.455584,276.097153 C317.042004,276.925013 314.906648,276.996183 313.686132,276.256117 L299.321524,267.54606 C298.101008,266.805993 298.257517,265.534938 299.671097,264.707079 L303.510365,262.45862 C304.923944,261.630761 307.0593,261.55959 308.279816,262.299656 L322.644424,271.009713 Z M352.699603,289.233833 C353.920119,289.973899 353.76361,291.244954 352.350031,292.072814 L348.510763,294.321272 C347.097183,295.149132 344.961827,295.220302 343.741311,294.480236 L329.376703,285.770179 C328.156188,285.030113 328.312696,283.759057 329.726276,282.931198 L333.565544,280.682739 C334.979123,279.85488 337.114479,279.783709 338.334995,280.523776 L352.699603,289.233833 Z" id="形状" fill="#FFFFFF"></path>
                                        <path d="M146.695456,156.788221 L146.695456,9.65190206 C146.695456,6.66956441 149.113118,4.25190206 152.095456,4.25190206 C153.048918,4.25190206 153.985383,4.50435234 154.809653,4.98359042 L379.088196,135.381096 C381.87583,137.001851 383.583364,139.990109 383.564378,143.214609 L382.668341,295.387561 L382.668341,295.387561 L146.695456,156.788221 Z" id="路径-7" fill="#78B7FF"></path>
                                        <path d="M152.400325,152.581342 L152.400325,14.9352392 C152.400325,13.9411266 153.206212,13.1352392 154.200325,13.1352392 C154.516458,13.1352392 154.827015,13.2184983 155.100751,13.3766397 L370.260129,137.677432 C373.059944,139.294928 374.776889,142.290044 374.757841,145.523448 L373.954829,281.835272 L373.954829,281.835272 L152.400325,152.581342 Z" id="路径-7" fill="url(#linearGradient-17)"></path>
                                        <g id="编组-22" transform="translate(259.341198, 149.629352) rotate(54.000000) translate(-259.341198, -149.629352) translate(215.841198, 107.629352)">
                                            <path d="M35.1785062,19.5858531 C50.2333733,19.5858531 64.9094018,29.2507078 68.1709308,41.4527089 C71.4324598,53.65471 62.0444147,63.773208 46.9895476,63.773208 C44.6933784,63.773208 42.4020128,63.5431042 40.1558279,63.109795 C39.9569331,63.0714264 39.5783096,62.9886803 39.0199573,62.8615565 C38.4180765,62.7245223 37.8378565,62.7557181 37.3438876,62.9479022 L37.058373,63.0824732 L31.5677039,66.1617747 C31.4303243,66.2388206 31.2590902,66.2619167 31.0785646,66.2277502 C30.6656481,66.149601 30.2973035,65.7955609 30.1859404,65.3965096 L30.1545662,65.223405 L29.8580882,61.6309035 C29.7523598,60.349764 28.8726783,59.046954 27.6309094,58.3324661 C27.4515481,58.2292632 27.3084167,58.1449337 27.2015152,58.0794777 C20.5981795,54.0362397 15.5640229,48.1863748 13.8247786,41.6795305 C10.5632496,29.4775294 20.1236391,19.5858531 35.1785062,19.5858531 Z" id="形状结合" fill="#78B7FF" transform="translate(41.002023, 42.914491) rotate(-37.000000) translate(-41.002023, -42.914491) "></path>
                                            <path d="M35.1586083,25.0638022 C50.2134754,25.0638022 65.0618482,34.9554786 68.3233772,47.1574797 C71.5849063,59.3594808 62.0245168,69.2511571 46.9696496,69.2511571 C44.6734804,69.2511571 42.3821148,69.0210533 40.1359299,68.5877441 C39.9370352,68.5493756 39.5584117,68.4666294 39.0000594,68.3395056 C38.3981786,68.2024714 37.8179586,68.2336673 37.3239896,68.4258513 L37.0384751,68.5604224 L31.5478059,71.6397239 C31.4104264,71.7167697 31.2391923,71.7398659 31.0586666,71.7056993 C30.6457501,71.6275501 30.2774056,71.2735101 30.1660425,70.8744588 L30.1346682,70.7013541 L29.8381903,67.1088526 C29.7324618,65.8277132 28.8527804,64.5249032 27.6110115,63.8104153 C27.4316501,63.7072123 27.2885187,63.6228828 27.1816173,63.5574268 C20.5782816,59.5141888 15.544125,53.6643239 13.8048806,47.1574797 C10.5433516,34.9554786 20.1037411,25.0638022 35.1586083,25.0638022 Z" id="形状结合" fill="#FFFFFF" transform="translate(41.064129, 48.392440) rotate(-37.000000) translate(-41.064129, -48.392440) "></path>
                                            <path d="M33.8255705,37.7896514 C33.5985189,37.775702 33.371068,37.7682954 33.1435167,37.7674411 C32.3649624,37.7688551 31.5515585,37.9914228 31.0580511,38.4797232 C30.4627303,39.0720541 28.9737444,40.4548992 28.968602,43.290562 C28.9634842,46.1228749 31.0892134,48.8591968 31.3744483,49.2422374 C31.6734659,49.623578 35.5176646,55.5156935 41.4954356,57.908359 C46.1719689,59.7808101 47.5605913,59.6040956 48.6271975,59.381068 C50.1831718,59.053306 52.1350219,57.934259 52.6283592,56.5883956 C53.1217025,55.2391824 53.1237825,54.0901779 52.9812605,53.8458972 C52.8370131,53.6032946 52.4428201,53.4649915 51.8456523,53.1746385 C51.2467589,52.8859636 48.3417601,51.4976992 47.7909078,51.3127826 C47.2521309,51.1177945 46.7387119,51.187399 46.3312004,51.7458902 C45.7544902,52.5241043 45.1915354,53.3156928 44.734221,53.792203 C44.3752751,54.164689 43.7878296,54.2126539 43.2990072,54.0159001 C42.6415106,53.7491057 40.7996067,53.1260277 38.5277835,51.1671378 C36.7718995,49.6494919 35.5782123,47.7589909 35.2330246,47.1918172 C34.8861387,46.6112471 35.1985144,46.2740192 35.4746758,45.9603061 C35.7733142,45.5996542 36.0614268,45.3445418 36.3617452,45.0073358 C36.6620636,44.6701298 36.8277356,44.4956364 37.0213672,44.1000016 C37.2253124,43.7160727 37.0830633,43.321048 36.9389008,43.0315472 C36.7964608,42.7420433 35.6044775,39.9102296 35.1156518,38.7637915 C34.7228688,37.8466442 34.4232235,37.8120149 33.8255705,37.7896514 Z" id="路径" fill="#65ADFF" transform="translate(41.015755, 48.641455) rotate(-24.000000) translate(-41.015755, -48.641455) "></path>
                                        </g>
                                    </g>
                                    <g id="路径" stroke-linecap="round" stroke-linejoin="round">
                                        <use fill="black" fill-opacity="1" filter="url(#filter-20)" xlink:href="#path-19"></use>
                                        <use stroke="url(#linearGradient-18)" stroke-width="5.4" xlink:href="#path-19"></use>
                                    </g>
                                    <g id="手机" transform="translate(336.531170, 142.968201)">
                                        <path d="M13.5596061,72.3017454 L162.233561,161.866792 C165.612029,163.902069 169.831317,163.933777 173.239992,161.949504 L247.390529,118.784684 C250.713234,116.850457 252.757145,113.295649 252.757145,109.450964 L252.757145,100.624031 L252.757145,100.624031 L95.5638819,14.0430578 C92.3443994,12.2697889 88.4440761,12.2556183 85.2117936,14.0054468 L8.33265312,55.6247395 L8.33265312,55.6247395 L8.33265312,63.0507376 C8.33265312,66.8375172 10.315946,70.3476805 13.5596061,72.3017454 Z" id="路径-14备份" fill="url(#linearGradient-21)"></path>
                                        <path d="M9.34423896,59.4988366 L162.652566,150.73312 C166.011102,152.731795 170.1874,152.760053 173.572675,150.807008 L251.450269,105.877574 C254.550178,104.089163 255.613357,100.126398 253.824946,97.0264889 C253.264619,96.0552569 252.461862,95.2460398 251.495152,94.6779466 L95.8982076,3.24041556 C92.4978806,1.24219182 88.2786923,1.25641808 84.8919177,3.27752656 L9.33741306,48.3658086 C6.26423555,50.1997733 5.25965508,54.1777981 7.09361978,57.2509756 C7.6454126,58.1756157 8.41892294,58.9481781 9.34423896,59.4988366 Z" id="路径-14" fill="#676669"></path>
                                        <path d="M19.5915611,56.0666574 L166.194149,142.447992 C167.541685,143.241989 169.213146,143.245609 170.564109,142.457457 L240.931407,101.405189 C241.961809,100.804053 242.309798,99.4814292 241.708661,98.4510269 C241.5223,98.131586 241.25704,97.8653452 240.93829,97.677805 L93.7867731,11.0996293 C92.3995325,10.2834314 90.6735673,10.3061291 89.30827,11.1585249 L79.3424928,17.3804568 C78.0413384,18.1928062 77.6450838,19.9061396 78.4574332,21.207294 C78.7615516,21.6944057 79.2091816,22.0752756 79.7387037,22.2974741 C81.1250908,22.8792311 81.7773724,24.4747272 81.1956154,25.8611143 C80.9719726,26.3940783 80.5845048,26.8420311 80.0893141,27.140113 L52.5619205,43.7103316 C49.6395397,45.4694697 45.9815404,45.4581996 43.0700546,43.6810876 C40.1636525,41.9070785 36.5073231,41.9152388 33.6088684,43.7022031 L19.5545188,52.3670347 C18.5390621,52.9930872 18.2233877,54.3237934 18.8494402,55.3392501 C19.0339336,55.6384981 19.288679,55.8881928 19.5915611,56.0666574 Z" id="路径-14备份-2" fill="url(#linearGradient-22)"></path>
                                        <g id="编组-22" transform="translate(93.487739, 38.762505)">
                                            <path d="M26.770261,16.2480338 C39.4968593,16.2480338 52.048898,24.6348304 54.8060243,34.9804682 C57.5631505,45.3261061 49.4812967,53.7129026 36.7546984,53.7129026 C34.813637,53.7129026 32.8766361,53.5178059 30.9778288,53.1504186 C30.8096936,53.1178873 30.489625,53.0477298 30.0176231,52.9399461 C29.5088246,52.8237598 29.0183369,52.8502096 28.6007613,53.0131555 L28.3594022,53.1272535 L23.7178774,55.7380825 C23.6017439,55.8034069 23.4569915,55.8229893 23.3043845,55.7940207 C22.9553265,55.7277608 22.6439473,55.4275829 22.5498067,55.0892417 L22.5232846,54.9424725 L22.2726576,51.8965197 C22.1832803,50.8102877 21.4396436,49.7056819 20.389917,49.0998933 C20.2382943,49.0123912 20.1172985,48.9408913 20.0269296,48.8853935 C14.4448145,45.4572774 10.1892015,40.4973874 8.7189352,34.9804682 C5.96180894,24.6348304 14.0436628,16.2480338 26.770261,16.2480338 Z" id="形状结合" fill="#65ADFF" transform="translate(31.762480, 36.027547) rotate(-37.000000) translate(-31.762480, -36.027547) "></path>
                                            <path d="M26.0043028,10.4677741 C38.730901,10.4677741 51.2829397,18.8545706 54.040066,29.2002085 C56.7971922,39.5458463 48.7153384,47.9326428 35.9887401,47.9326428 C34.0476787,47.9326428 32.1106779,47.7375461 30.2118705,47.3701589 C30.0437353,47.3376275 29.7236667,47.26747 29.2516648,47.1596863 C28.7428663,47.0435 28.2523786,47.0699498 27.834803,47.2328957 L27.593444,47.3469937 L22.9519191,49.9578227 C22.8357856,50.0231471 22.6910332,50.0427295 22.5384263,50.0137609 C22.1893682,49.947501 21.877989,49.6473232 21.7838484,49.3089819 L21.7573263,49.1622127 L21.5066993,46.1162599 C21.417322,45.0300279 20.6736853,43.9254221 19.6239587,43.3196335 C19.472336,43.2321315 19.3513402,43.1606315 19.2609713,43.1051337 C13.6788562,39.6770176 9.42324321,34.7171276 7.9529769,29.2002085 C5.19585065,18.8545706 13.2777045,10.4677741 26.0043028,10.4677741 Z" id="形状结合" fill="#FFFFFF" transform="translate(30.996521, 30.247287) rotate(-37.000000) translate(-30.996521, -30.247287) "></path>
                                            <path d="M25.8734586,18.7828064 C25.4969278,17.9016158 25.208978,17.8685858 24.6346023,17.8476845 C24.4163998,17.8344925 24.1978064,17.8276014 23.9791096,17.8270205 C23.230846,17.8292094 22.4488537,18.0444083 21.974029,18.5151703 C21.4012417,19.0862226 19.9687204,20.4194966 19.9607511,23.1502704 C19.9528373,25.8778181 21.992951,28.5106617 22.266681,28.8792301 C22.5536592,29.2461467 26.2420268,34.9162216 31.9846714,37.2140283 C36.4772597,39.0122465 37.8120411,38.8405935 38.8373845,38.6246827 C40.3331669,38.3073918 42.2102629,37.2276659 42.6858353,35.9310634 C43.161417,34.631235 43.1646368,33.5247313 43.0279197,33.2896383 C42.8895424,33.0561631 42.5108338,32.9233948 41.9372091,32.6444168 C41.3619243,32.3670567 38.5714288,31.0332323 38.0422056,30.8557413 C37.5245987,30.6685385 37.031082,30.7361137 36.6388327,31.2743786 C36.0837344,32.0244184 35.5418421,32.7873233 35.1018147,33.2466927 C34.756439,33.6057813 34.191799,33.6525961 33.7222049,33.4636398 C33.0905737,33.207413 31.320997,32.6093404 29.1396476,30.7253259 C27.4536944,29.2656851 26.30846,27.4463843 25.9773055,26.9005577 C25.6445332,26.3418322 25.9451131,26.0167469 26.2108629,25.7143449 C26.498265,25.3667166 26.7754387,25.1207351 27.0644305,24.7956836 C27.3534223,24.4706322 27.5128337,24.3024175 27.6993518,23.921212 C27.8957698,23.5512684 27.7594751,23.1710072 27.6212293,22.8923686 C27.4846389,22.6137252 26.3420422,19.88793 25.8734539,18.7844194 L25.8734586,18.7828064 Z" id="路径" fill="#65ADFF" transform="translate(31.533278, 28.291194) rotate(-24.000000) translate(-31.533278, -28.291194) "></path>
                                        </g>
                                    </g>
                                </g>
                                <line x1="0" y1="292.526963" x2="124.883971" y2="229.219918" id="路径-8" stroke="#8386F5" stroke-width="9" opacity="0.5" filter="url(#filter-23)"></line>
                                <polyline id="路径-9" stroke="#5694DC" stroke-width="7.2" opacity="0.5" filter="url(#filter-24)" points="32 411 238.99925 537 374 456.708999"></polyline>
                                <polyline id="路径-10" stroke="#404040" stroke-width="5.4" opacity="0.5" filter="url(#filter-25)" points="362 223 500.098901 303 575 261.991676"></polyline>
                            </g>
                        </g>
                    </g>
                </g>
                <g id="编组-11" transform="translate(360.000000, 345.000000)"></g>
            </g>
        </g>
    </g>
</svg>