<svg xmlns="http://www.w3.org/2000/svg" xmlns:xlink="http://www.w3.org/1999/xlink" viewBox="0 0 375.36 474.49"><defs><style>.cls-1{fill:#fff;}.cls-2{fill:url(#linear-gradient);}</style><linearGradient id="linear-gradient" y1="72.78" x2="375.36" y2="72.78" gradientUnits="userSpaceOnUse"><stop offset="0" stop-color="#05f"/><stop offset="1" stop-color="#00cdff"/></linearGradient></defs><title>资源 6</title><g id="图层_2" data-name="图层 2"><g id="图层_1-2" data-name="图层 1"><path class="cls-1" d="M.33,72.55H375a0,0,0,0,1,0,0V434.49a40,40,0,0,1-40,40H40.33a40,40,0,0,1-40-40V72.55a0,0,0,0,1,0,0Z"/><path class="cls-2" d="M20,0H355.36a20,20,0,0,1,20,20V145.55a0,0,0,0,1,0,0H0a0,0,0,0,1,0,0V20A20,20,0,0,1,20,0Z"/></g></g></svg>