<?xml version="1.0" encoding="UTF-8"?>
<svg width="33px" height="31px" viewBox="0 0 33 31" version="1.1" xmlns="http://www.w3.org/2000/svg" xmlns:xlink="http://www.w3.org/1999/xlink">
    <!-- Generator: Sketch 62 (91390) - https://sketch.com -->
    <title>时钟</title>
    <desc>Created with Sketch.</desc>
    <g id="页面-1" stroke="none" stroke-width="1" fill="none" fill-rule="evenodd">
        <g id="重构-购买页面" transform="translate(-792.000000, -373.000000)" fill="#1890FF" fill-rule="nonzero">
            <g id="编组-4" transform="translate(739.000000, 366.000000)">
                <g id="时钟" transform="translate(53.000000, 7.000000)">
                    <path d="M17,2 C25.0074022,2 31.5,8.48913508 31.5,16.4979549 C31.5,20.34999 29.9892458,23.8403889 27.5388268,26.4368556 L27.5388268,26.4368556 L29.5599162,28.4685197 C29.8272346,28.7366993 29.9932961,29.1064622 29.9932961,29.5168583 C29.9932961,30.3376506 29.3290503,30.9999866 28.5108939,30.9999866 C28.1018156,30.9999866 27.7291899,30.8333767 27.4618715,30.565197 L27.4618715,30.565197 L25.2828212,28.3872531 C22.8526536,30.0897876 19.9607542,31.0040364 16.9959497,30.9999866 C13.9177374,30.9999866 11.0663408,30.032901 8.72122905,28.3953798 L8.72122905,28.3953798 L6.55837989,30.5570703 C6.27486034,30.83744 5.89413408,30.9959098 5.4972067,30.9959098 C4.67094972,30.9959098 3.99860335,30.3254606 3.99860335,29.4965417 C3.99860335,29.0820822 4.1646648,28.708256 4.43603352,28.436013 L4.43603352,28.436013 L6.44902235,26.4246656 C4.00670391,23.8281989 2.5,20.3418633 2.5,16.4979549 C2.5,8.48913508 8.99259777,2 17,2 Z M16.4451117,9.43995387 C15.7120112,9.43995387 15.1166201,10.0372631 15.1166201,10.7727255 L15.1166201,10.7727255 L15.1166201,18.1882994 C15.1166201,18.9237618 15.7120112,19.521071 16.4451117,19.521071 L16.4451117,19.521071 L23.8328212,19.521071 C24.5659218,19.521071 25.1613128,18.9237618 25.1613128,18.1882994 C25.1613128,17.452837 24.5699721,16.8555278 23.8368715,16.8555278 L23.8368715,16.8555278 L17.7736034,16.8555278 L17.7736034,10.7727255 C17.7736034,10.0372631 17.1782123,9.43995387 16.4451117,9.43995387 Z M6.49898734,0 C7.90050633,0 9.18455696,0.498116367 10.2053165,1.32691503 C6.42607595,2.9970699 3.41240506,6.0987861 1.78810127,10 C0.953670886,8.91586438 0.5,7.56802009 0.5,6.18250314 C0.5,2.76684805 3.18556962,0 6.49898734,0 Z M26.6265823,0.00418585182 C29.8711392,0.00418585182 32.5,2.71243198 32.5,6.05692758 C32.5,7.4633738 32.0260759,8.76098786 31.2402532,9.79070741 C29.6483544,5.97321055 26.695443,2.93428213 22.9972152,1.30179992 C24.0301266,0.4604437 25.3101266,0.00418585182 26.6265823,0.00418585182 Z" id="形状结合"></path>
                </g>
            </g>
        </g>
    </g>
</svg>