<svg xmlns="http://www.w3.org/2000/svg" xmlns:xlink="http://www.w3.org/1999/xlink" viewBox="0 0 335 69.86"><defs><style>.cls-1{fill:url(#linear-gradient);}.cls-2{fill:url(#linear-gradient-2);}.cls-3{fill:url(#linear-gradient-3);}.cls-4,.cls-5,.cls-7,.cls-9{fill:#222021;}.cls-5,.cls-7,.cls-9{font-size:8.24px;font-family:Impact, Impact;}.cls-5{letter-spacing:0.03em;}.cls-6{letter-spacing:-0.04em;}.cls-7{letter-spacing:0.03em;}.cls-8{fill:url(#linear-gradient-4);}.cls-9{letter-spacing:0.02em;}</style><linearGradient id="linear-gradient" x1="210.5" y1="54" x2="210.5" gradientUnits="userSpaceOnUse"><stop offset="0" stop-color="#05f"/><stop offset="1" stop-color="#00cdff"/></linearGradient><linearGradient id="linear-gradient-2" x1="124.5" x2="124.5" xlink:href="#linear-gradient"/><linearGradient id="linear-gradient-3" x1="38.5" x2="38.5" xlink:href="#linear-gradient"/><linearGradient id="linear-gradient-4" x1="296.5" x2="296.5" xlink:href="#linear-gradient"/></defs><title>资源 2</title><g id="图层_2" data-name="图层 2"><g id="图层_1-2" data-name="图层 1"><rect class="cls-1" x="172" width="77" height="54" rx="6.97" ry="6.97"/><rect class="cls-2" x="86" width="77" height="54" rx="6.97" ry="6.97"/><rect class="cls-3" width="77" height="54" rx="6.97" ry="6.97"/><circle class="cls-4" cx="82.04" cy="24.06" r="1.12"/><circle class="cls-4" cx="82.04" cy="29.09" r="1.12"/><circle class="cls-4" cx="167" cy="24.06" r="1.12"/><circle class="cls-4" cx="167" cy="29.09" r="1.12"/><text class="cls-5" transform="translate(27.96 67.14) scale(1.13 1)">D<tspan class="cls-6" x="4.76" y="0">A</tspan><tspan x="8.65" y="0">YS</tspan></text><text class="cls-5" transform="translate(111.57 67.14) scale(1.13 1)">HOURS</text><text class="cls-7" transform="translate(195.17 67.14) scale(1.13 1)">MINUTES</text><rect class="cls-8" x="258" width="77" height="54" rx="6.97" ry="6.97"/><circle class="cls-4" cx="253" cy="24.06" r="1.12"/><circle class="cls-4" cx="253" cy="29.09" r="1.12"/><text class="cls-9" transform="translate(279.5 67) scale(1.13 1)">SECONDS</text></g></g></svg>