<?xml version="1.0" encoding="UTF-8"?>
<svg width="60px" height="59px" viewBox="0 0 60 59" version="1.1" xmlns="http://www.w3.org/2000/svg" xmlns:xlink="http://www.w3.org/1999/xlink">
    <!-- Generator: Sketch 62 (91390) - https://sketch.com -->
    <title>安全</title>
    <desc>Created with Sketch.</desc>
    <g id="页面-1" stroke="none" stroke-width="1" fill="none" fill-rule="evenodd">
        <g id="重构-购买页面" transform="translate(-480.000000, -1288.000000)" fill="#50677B" fill-rule="nonzero">
            <g id="banner备份-4" transform="translate(0.000000, 1188.000000)">
                <g id="编组-10" transform="translate(366.000000, 100.000000)">
                    <g id="编组-7">
                        <g id="编组-12">
                            <g id="安全" transform="translate(114.000000, 0.000000)">
                                <path d="M58.4653413,25.5837209 L54.1571255,20.6082693 C53.8569816,20.261441 53.6789943,19.8285295 53.6497238,19.3741357 L53.2322585,12.8538734 C53.0312537,9.71519804 50.5155118,7.19781248 47.325996,6.943752 L40.7002433,6.42002026 C40.238322,6.38330884 39.8008736,6.2007443 39.4532165,5.89958657 L34.4630959,1.58110835 C32.061934,-0.499418229 28.4701155,-0.530050204 26.0325773,1.50921066 L20.9699707,5.74325859 C20.6173713,6.03872891 20.1767022,6.2137212 19.7142188,6.24192508 L13.079741,6.6522036 C9.88478941,6.84967722 7.32274184,9.32405986 7.06609186,12.4600852 L6.5331859,18.9717725 C6.496402,19.4258794 6.31056596,19.8559671 6.00363578,20.1973312 L1.60951071,25.0956082 C-0.50814065,27.4555896 -0.539596163,30.9862486 1.53568243,33.3823108 L5.84389822,38.3564431 C6.14442671,38.7032998 6.32245765,39.1365491 6.35129987,39.5912363 L6.76876524,46.1114986 C6.96941621,49.2515712 9.4872938,51.7696632 12.6783836,52.02162 L19.3041362,52.5453518 C19.7661977,52.5815024 20.2038192,52.7641392 20.551163,53.0657855 L25.5359143,57.3842637 C27.9375135,59.4649843 31.5298021,59.4956154 33.9677752,57.4561614 L39.0297106,53.2221135 C39.3826144,52.9271367 39.8231092,52.7522135 40.2854626,52.723447 L46.9199404,52.3131684 C50.1137216,52.1159006 52.6753578,49.6433201 52.9335895,46.5085849 L53.4664955,39.9968976 C53.5035653,39.5428596 53.6893644,39.1128573 53.9960456,38.7713389 L58.3901707,33.8691043 C60.5077255,31.5097737 60.5397519,27.9797856 58.4653413,25.5837209 Z M43.1828871,24.7783349 C42.6258191,25.3284511 42.0689749,25.8781276 41.5123544,26.4273643 L34.2845657,33.563704 L29.7159374,38.0741293 C28.9300018,38.8498327 27.6561283,38.8076175 26.8675081,38.0741293 L25.6694764,36.960045 L20.5014967,32.1521348 L17.247683,29.122538 C16.4302026,28.3620056 16.5261794,27.095551 17.247683,26.3231457 C17.9973757,25.5203981 19.3282982,25.610765 20.0961123,26.3231457 L21.2907882,27.4378895 L26.4587678,32.2451401 L28.2494393,33.9106598 L28.5380407,33.6257075 L35.7658295,26.4893678 L40.3358001,21.9789426 C41.1304608,21.1946642 42.3821858,21.2533696 43.1849005,21.9789426 C43.9876153,22.7045155 43.9272104,24.0435274 43.1828871,24.7783349 Z" id="形状"></path>
                            </g>
                        </g>
                    </g>
                </g>
            </g>
        </g>
    </g>
</svg>