<svg xmlns="http://www.w3.org/2000/svg" viewBox="0 0 91.33 91.33"><defs><style>.cls-1{fill:#ff5e56;}.cls-2{fill:#fff;}</style></defs><title> Service</title><g id="图层_2" data-name="图层 2"><g id="图层_1-2" data-name="图层 1"><rect class="cls-1" width="91.33" height="91.33" rx="45.66" ry="45.66"/><path class="cls-2" d="M69.83,48.19c-1.35,15-9.18,20.73-20.84,22.39a3.84,3.84,0,1,1-.15-2.92c9.73-1.7,16.41-6.64,18-18.89a2.77,2.77,0,0,1-.83-.37A21.15,21.15,0,0,1,54.17,64.48a16,16,0,0,0,6.37-12.22c.3-8.89-13.05-17.74-13.7-17.05-.78-.8-1,5.6-4.79,7.84-3.24,3.12-9.08.64-11.24,6.6-1.35,6.45,2.45,12.85,7.68,15.89a21.17,21.17,0,0,1-14.4-17.08,2.82,2.82,0,0,1-1.52.44h-.36A2.88,2.88,0,0,1,19.33,46V41a2.89,2.89,0,0,1,2.24-2.81C24.25,26.61,33.83,18,45.22,18s21,8.62,23.67,20.23a2.89,2.89,0,0,1,2,2.73v5a2.89,2.89,0,0,1-1,2.18ZM45.21,20.94c-10,0-18.41,7.6-20.82,17.85a2.84,2.84,0,0,1,.4.4,21.19,21.19,0,0,1,40.51.08,2.84,2.84,0,0,1,.69-.66C63.53,28.44,55.15,20.94,45.21,20.94Zm-.55,39.51c-2.39,0-4.39-1.19-5-2.82a11,11,0,0,0,4.51.92,10.22,10.22,0,0,0,5.73-1.6c-.28,2-2.49,3.5-5.21,3.5Z"/></g></g></svg>