<svg xmlns="http://www.w3.org/2000/svg" viewBox="0 0 91.33 91.33"><defs><style>.cls-1{fill:#4b9afc;}.cls-2{fill:#fff;}</style></defs><title>speed</title><g id="图层_2" data-name="图层 2"><g id="图层_1-2" data-name="图层 1"><rect class="cls-1" width="91.33" height="91.33" rx="45.66" ry="45.66"/><path class="cls-2" d="M67.85,45.47H47.77a2.14,2.14,0,0,1-2-2.84l11.76-24A2.82,2.82,0,0,0,55,14.6H38A4,4,0,0,0,34,17.72l-7.2,30.94A2.83,2.83,0,0,0,29.62,52H45.31a.88.88,0,0,1,.82,1.18L37,77.94a1.24,1.24,0,0,0,2,1.33L69.79,50.37A2.83,2.83,0,0,0,67.85,45.47Z"/></g></g></svg>