<svg xmlns="http://www.w3.org/2000/svg" viewBox="0 0 91.33 91.33"><defs><style>.cls-1{fill:#ff5e56;}.cls-2{fill:#fff;}</style></defs><title>资源 6</title><g id="图层_2" data-name="图层 2"><g id="图层_1-2" data-name="图层 1"><rect class="cls-1" width="91.33" height="91.33" rx="45.66" ry="45.66"/><path class="cls-2" d="M56.46,33.2a2.48,2.48,0,0,0-3.5,0l-6.52,6.52L39.93,33.2a2.48,2.48,0,1,0-3.5,3.5l4,4H36.52a.48.48,0,0,0-.48.48v4a.48.48,0,0,0,.48.48H44V49H36.52a.48.48,0,0,0-.48.48v4a.48.48,0,0,0,.48.48H44v7.45a2.48,2.48,0,0,0,5,0V54h7.45a.48.48,0,0,0,.48-.48v-4a.48.48,0,0,0-.48-.48H48.92V45.7h7.45a.48.48,0,0,0,.48-.48v-4a.48.48,0,0,0-.48-.48H52.42l4-4a2.48,2.48,0,0,0,0-3.5Zm20.27-.54a32.86,32.86,0,0,0-62.19,5L12.9,33.93a2.48,2.48,0,0,0-4.53,2l5.08,11.43.09.18v0l.09.15h0l.08.11,0,.05.06.07.09.1h0l0,0,0,0h0l.06.06.05,0,.09.07,0,0,.14.09h0l.14.08h0l.31.14h0l.14,0h0l.13,0h0l.15,0h.59l.2,0h0l.19,0h0l.15,0h0l0,0,.13-.05h0l.06,0,.16-.08h0a2.52,2.52,0,0,0,.37-.27L26.78,40a2.48,2.48,0,1,0-3.26-3.73L19,40.18A27.9,27.9,0,1,1,28.3,66.65a2.48,2.48,0,0,0-3.22,3.76A32.87,32.87,0,0,0,76.73,32.67Z"/></g></g></svg>