<svg xmlns="http://www.w3.org/2000/svg" viewBox="0 0 91.33 91.33"><defs><style>.cls-1{fill:#52c41a;}.cls-2{fill:#fff;}</style></defs><title>资源 4</title><g id="图层_2" data-name="图层 2"><g id="图层_1-2" data-name="图层 1"><rect class="cls-1" width="91.33" height="91.33" rx="45.66" ry="45.66"/><path class="cls-2" d="M40.9,43.58,22.62,34l0,0a5.57,5.57,0,0,0-2.44-.61A3.57,3.57,0,0,0,16.43,37V62.87c0,2.23,1.74,4.7,4.13,5.88l18.28,9.59.05,0a5.57,5.57,0,0,0,2.44.61A3.57,3.57,0,0,0,45,75.3V49.45C45,47.26,43.25,44.73,40.9,43.58ZM19.54,37c0-.26.07-.56.59-.56a2.46,2.46,0,0,1,1,.28l18.33,9.62a4.27,4.27,0,0,1,2.4,3.09V75.3c0,.39-.18.56-.59.56a2.5,2.5,0,0,1-1-.28L21.94,66a4.28,4.28,0,0,1-2.4-3.09Z"/><path class="cls-2" d="M72.34,33.35a5.57,5.57,0,0,0-2.45.62l-18.31,9.6c-2.4,1.18-4.14,3.66-4.14,5.88V75.3A3.57,3.57,0,0,0,51.15,79a5.59,5.59,0,0,0,2.45-.62l18.31-9.6C74.3,67.57,76,65.09,76,62.87V37A3.57,3.57,0,0,0,72.34,33.35ZM51.15,75.85c-.52,0-.59-.3-.59-.55V49.45A4.33,4.33,0,0,1,53,46.34l18.27-9.59a2.49,2.49,0,0,1,1-.28c.52,0,.59.3.59.56V62.87A4.33,4.33,0,0,1,70.47,66L52.2,75.57A2.48,2.48,0,0,1,51.15,75.85Z"/><path class="cls-2" d="M70.44,30.62A4.09,4.09,0,0,0,73,27a4,4,0,0,0-2.52-3.52L50,13.44a9.22,9.22,0,0,0-4-.84,9.47,9.47,0,0,0-4.2.92L21.14,24a4.09,4.09,0,0,0-2.53,3.6,4,4,0,0,0,2.52,3.52L41.59,41.19a9.2,9.2,0,0,0,4,.84,9.47,9.47,0,0,0,4.2-.92ZM69.85,27c0,.15-.22.49-.82.8L48.36,38.33a6.41,6.41,0,0,1-2.79.58,6.15,6.15,0,0,1-2.6-.52L22.51,28.33c-.46-.23-.78-.53-.78-.74s.22-.49.82-.8L43.22,16.29A6.4,6.4,0,0,1,46,15.72a6.15,6.15,0,0,1,2.6.52L69.07,26.3C69.53,26.52,69.85,26.83,69.85,27Z"/></g></g></svg>