<svg xmlns="http://www.w3.org/2000/svg" viewBox="0 0 151.62 162.6"><defs><style>.cls-1{fill:#352836;}.cls-2{fill:#1d161e;opacity:0.7;}.cls-3{fill:#ffdebf;}.cls-4{fill:#ecc6ae;}.cls-5{fill:#438584;}.cls-6{fill:#fff;}.cls-7{fill:none;stroke:#352836;stroke-miterlimit:10;}.cls-8{fill:#d5b29f;}</style></defs><title>资源 9</title><g id="图层_2" data-name="图层 2"><g id="图层_1-2" data-name="图层 1"><path class="cls-1" d="M76,.19s30.19-4,36.15,24.94c5,24,23.52,87.78-16.5,86.12s-17.55-.67-17.55-.67Z"/><path class="cls-1" d="M74.77,1.86a36.62,36.62,0,0,1,9.29-.46,36,36,0,0,1,9.19,1.83,29.22,29.22,0,0,1,8.3,4.5,28.31,28.31,0,0,1,6.31,7.09,34.36,34.36,0,0,1,3.86,8.66c.47,1.53.83,3,1.25,4.49l1.25,4.47c1.66,6,3.28,12,4.71,18s2.61,12.17,3.42,18.35c.22,1.54.34,3.1.51,4.65s.27,3.11.3,4.68a68.07,68.07,0,0,1-.19,9.39,42.41,42.41,0,0,1-1.87,9.25,22.59,22.59,0,0,1-4.66,8.22,19,19,0,0,1-7.87,5.1,27.94,27.94,0,0,1-9.22,1.22l2.31-.2,1.15-.1,1.13-.23c.75-.17,1.52-.26,2.25-.48l2.18-.73a18.2,18.2,0,0,0,7.3-5.25,21.57,21.57,0,0,0,4.14-8,42.52,42.52,0,0,0,1.55-9,90.38,90.38,0,0,0-.95-18.33c-.86-6.09-2.06-12.14-3.49-18.14s-3-12-4.58-18l-1.18-4.5c-.4-1.49-.75-3-1.17-4.47a34.65,34.65,0,0,0-3.49-8.33,27.59,27.59,0,0,0-5.8-6.88,28.37,28.37,0,0,0-7.8-4.6A38.77,38.77,0,0,0,74.77,1.86Z"/><path class="cls-1" d="M76.71.19s-29.59-4-35.44,24.94c-4.85,24-23.05,87.78,16.17,86.12s17.2-.67,17.2-.67Z"/><path class="cls-2" d="M75.67,26.89s-20.8-3-24.91,18.66c-3.41,18-16.21,65.7,11.37,64.45s12.09-.5,12.09-.5Z"/><path class="cls-2" d="M78.95,26.89s20.8-3,24.91,18.66c3.41,18,16.21,65.7-11.37,64.45s-12.09-.5-12.09-.5Z"/><path class="cls-1" d="M77.94,1.86A37.23,37.23,0,0,0,60,4.23,26.65,26.65,0,0,0,46.69,15.91a35.24,35.24,0,0,0-3.34,8.34l-2.29,8.93C39.51,39.12,38,45.06,36.61,51s-2.56,12-3.4,18a92.79,92.79,0,0,0-.94,18.22,44.65,44.65,0,0,0,1.48,8.93,22.23,22.23,0,0,0,4,8,17.79,17.79,0,0,0,7.15,5.34l2.16.73c.72.24,1.49.32,2.23.49l1.13.23,1.14.1,2.3.2a27.16,27.16,0,0,1-9.15-1.26,18.57,18.57,0,0,1-7.72-5.2,23.24,23.24,0,0,1-4.51-8.23,44.36,44.36,0,0,1-1.79-9.2,70.37,70.37,0,0,1-.18-9.33c0-1.55.2-3.1.29-4.65s.29-3.09.5-4.62c.79-6.14,2-12.22,3.32-18.24s3-12,4.59-17.91l2.43-8.91a34.87,34.87,0,0,1,3.69-8.66A27.28,27.28,0,0,1,59.61,3.31a34.79,34.79,0,0,1,9.11-1.9A35.35,35.35,0,0,1,77.94,1.86Z"/><path class="cls-3" d="M8.18,132.5c5.95-16,42.31-23.61,48.68-28.24,8.18-5.95,5.57-25.64,5.57-25.64L75.81,79l13.38-.35s-2.6,19.7,5.57,25.64c6.37,4.63,42.74,12.26,48.68,28.24a174.81,174.81,0,0,1,8.18,30.1H0A174.8,174.8,0,0,1,8.18,132.5Z"/><path class="cls-4" d="M91.67,100.58c-6.26-.64-12.56-1.91-18-5a61.43,61.43,0,0,1-10.88-7.8,60.75,60.75,0,0,0-.35-9.21L75.81,79l13.38-.35S87.34,92.63,91.67,100.58Z"/><path class="cls-5" d="M130.14,119.2q-1.64-.95-3.36-1.84c-7.21,11.77-27.55,20.26-51.53,20.26s-44.32-8.49-51.53-20.26q-1.59.82-3.11,1.69a65.85,65.85,0,0,1,4.56,24.9,70.49,70.49,0,0,1-2.42,18.65H127.84a70.69,70.69,0,0,1-2.33-18.32A65.69,65.69,0,0,1,130.14,119.2Z"/><circle class="cls-6" cx="45.84" cy="109.24" r="2.37"/><circle class="cls-6" cx="98.84" cy="106.95" r="2.37"/><circle class="cls-6" cx="95.55" cy="112.28" r="2.37"/><circle class="cls-6" cx="91.51" cy="116.57" r="2.38"/><circle class="cls-6" cx="86.18" cy="120.57" r="2.37"/><circle class="cls-6" cx="80.51" cy="123.24" r="2.38"/><circle class="cls-6" cx="74.18" cy="123.95" r="2.37"/><circle class="cls-6" cx="67.84" cy="122.91" r="2.37"/><circle class="cls-6" cx="61.18" cy="121.24" r="2.37"/><circle class="cls-6" cx="54.84" cy="118.24" r="2.37"/><circle class="cls-6" cx="49.84" cy="113.95" r="2.37"/><path class="cls-4" d="M98.28,47.91c2.16-6.7,7.28-5.15,7.76-5s5.79.84,4.88,7.83-5,10.83-8.82,9.71C98.16,59.83,96.1,54.65,98.28,47.91Z"/><path class="cls-4" d="M54,47.91c-2.16-6.7-7.28-5.15-7.76-5s-5.79.84-4.88,7.83,5,10.83,8.82,9.71C54.13,59.83,56.19,54.65,54,47.91Z"/><path class="cls-3" d="M49.56,37.36C52.23,8,74.58,9.62,76.68,9.84c2.11-.22,24.45-1.87,27.13,27.52,2.69,29.56-10.47,48.87-27.13,47.81C60,86.23,46.86,66.92,49.56,37.36Z"/><path class="cls-1" d="M75.13,4S48.82,4.3,49.56,37.28c0,0,.15.26,4.7.75.41-5.71,4.41-15.18,8.41-19.88,0,0-3.73,11.63-4.2,20.21a188.64,188.64,0,0,0,20.29,1.16c1.5-5.24,2-16.32.82-23.33-.38-1.8-.64-2.89-.64-2.89a22.77,22.77,0,0,1,.64,2.89c1,5,3,15.34,2.72,23.31a105.53,105.53,0,0,0,16.83-1.45c0-4.4-.49-12.46-3.57-19.56a50.74,50.74,0,0,1,5.15,19.26c.84-.17,1.67-.36,2.47-.56C103.18,37.19,105.26,1.87,75.13,4Z"/><path class="cls-1" d="M51.26,32.28a92.8,92.8,0,0,0,1,32.5s-6.75-11.5-7.75-32.5S51.26,32.28,51.26,32.28Z"/><path class="cls-1" d="M102.17,32.28a92.8,92.8,0,0,1-1,32.5s6.75-11.5,7.75-32.5S102.17,32.28,102.17,32.28Z"/><path class="cls-7" d="M55.51,38s4.75-20.5,11.75-26.25"/><path class="cls-7" d="M79.58,16.19s2.68,17.09,1.18,23.34"/><path class="cls-8" d="M76.54,47.39a34.07,34.07,0,0,1,1.53,5.72c.18,1,.34,1.93.46,2.9s.23,1.95.31,2.93l0,.38-.23.18a31.21,31.21,0,0,1-3.82,2.73,31.24,31.24,0,0,1,2.93-3.66l-.19.56c-.2-1-.38-1.93-.52-2.89s-.27-1.94-.37-2.92A34.07,34.07,0,0,1,76.54,47.39Z"/><path class="cls-8" d="M84.3,68.2a13.11,13.11,0,0,1-8.91,2.65,12.38,12.38,0,0,1-4.61-1.27,10.91,10.91,0,0,1-3.66-2.93,26.67,26.67,0,0,0,4.12,1.83,17.59,17.59,0,0,0,4.26.85,19.64,19.64,0,0,0,4.37-.16A38.7,38.7,0,0,0,84.3,68.2Z"/><ellipse class="cls-1" cx="88.75" cy="47.84" rx="1.83" ry="4.01"/><ellipse class="cls-1" cx="63.53" cy="47.84" rx="1.83" ry="4.01"/><path class="cls-1" d="M95.09,41.28a35.18,35.18,0,0,0-3.27-1.67,10.28,10.28,0,0,0-3.14-.86,6.69,6.69,0,0,0-3.11.42,11.66,11.66,0,0,0-1.6.68c-.54.27-1,.62-1.67.89a9.17,9.17,0,0,1,1-1.7,7.07,7.07,0,0,1,1.5-1.36,6,6,0,0,1,4.06-1.06,7.34,7.34,0,0,1,3.82,1.55A7.59,7.59,0,0,1,95.09,41.28Z"/><path class="cls-1" d="M69.69,41.28a35.12,35.12,0,0,0-3.27-1.67,10.28,10.28,0,0,0-3.14-.86,6.69,6.69,0,0,0-3.11.42,11.66,11.66,0,0,0-1.6.68c-.54.27-1,.62-1.67.89a9.17,9.17,0,0,1,1-1.7,7.08,7.08,0,0,1,1.5-1.36,6,6,0,0,1,4.06-1.06,7.34,7.34,0,0,1,3.82,1.55A7.59,7.59,0,0,1,69.69,41.28Z"/><circle class="cls-6" cx="48.51" cy="61.53" r="2.38"/><circle class="cls-6" cx="105.76" cy="61.53" r="2.38"/></g></g></svg>