<?xml version="1.0" encoding="UTF-8"?>
<svg width="299px" height="176px" viewBox="0 0 299 176" version="1.1" xmlns="http://www.w3.org/2000/svg" xmlns:xlink="http://www.w3.org/1999/xlink">
    <!-- Generator: Sketch 62 (91390) - https://sketch.com -->
    <title>配图1</title>
    <desc>Created with Sketch.</desc>
    <defs>
        <linearGradient x1="-25.7062592%" y1="16.4161209%" x2="137.025067%" y2="85.2724831%" id="linearGradient-1">
            <stop stop-color="#44CAE0" offset="0%"></stop>
            <stop stop-color="#68FF87" offset="100%"></stop>
        </linearGradient>
        <linearGradient x1="11.1396679%" y1="32.8707763%" x2="116.101997%" y2="90.074746%" id="linearGradient-2">
            <stop stop-color="#4DCCFF" offset="0%"></stop>
            <stop stop-color="#4489FF" offset="100%"></stop>
        </linearGradient>
        <path d="M205.5,22 C236.311214,22 262.076549,43.603976 268.474242,72.4901656 C285.989304,80.2492061 298.2,97.7071614 298.2,118 C298.2,145.503781 275.769466,167.8 248.1,167.8 C247.664667,167.8 247.230631,167.794481 246.797959,167.783509 C246.734434,167.794365 246.667875,167.8 246.6,167.8 L149.218,167.799 L149.1,167.8 C149.060615,167.8 149.021241,167.799955 148.981878,167.799865 L145.8,167.8 C145.589964,167.8 145.392532,167.746039 145.22081,167.651224 C119.364155,165.684787 99,144.206305 99,118 C99,92.3625231 118.489711,71.2498541 143.5451,68.5026477 C151.334629,41.6382781 176.123932,22 205.5,22 Z" id="path-3"></path>
        <filter x="-30.4%" y="-41.5%" width="160.7%" height="183.0%" filterUnits="objectBoundingBox" id="filter-4">
            <feGaussianBlur stdDeviation="60" in="SourceAlpha" result="shadowBlurInner1"></feGaussianBlur>
            <feOffset dx="0" dy="1" in="shadowBlurInner1" result="shadowOffsetInner1"></feOffset>
            <feComposite in="shadowOffsetInner1" in2="SourceAlpha" operator="arithmetic" k2="-1" k3="1" result="shadowInnerInner1"></feComposite>
            <feColorMatrix values="0 0 0 0 1   0 0 0 0 1   0 0 0 0 1  0 0 0 0.5 0" type="matrix" in="shadowInnerInner1"></feColorMatrix>
        </filter>
        <linearGradient x1="-25.7062592%" y1="-14.5274022%" x2="137.025067%" y2="117.771853%" id="linearGradient-5">
            <stop stop-color="#44CAE0" offset="0%"></stop>
            <stop stop-color="#68FF87" offset="100%"></stop>
        </linearGradient>
        <linearGradient x1="-10.4717763%" y1="-11.783556%" x2="119.973741%" y2="115.096185%" id="linearGradient-6">
            <stop stop-color="#F7D822" offset="0%"></stop>
            <stop stop-color="#FFBB1E" offset="100%"></stop>
        </linearGradient>
        <linearGradient x1="-50.7568913%" y1="11.017302%" x2="134.472623%" y2="83.5284635%" id="linearGradient-7">
            <stop stop-color="#68DAFF" offset="0%"></stop>
            <stop stop-color="#4589FC" offset="100%"></stop>
        </linearGradient>
        <linearGradient x1="-25.7062592%" y1="-14.5274022%" x2="137.025067%" y2="117.771853%" id="linearGradient-8">
            <stop stop-color="#44CAE0" offset="0%"></stop>
            <stop stop-color="#B6FDC5" offset="100%"></stop>
        </linearGradient>
        <linearGradient x1="-50.7568913%" y1="-21.0126063%" x2="134.472623%" y2="111.076932%" id="linearGradient-9">
            <stop stop-color="#68DAFF" offset="0%"></stop>
            <stop stop-color="#4589FC" offset="100%"></stop>
        </linearGradient>
    </defs>
    <g id="页面-1" stroke="none" stroke-width="1" fill="none" fill-rule="evenodd">
        <g id="重构-安装成功" transform="translate(-410.000000, -2415.000000)">
            <g id="编组-24" transform="translate(0.000000, 2148.000000)">
                <g id="配图1" transform="translate(410.000000, 267.000000)">
                    <g id="编组-21">
                        <path d="M45.3,28.6 C59.0487457,28.6 70.4237006,38.6517207 72.321675,51.7300295 C79.2506669,54.9969601 84,61.6829056 84,69.4 C84,78.7067769 77.0924567,86.5138264 67.783165,88.632663 C67.7135252,88.9571816 67.4251192,89.2 67.08,89.2 L19.92,89.2 C19.8173948,89.2 19.7198025,89.1785374 19.6314675,89.1398568 C8.64764257,88.348975 0,79.8132516 0,69.4 C0,59.3013218 8.13306189,50.9684488 18.6425717,49.7525997 C21.3428091,37.6525149 32.2524942,28.6 45.3,28.6 Z" id="形状结合备份-7" fill="url(#linearGradient-1)" opacity="0.100000001"></path>
                        <g id="形状结合" opacity="0.08">
                            <use fill="url(#linearGradient-2)" fill-rule="evenodd" xlink:href="#path-3"></use>
                            <use fill="black" fill-opacity="1" filter="url(#filter-4)" xlink:href="#path-3"></use>
                        </g>
                        <rect id="矩形" fill="url(#linearGradient-5)" opacity="0.100000001" x="46.2" y="149.8" width="18" height="18" rx="9"></rect>
                        <rect id="矩形备份-10" fill="url(#linearGradient-5)" opacity="0.100000001" x="0" y="148.6" width="9" height="9" rx="4.5"></rect>
                        <g id="钱" transform="translate(91.000000, 89.600000)" fill="url(#linearGradient-6)" fill-rule="nonzero">
                            <path d="M18,0 C8.0589375,0 0,8.0589375 0,18 C0,27.9410625 8.0589375,36 18,36 C27.9410625,36 36,27.9410625 36,18 C36,8.0589375 27.9410625,0 18,0 Z M23.75325,18.234 L23.75325,19.9400625 L19.594125,19.9400625 L19.594125,21.4588125 L23.75325,21.4588125 L23.75325,23.1643125 L19.594125,23.1643125 L19.594125,27.1366875 L16.1825625,27.1366875 L16.1825625,23.1643125 L12.070125,23.1643125 L12.070125,21.4588125 L16.1825625,21.4588125 L16.1825625,19.9400625 L12.070125,19.9400625 L12.070125,18.234 L15.4125,18.234 L11.41875,10.28925 L14.970375,10.28925 L16.51275,14.074875 C16.95375,15.24375 17.3975625,16.4115 17.8875,17.5798125 L18.0045,17.5798125 C18.47175,16.3880625 18.939,15.21975 19.40625,14.074875 L20.948625,10.28925 L24.384375,10.28925 L20.3625,18.234 L23.75325,18.234 Z" id="形状"></path>
                        </g>
                        <g id="钱备份" transform="translate(50.000000, 100.600000)" fill="url(#linearGradient-6)" fill-rule="nonzero">
                            <path d="M18,0 C8.0589375,0 0,8.0589375 0,18 C0,27.9410625 8.0589375,36 18,36 C27.9410625,36 36,27.9410625 36,18 C36,8.0589375 27.9410625,0 18,0 Z M23.75325,18.234 L23.75325,19.9400625 L19.594125,19.9400625 L19.594125,21.4588125 L23.75325,21.4588125 L23.75325,23.1643125 L19.594125,23.1643125 L19.594125,27.1366875 L16.1825625,27.1366875 L16.1825625,23.1643125 L12.070125,23.1643125 L12.070125,21.4588125 L16.1825625,21.4588125 L16.1825625,19.9400625 L12.070125,19.9400625 L12.070125,18.234 L15.4125,18.234 L11.41875,10.28925 L14.970375,10.28925 L16.51275,14.074875 C16.95375,15.24375 17.3975625,16.4115 17.8875,17.5798125 L18.0045,17.5798125 C18.47175,16.3880625 18.939,15.21975 19.40625,14.074875 L20.948625,10.28925 L24.384375,10.28925 L20.3625,18.234 L23.75325,18.234 Z" id="形状"></path>
                        </g>
                        <path d="M160.685213,136.456516 L184.201464,165.85183 C186.271521,168.439401 185.851993,172.215156 183.264421,174.285213 C182.200543,175.136315 180.87868,175.6 179.516251,175.6 L132.483749,175.6 C129.170041,175.6 126.483749,172.913708 126.483749,169.6 C126.483749,168.237571 126.947434,166.915708 127.798536,165.85183 L151.314787,136.456516 C153.384844,133.868944 157.160599,133.449416 159.74817,135.519473 C160.094159,135.796264 160.408422,136.110528 160.685213,136.456516 Z" id="三角形" fill="url(#linearGradient-7)" fill-rule="nonzero"></path>
                        <path d="M249.002731,96.727279 C251.14211,96.1765029 253.322911,97.4643195 253.873688,99.6036981 C254.407252,101.676221 253.21534,103.787618 251.19531,104.418294 L250.997269,104.474654 L62.9972685,152.874654 C60.8578899,153.42543 58.6770886,152.137614 58.1263124,149.998235 C57.592748,147.925712 58.7846599,145.814315 60.8046897,145.183639 L61.0027315,145.127279 L249.002731,96.727279 Z" id="路径-22" fill="#78B7FF" fill-rule="nonzero"></path>
                        <g id="表情备份-3" transform="translate(209.000000, 50.600000)" fill="url(#linearGradient-8)" fill-rule="nonzero">
                            <path d="M22.5,45 C10.0736,45 0,34.9264 0,22.5 C0,10.0736 10.0736,0 22.5,0 C34.9264,0 45,10.0736 45,22.5 C45,34.9264 34.9264,45 22.5,45 Z M13.8068182,19.4318182 C15.7837295,19.4318182 17.3863636,17.8291841 17.3863636,15.8522727 C17.3863636,13.8753614 15.7837295,12.2727273 13.8068182,12.2727273 C11.8299068,12.2727273 10.2272727,13.8753614 10.2272727,15.8522727 C10.2272727,17.8291841 11.8299068,19.4318182 13.8068182,19.4318182 Z M31.1931818,19.4318182 C33.1700932,19.4318182 34.7727273,17.8291841 34.7727273,15.8522727 C34.7727273,13.8753614 33.1700932,12.2727273 31.1931818,12.2727273 C29.2162705,12.2727273 27.6136364,13.8753614 27.6136364,15.8522727 C27.6136364,17.8291841 29.2162705,19.4318182 31.1931818,19.4318182 Z M12.2727273,27.6136364 C12.2727273,33.2620057 16.8516307,37.8409091 22.5,37.8409091 C28.1483693,37.8409091 32.7272727,33.2620057 32.7272727,27.6136364 L12.2727273,27.6136364 Z" id="形状"></path>
                        </g>
                        <g id="表情备份-4" transform="translate(222.000000, 0.600000)" fill="url(#linearGradient-8)" fill-rule="nonzero">
                            <path d="M22.5,45 C10.0736,45 0,34.9264 0,22.5 C0,10.0736 10.0736,0 22.5,0 C34.9264,0 45,10.0736 45,22.5 C45,34.9264 34.9264,45 22.5,45 Z M13.8068182,19.4318182 C15.7837295,19.4318182 17.3863636,17.8291841 17.3863636,15.8522727 C17.3863636,13.8753614 15.7837295,12.2727273 13.8068182,12.2727273 C11.8299068,12.2727273 10.2272727,13.8753614 10.2272727,15.8522727 C10.2272727,17.8291841 11.8299068,19.4318182 13.8068182,19.4318182 Z M31.1931818,19.4318182 C33.1700932,19.4318182 34.7727273,17.8291841 34.7727273,15.8522727 C34.7727273,13.8753614 33.1700932,12.2727273 31.1931818,12.2727273 C29.2162705,12.2727273 27.6136364,13.8753614 27.6136364,15.8522727 C27.6136364,17.8291841 29.2162705,19.4318182 31.1931818,19.4318182 Z M12.2727273,27.6136364 C12.2727273,33.2620057 16.8516307,37.8409091 22.5,37.8409091 C28.1483693,37.8409091 32.7272727,33.2620057 32.7272727,27.6136364 L12.2727273,27.6136364 Z" id="形状"></path>
                        </g>
                        <g id="表情备份-2" transform="translate(156.000000, 65.600000)" fill="url(#linearGradient-8)" fill-rule="nonzero">
                            <path d="M22.5,45 C10.0736,45 0,34.9264 0,22.5 C0,10.0736 10.0736,0 22.5,0 C34.9264,0 45,10.0736 45,22.5 C45,34.9264 34.9264,45 22.5,45 Z M13.8068182,19.4318182 C15.7837295,19.4318182 17.3863636,17.8291841 17.3863636,15.8522727 C17.3863636,13.8753614 15.7837295,12.2727273 13.8068182,12.2727273 C11.8299068,12.2727273 10.2272727,13.8753614 10.2272727,15.8522727 C10.2272727,17.8291841 11.8299068,19.4318182 13.8068182,19.4318182 Z M31.1931818,19.4318182 C33.1700932,19.4318182 34.7727273,17.8291841 34.7727273,15.8522727 C34.7727273,13.8753614 33.1700932,12.2727273 31.1931818,12.2727273 C29.2162705,12.2727273 27.6136364,13.8753614 27.6136364,15.8522727 C27.6136364,17.8291841 29.2162705,19.4318182 31.1931818,19.4318182 Z M12.2727273,27.6136364 C12.2727273,33.2620057 16.8516307,37.8409091 22.5,37.8409091 C28.1483693,37.8409091 32.7272727,33.2620057 32.7272727,27.6136364 L12.2727273,27.6136364 Z" id="形状"></path>
                        </g>
                        <g id="表情备份-5" transform="translate(169.000000, 15.600000)" fill="url(#linearGradient-8)" fill-rule="nonzero">
                            <path d="M22.5,45 C10.0736,45 0,34.9264 0,22.5 C0,10.0736 10.0736,0 22.5,0 C34.9264,0 45,10.0736 45,22.5 C45,34.9264 34.9264,45 22.5,45 Z M13.8068182,19.4318182 C15.7837295,19.4318182 17.3863636,17.8291841 17.3863636,15.8522727 C17.3863636,13.8753614 15.7837295,12.2727273 13.8068182,12.2727273 C11.8299068,12.2727273 10.2272727,13.8753614 10.2272727,15.8522727 C10.2272727,17.8291841 11.8299068,19.4318182 13.8068182,19.4318182 Z M31.1931818,19.4318182 C33.1700932,19.4318182 34.7727273,17.8291841 34.7727273,15.8522727 C34.7727273,13.8753614 33.1700932,12.2727273 31.1931818,12.2727273 C29.2162705,12.2727273 27.6136364,13.8753614 27.6136364,15.8522727 C27.6136364,17.8291841 29.2162705,19.4318182 31.1931818,19.4318182 Z M12.2727273,27.6136364 C12.2727273,33.2620057 16.8516307,37.8409091 22.5,37.8409091 C28.1483693,37.8409091 32.7272727,33.2620057 32.7272727,27.6136364 L12.2727273,27.6136364 Z" id="形状"></path>
                        </g>
                        <path d="M92.1685529,15 C96.0186922,15 99.130949,18.0759447 99.130949,21.8768832 L99.130949,32.4843171 L112.610089,32.4843171 C117.497648,32.4843171 121.048251,37.024327 119.718601,41.7051124 L113.055741,65.5595209 C112.018322,69.3674981 108.467719,72 104.464159,72 L75,72 L75,34.7296863 C79.9460044,32.9911089 83.7888379,27.9724623 85.2061567,20.412818 C85.7979239,17.1960978 88.7567596,15 92.1685529,15 Z M72,35 L72,72 L64.0977444,72 C60.7443609,72 58,69.33731 58,66.0765826 L58,41.0658072 C58,37.8121993 60.7443609,35 64.0977444,35 L72,35 Z M60.3626117,24.1166089 C60.5241958,24.1963554 60.654985,24.3271446 60.7347316,24.4887288 L61.004122,25.0345734 C61.295446,25.6248604 61.8585772,26.0339991 62.5099975,26.128656 L63.1123729,26.2161863 C63.5601788,26.2812563 63.8704476,26.6970244 63.8053776,27.1448304 C63.7794664,27.3231491 63.6954945,27.487953 63.5664619,27.6137288 L63.1305791,28.0386096 C62.6592069,28.4980839 62.4441099,29.1600843 62.5553858,29.8088724 L62.6582838,30.4088137 C62.7347782,30.8548102 62.4352375,31.2783728 61.989241,31.3548672 C61.8116428,31.3853277 61.6289562,31.356393 61.4694631,31.2725425 L60.9306823,30.9892886 C60.3480342,30.6829724 59.6519658,30.6829724 59.0693177,30.9892886 L58.5305369,31.2725425 C58.130007,31.4831135 57.6346119,31.3291214 57.4240409,30.9285916 C57.3401905,30.7690985 57.3112558,30.5864119 57.3417162,30.4088137 L57.4446142,29.8088724 C57.5558901,29.1600843 57.3407931,28.4980839 56.8694209,28.0386096 L56.4335381,27.6137288 C56.1095026,27.2978723 56.1028723,26.7791374 56.4187288,26.4551019 C56.5445045,26.3260693 56.7093085,26.2420975 56.8876271,26.2161863 L57.4900025,26.128656 C58.1414228,26.0339991 58.704554,25.6248604 58.995878,25.0345734 L59.2652684,24.4887288 C59.4655333,24.0829477 59.9568307,23.916344 60.3626117,24.1166089 Z M125.043918,19.6749133 C125.286294,19.7945332 125.482478,19.9907169 125.602097,20.2330931 L126.238854,21.5233022 C126.530178,22.1135891 127.093309,22.5227279 127.744729,22.6173848 L129.168559,22.8242794 C129.840268,22.9218844 130.305671,23.5455366 130.208066,24.2172456 C130.1692,24.4847236 130.043242,24.7319296 129.849693,24.9205931 L128.8194,25.9248808 C128.348028,26.3843551 128.132931,27.0463555 128.244206,27.6951436 L128.487426,29.1132206 C128.602167,29.7822154 128.152856,30.4175592 127.483861,30.5323008 C127.217464,30.5779915 126.943434,30.5345894 126.704195,30.4088137 L125.430682,29.7392886 C124.848034,29.4329724 124.151966,29.4329724 123.569318,29.7392886 L122.295805,30.4088137 C121.695011,30.7246702 120.951918,30.4936821 120.636061,29.8928874 C120.510286,29.6536478 120.466884,29.3796178 120.512574,29.1132206 L120.755794,27.6951436 C120.867069,27.0463555 120.651972,26.3843551 120.1806,25.9248808 L119.150307,24.9205931 C118.664254,24.4468084 118.654308,23.6687061 119.128093,23.1826529 C119.316757,22.989104 119.563963,22.8631462 119.831441,22.8242794 L121.255271,22.6173848 C121.906691,22.5227279 122.469822,22.1135891 122.761146,21.5233022 L123.397903,20.2330931 C123.6983,19.6244216 124.435246,19.374516 125.043918,19.6749133 Z M113.043918,9.67491335 C113.286294,9.79453315 113.482478,9.99071693 113.602097,10.2330931 L114.238854,11.5233022 C114.530178,12.1135891 115.093309,12.5227279 115.744729,12.6173848 L117.168559,12.8242794 C117.840268,12.9218844 118.305671,13.5455366 118.208066,14.2172456 C118.1692,14.4847236 118.043242,14.7319296 117.849693,14.9205931 L116.8194,15.9248808 C116.348028,16.3843551 116.132931,17.0463555 116.244206,17.6951436 L116.487426,19.1132206 C116.602167,19.7822154 116.152856,20.4175592 115.483861,20.5323008 C115.217464,20.5779915 114.943434,20.5345894 114.704195,20.4088137 L113.430682,19.7392886 C112.848034,19.4329724 112.151966,19.4329724 111.569318,19.7392886 L110.295805,20.4088137 C109.695011,20.7246702 108.951918,20.4936821 108.636061,19.8928874 C108.510286,19.6536478 108.466884,19.3796178 108.512574,19.1132206 L108.755794,17.6951436 C108.867069,17.0463555 108.651972,16.3843551 108.1806,15.9248808 L107.150307,14.9205931 C106.664254,14.4468084 106.654308,13.6687061 107.128093,13.1826529 C107.316757,12.989104 107.563963,12.8631462 107.831441,12.8242794 L109.255271,12.6173848 C109.906691,12.5227279 110.469822,12.1135891 110.761146,11.5233022 L111.397903,10.2330931 C111.6983,9.62442158 112.435246,9.37451597 113.043918,9.67491335 Z" id="形状结合" fill="url(#linearGradient-9)" fill-rule="nonzero"></path>
                    </g>
                </g>
            </g>
        </g>
    </g>
</svg>