<?xml version="1.0" encoding="UTF-8"?>
<svg width="535px" height="278px" viewBox="0 0 535 278" version="1.1" xmlns="http://www.w3.org/2000/svg" xmlns:xlink="http://www.w3.org/1999/xlink">
    <!-- Generator: Sketch 62 (91390) - https://sketch.com -->
    <title>编组 12</title>
    <desc>Created with Sketch.</desc>
    <defs>
        <linearGradient x1="-25.7062592%" y1="16.4213135%" x2="137.025067%" y2="85.2670295%" id="linearGradient-1">
            <stop stop-color="#44CAE0" offset="0%"></stop>
            <stop stop-color="#68FF87" offset="100%"></stop>
        </linearGradient>
        <linearGradient x1="11.1396679%" y1="32.9202142%" x2="116.101997%" y2="89.9590833%" id="linearGradient-2">
            <stop stop-color="#4DCCFF" offset="0%"></stop>
            <stop stop-color="#4489FF" offset="100%"></stop>
        </linearGradient>
        <path d="M226.2,277 C225.896893,277 225.620034,276.887621 225.408815,276.702255 C176.491193,272.855741 138,232.149262 138,182.5 C138,133.74735 175.113526,93.6174067 222.769308,88.5415903 C237.490035,37.4067258 284.626613,0 340.5,0 C399.023073,0 447.961036,41.0387322 460.105762,95.9080692 C493.600363,110.514106 517,143.788796 517,182.5 C517,234.690909 474.467051,277 422,277 C421.340223,277 420.682016,276.99331 420.025445,276.979993 C419.953522,276.99263 419.877622,277 419.8,277 L226.2,277 Z" id="path-3"></path>
        <filter x="-16.0%" y="-21.8%" width="131.9%" height="143.7%" filterUnits="objectBoundingBox" id="filter-4">
            <feGaussianBlur stdDeviation="60" in="SourceAlpha" result="shadowBlurInner1"></feGaussianBlur>
            <feOffset dx="0" dy="1" in="shadowBlurInner1" result="shadowOffsetInner1"></feOffset>
            <feComposite in="shadowOffsetInner1" in2="SourceAlpha" operator="arithmetic" k2="-1" k3="1" result="shadowInnerInner1"></feComposite>
            <feColorMatrix values="0 0 0 0 1   0 0 0 0 1   0 0 0 0 1  0 0 0 0.5 0" type="matrix" in="shadowInnerInner1"></feColorMatrix>
        </filter>
        <linearGradient x1="-25.7062592%" y1="-14.5174254%" x2="137.025067%" y2="117.761374%" id="linearGradient-5">
            <stop stop-color="#44CAE0" offset="0%"></stop>
            <stop stop-color="#68FF87" offset="100%"></stop>
        </linearGradient>
        <linearGradient x1="-25.7062592%" y1="-14.5174254%" x2="137.025067%" y2="117.761374%" id="linearGradient-6">
            <stop stop-color="#44CAE0" offset="0%"></stop>
            <stop stop-color="#68FF87" offset="100%"></stop>
        </linearGradient>
        <linearGradient x1="-10.4717763%" y1="-11.783556%" x2="119.973741%" y2="115.096185%" id="linearGradient-7">
            <stop stop-color="#F7D822" offset="0%"></stop>
            <stop stop-color="#FFBB1E" offset="100%"></stop>
        </linearGradient>
        <linearGradient x1="-10.4717763%" y1="-11.7740034%" x2="119.973741%" y2="115.08612%" id="linearGradient-8">
            <stop stop-color="#F7D822" offset="0%"></stop>
            <stop stop-color="#FFBB1E" offset="100%"></stop>
        </linearGradient>
        <linearGradient x1="-50.7568913%" y1="11.0233292%" x2="134.472623%" y2="83.5232796%" id="linearGradient-9">
            <stop stop-color="#68DAFF" offset="0%"></stop>
            <stop stop-color="#4589FC" offset="100%"></stop>
        </linearGradient>
        <linearGradient x1="-25.7062592%" y1="-14.5174254%" x2="137.025067%" y2="117.761374%" id="linearGradient-10">
            <stop stop-color="#44CAE0" offset="0%"></stop>
            <stop stop-color="#B6FDC5" offset="100%"></stop>
        </linearGradient>
        <linearGradient x1="-50.7568913%" y1="-21.0017042%" x2="134.472623%" y2="111.067555%" id="linearGradient-11">
            <stop stop-color="#68DAFF" offset="0%"></stop>
            <stop stop-color="#4589FC" offset="100%"></stop>
        </linearGradient>
        <linearGradient x1="-50.7568913%" y1="28.4489617%" x2="134.472623%" y2="68.5357412%" id="linearGradient-12">
            <stop stop-color="#68DAFF" offset="0%"></stop>
            <stop stop-color="#4589FC" offset="100%"></stop>
        </linearGradient>
        <linearGradient x1="-10.4717763%" y1="-7.34550458%" x2="119.973741%" y2="110.42018%" id="linearGradient-13">
            <stop stop-color="#F7D822" offset="0%"></stop>
            <stop stop-color="#FFBB1E" offset="100%"></stop>
        </linearGradient>
        <linearGradient x1="-50.7568913%" y1="-42.6271575%" x2="134.472623%" y2="129.667299%" id="linearGradient-14">
            <stop stop-color="#68DAFF" offset="0%"></stop>
            <stop stop-color="#4589FC" offset="100%"></stop>
        </linearGradient>
    </defs>
    <g id="页面-1" stroke="none" stroke-width="1" fill="none" fill-rule="evenodd">
        <g id="同步助手web-关于我们" transform="translate(-692.000000, -701.000000)">
            <g id="banner备份-3" transform="translate(0.000000, 502.000000)">
                <g id="编组-10" transform="translate(411.000000, 38.000000)">
                    <g id="编组-25">
                        <g id="编组-12" transform="translate(281.000000, 161.000000)">
                            <g id="配图1">
                                <g id="编组-21">
                                    <path d="M27.8857365,155.197727 C27.7488847,155.197727 27.6209504,155.159547 27.5120048,155.093256 C12.0969991,153.856652 0,141.834055 0,127.185227 C0,112.897889 11.5073301,101.108765 26.3770535,99.3886198 C30.1978216,82.2695333 45.6336342,69.4625 64.0941596,69.4625 C83.5471398,69.4625 99.6414423,83.6835842 102.326696,102.186594 C112.130575,106.808514 118.850097,116.267474 118.850097,127.185227 C118.850097,140.344104 109.088755,151.383816 95.9294839,154.389535 L95.9290071,154.477727 C95.9290071,154.875372 95.6066522,155.197727 95.2090071,155.197727 L27.8857365,155.197727 Z" id="形状结合备份-7" fill="url(#linearGradient-1)" opacity="0.100000001"></path>
                                    <g id="形状结合" opacity="0.08">
                                        <use fill="url(#linearGradient-2)" fill-rule="evenodd" xlink:href="#path-3"></use>
                                        <use fill="black" fill-opacity="1" filter="url(#filter-4)" xlink:href="#path-3"></use>
                                    </g>
                                    <rect id="矩形" fill="url(#linearGradient-5)" opacity="0.100000001" x="65.3675535" y="240.932955" width="25.467878" height="25.4659091" rx="9"></rect>
                                    <rect id="矩形备份-10" fill="url(#linearGradient-6)" opacity="0.100000001" x="0" y="239.235227" width="12.733939" height="12.7329545" rx="6.36647727"></rect>
                                    <g id="钱" transform="translate(128.754272, 155.763636)" fill="url(#linearGradient-8)" fill-rule="nonzero">
                                        <path d="M25.467878,0 C11.4024465,0 0,11.401565 0,25.4659091 C0,39.5302532 11.4024465,50.9318182 25.467878,50.9318182 C39.5333095,50.9318182 50.935756,39.5302532 50.935756,25.4659091 C50.935756,11.401565 39.5333095,0 25.467878,0 Z M33.6080485,25.7969659 L33.6080485,28.2106566 L27.7233769,28.2106566 L27.7233769,30.3593427 L33.6080485,30.3593427 L33.6080485,32.7722376 L27.7233769,32.7722376 L27.7233769,38.3922454 L22.8964182,38.3922454 L22.8964182,32.7722376 L17.0778039,32.7722376 L17.0778039,30.3593427 L22.8964182,30.3593427 L22.8964182,28.2106566 L17.0778039,28.2106566 L17.0778039,25.7969659 L21.8068705,25.7969659 L16.1561851,14.5569503 L21.1813158,14.5569503 L23.3635946,19.9127493 C23.9875576,21.5664418 24.6155,23.2185426 25.3087038,24.8714393 L25.474245,24.8714393 C26.1353486,23.1853839 26.7964523,21.5324872 27.457556,19.9127493 L29.6398348,14.5569503 L34.501016,14.5569503 L28.810537,25.7969659 L33.6080485,25.7969659 Z" id="形状"></path>
                                    </g>
                                    <g id="钱备份" transform="translate(70.744106, 171.326136)" fill="url(#linearGradient-8)" fill-rule="nonzero">
                                        <path d="M25.467878,0 C11.4024465,0 0,11.401565 0,25.4659091 C0,39.5302532 11.4024465,50.9318182 25.467878,50.9318182 C39.5333095,50.9318182 50.935756,39.5302532 50.935756,25.4659091 C50.935756,11.401565 39.5333095,0 25.467878,0 Z M33.6080485,25.7969659 L33.6080485,28.2106566 L27.7233769,28.2106566 L27.7233769,30.3593427 L33.6080485,30.3593427 L33.6080485,32.7722376 L27.7233769,32.7722376 L27.7233769,38.3922454 L22.8964182,38.3922454 L22.8964182,32.7722376 L17.0778039,32.7722376 L17.0778039,30.3593427 L22.8964182,30.3593427 L22.8964182,28.2106566 L17.0778039,28.2106566 L17.0778039,25.7969659 L21.8068705,25.7969659 L16.1561851,14.5569503 L21.1813158,14.5569503 L23.3635946,19.9127493 C23.9875576,21.5664418 24.6155,23.2185426 25.3087038,24.8714393 L25.474245,24.8714393 C26.1353486,23.1853839 26.7964523,21.5324872 27.457556,19.9127493 L29.6398348,14.5569503 L34.501016,14.5569503 L28.810537,25.7969659 L33.6080485,25.7969659 Z" id="形状"></path>
                                    </g>
                                    <path d="M225.406681,219.625205 L263.858085,267.685744 C265.92824,270.273237 265.508854,274.049008 262.92136,276.119162 C261.857453,276.970354 260.53552,277.434091 259.173013,277.434091 L182.270205,277.434091 C178.956497,277.434091 176.270205,274.747799 176.270205,271.434091 C176.270205,270.071584 176.733943,268.749651 177.585134,267.685744 L216.036538,219.625205 C218.106693,217.037711 221.882463,216.618325 224.469956,218.68848 C224.815816,218.965189 225.129972,219.279345 225.406681,219.625205 Z" id="三角形" fill="url(#linearGradient-9)" fill-rule="nonzero"></path>
                                    <path d="M352.30951,165.847116 C355.336479,165.067893 358.422056,166.889861 359.201339,169.916596 C359.95627,172.848745 358.269855,175.835892 355.411751,176.728155 L355.131545,176.807891 L89.1337083,245.282891 C86.1067398,246.062115 83.021163,244.240147 82.2418796,241.213412 C81.4869489,238.281263 83.1733637,235.294116 86.0314677,234.401853 L86.3116735,234.322116 L352.30951,165.847116 Z" id="路径-22" fill="#78B7FF" fill-rule="nonzero"></path>
                                    <g id="表情备份-3" transform="translate(295.710361, 100.587500)" fill="url(#linearGradient-10)" fill-rule="nonzero">
                                        <path d="M31.8348475,63.6647727 C14.2529564,63.6647727 0,49.4129182 0,31.8323864 C0,14.2518545 14.2529564,0 31.8348475,0 C49.4167386,0 63.669695,14.2518545 63.669695,31.8323864 C63.669695,49.4129182 49.4167386,63.6647727 31.8348475,63.6647727 Z M19.5350201,27.4916064 C22.3321166,27.4916064 24.5996549,25.2242434 24.5996549,22.4273631 C24.5996549,19.6304828 22.3321166,17.3631198 19.5350201,17.3631198 C16.7379235,17.3631198 14.4703852,19.6304828 14.4703852,22.4273631 C14.4703852,25.2242434 16.7379235,27.4916064 19.5350201,27.4916064 Z M44.1346749,27.4916064 C46.9317715,27.4916064 49.1993098,25.2242434 49.1993098,22.4273631 C49.1993098,19.6304828 46.9317715,17.3631198 44.1346749,17.3631198 C41.3375784,17.3631198 39.0700401,19.6304828 39.0700401,22.4273631 C39.0700401,25.2242434 41.3375784,27.4916064 44.1346749,27.4916064 Z M17.3644623,39.0670196 C17.3644623,47.0581785 23.8430708,53.5362862 31.8348475,53.5362862 C39.8266242,53.5362862 46.3052327,47.0581785 46.3052327,39.0670196 L17.3644623,39.0670196 Z" id="形状"></path>
                                    </g>
                                    <g id="表情备份-4" transform="translate(314.103829, 29.848864)" fill="url(#linearGradient-10)" fill-rule="nonzero">
                                        <path d="M31.8348475,63.6647727 C14.2529564,63.6647727 0,49.4129182 0,31.8323864 C0,14.2518545 14.2529564,0 31.8348475,0 C49.4167386,0 63.669695,14.2518545 63.669695,31.8323864 C63.669695,49.4129182 49.4167386,63.6647727 31.8348475,63.6647727 Z M19.5350201,27.4916064 C22.3321166,27.4916064 24.5996549,25.2242434 24.5996549,22.4273631 C24.5996549,19.6304828 22.3321166,17.3631198 19.5350201,17.3631198 C16.7379235,17.3631198 14.4703852,19.6304828 14.4703852,22.4273631 C14.4703852,25.2242434 16.7379235,27.4916064 19.5350201,27.4916064 Z M44.1346749,27.4916064 C46.9317715,27.4916064 49.1993098,25.2242434 49.1993098,22.4273631 C49.1993098,19.6304828 46.9317715,17.3631198 44.1346749,17.3631198 C41.3375784,17.3631198 39.0700401,19.6304828 39.0700401,22.4273631 C39.0700401,25.2242434 41.3375784,27.4916064 44.1346749,27.4916064 Z M17.3644623,39.0670196 C17.3644623,47.0581785 23.8430708,53.5362862 31.8348475,53.5362862 C39.8266242,53.5362862 46.3052327,47.0581785 46.3052327,39.0670196 L17.3644623,39.0670196 Z" id="形状"></path>
                                    </g>
                                    <g id="表情备份-2" transform="translate(220.721609, 121.809091)" fill="url(#linearGradient-10)" fill-rule="nonzero">
                                        <path d="M31.8348475,63.6647727 C14.2529564,63.6647727 0,49.4129182 0,31.8323864 C0,14.2518545 14.2529564,0 31.8348475,0 C49.4167386,0 63.669695,14.2518545 63.669695,31.8323864 C63.669695,49.4129182 49.4167386,63.6647727 31.8348475,63.6647727 Z M19.5350201,27.4916064 C22.3321166,27.4916064 24.5996549,25.2242434 24.5996549,22.4273631 C24.5996549,19.6304828 22.3321166,17.3631198 19.5350201,17.3631198 C16.7379235,17.3631198 14.4703852,19.6304828 14.4703852,22.4273631 C14.4703852,25.2242434 16.7379235,27.4916064 19.5350201,27.4916064 Z M44.1346749,27.4916064 C46.9317715,27.4916064 49.1993098,25.2242434 49.1993098,22.4273631 C49.1993098,19.6304828 46.9317715,17.3631198 44.1346749,17.3631198 C41.3375784,17.3631198 39.0700401,19.6304828 39.0700401,22.4273631 C39.0700401,25.2242434 41.3375784,27.4916064 44.1346749,27.4916064 Z M17.3644623,39.0670196 C17.3644623,47.0581785 23.8430708,53.5362862 31.8348475,53.5362862 C39.8266242,53.5362862 46.3052327,47.0581785 46.3052327,39.0670196 L17.3644623,39.0670196 Z" id="形状"></path>
                                    </g>
                                    <g id="表情备份-5" transform="translate(239.115077, 51.070455)" fill="url(#linearGradient-10)" fill-rule="nonzero">
                                        <path d="M31.8348475,63.6647727 C14.2529564,63.6647727 0,49.4129182 0,31.8323864 C0,14.2518545 14.2529564,0 31.8348475,0 C49.4167386,0 63.669695,14.2518545 63.669695,31.8323864 C63.669695,49.4129182 49.4167386,63.6647727 31.8348475,63.6647727 Z M19.5350201,27.4916064 C22.3321166,27.4916064 24.5996549,25.2242434 24.5996549,22.4273631 C24.5996549,19.6304828 22.3321166,17.3631198 19.5350201,17.3631198 C16.7379235,17.3631198 14.4703852,19.6304828 14.4703852,22.4273631 C14.4703852,25.2242434 16.7379235,27.4916064 19.5350201,27.4916064 Z M44.1346749,27.4916064 C46.9317715,27.4916064 49.1993098,25.2242434 49.1993098,22.4273631 C49.1993098,19.6304828 46.9317715,17.3631198 44.1346749,17.3631198 C41.3375784,17.3631198 39.0700401,19.6304828 39.0700401,22.4273631 C39.0700401,25.2242434 41.3375784,27.4916064 44.1346749,27.4916064 Z M17.3644623,39.0670196 C17.3644623,47.0581785 23.8430708,53.5362862 31.8348475,53.5362862 C39.8266242,53.5362862 46.3052327,47.0581785 46.3052327,39.0670196 L17.3644623,39.0670196 Z" id="形状"></path>
                                    </g>
                                    <path d="M130.407637,50.2215909 C135.85513,50.2215909 140.258606,54.5733535 140.258606,59.9508177 L140.258606,74.9579259 L159.330001,74.9579259 C166.24532,74.9579259 171.269004,81.3810081 169.387707,88.0032556 L159.960546,121.751822 C158.49272,127.139245 153.469036,130.863636 147.80447,130.863636 L106.116158,130.863636 L106.116158,78.1346131 C113.114171,75.6749211 118.551328,68.5746768 120.556667,57.8794982 C121.393948,53.3285702 125.580351,50.2215909 130.407637,50.2215909 Z M101.871512,78.5170455 L101.871512,130.863636 L90.6907519,130.863636 C85.9461096,130.863636 82.0631624,127.096535 82.0631624,122.483347 L82.0631624,87.098784 C82.0631624,82.4956684 85.9461096,78.5170455 90.6907519,78.5170455 L101.871512,78.5170455 Z M85.4060192,63.1195195 C85.6346198,63.2323494 85.8196553,63.4173849 85.9324852,63.6459856 L86.5066848,64.8093511 C86.7980208,65.3996166 87.3611474,65.8087341 88.012555,65.9033819 L89.2966512,66.0899575 C89.9301814,66.1820077 90.3691376,66.7702068 90.2770874,67.403737 C90.2404297,67.6560315 90.1216185,67.8892037 89.9390499,68.0671503 L89.010022,68.9726587 C88.538606,69.4321402 88.3234874,70.0941782 88.4347778,70.7430009 L88.6540848,72.0215603 C88.762318,72.6525591 88.3385327,73.251825 87.7075339,73.3600581 C87.4562743,73.4031559 87.1978146,73.3622258 86.9721651,73.243604 L85.8235526,72.6397893 C85.2409346,72.3335126 84.5449187,72.3335126 83.9623008,72.6397893 L82.8136882,73.243604 C82.2470053,73.5415038 81.5461225,73.3236121 81.2482226,72.7569291 C81.1296009,72.5312796 81.0886708,72.2728199 81.1317685,72.0215603 L81.3510756,70.7430009 C81.462366,70.0941782 81.2472473,69.4321402 80.7758313,68.9726587 L79.8468035,68.0671503 C79.3883602,67.6203131 79.3789516,66.8864383 79.8257888,66.4279951 C80.0037355,66.2454264 80.2369076,66.1266152 80.4892022,66.0899575 L81.7732984,65.9033819 C82.424706,65.8087341 82.9878325,65.3996166 83.2791685,64.8093511 L83.8533681,63.6459856 C84.1367413,63.0718532 84.8318868,62.8361464 85.4060192,63.1195195 Z M176.922462,56.8355293 C177.265363,57.0047741 177.542916,57.2823274 177.712161,57.6252284 L178.80614,59.8417003 C179.097476,60.4319658 179.660602,60.8410833 180.31201,60.9357311 L182.75841,61.2911863 C183.708705,61.4292616 184.367139,62.3115603 184.229064,63.2618555 C184.174077,63.6402973 183.995861,63.9900555 183.722008,64.2569755 L181.951959,65.9822129 C181.480543,66.4416944 181.265425,67.1037324 181.376715,67.7525551 L181.79456,70.1885905 C181.95691,71.1350887 181.321232,72.0339875 180.374734,72.1963372 C179.997844,72.2609838 179.610155,72.1995887 179.27168,72.021656 L177.083449,70.8713234 C176.500831,70.5650467 175.804815,70.5650467 175.222197,70.8713234 L173.033965,72.021656 C172.183941,72.4685058 171.132617,72.1416681 170.685767,71.2916437 C170.507834,70.9531695 170.446439,70.5654799 170.511086,70.1885905 L170.928931,67.7525551 C171.040221,67.1037324 170.825102,66.4416944 170.353686,65.9822129 L168.583638,64.2569755 C167.895973,63.5867197 167.88186,62.4859075 168.552116,61.7982426 C168.819036,61.5243896 169.168794,61.3461729 169.547236,61.2911863 L171.993636,60.9357311 C172.645044,60.8410833 173.20817,60.4319658 173.499506,59.8417003 L174.593485,57.6252284 C175.018545,56.7640299 176.061263,56.4104695 176.922462,56.8355293 Z M159.943876,42.687802 C160.286777,42.8570468 160.56433,43.1346001 160.733575,43.4775011 L161.827554,45.693973 C162.11889,46.2842386 162.682017,46.693356 163.333424,46.7880038 L165.779824,47.143459 C166.73012,47.2815343 167.388554,48.163833 167.250479,49.1141282 C167.195492,49.49257 167.017275,49.8423282 166.743422,50.1092482 L164.973374,51.8344856 C164.501958,52.2939671 164.286839,52.9560052 164.39813,53.6048278 L164.815975,56.0408632 C164.978324,56.9873614 164.342647,57.8862602 163.396148,58.0486099 C163.019259,58.1132565 162.631569,58.0518614 162.293095,57.8739287 L160.104863,56.7235962 C159.522245,56.4173195 158.82623,56.4173195 158.243612,56.7235962 L156.05538,57.8739287 C155.205355,58.3207785 154.154031,57.9939408 153.707181,57.1439164 C153.529249,56.8054422 153.467854,56.4177526 153.5325,56.0408632 L153.950345,53.6048278 C154.061636,52.9560052 153.846517,52.2939671 153.375101,51.8344856 L151.605053,50.1092482 C150.917388,49.4389924 150.903275,48.3381802 151.573531,47.6505153 C151.840451,47.3766624 152.190209,47.1984456 152.568651,47.143459 L155.015051,46.7880038 C155.666458,46.693356 156.229585,46.2842386 156.520921,45.693973 L157.6149,43.4775011 C158.039959,42.6163026 159.082678,42.2627423 159.943876,42.687802 Z" id="形状结合" fill="url(#linearGradient-11)" fill-rule="nonzero"></path>
                                </g>
                            </g>
                            <g id="服务-(4)" transform="translate(365.000000, 85.000000)" fill-rule="nonzero">
                                <path d="M2.77904043,138.008965 C-1.19101733,132.762863 -0.907441773,124.01936 3.62976709,119.647609 C13.838487,109.155405 31.1365958,94 42.479618,94 C59.4941513,94 117.62714,94.5829002 121.030046,99.2461018 C124.432953,103.617853 121.597198,117.607458 105.149815,119.064709 C93.5232177,120.230509 78.7772889,119.939059 71.120749,120.521959 C69.7028712,120.521959 69.4192956,123.14501 70.5535979,124.01936 C76.7922601,128.099662 88.9860089,134.511564 103.731938,133.928664 C115.925687,133.345763 127.552284,126.642411 136.626702,116.150208 C144.283242,107.406705 155.626264,95.1658004 160.730624,95.1658004 C164.417106,95.1658004 166.969286,96.0401507 168.67074,96.914501 C170.088617,97.7888513 170.372193,99.829002 169.521466,101.577703 C163.56638,111.778456 140.029609,149.084069 114.507809,159.284822 C92.9560666,167.445425 69.4192956,164.822374 57.5091224,162.490773 C52.688338,161.616423 47.583978,163.073673 43.6139202,166.571075 L38.7931358,170.942826 C35.1066536,174.148777 30.0022936,173.565877 26.8829625,169.485576 L2.77904043,138.008965 Z" id="路径" fill="url(#linearGradient-12)"></path>
                                <path d="M122.858131,79 C122.290657,79 121.723183,78.7074074 121.155709,78.1222222 L88.2422145,41.5481481 C84.2698962,36.8666667 82,31.0148148 82,24.5777778 C82,18.1407407 84.2698962,11.9962963 88.5259516,7.31481481 C92.4982699,2.63333333 98.1730104,0 103.847751,0 C108.67128,0 113.49481,1.75555556 117.183391,4.97407407 C119.453287,7.02222222 121.439446,9.36296296 122.858131,11.9962963 C124.276817,9.36296296 126.262976,6.72962963 128.532872,4.97407407 C132.50519,1.75555556 137.044983,0 141.868512,0 C147.82699,0 153.217993,2.63333333 157.474048,7.31481481 C161.730104,11.9962963 164,18.1407407 164,24.5777778 C164,31.0148148 161.730104,36.8666667 157.757785,41.5481481 L124.560554,78.4148148 C124.276817,78.7074074 123.709343,79 122.858131,79 Z" id="路径" fill="url(#linearGradient-13)"></path>
                                <path d="M101,83 C100.434483,83 99.8689655,82.7084871 99.3034483,82.1254613 L66.2206897,45.3948339 C62.262069,40.7306273 60,34.900369 60,28.4870849 C60,22.0738007 62.262069,15.9520295 66.5034483,11.2878229 C70.7448276,6.62361624 76.1172414,4 82.0551724,4 C86.862069,4 91.6689655,5.74907749 95.3448276,8.95571956 C97.6068966,10.99631 99.5862069,13.3284133 101,15.9520295 C102.413793,13.3284133 104.393103,10.704797 106.655172,8.95571956 C110.613793,5.74907749 115.137931,4 119.944828,4 C125.882759,4 131.255172,6.62361624 135.496552,11.2878229 C139.737931,15.9520295 142,22.0738007 142,28.4870849 C142,34.900369 139.737931,40.7306273 135.77931,45.3948339 L102.413793,82.4169742 C102.131034,82.7084871 101.565517,83 101,83 Z" id="路径" fill="url(#linearGradient-14)"></path>
                            </g>
                        </g>
                    </g>
                </g>
            </g>
        </g>
    </g>
</svg>