<?xml version="1.0" encoding="UTF-8"?>
<svg width="1920px" height="300px" viewBox="0 0 1920 300" version="1.1" xmlns="http://www.w3.org/2000/svg" xmlns:xlink="http://www.w3.org/1999/xlink">
    <!-- Generator: Sketch 62 (91390) - https://sketch.com -->
    <title>get mobitrix背景</title>
    <desc>Created with Sketch.</desc>
    <defs>
        <linearGradient x1="-1.95268692%" y1="48.1772892%" x2="108.282268%" y2="52.404444%" id="linearGradient-1">
            <stop stop-color="#35C3FF" offset="0%"></stop>
            <stop stop-color="#1890FF" offset="100%"></stop>
        </linearGradient>
        <rect id="path-2" x="0" y="0" width="1920" height="300"></rect>
    </defs>
    <g id="页面-1" stroke="none" stroke-width="1" fill="none" fill-rule="evenodd">
        <g id="同步助手web-导航条上滑" transform="translate(0.000000, -4606.000000)">
            <g id="footer-2备份" transform="translate(0.000000, 4606.000000)">
                <g id="footer">
                    <g id="编组-19">
                        <g id="get-mobitrix背景">
                            <mask id="mask-3" fill="white">
                                <use xlink:href="#path-2"></use>
                            </mask>
                            <use id="矩形" fill="url(#linearGradient-1)" fill-rule="nonzero" opacity="0.25" xlink:href="#path-2"></use>
                            <path d="M-82.8,529 C-83.4627417,529 -84,528.462742 -84,527.8 L-84.0018037,527.474939 C-196.123954,514.952042 -283,426.837647 -283,320 C-283,215.293094 -199.554664,128.570064 -90.6795916,113.364069 C-61.0393672,-12.2597863 55.1650838,-106 194,-106 C338.907005,-106 459.160723,-3.88082555 482.068267,130.029646 C559.935977,163.090177 614,235.719235 614,320 C614,418.090148 540.767781,500.397518 442.000773,522.909914 L442,527.8 C442,528.462742 441.462742,529 440.8,529 L-82.8,529 Z" id="形状结合备份-7" fill="#FFFFFF" opacity="0.200000003" mask="url(#mask-3)"></path>
                            <path d="M1400.2,705 C1399.53726,705 1399,704.462742 1399,703.8 L1398.99861,703.548644 C1298.09144,691.978598 1220,612.6454 1220,516.5 C1220,422.084457 1295.30666,343.881584 1393.5745,330.141375 C1420.27234,216.680302 1525.16746,132 1650.5,132 C1781.40279,132 1890.01117,224.374596 1910.51769,345.439173 C1980.48317,375.378699 2029,440.716788 2029,516.5 C2029,604.871424 1963.02641,679.039482 1874.00167,699.43998 L1874,703.8 C1874,704.462742 1873.46274,705 1872.8,705 L1400.2,705 Z" id="形状结合备份-9" fill="#FFFFFF" opacity="0.100000001" mask="url(#mask-3)"></path>
                            <path d="M1093.2,74 C1092.77574,74 1092.40291,73.7798348 1092.18952,73.4475254 C1052.63424,68.9747562 1022,37.7965703 1022,0 C1022,-36.9485369 1051.27499,-67.572348 1089.53994,-73.1077642 C1099.95218,-117.697788 1141.2009,-151 1190.5,-151 C1241.97052,-151 1284.66587,-114.699532 1292.65712,-67.1506957 C1320.02347,-55.3961327 1339,-29.7479614 1339,0 C1339,34.8128377 1313.0115,64.0109818 1278.00141,71.9000472 L1278,72.8 C1278,73.4627417 1277.46274,74 1276.8,74 L1093.2,74 Z" id="形状结合备份-10" fill="#FFFFFF" opacity="0.100000001" mask="url(#mask-3)"></path>
                            <path d="M1438.2,110 C1438.10995,110 1438.02222,109.990082 1437.93784,109.971279 C1428.49125,109.45184 1421,102.052156 1421,93 C1421,84.3566977 1427.82983,77.2199658 1436.67052,76.1410546 C1439.18102,66.3023039 1448.44984,59 1459.5,59 C1471.09223,59 1480.72406,67.0363104 1482.64963,77.6075773 C1488.76526,80.3222425 1493,86.194057 1493,93 C1493,101.209215 1486.83896,108.059388 1478.64566,109.651127 C1478.42872,109.866868 1478.12991,110 1477.8,110 L1438.2,110 Z" id="形状结合备份-11" fill="#FFFFFF" opacity="0.300000012" mask="url(#mask-3)"></path>
                        </g>
                    </g>
                </g>
            </g>
        </g>
    </g>
</svg>