<?xml version="1.0" encoding="UTF-8"?>
<svg width="1920px" height="700px" viewBox="0 0 1920 700" version="1.1" xmlns="http://www.w3.org/2000/svg" xmlns:xlink="http://www.w3.org/1999/xlink">
    <!-- Generator: Sketch 62 (91390) - https://sketch.com -->
    <title>banner1背景</title>
    <desc>Created with Sketch.</desc>
    <defs>
        <rect id="path-1" x="0" y="0" width="1920" height="700"></rect>
        <linearGradient x1="-25.7062592%" y1="17.6378256%" x2="137.025067%" y2="83.9893509%" id="linearGradient-3">
            <stop stop-color="#44CAE0" offset="0%"></stop>
            <stop stop-color="#68FF87" offset="100%"></stop>
        </linearGradient>
        <linearGradient x1="11.1396679%" y1="32.7931886%" x2="116.101997%" y2="90.2562666%" id="linearGradient-4">
            <stop stop-color="#4DCCFF" offset="0%"></stop>
            <stop stop-color="#4489FF" offset="100%"></stop>
        </linearGradient>
        <path d="M332,782 C331.51082,782 331.06266,781.824377 330.71513,781.532742 C190.878086,773.371133 80,657.384049 80,515.5 C80,375.669197 187.692206,260.991257 324.660815,249.881983 L324.65054,249.878169 C366.480425,105.528894 499.666416,0 657.5,0 C824.767476,0 964.352873,118.521067 996.856741,276.16375 C1085.19348,319.558707 1146,410.428292 1146,515.5 C1146,630.910672 1072.63811,729.186757 970.003604,766.238979 L970,780 C970,781.104569 969.104569,782 968,782 L332,782 Z" id="path-5"></path>
        <filter x="-9.4%" y="-12.9%" width="118.9%" height="125.7%" filterUnits="objectBoundingBox" id="filter-6">
            <feGaussianBlur stdDeviation="100" in="SourceAlpha" result="shadowBlurInner1"></feGaussianBlur>
            <feOffset dx="0" dy="1" in="shadowBlurInner1" result="shadowOffsetInner1"></feOffset>
            <feComposite in="shadowOffsetInner1" in2="SourceAlpha" operator="arithmetic" k2="-1" k3="1" result="shadowInnerInner1"></feComposite>
            <feColorMatrix values="0 0 0 0 1   0 0 0 0 1   0 0 0 0 1  0 0 0 0.5 0" type="matrix" in="shadowInnerInner1"></feColorMatrix>
        </filter>
        <path d="M533,1031 C532.51082,1031 532.06266,1030.82438 531.71513,1030.53274 C391.878086,1022.37113 281,906.384049 281,764.5 C281,624.669197 388.692206,509.991257 525.660815,498.881983 L525.65054,498.878169 C567.480425,354.528894 700.666416,249 858.5,249 C1025.76748,249 1165.35287,367.521067 1197.85674,525.16375 C1286.19348,568.558707 1347,659.428292 1347,764.5 C1347,879.910672 1273.63811,978.186757 1171.0036,1015.23898 L1171,1029 C1171,1030.10457 1170.10457,1031 1169,1031 L533,1031 Z" id="path-7"></path>
        <filter x="-4.7%" y="-6.5%" width="109.5%" height="112.9%" filterUnits="objectBoundingBox" id="filter-8">
            <feGaussianBlur stdDeviation="50" in="SourceAlpha" result="shadowBlurInner1"></feGaussianBlur>
            <feOffset dx="0" dy="1" in="shadowBlurInner1" result="shadowOffsetInner1"></feOffset>
            <feComposite in="shadowOffsetInner1" in2="SourceAlpha" operator="arithmetic" k2="-1" k3="1" result="shadowInnerInner1"></feComposite>
            <feColorMatrix values="0 0 0 0 1   0 0 0 0 1   0 0 0 0 1  0 0 0 0.5 0" type="matrix" in="shadowInnerInner1"></feColorMatrix>
        </filter>
        <linearGradient x1="-25.7062592%" y1="17.369847%" x2="137.025067%" y2="84.2708035%" id="linearGradient-9">
            <stop stop-color="#44CAE0" offset="0%"></stop>
            <stop stop-color="#68FF87" offset="100%"></stop>
        </linearGradient>
        <linearGradient x1="4.62340835%" y1="4.79659661%" x2="105.426421%" y2="129.197914%" id="linearGradient-10">
            <stop stop-color="#FFFFFF" offset="0%"></stop>
            <stop stop-color="#FFFFFF" stop-opacity="0.687363418" offset="100%"></stop>
        </linearGradient>
        <linearGradient x1="50%" y1="0%" x2="50%" y2="115.66082%" id="linearGradient-11">
            <stop stop-color="#B3B6FA" offset="0%"></stop>
            <stop stop-color="#7C7FF4" offset="100%"></stop>
        </linearGradient>
        <path d="M42,145.184283 L42,149.59148 C42,151.320559 42.8933507,152.926918 44.3622428,153.839096 L82.837939,177.732394 L82.837939,177.732394" id="path-12"></path>
        <filter x="-50.2%" y="-35.3%" width="192.0%" height="215.4%" filterUnits="objectBoundingBox" id="filter-13">
            <feMorphology radius="1.5" operator="dilate" in="SourceAlpha" result="shadowSpreadOuter1"></feMorphology>
            <feOffset dx="-2" dy="7" in="shadowSpreadOuter1" result="shadowOffsetOuter1"></feOffset>
            <feMorphology radius="1.5" operator="erode" in="SourceAlpha" result="shadowInner"></feMorphology>
            <feOffset dx="-2" dy="7" in="shadowInner" result="shadowInner"></feOffset>
            <feComposite in="shadowOffsetOuter1" in2="shadowInner" operator="out" result="shadowOffsetOuter1"></feComposite>
            <feGaussianBlur stdDeviation="4.5" in="shadowOffsetOuter1" result="shadowBlurOuter1"></feGaussianBlur>
            <feColorMatrix values="0 0 0 0 0.77671195   0 0 0 0 0.86580276   0 0 0 0 0.937075408  0 0 0 1 0" type="matrix" in="shadowBlurOuter1"></feColorMatrix>
        </filter>
        <linearGradient x1="58.9949064%" y1="-4.72526475%" x2="50%" y2="100%" id="linearGradient-14">
            <stop stop-color="#EDEEFF" offset="0%"></stop>
            <stop stop-color="#D7D8FF" offset="100%"></stop>
        </linearGradient>
        <linearGradient x1="50%" y1="0%" x2="50%" y2="100%" id="linearGradient-15">
            <stop stop-color="#8DC5EF" offset="0%"></stop>
            <stop stop-color="#5593DB" offset="100%"></stop>
        </linearGradient>
        <linearGradient x1="50%" y1="0%" x2="50%" y2="100%" id="linearGradient-16">
            <stop stop-color="#8EC5EF" offset="0%"></stop>
            <stop stop-color="#5593DB" offset="100%"></stop>
        </linearGradient>
        <linearGradient x1="-50.7568913%" y1="15.5470218%" x2="134.472623%" y2="79.632516%" id="linearGradient-17">
            <stop stop-color="#90DFFF" offset="0%"></stop>
            <stop stop-color="#7DADFF" offset="100%"></stop>
        </linearGradient>
        <linearGradient x1="50%" y1="0%" x2="50%" y2="100%" id="linearGradient-18">
            <stop stop-color="#EFF7FF" offset="0%"></stop>
            <stop stop-color="#DAEBFF" offset="100%"></stop>
        </linearGradient>
        <linearGradient x1="50%" y1="0%" x2="50%" y2="115.66082%" id="linearGradient-19">
            <stop stop-color="#99D0F9" offset="0%"></stop>
            <stop stop-color="#66AEFF" offset="100%"></stop>
        </linearGradient>
        <path d="M315.426102,162.051387 L369.808457,194.378362 C372.171373,195.807379 372.928448,198.881348 371.499431,201.244264 C371.127201,201.859756 370.626554,202.38769 370.031664,202.79203 L250.416736,280.009 C248.759554,281.135368 246.589989,281.163622 244.904037,280.080792 L217.956911,263.543238" id="path-20"></path>
        <filter x="-13.7%" y="-10.1%" width="124.3%" height="131.6%" filterUnits="objectBoundingBox" id="filter-21">
            <feMorphology radius="1.5" operator="dilate" in="SourceAlpha" result="shadowSpreadOuter1"></feMorphology>
            <feOffset dx="-2" dy="7" in="shadowSpreadOuter1" result="shadowOffsetOuter1"></feOffset>
            <feMorphology radius="1.5" operator="erode" in="SourceAlpha" result="shadowInner"></feMorphology>
            <feOffset dx="-2" dy="7" in="shadowInner" result="shadowInner"></feOffset>
            <feComposite in="shadowOffsetOuter1" in2="shadowInner" operator="out" result="shadowOffsetOuter1"></feComposite>
            <feGaussianBlur stdDeviation="4.5" in="shadowOffsetOuter1" result="shadowBlurOuter1"></feGaussianBlur>
            <feColorMatrix values="0 0 0 0 0.77671195   0 0 0 0 0.86580276   0 0 0 0 0.937075408  0 0 0 1 0" type="matrix" in="shadowBlurOuter1"></feColorMatrix>
        </filter>
        <linearGradient x1="50%" y1="0%" x2="50%" y2="100%" id="linearGradient-22">
            <stop stop-color="#727272" offset="0%"></stop>
            <stop stop-color="#3E3E3E" offset="100%"></stop>
        </linearGradient>
        <linearGradient x1="50%" y1="0%" x2="50%" y2="100%" id="linearGradient-23">
            <stop stop-color="#F0F0F1" offset="0%"></stop>
            <stop stop-color="#DCDCDE" offset="100%"></stop>
        </linearGradient>
        <filter x="-34.4%" y="-65.7%" width="167.2%" height="234.0%" filterUnits="objectBoundingBox" id="filter-24">
            <feGaussianBlur stdDeviation="8" in="SourceGraphic"></feGaussianBlur>
        </filter>
        <filter x="-15.8%" y="-44.0%" width="131.7%" height="188.9%" filterUnits="objectBoundingBox" id="filter-25">
            <feGaussianBlur stdDeviation="10" in="SourceGraphic"></feGaussianBlur>
        </filter>
        <filter x="-17.8%" y="-48.5%" width="135.6%" height="197.9%" filterUnits="objectBoundingBox" id="filter-26">
            <feGaussianBlur stdDeviation="7" in="SourceGraphic"></feGaussianBlur>
        </filter>
    </defs>
    <g id="页面-1" stroke="none" stroke-width="1" fill="none" fill-rule="evenodd">
        <g id="同步助手web-导航条上滑" transform="translate(0.000000, -70.000000)">
            <g id="banner" transform="translate(0.000000, 70.000000)">
                <g id="banner1背景">
                    <mask id="mask-2" fill="white">
                        <use xlink:href="#path-1"></use>
                    </mask>
                    <use id="矩形" fill="#FFFFFF" xlink:href="#path-1"></use>
                    <g id="编组-9" mask="url(#mask-2)">
                        <g transform="translate(1054.000000, -130.000000)">
                            <path d="M63.2,783 C62.8000389,783 62.4457797,782.804327 62.2277287,782.503489 C27.1545147,778.518091 0,750.934533 0,717.5 C0,684.684103 26.1589377,657.504662 60.2891552,652.740434 C69.5699506,613.375994 105.988119,584 149.5,584 C194.937272,584 232.639152,616.033277 239.782046,658.024552 C264.117384,668.411779 281,691.137044 281,717.5 C281,748.268899 258.002775,774.082593 227.000332,781.11043 L227,781.8 C227,782.462742 226.462742,783 225.8,783 L63.2,783 Z" id="形状结合备份-7" stroke="none" fill="url(#linearGradient-3)" fill-rule="evenodd" opacity="0.200000003"></path>
                            <g id="形状结合" stroke="none" fill="none">
                                <use fill="url(#linearGradient-4)" fill-rule="evenodd" xlink:href="#path-5"></use>
                                <use fill="black" fill-opacity="1" filter="url(#filter-6)" xlink:href="#path-5"></use>
                            </g>
                            <g id="形状结合备份-8" stroke="none" fill="none" opacity="0.25">
                                <use fill="#FFFFFF" fill-rule="evenodd" xlink:href="#path-7"></use>
                                <use fill="black" fill-opacity="1" filter="url(#filter-8)" xlink:href="#path-7"></use>
                            </g>
                            <path d="M203.2,228 C203.02834,228 202.865099,227.963956 202.717432,227.899024 C191.086308,226.851516 182,217.894598 182,207 C182,196.748478 190.04529,188.212637 200.68552,186.368882 C203.587139,173.575753 215.386063,164 229.5,164 C244.17866,164 256.353346,174.357368 258.621112,187.920104 C266.518519,191.245197 272,198.538128 272,207 C272,216.73999 264.737568,224.931247 254.887203,227.30575 C254.697492,227.715916 254.281922,228 253.8,228 L203.2,228 Z" id="形状结合备份-2" stroke="none" fill="url(#linearGradient-9)" fill-rule="evenodd" opacity="0.100000001"></path>
                            <circle id="椭圆形" stroke="#FFFFFF" stroke-width="20" fill="url(#linearGradient-10)" fill-rule="evenodd" cx="343.5" cy="514.5" r="257.5"></circle>
                            <g id="传输中" stroke="none" stroke-width="1" fill="none" fill-rule="evenodd" transform="translate(178.000000, 361.000000)">
                                <g id="编组-19" transform="translate(1.000000, 0.000000)">
                                    <g id="路径" stroke-linecap="round" stroke-linejoin="round">
                                        <use fill="black" fill-opacity="1" filter="url(#filter-13)" xlink:href="#path-12"></use>
                                        <use stroke="url(#linearGradient-11)" stroke-width="3" xlink:href="#path-12"></use>
                                    </g>
                                    <g id="编组-18">
                                        <path d="M1.87324983,32.5698465 L66.0708671,0.467378099 C67.0191324,-0.00680861633 68.2078806,0.115219673 69.1615395,0.78464417 L71.9126191,2.71577509 C72.8495314,3.37344427 73.4105682,4.45510825 73.3780836,5.5411515 L69.7640446,126.367592 C69.7356135,127.318117 69.2553376,128.149758 68.4703894,128.607672 L8.19739071,163.769017 C7.29777074,164.293827 6.13132029,164.251347 5.15297346,163.658145 L2.0913142,161.801768 C1.07373349,161.184778 0.430719169,160.076286 0.430719169,158.939069 L0.430719169,34.9789977 C0.430719169,33.9310291 0.977572819,33.0177361 1.87324983,32.5698465 Z" id="路径-17备份-2" fill="#6567C8"></path>
                                        <path d="M7.59083077,35.3448193 L71.6947637,3.20505556 C72.5439161,2.77931633 73.6513317,3.16755363 74.1682456,4.07220784 C74.3399167,4.37265044 74.4307192,4.70619301 74.4307192,5.03634542 L74.4307192,128.486781 C74.4307192,130.040612 73.6291021,131.398435 72.3102872,132.078487 L8.18254653,165.146179 C7.33879259,165.581264 6.22864729,165.204216 5.7029676,164.304019 C5.52503632,163.999322 5.43071917,163.659446 5.43071917,163.32296 L5.43071917,38.9567013 C5.43071917,37.3862843 6.24940984,36.017367 7.59083077,35.3448193 Z" id="路径-17备份" fill="#7C7FF4"></path>
                                        <path d="M37.4081605,139.367637 L46.466984,134.965282 C47.8314522,134.302186 48.9375723,135.377763 48.9375723,137.36765 C48.9375723,139.357538 47.8314522,141.508207 46.466984,142.171303 L37.4081605,146.573658 C36.0436923,147.236754 34.9375723,146.161177 34.9375723,144.17129 C34.9375723,142.181402 36.0436923,140.030733 37.4081605,139.367637 Z" id="矩形" fill="#9FA1F1"></path>
                                        <path d="M13.3831825,40.0332058 L66.918835,13.8811537 C67.3932777,13.6493895 68.0070678,13.8707264 68.2897736,14.3755236 C68.3820208,14.5402394 68.4307192,14.7223303 68.4307192,14.9025413 L68.4307192,117.964014 C68.4307192,119.3589 67.7040701,120.575022 66.5131147,121.173324 L12.951318,148.081215 C12.4797766,148.318104 11.8644366,148.102854 11.5769178,147.600441 C11.4813014,147.433361 11.4307192,147.247811 11.4307192,147.064145 L11.4307192,43.259785 C11.4307192,41.850394 12.1724389,40.6246515 13.3831825,40.0332058 Z" id="路径-17" fill="url(#linearGradient-14)"></path>
                                        <g id="编组备份" transform="translate(25.451613, 66.725191)">
                                            <path d="M14.84782,1.53557765 C22.8524708,-2.07057833 29.3415224,0.884044094 29.3415224,8.13491154 C29.3415224,15.385779 22.8524708,24.4760322 14.84782,28.4385604 C13.8304285,28.942198 12.8375206,29.3361027 11.879308,29.6242808 L11.3086256,29.7842843 C11.2083265,29.8103672 11.0187728,29.8533692 10.7399645,29.9132428 C10.4394207,29.977704 10.126485,30.151427 9.83652924,30.4126455 L9.66559632,30.5797547 L8.43221947,35.5888355 L6.2404485,34.4288387 C5.88371449,34.2400369 5.68522288,33.8464356 5.74548473,33.4473444 L6.04351274,31.4736189 L6.04351274,31.4736189 C6.1693728,30.6203766 5.88680303,29.9543179 5.32809945,29.7863704 L5.13574592,29.7240315 C2.1993876,28.6475598 0.354117564,25.8958664 0.354117564,21.8392265 C0.354117564,14.2319869 6.84316916,5.14173364 14.84782,1.53557765 Z" id="形状" fill="#7C7FF4"></path>
                                            <path d="M18.730078,2.7974097 C26.7347288,-0.808746285 33.2237804,2.14587614 33.2237804,9.39674359 C33.2237804,16.647611 26.7347288,25.7378643 18.730078,29.7003925 C17.7126865,30.20403 16.7197786,30.5979348 15.761566,30.8861128 L15.1908836,31.0461163 C15.0905845,31.0721992 14.9010308,31.1152013 14.6222226,31.1750748 C14.3216788,31.239536 14.0087431,31.413259 13.7187873,31.6744775 L13.5478543,31.8415868 L10.1908428,35.4023579 C10.1068485,35.4917175 10.0125212,35.5529112 9.92139173,35.5771462 C9.7129512,35.6325554 9.56741917,35.4861245 9.5649208,35.2407234 L9.57284083,35.1297999 L9.92577077,32.735451 C10.0516308,31.8822086 9.76906106,31.2161499 9.21035749,31.0482024 L9.01800396,30.9858636 C6.08164563,29.9093918 4.2363756,27.1576984 4.2363756,23.1010586 C4.2363756,15.4938189 10.7254272,6.40356568 18.730078,2.7974097 Z" id="形状" fill="#FFFFFF"></path>
                                            <path d="M15.4686119,12.5057297 C15.2507431,12.002895 15.0844861,11.9838993 14.7528772,11.9716672 C14.6268976,11.9640247 14.5006959,11.9599761 14.374438,11.9595267 C13.9424532,11.9603714 13.491115,12.082699 13.2172524,12.3509655 C12.8868901,12.6763848 12.0606125,13.4361116 12.05754,14.9937415 C12.054483,16.5495313 13.2337435,18.0524071 13.391978,18.2627863 C13.55786,18.4722305 15.6903786,21.7084335 19.0069899,23.0222023 C21.601643,24.050331 22.3721405,23.9531405 22.9639694,23.8305382 C23.8273346,23.6503627 24.9104143,23.0354996 25.1842486,22.2961739 C25.4580865,21.555008 25.459329,20.9238597 25.3802688,20.7896888 C25.3002511,20.6564398 25.0815419,20.5805043 24.7502227,20.4210656 C24.4179461,20.2625489 22.8062002,19.5002291 22.5005713,19.3987025 C22.2016434,19.2916426 21.916765,19.3299212 21.6906122,19.636736 C21.3705618,20.0642594 21.0581426,20.4991281 20.8043628,20.7609151 C20.6051712,20.9655529 20.2792205,20.9919514 20.0080102,20.8839172 C19.6432155,20.7374245 18.6212741,20.3953287 17.3608928,19.3195091 C16.3867488,18.4860197 15.7245712,17.4476718 15.5330859,17.1361535 C15.3406592,16.8172767 15.5140084,16.6320101 15.6672621,16.4596634 C15.8329908,16.2615312 15.9928711,16.1213728 16.1595302,15.9361194 C16.3261893,15.7508659 16.4181267,15.6550022 16.5255946,15.4376631 C16.6387842,15.2267532 16.559887,15.0097785 16.47992,14.8507684 C16.4009088,14.6917564 15.7397491,13.1363454 15.4686101,12.5066497 L15.4686119,12.5057297 Z" id="路径" fill="#7C7FF4" transform="translate(18.741534, 17.931997) rotate(15.000000) translate(-18.741534, -17.931997) "></path>
                                        </g>
                                        <g id="编组-22" transform="translate(46.001010, 103.734277) rotate(28.000000) translate(-46.001010, -103.734277) translate(21.501010, 80.734277)"></g>
                                    </g>
                                    <g id="编组-14" transform="translate(11.000000, 81.000000)">
                                        <path d="M89.0228631,85.7680186 L85.8059914,4.26332138 L91.9156055,1.98334046 C92.7562334,1.6696356 93.6931452,1.74866222 94.4693493,2.19874358 L221.063757,75.6044164 C222.606194,76.4987977 223.555654,78.1468713 223.555654,79.9298553 L223.555654,167.041766 C223.555654,168.698621 222.212508,170.041766 220.555654,170.041766 C219.99999,170.041766 219.455245,169.887441 218.982147,169.595994 L216.659274,168.165011 L216.659274,168.165011 L89.0228631,85.7680186 Z" id="路径-7备份" fill="url(#linearGradient-15)"></path>
                                        <path d="M83.5980912,89.4670659 L0,139.839931 L0,143.492665 L134.521462,222.198802 L220.265418,174.958255 C221.716598,174.158729 222.244868,172.334171 221.445342,170.882991 C221.184956,170.410377 220.80192,170.016741 220.336588,169.743554 L83.5980912,89.4670659 L83.5980912,89.4670659 Z" id="路径-6" fill="url(#linearGradient-16)"></path>
                                        <polygon id="路径-6" fill="url(#linearGradient-17)" points="83.5980912 89.4670659 0 139.839931 134.434465 218.414291 219.459582 169.420751"></polygon>
                                        <path d="M59.244015,125.091083 C59.9439786,125.515551 59.7795404,126.288311 58.8767319,126.81709 L53.1553541,130.168129 C52.2525456,130.696909 50.9532421,130.78147 50.2532785,130.357002 L42.0152026,125.361313 C41.315239,124.936844 41.4796773,124.164085 42.3824857,123.635305 L48.1038635,120.284266 C49.006672,119.755487 50.3059756,119.670926 51.0059392,120.095394 L59.244015,125.091083 Z M163.740838,188.459477 C164.440802,188.883945 164.276363,189.656705 163.373555,190.185484 L157.652177,193.536523 C156.749369,194.065303 155.450065,194.149864 154.750102,193.725395 L146.512026,188.729706 C145.812062,188.305238 145.9765,187.532478 146.879309,187.003699 L152.600687,183.65266 C153.503495,183.123881 154.802799,183.03932 155.502762,183.463788 L163.740838,188.459477 Z M146.504249,178.006958 C147.204212,178.431427 147.039774,179.204186 146.136966,179.732966 L140.415588,183.084005 C139.512779,183.612784 138.213476,183.697345 137.513512,183.272877 L129.275436,178.277188 C128.575473,177.85272 128.739911,177.07996 129.642719,176.551181 L135.364097,173.200142 C136.266906,172.671362 137.566209,172.586801 138.266173,173.011269 L146.504249,178.006958 Z M128.190372,166.901157 C128.890336,167.325626 128.725898,168.098385 127.823089,168.627165 L122.101712,171.978204 C121.198903,172.506983 119.8996,172.591544 119.199636,172.167076 L110.96156,167.171387 C110.261597,166.746919 110.426035,165.974159 111.328843,165.44538 L117.050221,162.094341 C117.95303,161.565561 119.252333,161.481 119.952297,161.905468 L128.190372,166.901157 Z M112.03107,157.101921 C112.731034,157.526389 112.566595,158.299149 111.663787,158.827929 L105.942409,162.178968 C105.039601,162.707747 103.740297,162.792308 103.040333,162.36784 L94.8022576,157.372151 C94.102294,156.947683 94.2667322,156.174923 95.1695407,155.646143 L100.890919,152.295104 C101.793727,151.766325 103.093031,151.681764 103.792994,152.106232 L112.03107,157.101921 Z M109.845567,172.324789 C111.59294,173.374201 111.18244,175.284694 108.92869,176.591994 L94.6459764,184.876764 C92.3922264,186.184065 89.1486755,186.393125 87.4013026,185.343713 L51.8971431,164.527556 C50.1497702,163.478144 50.56027,161.567651 52.81402,160.260351 L67.0967337,151.975581 C69.3504837,150.66828 72.5940347,150.45922 74.3414075,151.508632 L109.845567,172.324789 Z M94.7944806,146.649403 C95.4944442,147.073871 95.330006,147.846631 94.4271975,148.37541 L88.7058197,151.726449 C87.8030112,152.255228 86.5037077,152.339789 85.803744,151.915321 L77.5656682,146.919632 C76.8657046,146.495164 77.0301428,145.722404 77.9329513,145.193625 L83.6543291,141.842586 C84.5571376,141.313807 85.8564411,141.229246 86.5564048,141.653714 L94.7944806,146.649403 Z M76.4806044,135.543602 C77.180568,135.96807 77.0161298,136.74083 76.1133213,137.269609 L70.3919435,140.620648 C69.489135,141.149427 68.1898315,141.233988 67.4898678,140.80952 L59.251792,135.813831 C58.5518284,135.389363 58.7162666,134.616603 59.6190751,134.087824 L65.3404529,130.736785 C66.2432614,130.208006 67.5425649,130.123445 68.2425286,130.547913 L76.4806044,135.543602 Z M90.6089046,127.268587 C91.3088683,127.693055 91.14443,128.465815 90.2416216,128.994594 L84.5202438,132.345633 C83.6174353,132.874413 82.3181317,132.958974 81.6181681,132.534505 L73.3800923,127.538816 C72.6801287,127.114348 72.8445669,126.341589 73.7473754,125.812809 L79.4687532,122.46177 C80.3715617,121.932991 81.6708652,121.84843 82.3708288,122.272898 L90.6089046,127.268587 Z M108.922781,138.374388 C109.622744,138.798856 109.458306,139.571616 108.555498,140.100395 L102.83412,143.451434 C101.931311,143.980214 100.632008,144.064775 99.9320443,143.640306 L91.6939685,138.644617 C90.9940049,138.220149 91.1584431,137.44739 92.0612516,136.91861 L97.7826294,133.567571 C98.6854379,133.038792 99.9847414,132.954231 100.684705,133.378699 L108.922781,138.374388 Z M126.15937,148.826907 C126.859334,149.251375 126.694896,150.024134 125.792087,150.552914 L120.070709,153.903953 C119.167901,154.432732 117.868597,154.517293 117.168634,154.092825 L108.930558,149.097136 C108.230594,148.672668 108.395032,147.899908 109.297841,147.371129 L115.019219,144.02009 C115.922027,143.49131 117.221331,143.406749 117.921294,143.831218 L126.15937,148.826907 Z M142.318673,158.626143 C143.018636,159.050611 142.854198,159.823371 141.95139,160.35215 L136.230012,163.703189 C135.327203,164.231968 134.0279,164.316529 133.327936,163.892061 L125.08986,158.896372 C124.389897,158.471904 124.554335,157.699144 125.457144,157.170365 L131.178521,153.819326 C132.08133,153.290547 133.380633,153.205986 134.080597,153.630454 L142.318673,158.626143 Z M160.632549,169.731944 C161.332513,170.156412 161.168074,170.929172 160.265266,171.457951 L154.543888,174.80899 C153.64108,175.337769 152.341776,175.42233 151.641812,174.997862 L143.403737,170.002173 C142.703773,169.577705 142.868211,168.804945 143.77102,168.276166 L149.492398,164.925127 C150.395206,164.396348 151.69451,164.311787 152.394473,164.736255 L160.632549,169.731944 Z M177.869138,180.184462 C178.569102,180.60893 178.404664,181.38169 177.501855,181.91047 L171.780477,185.261509 C170.877669,185.790288 169.578365,185.874849 168.878402,185.450381 L160.640326,180.454692 C159.940362,180.030224 160.104801,179.257464 161.007609,178.728684 L166.728987,175.377645 C167.631795,174.848866 168.931099,174.764305 169.631063,175.188773 L177.869138,180.184462 Z M73.3723153,116.816068 C74.0722789,117.240537 73.9078407,118.013296 73.0050322,118.542076 L67.2836544,121.893115 C66.3808459,122.421894 65.0815424,122.506455 64.3815787,122.081987 L56.1435029,117.086298 C55.4435393,116.66183 55.6079775,115.88907 56.510786,115.360291 L62.2321638,112.009252 C63.1349723,111.480472 64.4342758,111.395911 65.1342395,111.820379 L73.3723153,116.816068 Z M87.5006156,108.541054 C88.2005792,108.965522 88.0361409,109.738282 87.1333325,110.267061 L81.4119547,113.6181 C80.5091462,114.146879 79.2098426,114.23144 78.509879,113.806972 L70.2718032,108.811283 C69.5718396,108.386815 69.7362778,107.614055 70.6390863,107.085276 L76.3604641,103.734237 C77.2632726,103.205458 78.5625761,103.120897 79.2625398,103.545365 L87.5006156,108.541054 Z M104.737205,118.993572 C105.437169,119.418041 105.27273,120.1908 104.369922,120.71958 L98.648544,124.070619 C97.7457355,124.599398 96.446432,124.683959 95.7464684,124.259491 L87.5083926,119.263802 C86.8084289,118.839334 86.9728672,118.066574 87.8756757,117.537795 L93.5970535,114.186756 C94.499862,113.657976 95.7991655,113.573415 96.4991291,113.997883 L104.737205,118.993572 Z M123.051081,130.099373 C123.751045,130.523841 123.586607,131.296601 122.683798,131.825381 L116.96242,135.17642 C116.059612,135.705199 114.760308,135.78976 114.060345,135.365292 L105.822269,130.369603 C105.122305,129.945135 105.286743,129.172375 106.189552,128.643596 L111.91093,125.292557 C112.813738,124.763777 114.113042,124.679216 114.813005,125.103684 L123.051081,130.099373 Z M156.446973,150.351128 C157.146937,150.775596 156.982498,151.548356 156.07969,152.077135 L150.358312,155.428174 C149.455504,155.956954 148.1562,156.041515 147.456237,155.617046 L139.218161,150.621357 C138.518197,150.196889 138.682635,149.42413 139.585444,148.89535 L145.306822,145.544311 C146.20963,145.015532 147.508934,144.930971 148.208897,145.355439 L156.446973,150.351128 Z M174.760849,161.456929 C175.460813,161.881397 175.296375,162.654157 174.393566,163.182936 L168.672188,166.533975 C167.76938,167.062755 166.470076,167.147316 165.770113,166.722847 L157.532037,161.727158 C156.832073,161.30269 156.996512,160.529931 157.89932,160.001151 L163.620698,156.650112 C164.523506,156.121333 165.82281,156.036772 166.522773,156.46124 L174.760849,161.456929 Z M191.997439,171.909448 C192.697402,172.333916 192.532964,173.106675 191.630156,173.635455 L185.908778,176.986494 C185.005969,177.515273 183.706666,177.599834 183.006702,177.175366 L174.768626,172.179677 C174.068663,171.755209 174.233101,170.982449 175.135909,170.45367 L180.857287,167.102631 C181.760096,166.573851 183.059399,166.48929 183.759363,166.913759 L191.997439,171.909448 Z M140.287671,140.551892 C140.987634,140.97636 140.823196,141.74912 139.920387,142.277899 L134.19901,145.628938 C133.296201,146.157718 131.996898,146.242278 131.296934,145.81781 L123.058858,140.822121 C122.358895,140.397653 122.523333,139.624893 123.426141,139.096114 L129.147519,135.745075 C130.050328,135.216296 131.349631,135.131735 132.049595,135.556203 L140.287671,140.551892 Z M97.775743,102.522861 C98.4757067,102.947329 98.3859491,103.676348 97.575264,104.151171 L95.3734509,105.440783 C94.5627658,105.915606 93.3381429,105.956426 92.6381793,105.531958 L84.4001035,100.536269 C83.7001399,100.1118 83.7898974,99.3827815 84.6005826,98.9079592 L86.8023956,97.6183465 C87.6130808,97.1435243 88.8377036,97.1027042 89.5376672,97.5271723 L97.775743,102.522861 Z M115.012332,112.97538 C115.712296,113.399848 115.622539,114.128867 114.811853,114.603689 L112.61004,115.893302 C111.799355,116.368124 110.574732,116.408944 109.874769,115.984476 L101.636693,110.988787 C100.936729,110.564319 101.026487,109.8353 101.837172,109.360478 L104.038985,108.070865 C104.84967,107.596043 106.074293,107.555223 106.774257,107.979691 L115.012332,112.97538 Z M133.326209,124.081181 C134.026172,124.505649 133.936415,125.234668 133.12573,125.70949 L130.923917,126.999103 C130.113231,127.473925 128.888609,127.514745 128.188645,127.090277 L119.950569,122.094588 C119.250605,121.67012 119.340363,120.941101 120.151048,120.466279 L122.352861,119.176666 C123.163546,118.701844 124.388169,118.661024 125.088133,119.085492 L133.326209,124.081181 Z M150.562798,134.533699 C151.262762,134.958168 151.173004,135.687186 150.362319,136.162009 L148.160506,137.451621 C147.349821,137.926444 146.125198,137.967264 145.425234,137.542796 L137.187158,132.547107 C136.487195,132.122639 136.576952,131.39362 137.387638,130.918797 L139.589451,129.629185 C140.400136,129.154362 141.624759,129.113542 142.324722,129.53801 L150.562798,134.533699 Z M166.722101,144.332936 C167.422064,144.757404 167.332307,145.486423 166.521621,145.961245 L164.319808,147.250858 C163.509123,147.72568 162.2845,147.7665 161.584537,147.342032 L153.346461,142.346343 C152.646497,141.921875 152.736255,141.192856 153.54694,140.718033 L155.748753,139.428421 C156.559438,138.953599 157.784061,138.912778 158.484025,139.337247 L166.722101,144.332936 Z M185.035977,155.438737 C185.73594,155.863205 185.646183,156.592224 184.835498,157.067046 L182.633685,158.356659 C181.822999,158.831481 180.598377,158.872301 179.898413,158.447833 L171.660337,153.452144 C170.960374,153.027676 171.050131,152.298657 171.860816,151.823834 L174.062629,150.534222 C174.873314,150.059399 176.097937,150.018579 176.797901,150.443048 L185.035977,155.438737 Z M202.272566,165.891255 C202.97253,166.315723 202.882772,167.044742 202.072087,167.519564 L199.870274,168.809177 C199.059589,169.283999 197.834966,169.324819 197.135002,168.900351 L188.896927,163.904662 C188.196963,163.480194 188.28672,162.751175 189.097406,162.276353 L191.299219,160.98674 C192.109904,160.511918 193.334527,160.471098 194.03449,160.895566 L202.272566,165.891255 Z" id="形状" fill="#FFFFFF"></path>
                                        <path d="M84.129571,89.9265292 L84.129571,5.3672099 C84.129571,3.71035565 85.4727167,2.3672099 87.129571,2.3672099 C87.6593156,2.3672099 88.1796142,2.5074829 88.6375683,2.77376739 L217.487426,77.6955128 C219.036007,78.5959594 219.984557,80.2560434 219.97401,82.047355 L219.459582,169.420751 L219.459582,169.420751 L84.129571,89.9265292 Z" id="路径-7" fill="#78B7FF"></path>
                                        <path d="M87.4013026,87.5136565 L87.4013026,8.51012082 C87.4013026,7.95783607 87.8490179,7.51012082 88.4013026,7.51012082 C88.5769464,7.51012082 88.7494918,7.55638344 88.901576,7.64425334 L212.424934,79.0125109 C213.980283,79.9111469 214.934061,81.5750413 214.92348,83.3712999 L214.462399,161.64778 L214.462399,161.64778 L87.4013026,87.5136565 Z" id="路径-7" fill="url(#linearGradient-18)"></path>
                                        <g id="编组-22" transform="translate(148.834977, 85.810803) rotate(54.000000) translate(-148.834977, -85.810803) translate(123.834977, 61.310803)">
                                            <path d="M20.1748079,11.7335467 C28.8087461,11.7335467 37.2254211,17.2768638 39.095902,24.2753718 C40.9663828,31.2738797 35.5823564,37.0773859 26.9484181,37.0773859 C25.6315693,37.0773859 24.3174754,36.9454089 23.0292926,36.6968827 C22.9152268,36.6748762 22.6980869,36.6274168 22.3778729,36.5545044 C22.0326954,36.4759079 21.6999403,36.4938004 21.41665,36.6040284 L21.252908,36.6812122 L18.1040194,38.4473582 C18.0252325,38.4915482 17.9270301,38.5047951 17.8234989,38.4851987 C17.5866921,38.4403759 17.3754472,38.2373148 17.3115807,38.0084373 L17.2935876,37.9091524 L17.123558,35.8486583 C17.062923,35.1138555 16.5584273,34.3666235 15.8462752,33.956826 C15.7434117,33.8976335 15.6613261,33.849266 15.6000184,33.8117235 C11.8130176,31.4927076 8.92593819,28.1374936 7.9284848,24.4054663 C6.05800398,17.4069583 11.5408696,11.7335467 20.1748079,11.7335467 Z" id="形状结合" fill="#78B7FF" transform="translate(23.514584, 25.113783) rotate(-37.000000) translate(-23.514584, -25.113783) "></path>
                                            <path d="M20.1633964,14.8754469 C28.7973347,14.8754469 37.3128489,20.5488586 39.1833297,27.5473666 C41.0538105,34.5458745 35.5709449,40.2192862 26.9370067,40.2192862 C25.6201579,40.2192862 24.306064,40.0873092 23.0178811,39.8387829 C22.9038154,39.8167765 22.6866755,39.7693171 22.3664615,39.6964047 C22.021284,39.6178082 21.6885289,39.6357007 21.4052386,39.7459286 L21.2414965,39.8231124 L18.092608,41.5892585 C18.0138211,41.6334484 17.9156186,41.6466953 17.8120875,41.627099 C17.5752807,41.5822762 17.3640357,41.379215 17.3001692,41.1503375 L17.2821762,41.0510527 L17.1121466,38.9905586 C17.0515115,38.2557558 16.5470159,37.5085238 15.8348637,37.0987263 C15.7320003,37.0395338 15.6499147,36.9911663 15.5886069,36.9536237 C11.8016062,34.6346079 8.91452675,31.2793939 7.91707336,27.5473666 C6.04659254,20.5488586 11.5294581,14.8754469 20.1633964,14.8754469 Z" id="形状结合" fill="#FFFFFF" transform="translate(23.550202, 28.255683) rotate(-37.000000) translate(-23.550202, -28.255683) "></path>
                                            <path d="M19.399059,22.1746628 C19.2688435,22.166667 19.1383987,22.1624237 19.0078963,22.1619384 C18.5613892,22.1627656 18.0948911,22.2904351 17.8118506,22.5705076 C17.4704171,22.9102482 16.6164432,23.7034029 16.6134348,25.3297828 C16.610441,26.9542414 17.8295065,28.5236006 17.993083,28.7432856 C18.164564,28.9619953 20.3691196,32.3413079 23.7973685,33.7134846 C26.4793581,34.787322 27.2757476,34.6859394 27.8874593,34.5580009 C28.7798296,34.3699823 29.8992542,33.7281181 30.182215,32.9561948 C30.4651794,32.1823502 30.4663962,31.5233446 30.3846638,31.3832416 C30.3019418,31.2441011 30.0758719,31.1647863 29.7333975,30.9982682 C29.3899334,30.8327127 27.7239227,30.0365412 27.4080084,29.9304947 C27.0990197,29.8186715 26.8045684,29.8586035 26.5708458,30.1789317 C26.2400817,30.6252844 25.9172063,31.0793076 25.654923,31.3526171 C25.4490569,31.566262 25.1121513,31.5937842 24.8318119,31.4809473 C24.454738,31.3279424 23.3984046,30.9706175 22.0955369,29.8471535 C21.0885552,28.9767521 20.4040055,27.8924898 20.2060495,27.5671974 C20.0071198,27.2342216 20.1862767,27.0407998 20.344664,26.8608655 C20.5159429,26.6540092 20.681183,26.5076849 20.853425,26.3142758 C21.025667,26.1208668 21.1206848,26.0207836 21.2317423,25.7938653 C21.3487145,25.5736606 21.2671417,25.3470991 21.1844694,25.1810605 C21.1027849,25.01502 20.4192321,23.3908726 20.1389105,22.7333491 C19.9136655,22.2073321 19.7418172,22.1874769 19.399059,22.1746628 Z" id="路径" fill="#65ADFF" transform="translate(23.522456, 28.398524) rotate(-24.000000) translate(-23.522456, -28.398524) "></path>
                                        </g>
                                    </g>
                                    <g id="路径" stroke-linecap="round" stroke-linejoin="round">
                                        <use fill="black" fill-opacity="1" filter="url(#filter-21)" xlink:href="#path-20"></use>
                                        <use stroke="url(#linearGradient-19)" stroke-width="3" xlink:href="#path-20"></use>
                                    </g>
                                    <g id="手机" transform="translate(193.000000, 82.000000)">
                                        <path d="M7.68240208,41.412326 L93.1387298,92.8984591 C95.0157655,94.0293445 97.360035,94.0469623 99.2538556,92.9444159 L141.974519,68.0732574 C143.820342,66.9986543 144.955752,65.0238307 144.955752,62.8879854 L144.955752,57.7133274 L144.955752,57.7133274 L54.713236,8.00351541 C52.924522,7.01820785 50.75747,7.01033415 48.9616435,7.98261776 L4.77876106,31.9037983 L4.77876106,31.9037983 L4.77876106,36.2730108 C4.77876106,38.376685 5.88049457,40.3267043 7.68240208,41.412326 Z" id="路径-14备份" fill="url(#linearGradient-22)"></path>
                                        <path d="M5.19060472,34.0256376 L93.3783052,86.5115468 C95.2442681,87.6220958 97.5646524,87.6377969 99.445473,86.5526009 L144.379873,60.6263483 C146.102002,59.6327139 146.692564,57.4311524 145.69893,55.7090229 C145.387666,55.1695524 144.941766,54.7200644 144.404808,54.4044867 L54.8987281,1.80053719 C53.0095462,0.69023912 50.665332,0.698143711 48.7836807,1.82115687 L5.18681248,27.8407803 C3.4795354,28.8597229 2.92153006,31.0697606 3.94047267,32.7770377 C4.24699268,33.2906236 4.67664328,33.7197476 5.19060472,34.0256376 Z" id="路径-14" fill="#676669"></path>
                                        <path d="M11.1801197,32.1244958 L95.3511018,81.7246531 C96.0997773,82.1658316 97.0284539,82.1678432 97.7790338,81.7299123 L138.231068,58.1279 C138.803499,57.793911 138.996795,57.0591119 138.662806,56.4866804 C138.559282,56.3092475 138.411941,56.1613616 138.234892,56.0571826 L53.7461325,6.34246162 C52.9753983,5.88894763 52.0164387,5.90155923 51.2578977,6.37518524 L45.5027387,9.9686533 C44.7564667,10.4346186 44.5292333,11.4173311 44.9951986,12.1636031 C45.1696188,12.4429478 45.4263285,12.6613695 45.7299982,12.7888081 C46.5251654,13.1225094 46.8992574,14.0376382 46.5655561,14.8328055 C46.4372886,15.1384505 46.2150821,15.3953463 45.9311025,15.5663055 L30.144165,25.0702397 C28.4682079,26.0791869 26.3703042,26.0727231 24.7005962,25.0534676 C23.033804,24.035992 20.9368583,24.0406722 19.2746246,25.0655778 L11.1595403,30.0692033 C10.5954128,30.4170349 10.4200704,31.1563237 10.7679019,31.7204511 C10.8703871,31.8866658 11.0118863,32.0253594 11.1801197,32.1244958 Z" id="路径-14备份-2" fill="url(#linearGradient-23)"></path>
                                        <g id="编组-22" transform="translate(53.115044, 21.732394)">
                                            <path d="M15.8526949,9.81912668 C23.1513753,9.81912668 30.3499462,14.6294084 31.931153,20.5631915 C33.5123597,26.4969747 28.8774316,31.3072564 21.5787512,31.3072564 C20.465556,31.3072564 19.3546897,31.1953578 18.2657272,30.9846414 C18.1693019,30.9659829 17.9857432,30.9257438 17.715051,30.863924 C17.423256,30.7972848 17.1419622,30.8124552 16.9024834,30.9059135 L16.7640644,30.9713549 L14.1021586,32.4688066 C14.0355562,32.5062737 13.952541,32.5175052 13.8650212,32.5008902 C13.664837,32.4628866 13.4862616,32.2907183 13.4322722,32.0966613 L13.4170618,32.0124812 L13.2733277,30.2654625 C13.22207,29.6424496 12.7955957,29.0088984 12.1935795,28.6614459 C12.1066241,28.6112587 12.0372332,28.5702496 11.9854068,28.5384186 C8.78407425,26.5722086 6.3434881,23.7274432 5.50029311,20.5631915 C3.91908634,14.6294084 8.55401449,9.81912668 15.8526949,9.81912668 Z" id="形状结合" fill="#65ADFF" transform="translate(18.715723, 21.163748) rotate(-37.000000) translate(-18.715723, -21.163748) "></path>
                                            <path d="M15.4134192,6.50383489 C22.7120997,6.50383489 29.9106705,11.3141166 31.4918773,17.2478997 C33.0730841,23.1816829 28.4381559,27.9919646 21.1394755,27.9919646 C20.0262804,27.9919646 18.915414,27.880066 17.8264515,27.6693496 C17.7300263,27.6506911 17.5464676,27.610452 17.2757754,27.5486322 C16.9839803,27.481993 16.7026866,27.4971634 16.4632077,27.5906217 L16.3247888,27.6560631 L13.6628829,29.1535148 C13.5962805,29.1909819 13.5132653,29.2022135 13.4257455,29.1855984 C13.2255614,29.1475948 13.046986,28.9754265 12.9929965,28.7813695 L12.9777862,28.6971895 L12.834052,26.9501707 C12.7827943,26.3271578 12.35632,25.6936066 11.7543038,25.3461541 C11.6673485,25.2959669 11.5979576,25.2549578 11.5461312,25.2231269 C8.34479859,23.2569168 5.90421245,20.4121514 5.06101746,17.2478997 C3.47981068,11.3141166 8.11473884,6.50383489 15.4134192,6.50383489 Z" id="形状结合" fill="#FFFFFF" transform="translate(18.276447, 17.848456) rotate(-37.000000) translate(-18.276447, -17.848456) "></path>
                                            <path d="M15.3385131,11.2731676 C15.1225878,10.7677731 14.9574468,10.7488349 14.6280379,10.736859 C14.5028971,10.7292973 14.3775321,10.7253496 14.2521076,10.7250209 C13.8229719,10.7262919 13.3744882,10.8497344 13.1021624,11.1197474 C12.7736521,11.4472834 11.9520611,12.2120057 11.9474335,13.7782271 C11.9428385,15.3425982 13.1128064,16.8526097 13.2697852,17.0639945 C13.4343621,17.2744317 15.5495546,20.5263972 18.8429626,21.844173 C21.4194631,22.8754384 22.1849752,22.7769599 22.7730229,22.653104 C23.6308735,22.4710924 24.7074266,21.8517821 24.9801984,21.1081125 C25.2529756,20.3625927 25.2548452,19.7279632 25.1764417,19.5931296 C25.097086,19.459224 24.8798961,19.3830833 24.5509232,19.2230889 C24.2209982,19.0640223 22.6206529,18.2990723 22.3171426,18.1972842 C22.0202945,18.0899258 21.737257,18.1286935 21.5122875,18.4374207 C21.1939182,18.8676137 20.8831225,19.3051851 20.6307535,19.5686632 C20.4326701,19.7746238 20.1088432,19.801486 19.8395309,19.6931208 C19.4772904,19.5461764 18.4624354,19.2031918 17.2114521,18.1226703 C16.2445738,17.2855359 15.5878099,16.2421091 15.3979013,15.92906 C15.2070652,15.6086127 15.3794571,15.4221555 15.5318732,15.2487089 C15.696708,15.0493225 15.8556746,14.9082352 16.0214206,14.7217977 C16.1871666,14.5353601 16.2785939,14.4388781 16.3855716,14.2202357 C16.4982267,14.0080524 16.4200684,13.7899584 16.3407891,13.6301495 C16.2624591,13.4703379 15.6072268,11.9069958 15.3385104,11.2740928 L15.3385131,11.2731676 Z" id="路径" fill="#65ADFF" transform="translate(18.584266, 16.726551) rotate(-24.000000) translate(-18.584266, -16.726551) "></path>
                                        </g>
                                    </g>
                                </g>
                                <line x1="0.391849807" y1="167.952401" x2="72.1755494" y2="131.50289" id="路径-8" stroke="#8386F5" stroke-width="5" opacity="0.5" filter="url(#filter-24)"></line>
                                <polyline id="路径-9" stroke="#5694DC" stroke-width="4" opacity="0.5" filter="url(#filter-25)" points="19 236 137.631149 308 215 262.119428"></polyline>
                                <polyline id="路径-10" stroke="#404040" stroke-width="3" opacity="0.5" filter="url(#filter-26)" points="208 128 287.098901 174 330 150.420214"></polyline>
                            </g>
                        </g>
                    </g>
                </g>
            </g>
        </g>
    </g>
</svg>