<?xml version="1.0" encoding="UTF-8"?>
<svg width="473px" height="457px" viewBox="0 0 473 457" version="1.1" xmlns="http://www.w3.org/2000/svg" xmlns:xlink="http://www.w3.org/1999/xlink">
    <!-- Generator: Sketch 62 (91390) - https://sketch.com -->
    <title>instantly</title>
    <desc>Created with Sketch.</desc>
    <defs>
        <linearGradient x1="-25.7062592%" y1="16.5489947%" x2="137.025067%" y2="85.1329284%" id="linearGradient-1">
            <stop stop-color="#44CAE0" offset="0%"></stop>
            <stop stop-color="#68FF87" offset="100%"></stop>
        </linearGradient>
        <linearGradient x1="11.1396679%" y1="32.7806778%" x2="116.101997%" y2="90.2855362%" id="linearGradient-2">
            <stop stop-color="#4DCCFF" offset="0%"></stop>
            <stop stop-color="#4489FF" offset="100%"></stop>
        </linearGradient>
        <path d="M178,284 C177.708719,284 177.431981,283.937731 177.182372,283.825779 C126.318924,280.819312 86,238.618151 86,187 C86,136.428526 124.700383,94.8960117 174.100841,90.4027651 C189.458195,38.1499075 237.773903,0 295,0 C355.553824,0 406.130842,42.7157845 418.242323,99.6586227 C450.651895,115.360044 473,148.570182 473,187 C473,240.571621 429.571621,284 376,284 C375.123465,284 374.249645,283.988374 373.378687,283.965267 C373.256923,283.987614 373.129908,284 373,284 L178,284 Z" id="path-3"></path>
        <filter x="-26.0%" y="-35.4%" width="151.9%" height="170.8%" filterUnits="objectBoundingBox" id="filter-4">
            <feGaussianBlur stdDeviation="100" in="SourceAlpha" result="shadowBlurInner1"></feGaussianBlur>
            <feOffset dx="0" dy="1" in="shadowBlurInner1" result="shadowOffsetInner1"></feOffset>
            <feComposite in="shadowOffsetInner1" in2="SourceAlpha" operator="arithmetic" k2="-1" k3="1" result="shadowInnerInner1"></feComposite>
            <feColorMatrix values="0 0 0 0 1   0 0 0 0 1   0 0 0 0 1  0 0 0 0.5 0" type="matrix" in="shadowInnerInner1"></feColorMatrix>
        </filter>
        <linearGradient x1="-50.7568913%" y1="-49.795707%" x2="134.472623%" y2="135.832867%" id="linearGradient-5">
            <stop stop-color="#68DAFF" offset="0%"></stop>
            <stop stop-color="#4589FC" offset="100%"></stop>
        </linearGradient>
        <linearGradient x1="-25.7062592%" y1="-14.5274022%" x2="137.025067%" y2="117.771853%" id="linearGradient-6">
            <stop stop-color="#44CAE0" offset="0%"></stop>
            <stop stop-color="#B6FDC5" offset="100%"></stop>
        </linearGradient>
        <linearGradient x1="-3.03198159%" y1="-49.795707%" x2="94.4609845%" y2="135.832867%" id="linearGradient-7">
            <stop stop-color="#D982FF" offset="0%"></stop>
            <stop stop-color="#6E7AEF" offset="100%"></stop>
        </linearGradient>
        <linearGradient x1="-50.7568913%" y1="-35.5587337%" x2="134.472623%" y2="123.587849%" id="linearGradient-8">
            <stop stop-color="#D982FF" offset="0%"></stop>
            <stop stop-color="#6E7AEF" offset="100%"></stop>
        </linearGradient>
        <linearGradient x1="-10.4717763%" y1="-1.06079006%" x2="119.973741%" y2="103.7985%" id="linearGradient-9">
            <stop stop-color="#F7D822" offset="0%"></stop>
            <stop stop-color="#FFBB1E" offset="100%"></stop>
        </linearGradient>
        <filter x="-84.2%" y="-48.8%" width="268.5%" height="197.6%" filterUnits="objectBoundingBox" id="filter-10">
            <feOffset dx="0" dy="18" in="SourceAlpha" result="shadowOffsetOuter1"></feOffset>
            <feGaussianBlur stdDeviation="23" in="shadowOffsetOuter1" result="shadowBlurOuter1"></feGaussianBlur>
            <feColorMatrix values="0 0 0 0 0   0 0 0 0 0   0 0 0 0 0  0 0 0 0.0508085664 0" type="matrix" in="shadowBlurOuter1" result="shadowMatrixOuter1"></feColorMatrix>
            <feMerge>
                <feMergeNode in="shadowMatrixOuter1"></feMergeNode>
                <feMergeNode in="SourceGraphic"></feMergeNode>
            </feMerge>
        </filter>
        <linearGradient x1="19.1189323%" y1="-49.4870446%" x2="73.6931433%" y2="146.905997%" id="linearGradient-11">
            <stop stop-color="#FFFFFF" offset="0%"></stop>
            <stop stop-color="#FEFFFF" offset="0%"></stop>
            <stop stop-color="#E6EFFF" offset="100%"></stop>
        </linearGradient>
        <filter x="-36.5%" y="-47.7%" width="173.0%" height="195.3%" filterUnits="objectBoundingBox" id="filter-12">
            <feOffset dx="0" dy="15" in="SourceAlpha" result="shadowOffsetOuter1"></feOffset>
            <feGaussianBlur stdDeviation="19" in="shadowOffsetOuter1" result="shadowBlurOuter1"></feGaussianBlur>
            <feColorMatrix values="0 0 0 0 0   0 0 0 0 0   0 0 0 0 0  0 0 0 0.0508085664 0" type="matrix" in="shadowBlurOuter1" result="shadowMatrixOuter1"></feColorMatrix>
            <feMerge>
                <feMergeNode in="shadowMatrixOuter1"></feMergeNode>
                <feMergeNode in="SourceGraphic"></feMergeNode>
            </feMerge>
        </filter>
        <linearGradient x1="69.6735537%" y1="-4.72526475%" x2="50%" y2="100%" id="linearGradient-13">
            <stop stop-color="#EDEEFF" offset="0%"></stop>
            <stop stop-color="#D7D8FF" offset="100%"></stop>
        </linearGradient>
        <linearGradient x1="-48.2456127%" y1="59.2951662%" x2="180.501259%" y2="32.2077416%" id="linearGradient-14">
            <stop stop-color="#66C7FF" stop-opacity="0.805179196" offset="0%"></stop>
            <stop stop-color="#3695FF" offset="100%"></stop>
        </linearGradient>
        <linearGradient x1="121.809031%" y1="24.1695753%" x2="-10.4902236%" y2="76.8813643%" id="linearGradient-15">
            <stop stop-color="#44CAE0" offset="0%"></stop>
            <stop stop-color="#BAF9C7" offset="98.8307644%"></stop>
        </linearGradient>
    </defs>
    <g id="页面-1" stroke="none" stroke-width="1" fill="none" fill-rule="evenodd">
        <g id="同步助手web-导航条上滑" transform="translate(-360.000000, -1959.000000)">
            <g id="banner备份-2" transform="translate(0.000000, 1805.000000)">
                <g id="instantly" transform="translate(360.000000, 154.000000)">
                    <path d="M24.2,394 C24.0847406,394 23.9732765,393.98375 23.8677737,393.953417 C10.5453916,393.177336 0,382.973583 0,370.5 C0,358.703811 9.43112838,348.937616 21.7235997,347.255921 C24.8683844,332.820961 37.9007617,322 53.5,322 C69.8506818,322 83.3812455,333.888602 85.6616372,349.365444 C94.1510891,353.179727 100,361.210392 100,370.5 C100,381.437859 91.8914192,390.630395 80.9117448,393.250905 C80.7344026,393.690029 80.3034001,394 79.8,394 L24.2,394 Z" id="形状结合备份-7" fill="url(#linearGradient-1)" opacity="0.100000001"></path>
                    <g id="形状结合" opacity="0.08">
                        <use fill="url(#linearGradient-2)" fill-rule="evenodd" xlink:href="#path-3"></use>
                        <use fill="black" fill-opacity="1" filter="url(#filter-4)" xlink:href="#path-3"></use>
                    </g>
                    <path d="M190,31.5 C190,17.4209818 178.584734,6 164.5,6 C150.415266,6 139,17.4209818 139,31.5 C139,45.5847344 150.415266,57 164.5,57 L187.30195,57 C188.102219,57 188.748151,56.3540686 188.748151,55.565232 L183.872226,48.0827169 C187.696369,43.6240753 190,37.8335575 190,31.5 Z" id="路径" fill="url(#linearGradient-5)" fill-rule="nonzero"></path>
                    <path d="M174.846229,28 C173.105438,28 171.692458,29.344086 171.692458,31 C171.692458,32.655914 173.105438,34 174.846229,34 C176.58702,34 178,32.655914 178,31 C178,29.344086 176.58702,28 174.846229,28 L174.846229,28 Z M152.153771,28 C150.41298,28 149,29.344086 149,31 C149,32.655914 150.41298,34 152.153771,34 C153.894562,34 155.307542,32.655914 155.307542,31 C155.307542,29.344086 153.894562,28 152.153771,28 L152.153771,28 Z M163.502826,28 C161.762035,28 160.349055,29.344086 160.349055,31 C160.349055,32.655914 161.762035,34 163.502826,34 C165.243617,34 166.656597,32.655914 166.656597,31 C166.650945,29.344086 165.243617,28 163.502826,28 L163.502826,28 Z" id="形状" fill="#FFFFFF" fill-rule="nonzero"></path>
                    <g id="表情" transform="translate(260.000000, 351.000000)" fill="url(#linearGradient-6)" fill-rule="nonzero">
                        <path d="M22,44 C9.84974222,44 0,34.1502578 0,22 C0,9.84974222 9.84974222,0 22,0 C34.1502578,0 44,9.84974222 44,22 C44,34.1502578 34.1502578,44 22,44 Z M13.5,19 C15.43298,19 17,17.43298 17,15.5 C17,13.56702 15.43298,12 13.5,12 C11.56702,12 10,13.56702 10,15.5 C10,17.43298 11.56702,19 13.5,19 Z M30.5,19 C32.43298,19 34,17.43298 34,15.5 C34,13.56702 32.43298,12 30.5,12 C28.56702,12 27,13.56702 27,15.5 C27,17.43298 28.56702,19 30.5,19 Z M12,27 C12,32.52285 16.47715,37 22,37 C27.52285,37 32,32.52285 32,27 L12,27 Z" id="形状"></path>
                    </g>
                    <g id="语音-(2)" transform="translate(405.000000, 148.000000)" fill="url(#linearGradient-7)" fill-rule="nonzero">
                        <path d="M34.569414,23 C35.9117896,23 37,24.0814845 37,25.4155631 C37,34.7340005 29.9861391,42.4501143 20.930586,43.6377662 L20.930586,43.6377662 L20.930586,46.1688737 L34.569414,46.1688737 C35.9117896,46.1688737 37,47.2503582 37,48.5844369 C37,49.9185155 35.9117896,51 34.569414,51 L34.569414,51 L2.43058598,51 C1.08821041,51 0,49.9185155 0,48.5844369 C0,47.2503582 1.08821041,46.1688737 2.43058598,46.1688737 L2.43058598,46.1688737 L16.069414,46.1688737 L16.069414,43.6377662 C7.01426608,42.4505169 0,34.7340005 0,25.4155631 C0,24.0816277 1.0883546,23.0003669 2.43058601,23.0003669 C3.77281741,23.0003669 4.8609681,24.0816277 4.86117196,25.4155631 C4.86117196,32.8893155 10.9793619,38.9700931 18.4995949,38.9700931 C26.020233,38.970093 32.138828,32.8893154 32.138828,25.4155631 C32.138828,24.0814845 33.2270385,23 34.569414,23 Z M17.5002066,0 C22.738337,0 27,4.29381188 27,9.57145748 L27,9.57145748 L27,25.4285426 C27,30.7066045 22.738337,35 17.5002066,35 C12.2612497,35 8,30.7066045 8,25.4285426 L8,25.4285426 L8,9.57145748 C8,4.29381188 12.2612497,0 17.5002066,0 Z" id="形状结合"></path>
                    </g>
                    <path d="M335.868421,26 L313.131579,26 C311.923684,26 311,26.9587021 311,28.2123894 L311,48.7876106 C311,49.9675516 311.923684,51 313.131579,51 L335.868421,51 C337.005263,51 338,49.9675516 338,48.7876106 L338,28.2123894 C338,27.0324484 337.076316,26 335.868421,26 Z M317.963158,29.7610619 C319.171053,29.7610619 320.236842,30.7935103 320.236842,32.120944 C320.236842,33.4483776 319.242105,34.480826 317.963158,34.480826 C316.755263,34.480826 315.689474,33.4483776 315.689474,32.120944 C315.689474,30.7935103 316.755263,29.7610619 317.963158,29.7610619 Z M316.328947,47.6814159 C316.115789,47.6814159 315.902632,47.6076696 315.689474,47.460177 C315.263158,47.0914454 315.263158,46.5752212 315.618421,46.1327434 L320.023684,39.7168142 C320.378947,39.3480826 320.876316,39.2743363 321.302632,39.5693215 L325.139474,42.3716814 L332.031579,34.7020649 C332.386842,34.3333333 334.092105,32.4159292 335.086842,34.5545723 L335.086842,47.6076696 C335.086842,47.6814159 316.328947,47.6814159 316.328947,47.6814159 L316.328947,47.6814159 Z" id="形状" fill="url(#linearGradient-8)" fill-rule="nonzero"></path>
                    <g id="文件-(1)" transform="translate(159.500000, 97.000000)" fill="url(#linearGradient-9)" fill-rule="nonzero" opacity="0.889999986">
                        <path d="M33.3969201,10.8997518 C33.3969201,10.1889407 33.1907603,9.98526986 32.4712626,9.98526986 L1.63800212,9.98526986 C0.918504404,9.98526986 0.607203099,10.1889407 0.607203099,11.0036239 L0.607203099,26.9449379 C0.607203099,29.0773712 1.53286062,30 3.58827388,30 L30.5189292,30 C32.5805273,30 33.5,29.0855181 33.5,27.0549201 C33.3969201,21.5619185 33.3969201,16.2807345 33.3969201,10.8997518 L33.3969201,10.8997518 Z M1.43184232,8.35997682 L31.6445618,8.35997682 C33.3927969,8.35997682 33.3927969,8.35997682 33.3927969,6.73061037 C33.3927969,4.80184784 32.5681577,4.08288989 30.7127194,4.08288989 L17.6710502,4.08288989 C16.0217717,4.08288989 16.0217717,4.08288989 16.0217717,2.45352344 C16.0217717,0.726395002 15.1971325,0.00947376375 13.4530206,0.00947376375 L3.18007747,0.00947376375 C1.32463922,-0.0923616394 0.611326295,0.620486183 0.5,2.45352344 L0.5,7.44753161 C0.514431186,8.26017813 0.720590991,8.35997682 1.43184232,8.35997682 Z" id="形状"></path>
                    </g>
                    <g id="编组-21" filter="url(#filter-10)" transform="translate(57.000000, 142.000000)">
                        <path d="M20,0 L125.8,0 C136.845695,-1.18396092e-14 145.8,8.954305 145.8,20 L145.8,231.4 C145.8,242.445695 136.845695,251.4 125.8,251.4 L20,251.4 C8.954305,251.4 1.3527075e-15,242.445695 0,231.4 L0,20 C-4.90542118e-15,8.954305 8.954305,2.02906125e-15 20,0 Z" id="矩形" fill="#676669"></path>
                        <path d="M19,14 L32.8036601,14 C35.8259858,14 38.5070222,15.9397516 39.4523986,18.8104164 L40.2156249,21.1279766 C41.5661626,25.2289263 45.3962146,28 49.7138227,28 L94.4192147,28 C98.7155837,28 102.485913,25.1381194 103.641228,21 L104.166755,19.1176639 C105.011401,16.0923061 107.767869,14 110.908922,14 L127.2,14 C131.618278,14 135.2,17.581722 135.2,22 L135.2,230 C135.2,234.418278 131.618278,238 127.2,238 L19,238 C14.581722,238 11,234.418278 11,230 L11,22 C11,17.581722 14.581722,14 19,14 Z" id="矩形" fill="url(#linearGradient-11)"></path>
                        <text id="iOS" font-family="PingFangSC-Semibold, PingFang SC" font-size="19.2" font-weight="500" fill="#50A2FF">
                            <tspan x="57" y="164">iOS</tspan>
                        </text>
                    </g>
                    <g id="编组-21备份" filter="url(#filter-12)" transform="translate(109.000000, 58.000000)">
                        <path d="M166,0 L268.5,0 C273.470563,-9.13077564e-16 277.5,4.02943725 277.5,9 L277.5,200.5 C277.5,205.470563 273.470563,209.5 268.5,209.5 L166,209.5 C161.029437,209.5 157,205.470563 157,200.5 L157,9 C157,4.02943725 161.029437,9.13077564e-16 166,0 Z" id="矩形" fill="#7C7FF4"></path>
                        <path d="M170.5,14 L265,14 C267.485281,14 269.5,16.0147186 269.5,18.5 L269.5,174.5 C269.5,176.985281 267.485281,179 265,179 L170.5,179 C168.014719,179 166,176.985281 166,174.5 L166,18.5 C166,16.0147186 168.014719,14 170.5,14 Z" id="矩形" fill="url(#linearGradient-13)"></path>
                        <g id="social-whatsapp" transform="translate(0.000000, 166.000000)">
                            <path d="M0,47 L2.96722172,35.9588542 C1.13404488,32.7199778 0.171198131,29.045677 0.175783251,25.3065 C0.180177846,13.5576458 9.5617314,4 21.0878409,4 C26.6821438,4.0026875 31.9319114,6.22166668 35.8800038,10.2484375 C39.8135061,14.2386698 42.0172248,19.6670709 42,25.3235208 C41.9946251,37.0714791 32.6130716,46.6309166 21.0878409,46.6309167 L21.0790518,46.6309167 C17.5792067,46.629125 14.1400069,45.7350834 11.0857724,44.0374792 L0,47 Z" id="路径备份-2" fill="#78B7FF" opacity="0.800000012"></path>
                            <path d="M0,43 L2.96722172,31.9588542 C1.13404488,28.7199778 0.171198131,25.045677 0.175783251,21.3065 C0.180177846,9.55764582 9.5617314,0 21.0878409,0 C26.6821438,0.0026875 31.9319114,2.22166668 35.8800038,6.2484375 C39.8135061,10.2386698 42.0172248,15.6670709 42,21.3235208 C41.9946251,33.0714791 32.6130716,42.6309166 21.0878409,42.6309167 L21.0790518,42.6309167 C17.5792067,42.629125 14.1400069,41.7350834 11.0857724,40.0374792 L0,43 Z" id="路径" fill="#FFFFFF"></path>
                            <path d="M15.3381856,12.9275494 C14.9192658,11.8947588 14.4933929,12.0347831 14.1761611,12.0178375 C13.8745736,12.0026756 13.5303988,12 13.1853549,12 C12.840311,12 12.2814616,12.1319974 11.8077867,12.6626627 C11.3341118,13.193328 10,14.4758434 10,17.0845762 C10,19.6942008 11.8512431,22.214638 12.1093742,22.5678203 C12.3675053,22.9218944 15.7527597,28.2758167 20.9362405,30.5715016 C22.1686644,31.1173288 23.1307893,31.4437548 23.8817161,31.6881284 C25.1193547,32.0912557 26.2457449,32.0350676 27.1357322,31.8986108 C28.1282767,31.7461002 30.1924562,30.6160953 30.6235438,29.3781736 C31.0537622,28.13936 31.0537622,27.0780294 30.9251313,26.8568445 C30.7956312,26.6365515 30.4514564,26.5036622 29.9343251,26.2378836 C29.4180629,25.9729969 26.8776011,24.6904815 26.4039262,24.5138904 C25.9302513,24.3364074 25.5860765,24.2481118 25.2410326,24.7787771 C24.8968579,25.3094423 23.9069208,26.5036623 23.6053333,26.8568445 C23.3037458,27.2109186 23.0021584,27.2555124 22.4858961,26.9906257 C21.9687649,26.7248471 20.3043843,26.1647499 18.3314632,24.3595961 C16.7948445,22.954002 15.7579745,21.2175224 15.456387,20.6868571 C15.1547995,20.1561918 15.4242293,19.8699001 15.6823604,19.6050134 C15.9152867,19.3677748 16.1994916,18.9860525 16.4576227,18.677464 C16.7166229,18.3670916 16.8026666,18.1459068 16.9747541,17.7927245 C17.1468414,17.4386504 17.0607977,17.1291699 16.9312976,16.8633913 C16.8026667,16.5985046 15.7692732,13.9897719 15.3381856,12.9284413 L15.3381856,12.9275494 Z" id="路径" fill="#50A2FF"></path>
                        </g>
                        <g id="social-whatsapp备份" transform="translate(197.000000, 53.000000)">
                            <path d="M0,45 L2.82592545,34.4723958 C1.08004274,31.3841649 0.163045839,27.8807618 0.16741262,24.3155 C0.171597949,13.1131042 9.10641085,4 20.083658,4 C25.4115655,4.0025625 30.4113442,6.11833335 34.1714322,9.9578125 C37.9176248,13.7624526 40.0164046,18.9383699 40,24.3317292 C39.994881,35.5332708 31.0600681,44.6480833 20.083658,44.6480833 L20.0752874,44.6480833 C16.7421016,44.646375 13.4666732,43.7939167 10.5578785,42.1752708 L0,45 Z" id="路径备份-2" fill="#7C7FF4" opacity="0.800000012"></path>
                            <path d="M1,41 L3.82592545,30.4723958 C2.08004274,27.3841649 1.16304584,23.8807618 1.16741262,20.3155 C1.17159795,9.11310415 10.1064109,0 21.083658,0 C26.4115655,0.0025625 31.4113442,2.11833335 35.1714322,5.9578125 C38.9176248,9.76245257 41.0164046,14.9383699 41,20.3317292 C40.994881,31.5332708 32.0600681,40.6480833 21.083658,40.6480833 L21.0752874,40.6480833 C17.7421016,40.646375 14.4666732,39.7939167 11.5578785,38.1752708 L1,41 Z" id="路径" fill="#FFFFFF"></path>
                            <path d="M16.0839863,12.8811719 C15.685015,11.9000208 15.2794218,12.0330439 14.9772963,12.0169456 C14.6900701,12.0025418 14.3622846,12 14.0336714,12 C13.7050581,12 13.1728205,12.1253975 12.7217016,12.6295296 C12.2705827,13.1336616 11,14.3520513 11,16.8303474 C11,19.3094908 12.7630887,21.7039061 13.0089278,22.0394293 C13.254767,22.3757997 16.4788188,27.4620259 21.4154672,29.6429265 C22.5892042,30.1614623 23.5055136,30.4715671 24.220682,30.703722 C25.3993855,31.0866929 26.472138,31.0333142 27.319745,30.9036802 C28.2650254,30.7587952 30.2309106,29.6852906 30.6414703,28.5092649 C31.0512021,27.332392 31.0512021,26.3241279 30.9286965,26.1140023 C30.805363,25.9047239 30.4775775,25.7784791 29.9850715,25.5259895 C29.4933933,25.2743471 27.0739058,24.0559574 26.6227869,23.8881958 C26.1716679,23.719587 25.8438824,23.6357062 25.5152692,24.1398382 C25.1874837,24.6439702 24.2446865,25.7784791 23.9574603,26.1140023 C23.6702341,26.4503727 23.383008,26.4927368 22.8913297,26.2410944 C22.3988237,25.9886047 20.8136993,25.4565124 18.9347269,23.7416163 C17.4712805,22.4063019 16.4837853,20.7566463 16.1965591,20.2525142 C15.9093329,19.7483822 16.1659326,19.4764051 16.4117718,19.2247627 C16.6336064,18.999386 16.9042778,18.6367499 17.1501169,18.3435908 C17.3967837,18.0487371 17.4787301,17.8386114 17.6426229,17.5030883 C17.8065157,17.1667179 17.7245693,16.8727114 17.6012358,16.6202218 C17.4787302,16.3685794 16.4945459,13.8902833 16.0839863,12.8820192 L16.0839863,12.8811719 Z" id="路径" fill="#7C7FF4"></path>
                        </g>
                        <text id="Android" font-family="PingFangSC-Semibold, PingFang SC" font-size="16" font-weight="500" fill="#7C7FF4">
                            <tspan x="188" y="131">Android</tspan>
                        </text>
                        <rect id="矩形" fill="#9FA1F1" x="200" y="189" width="34" height="12" rx="6"></rect>
                    </g>
                    <path d="M132.778909,126.5 L132.778909,85.806355 C132.778909,80.2835075 137.256061,75.806355 142.778909,75.806355 L239.25,75.806355 L239.25,75.806355 L224.938221,62.9870565 L224.938221,73.4870565" id="路径-11" stroke="url(#linearGradient-14)" stroke-width="10"></path>
                    <path d="M226,345.664642 L226,311.606087 C226,306.08324 230.477153,301.606087 236,301.606087 L310.151986,301.606087 L310.151986,301.606087 L322.79,301.606087 L310.674,290.577685 L310.674,298.060127" id="路径-11备份" stroke="url(#linearGradient-15)" stroke-width="10" transform="translate(274.395000, 318.121164) scale(-1, -1) translate(-274.395000, -318.121164) "></path>
                </g>
            </g>
        </g>
    </g>
</svg>