<?xml version="1.0" encoding="UTF-8"?>
<svg width="577px" height="300px" viewBox="0 0 577 300" version="1.1" xmlns="http://www.w3.org/2000/svg" xmlns:xlink="http://www.w3.org/1999/xlink">
    <!-- Generator: Sketch 62 (91390) - https://sketch.com -->
    <title>most插图</title>
    <desc>Created with Sketch.</desc>
    <defs>
        <linearGradient x1="-25.7062592%" y1="16.4161209%" x2="137.025067%" y2="85.2724831%" id="linearGradient-1">
            <stop stop-color="#44CAE0" offset="0%"></stop>
            <stop stop-color="#68FF87" offset="100%"></stop>
        </linearGradient>
        <linearGradient x1="11.1396679%" y1="32.8263287%" x2="116.101997%" y2="90.1787334%" id="linearGradient-2">
            <stop stop-color="#4DCCFF" offset="0%"></stop>
            <stop stop-color="#4489FF" offset="100%"></stop>
        </linearGradient>
        <path d="M77,216 C76.6927288,216 76.4016419,215.930707 76.1415132,215.806895 C38.0499209,213.082815 8,181.526802 8,143 C8,105.317765 36.746879,74.3040495 73.6477055,70.4116956 C84.9687591,30.9093478 121.35831,2 164.5,2 C209.832497,2 247.709672,33.9200281 256.881729,76.5102872 C282.315041,87.9907613 300,113.444158 300,143 C300,183.316787 267.092929,216 226.5,216 C225.782333,216 225.067069,215.989784 224.354346,215.969491 C224.239746,215.989232 224.12113,216 224,216 L77,216 Z" id="path-3"></path>
        <filter x="-34.4%" y="-47.0%" width="168.8%" height="193.9%" filterUnits="objectBoundingBox" id="filter-4">
            <feGaussianBlur stdDeviation="100" in="SourceAlpha" result="shadowBlurInner1"></feGaussianBlur>
            <feOffset dx="0" dy="1" in="shadowBlurInner1" result="shadowOffsetInner1"></feOffset>
            <feComposite in="shadowOffsetInner1" in2="SourceAlpha" operator="arithmetic" k2="-1" k3="1" result="shadowInnerInner1"></feComposite>
            <feColorMatrix values="0 0 0 0 1   0 0 0 0 1   0 0 0 0 1  0 0 0 0.5 0" type="matrix" in="shadowInnerInner1"></feColorMatrix>
        </filter>
        <linearGradient x1="-25.7062592%" y1="-14.5274022%" x2="137.025067%" y2="117.771853%" id="linearGradient-5">
            <stop stop-color="#44CAE0" offset="0%"></stop>
            <stop stop-color="#68FF87" offset="100%"></stop>
        </linearGradient>
        <filter x="-83.5%" y="-48.8%" width="267.0%" height="197.6%" filterUnits="objectBoundingBox" id="filter-6">
            <feOffset dx="0" dy="12" in="SourceAlpha" result="shadowOffsetOuter1"></feOffset>
            <feGaussianBlur stdDeviation="15" in="shadowOffsetOuter1" result="shadowBlurOuter1"></feGaussianBlur>
            <feColorMatrix values="0 0 0 0 0   0 0 0 0 0   0 0 0 0 0  0 0 0 0.0508085664 0" type="matrix" in="shadowBlurOuter1" result="shadowMatrixOuter1"></feColorMatrix>
            <feMerge>
                <feMergeNode in="shadowMatrixOuter1"></feMergeNode>
                <feMergeNode in="SourceGraphic"></feMergeNode>
            </feMerge>
        </filter>
        <linearGradient x1="19.1189323%" y1="-49.4870446%" x2="73.6931433%" y2="146.905997%" id="linearGradient-7">
            <stop stop-color="#FFFFFF" offset="0%"></stop>
            <stop stop-color="#FEFFFF" offset="0%"></stop>
            <stop stop-color="#E6EFFF" offset="100%"></stop>
        </linearGradient>
        <linearGradient x1="-48.2456127%" y1="50.4293455%" x2="180.501259%" y2="49.1781723%" id="linearGradient-8">
            <stop stop-color="#66C7FF" stop-opacity="0.805179196" offset="0%"></stop>
            <stop stop-color="#3695FF" offset="100%"></stop>
        </linearGradient>
        <linearGradient x1="121.809031%" y1="49.1611473%" x2="-78.2523594%" y2="49.4740302%" id="linearGradient-9">
            <stop stop-color="#44CAE0" offset="0%"></stop>
            <stop stop-color="#C7FBED" offset="100%"></stop>
        </linearGradient>
        <filter x="-29.4%" y="-59.2%" width="158.8%" height="214.7%" filterUnits="objectBoundingBox" id="filter-10">
            <feOffset dx="6" dy="23" in="SourceAlpha" result="shadowOffsetOuter1"></feOffset>
            <feGaussianBlur stdDeviation="12" in="shadowOffsetOuter1" result="shadowBlurOuter1"></feGaussianBlur>
            <feColorMatrix values="0 0 0 0 0.396078431   0 0 0 0 0.647058824   0 0 0 0 0.929411765  0 0 0 0.124535621 0" type="matrix" in="shadowBlurOuter1" result="shadowMatrixOuter1"></feColorMatrix>
            <feMerge>
                <feMergeNode in="shadowMatrixOuter1"></feMergeNode>
                <feMergeNode in="SourceGraphic"></feMergeNode>
            </feMerge>
        </filter>
    </defs>
    <g id="页面-1" stroke="none" stroke-width="1" fill="none" fill-rule="evenodd">
        <g id="同步助手web-导航条上滑" transform="translate(-983.000000, -2714.000000)">
            <g id="banner备份-3" transform="translate(0.000000, 2505.000000)">
                <g id="编组-10" transform="translate(360.000000, 137.000000)">
                    <g id="编组-25">
                        <g id="most插图" transform="translate(653.000000, 72.000000)">
                            <path d="M440.2,284 C440.029137,284 439.866614,283.96429 439.719489,283.899926 C421.41288,282.581766 407,268.355505 407,251 C407,234.169214 420.554548,220.281317 438.069876,218.254457 C442.571564,198.087346 460.754286,183 482.5,183 C505.414948,183 524.37345,199.753412 527.536279,221.55111 C539.085041,226.995773 547,238.13866 547,251 C547,266.511174 535.487608,279.522841 519.972305,283.054356 C519.856507,283.594771 519.375577,284 518.8,284 L440.2,284 Z" id="形状结合备份-7" fill="url(#linearGradient-1)" opacity="0.100000001"></path>
                            <g id="形状结合" opacity="0.08">
                                <use fill="url(#linearGradient-2)" fill-rule="evenodd" xlink:href="#path-3"></use>
                                <use fill="black" fill-opacity="1" filter="url(#filter-4)" xlink:href="#path-3"></use>
                            </g>
                            <rect id="矩形" fill="url(#linearGradient-5)" opacity="0.100000001" x="377" y="2" width="30" height="30" rx="15"></rect>
                            <rect id="矩形备份-10" fill="url(#linearGradient-5)" opacity="0.100000001" x="300" y="0" width="15" height="15" rx="7.5"></rect>
                            <g id="编组-27" transform="translate(0.000000, 88.000000)">
                                <g id="编组-21" filter="url(#filter-6)">
                                    <path d="M13.1746032,0 L82.868254,0 C90.1443864,4.39752998e-16 96.0428571,5.89847076 96.0428571,13.1746032 L96.0428571,152.430159 C96.0428571,159.706291 90.1443864,165.604762 82.868254,165.604762 L13.1746032,165.604762 C5.89847076,165.604762 2.66742607e-15,159.706291 0,152.430159 L0,13.1746032 C8.85287612e-16,5.89847076 5.89847076,8.4420312e-15 13.1746032,0 Z" id="矩形" fill="#676669"></path>
                                    <path d="M12.2698413,9 L21.3627285,9 C23.3536256,9 25.1197051,10.2777729 25.742453,12.1687663 L26.2452132,13.6954132 C27.1348531,16.3968324 29.6578239,18.2222222 32.5019626,18.2222222 L61.9507525,18.2222222 C64.7809004,18.2222222 67.2645297,16.3370152 68.0255711,13.6111111 L68.3717514,12.3711595 C68.9281449,10.3782651 70.7439134,9 72.8130199,9 L83.5444444,9 C86.4548974,9 88.8142857,11.3593883 88.8142857,14.2698413 L88.8142857,151.285714 C88.8142857,154.196167 86.4548974,156.555556 83.5444444,156.555556 L12.2698413,156.555556 C9.3593883,156.555556 7,154.196167 7,151.285714 L7,14.2698413 C7,11.3593883 9.3593883,9 12.2698413,9 Z" id="矩形" fill="url(#linearGradient-7)"></path>
                                    <g id="social-whatsapp" transform="translate(33.000000, 65.000000)">
                                        <path d="M0,35 L2.19009222,26.7833333 C0.837033127,24.3730067 0.126360525,21.6386433 0.12974478,18.856 C0.13298841,10.1126667 7.05746841,3 15.564835,3 C19.6939633,3.002 23.5687917,4.65333334 26.4828599,7.65 C29.3861592,10.6194752 31.0127136,14.6592156 31,18.8686667 C30.9960328,27.6113333 24.0715528,34.7253333 15.564835,34.7253333 L15.5583477,34.7253333 C12.9751288,34.724 10.4366717,34.0586667 8.18235583,32.7953333 L0,35 Z" id="路径备份-2" fill="#78B7FF" opacity="0.800000012"></path>
                                        <path d="M0,32 L2.19009222,23.7833333 C0.837033127,21.3730067 0.126360525,18.6386433 0.12974478,15.856 C0.13298841,7.11266666 7.05746841,0 15.564835,0 C19.6939633,0.002 23.5687917,1.65333334 26.4828599,4.65 C29.3861592,7.61947517 31.0127136,11.6592156 31,15.8686667 C30.9960328,24.6113333 24.0715528,31.7253333 15.564835,31.7253333 L15.5583477,31.7253333 C12.9751288,31.724 10.4366717,31.0586667 8.18235583,29.7953333 L0,32 Z" id="路径" fill="#FFFFFF"></path>
                                        <path d="M11.8129897,9.69566205 C11.5137613,8.92106909 11.2095664,9.0260873 10.9829722,9.0133781 C10.7675526,9.00200669 10.5217135,9 10.2752535,9 C10.0287936,9 9.6296154,9.09899805 9.29127622,9.49699701 C8.95293701,9.89499598 8,10.8568826 8,12.8134322 C8,14.7706506 9.32231652,16.6609785 9.50669587,16.9258652 C9.69107522,17.1914208 12.1091141,21.2068625 15.8116004,22.9286262 C16.6919031,23.3379966 17.3791352,23.5828161 17.9155115,23.7660963 C18.7995391,24.0684417 19.6041035,24.0263007 20.2398087,23.9239581 C20.948769,23.8095752 22.423183,22.9620715 22.7311027,22.0336302 C23.0384016,21.10452 23.0384016,20.308522 22.9465223,20.1426334 C22.8540223,19.9774136 22.6081831,19.8777467 22.2388036,19.6784127 C21.8700449,19.4797477 20.0554294,18.5178611 19.7170902,18.3854178 C19.3787509,18.2523055 19.1329118,18.1860838 18.8864519,18.5840828 C18.6406128,18.9820818 17.9335149,19.8777467 17.7180952,20.1426334 C17.5026756,20.408189 17.287256,20.4416343 16.9184972,20.2429693 C16.5491178,20.0436353 15.3602745,19.6235624 13.9510452,18.269697 C12.8534604,17.2155015 12.1128389,15.9131418 11.8974193,15.5151428 C11.6819996,15.1171438 11.8744495,14.9024251 12.0588288,14.70376 C12.2252048,14.5258311 12.4282083,14.2395394 12.6125877,14.008098 C12.7975878,13.7753187 12.8590476,13.6094301 12.9819672,13.3445434 C13.1048867,13.0789878 13.043427,12.8468775 12.9509269,12.6475435 C12.8590476,12.4488785 12.1209094,10.4923289 11.8129897,9.69633097 L11.8129897,9.69566205 Z" id="路径" fill="#50A2FF"></path>
                                    </g>
                                </g>
                                <polyline id="路径" stroke="url(#linearGradient-8)" stroke-width="8" points="121 69 199 69 199 69 187.428464 59 187.428464 67.1907758"></polyline>
                                <polyline id="路径" stroke="url(#linearGradient-9)" stroke-width="8" transform="translate(170.000000, 93.000000) scale(-1, -1) translate(-170.000000, -93.000000) " points="131 97 198.992233 97 209 97 199.405604 89 199.405604 94.4277612"></polyline>
                                <g id="编组-17" filter="url(#filter-10)" transform="translate(209.000000, 2.000000)">
                                    <rect id="矩形" stroke="#78B7FF" stroke-width="10.8" fill="#DAEBFF" x="32" y="0" width="243" height="145.8" rx="3.6"></rect>
                                    <g id="social-whatsapp备份-2" transform="translate(129.000000, 46.000000)">
                                        <path d="M0,53 L3.39111054,40.4182292 C1.29605129,36.7274166 0.195655007,32.5404226 0.200895144,28.2795 C0.205917539,14.8912708 10.927693,4 24.1003896,4 C30.4938786,4.0030625 36.493613,6.53166668 41.0057186,11.1203125 C45.5011498,15.6673214 48.0196855,21.8531738 48,28.2988958 C47.9938573,41.6861041 37.2720818,52.5794166 24.1003896,52.5794167 L24.0903449,52.5794167 C20.090522,52.577375 16.1600078,51.5585834 12.6694542,49.6241042 L0,53 Z" id="路径备份-2" fill="#78B7FF" opacity="0.800000012"></path>
                                        <path d="M1,49 L4.39111054,36.4182292 C2.29605129,32.7274166 1.19565501,28.5404226 1.20089514,24.2795 C1.20591754,10.8912708 11.927693,0 25.1003896,0 C31.4938786,0.0030625 37.493613,2.53166668 42.0057186,7.1203125 C46.5011498,11.6673214 49.0196855,17.8531738 49,24.2988958 C48.9938573,37.6861041 38.2720818,48.5794166 25.1003896,48.5794167 L25.0903449,48.5794167 C21.090522,48.577375 17.1600078,47.5585834 13.6694542,45.6241042 L1,49 Z" id="路径" fill="#FFFFFF"></path>
                                        <path d="M18.8465842,15.0666818 C18.3877673,13.8789726 17.9213351,14.0400005 17.5738908,14.0205131 C17.2435806,14.0030769 16.8666273,14 16.4887221,14 C16.1108169,14 15.4987436,14.151797 14.9799569,14.7620621 C14.4611701,15.3723272 13,16.84722 13,19.8472626 C13,22.8483309 15.027552,25.7468337 15.310267,26.1529933 C15.592982,26.5601786 19.3006416,32.7171892 24.9777872,35.3572268 C26.3275848,35.9849281 27.3813407,36.360318 28.2037843,36.6413476 C29.5592933,37.104944 30.7929587,37.0403277 31.7677067,36.8834024 C32.8547792,36.7080153 35.1155472,35.4085096 35.5876908,33.9848996 C36.0588825,32.560264 36.0588825,31.3397338 35.9180009,31.0853712 C35.7761675,30.8320343 35.3992141,30.6792116 34.8328322,30.3735662 C34.2674023,30.0689465 31.4849917,28.5940537 30.9662049,28.3909739 C30.4474181,28.1868685 30.0704648,28.0853286 29.6925596,28.6955936 C29.3156062,29.3058587 28.2313894,30.6792116 27.9010794,31.0853712 C27.5707692,31.4925564 27.2404591,31.5438392 26.6750291,31.2392195 C26.1086472,30.9335742 24.2857542,30.2894624 22.1249359,28.2135355 C20.4419726,26.5971022 19.306353,24.6001508 18.9760429,23.9898856 C18.6457328,23.3796206 18.9408225,23.0503851 19.2235375,22.7457654 C19.4786474,22.472941 19.7899194,22.0339604 20.0726344,21.6790835 C20.3563013,21.3221554 20.4505396,21.0677928 20.6390163,20.6616332 C20.827493,20.2544479 20.7332547,19.8985454 20.5914212,19.5929 C20.4505397,19.2882803 19.3187278,16.2882376 18.8465842,15.0677075 L18.8465842,15.0666818 Z" id="路径" fill="#50A2FF"></path>
                                    </g>
                                    <path d="M7.74800939,145.8 L297.588976,145.8 C299.577201,145.8 301.188976,147.411775 301.188976,149.4 C301.188976,150.459866 300.721939,151.46588 299.912349,152.149898 L291.65509,159.12641 C289.056236,161.322167 285.76386,162.52682 282.361597,162.52682 L14.1140014,162.52682 L14.1140014,162.52682 L4.99662063,151.721607 C3.71443239,150.202057 3.90685215,147.930799 5.4264022,146.648611 C6.07586067,146.100602 6.89823834,145.8 7.74800939,145.8 Z" id="路径-21" fill="#65A5ED"></path>
                                </g>
                            </g>
                        </g>
                    </g>
                </g>
            </g>
        </g>
    </g>
</svg>