<?xml version="1.0" encoding="UTF-8"?>
<svg width="1920px" height="225px" viewBox="0 0 1920 225" version="1.1" xmlns="http://www.w3.org/2000/svg" xmlns:xlink="http://www.w3.org/1999/xlink">
    <!-- Generator: Sketch 62 (91390) - https://sketch.com -->
    <title>背景</title>
    <desc>Created with Sketch.</desc>
    <defs>
        <rect id="path-1" x="0" y="0" width="1920" height="225"></rect>
        <linearGradient x1="-25.7062592%" y1="-8.16285311%" x2="137.025067%" y2="111.087293%" id="linearGradient-3">
            <stop stop-color="#44CAE0" offset="0%"></stop>
            <stop stop-color="#68FF87" offset="100%"></stop>
        </linearGradient>
        <linearGradient x1="-25.7062592%" y1="-7.34807986%" x2="137.025067%" y2="110.231553%" id="linearGradient-4">
            <stop stop-color="#44CAE0" offset="0%"></stop>
            <stop stop-color="#68FF87" offset="100%"></stop>
        </linearGradient>
        <linearGradient x1="-25.7062592%" y1="-7.97857185%" x2="137.025067%" y2="110.893746%" id="linearGradient-5">
            <stop stop-color="#44CAE0" offset="0%"></stop>
            <stop stop-color="#68FF87" offset="100%"></stop>
        </linearGradient>
        <linearGradient x1="-25.7062592%" y1="-14.5274022%" x2="137.025067%" y2="117.771853%" id="linearGradient-6">
            <stop stop-color="#44CAE0" offset="0%"></stop>
            <stop stop-color="#68FF87" offset="100%"></stop>
        </linearGradient>
        <linearGradient x1="11.1396679%" y1="32.83873%" x2="116.101997%" y2="90.14972%" id="linearGradient-7">
            <stop stop-color="#4DCCFF" offset="0%"></stop>
            <stop stop-color="#4489FF" offset="100%"></stop>
        </linearGradient>
        <path d="M-173,438 C-173.507492,438 -173.970836,437.810982 -174.323472,437.499506 C-258.075898,430.984449 -324,361.167236 -324,276 C-324,192.583025 -260.757651,123.891643 -179.464905,114.978754 C-153.789846,27.7093203 -73.0849777,-36 22.5,-36 C122.984749,-36 207.024754,34.4083217 227.977094,128.582045 C284.040369,154.126833 323,210.527661 323,276 C323,365.470129 250.246272,438 160.5,438 C159.448936,438 158.400202,437.990052 157.353889,437.970245 C157.239746,437.989232 157.12113,438 157,438 L-173,438 Z" id="path-8"></path>
        <filter x="-15.5%" y="-21.2%" width="131.1%" height="142.4%" filterUnits="objectBoundingBox" id="filter-9">
            <feGaussianBlur stdDeviation="100" in="SourceAlpha" result="shadowBlurInner1"></feGaussianBlur>
            <feOffset dx="0" dy="1" in="shadowBlurInner1" result="shadowOffsetInner1"></feOffset>
            <feComposite in="shadowOffsetInner1" in2="SourceAlpha" operator="arithmetic" k2="-1" k3="1" result="shadowInnerInner1"></feComposite>
            <feColorMatrix values="0 0 0 0 1   0 0 0 0 1   0 0 0 0 1  0 0 0 0.5 0" type="matrix" in="shadowInnerInner1"></feColorMatrix>
        </filter>
        <linearGradient x1="-25.7062592%" y1="17.4460411%" x2="137.025067%" y2="84.1907783%" id="linearGradient-10">
            <stop stop-color="#44CAE0" offset="0%"></stop>
            <stop stop-color="#68FF87" offset="100%"></stop>
        </linearGradient>
    </defs>
    <g id="页面-1" stroke="none" stroke-width="1" fill="none" fill-rule="evenodd">
        <g id="重构-FAQ页面" transform="translate(0.000000, -70.000000)">
            <g id="footer-2备份" transform="translate(0.000000, 70.000000)">
                <g id="footer">
                    <g id="编组-19">
                        <g id="背景">
                            <mask id="mask-2" fill="white">
                                <use xlink:href="#path-1"></use>
                            </mask>
                            <use id="矩形" fill="#F2F7FA" fill-rule="nonzero" xlink:href="#path-1"></use>
                            <g id="编组-30备份" opacity="0.600000024" mask="url(#mask-2)">
                                <g transform="translate(389.000000, 112.000000)">
                                    <path d="M30.0307896,0 C46.6163367,0 60.0615792,13.2075999 60.0615792,29.5 C60.0615792,35.9107053 57.9799176,41.8438059 54.4443747,46.6826176 L61.9634889,57.4266091 C62.280164,57.879086 62.1700748,58.5026069 61.7175979,58.8192819 C61.5495285,58.9369087 61.3493493,59 61.144207,59 L30.0307896,59 C13.4452425,59 0,45.7924001 0,29.5 C0,13.2075999 13.4452425,0 30.0307896,0 Z" id="形状结合" fill="url(#linearGradient-3)" fill-rule="evenodd"></path>
                                    <path d="M31.4497817,38.3846154 L31.4497817,37.7115385 C31.4497817,36.5576923 31.6899563,35.5480769 32.1703057,34.5865385 C32.6026201,33.7211538 33.2270742,32.9038462 34.0917031,32.1826923 C36.3973799,30.1634615 37.790393,28.8653846 38.2227074,28.3846154 C39.3755459,26.8461538 40,24.875 40,22.4711538 C40,19.5384615 39.0393013,17.2307692 37.1179039,15.5480769 C35.1965066,13.8173077 32.650655,13 29.5283843,13 C25.9737991,13 23.1877729,14.0096154 21.1222707,16.0288462 C19.0087336,18.0480769 18,20.8365385 18,24.3942308 L23.4759825,24.3942308 C23.4759825,22.375 23.860262,20.7884615 24.6768559,19.6826923 C25.5895197,18.3365385 27.0786026,17.7115385 29.1921397,17.7115385 C30.8253275,17.7115385 32.1222707,18.1442308 33.0349345,19.0576923 C33.8995633,19.9711538 34.3799127,21.2211538 34.3799127,22.8076923 C34.3799127,24.0096154 33.9475983,25.1634615 33.0829694,26.2211538 L32.5065502,26.8942308 C29.3842795,29.6826923 27.510917,31.7019231 26.8864629,33 C26.2139738,34.2980769 25.9257642,35.8846154 25.9257642,37.7115385 L25.9257642,38.3846154 L31.4497817,38.3846154 Z M28.6637555,48 C29.720524,48 30.5851528,47.6634615 31.3056769,46.9903846 C32.0262009,46.3173077 32.4104803,45.4038462 32.4104803,44.3461538 C32.4104803,43.2884615 32.0262009,42.4230769 31.3537118,41.75 C30.6331878,41.0769231 29.720524,40.7403846 28.6637555,40.7403846 C27.6069869,40.7403846 26.7423581,41.0769231 26.0218341,41.75 C25.30131,42.4230769 24.9650655,43.2884615 24.9650655,44.3461538 C24.9650655,45.4038462 25.30131,46.2692308 26.0218341,46.9423077 C26.7423581,47.6153846 27.6069869,48 28.6637555,48 Z" id="？" fill="#FFFFFF" fill-rule="nonzero"></path>
                                </g>
                            </g>
                            <g id="编组-30备份-2" opacity="0.300000012" mask="url(#mask-2)">
                                <g transform="translate(567.000000, 45.000000)">
                                    <path d="M20.1456995,0.5 C31.2718621,0.5 40.291399,9.23044738 40.291399,20 C40.291399,24.2374116 38.8950621,28.1591442 36.5234735,31.3576091 L41.1844138,37.9209344 C41.5042229,38.3712017 41.3984657,38.9954719 40.9481984,39.315281 C40.7790177,39.4354441 40.5766451,39.5 40.3691329,39.5 L20.1456995,39.5 C9.01953688,39.5 0,30.7695526 0,20 C0,9.23044738 9.01953688,0.5 20.1456995,0.5 Z" id="形状结合" fill="url(#linearGradient-4)" fill-rule="evenodd"></path>
                                    <path d="M22.1703057,26.456044 L22.1703057,26.032967 C22.1703057,25.3076923 22.3340611,24.6730769 22.6615721,24.0686813 C22.9563319,23.5247253 23.3820961,23.010989 23.9716157,22.5576923 C25.5436681,21.2884615 26.4934498,20.4725275 26.7882096,20.1703297 C27.5742358,19.2032967 28,17.9642857 28,16.4532967 C28,14.6098901 27.3449782,13.1593407 26.0349345,12.1016484 C24.7248908,11.0137363 22.989083,10.5 20.860262,10.5 C18.4366812,10.5 16.5371179,11.1346154 15.128821,12.4038462 C13.6877729,13.6730769 13,15.4258242 13,17.6620879 L16.7336245,17.6620879 C16.7336245,16.3928571 16.9956332,15.3956044 17.5524017,14.7005495 C18.1746725,13.8543956 19.1899563,13.4615385 20.6310044,13.4615385 C21.7445415,13.4615385 22.628821,13.7335165 23.2510917,14.3076923 C23.8406114,14.8818681 24.1681223,15.6675824 24.1681223,16.6648352 C24.1681223,17.4203297 23.8733624,18.1456044 23.2838428,18.8104396 L22.8908297,19.2335165 C20.7620087,20.9862637 19.4847162,22.2554945 19.058952,23.0714286 C18.6004367,23.8873626 18.4039301,24.8846154 18.4039301,26.032967 L18.4039301,26.456044 L22.1703057,26.456044 Z M20.2707424,32.5 C20.9912664,32.5 21.580786,32.2884615 22.0720524,31.8653846 C22.5633188,31.4423077 22.8253275,30.8681319 22.8253275,30.2032967 C22.8253275,29.5384615 22.5633188,28.9945055 22.1048035,28.5714286 C21.6135371,28.1483516 20.9912664,27.9368132 20.2707424,27.9368132 C19.5502183,27.9368132 18.9606987,28.1483516 18.4694323,28.5714286 C17.9781659,28.9945055 17.7489083,29.5384615 17.7489083,30.2032967 C17.7489083,30.8681319 17.9781659,31.4120879 18.4694323,31.8351648 C18.9606987,32.2582418 19.5502183,32.5 20.2707424,32.5 Z" id="？" fill="#FFFFFF" fill-rule="nonzero"></path>
                                </g>
                            </g>
                            <g id="编组-30" opacity="0.699999988" mask="url(#mask-2)">
                                <g transform="translate(1406.000000, 118.500000)">
                                    <path d="M34.5988674,0.5 C53.7072943,0.5 69.1977349,15.7223185 69.1977349,34.5 C69.1977349,41.8888405 66.7992752,48.727187 62.7256975,54.3042181 L71.5569628,66.9267524 C71.8735587,67.3792848 71.7633604,68.0027863 71.3108281,68.3193822 C71.142787,68.4369454 70.9426632,68.5 70.7375805,68.5 L34.5988674,68.5 C15.4904406,68.5 0,53.2776815 0,34.5 C0,15.7223185 15.4904406,0.5 34.5988674,0.5 Z" id="形状结合" fill="url(#linearGradient-5)" fill-rule="evenodd"></path>
                                    <path d="M37.2838428,44.7857143 L37.2838428,44.0357143 C37.2838428,42.75 37.5567686,41.625 38.1026201,40.5535714 C38.5938865,39.5892857 39.3034934,38.6785714 40.2860262,37.875 C42.9061135,35.625 44.489083,34.1785714 44.9803493,33.6428571 C46.290393,31.9285714 47,29.7321429 47,27.0535714 C47,23.7857143 45.9082969,21.2142857 43.7248908,19.3392857 C41.5414847,17.4107143 38.6484716,16.5 35.1004367,16.5 C31.0611354,16.5 27.8951965,17.625 25.5480349,19.875 C23.1462882,22.125 22,25.2321429 22,29.1964286 L28.2227074,29.1964286 C28.2227074,26.9464286 28.6593886,25.1785714 29.5873362,23.9464286 C30.6244541,22.4464286 32.3165939,21.75 34.7183406,21.75 C36.5742358,21.75 38.0480349,22.2321429 39.0851528,23.25 C40.0676856,24.2678571 40.6135371,25.6607143 40.6135371,27.4285714 C40.6135371,28.7678571 40.1222707,30.0535714 39.139738,31.2321429 L38.4847162,31.9821429 C34.9366812,35.0892857 32.8078603,37.3392857 32.0982533,38.7857143 C31.3340611,40.2321429 31.0065502,42 31.0065502,44.0357143 L31.0065502,44.7857143 L37.2838428,44.7857143 Z M34.1179039,55.5 C35.3187773,55.5 36.30131,55.125 37.1200873,54.375 C37.9388646,53.625 38.3755459,52.6071429 38.3755459,51.4285714 C38.3755459,50.25 37.9388646,49.2857143 37.1746725,48.5357143 C36.3558952,47.7857143 35.3187773,47.4107143 34.1179039,47.4107143 C32.9170306,47.4107143 31.9344978,47.7857143 31.1157205,48.5357143 C30.2969432,49.2857143 29.9148472,50.25 29.9148472,51.4285714 C29.9148472,52.6071429 30.2969432,53.5714286 31.1157205,54.3214286 C31.9344978,55.0714286 32.9170306,55.5 34.1179039,55.5 Z" id="？" fill="#FFFFFF" fill-rule="nonzero"></path>
                                </g>
                            </g>
                            <rect id="矩形" fill="url(#linearGradient-6)" opacity="0.200000003" mask="url(#mask-2)" x="1604" y="130" width="30" height="30" rx="15"></rect>
                            <rect id="矩形备份-10" fill="url(#linearGradient-6)" opacity="0.200000003" mask="url(#mask-2)" x="1686" y="93" width="15" height="15" rx="7.5"></rect>
                            <g id="形状结合" opacity="0.200000003" mask="url(#mask-2)">
                                <use fill="url(#linearGradient-7)" fill-rule="evenodd" xlink:href="#path-8"></use>
                                <use fill="black" fill-opacity="1" filter="url(#filter-9)" xlink:href="#path-8"></use>
                            </g>
                            <path d="M1093.2,74 C1092.77574,74 1092.40291,73.7798348 1092.18952,73.4475254 C1052.63424,68.9747562 1022,37.7965703 1022,0 C1022,-36.9485369 1051.27499,-67.572348 1089.53994,-73.1077642 C1099.95218,-117.697788 1141.2009,-151 1190.5,-151 C1241.97052,-151 1284.66587,-114.699532 1292.65712,-67.1506957 C1320.02347,-55.3961327 1339,-29.7479614 1339,0 C1339,34.8128377 1313.0115,64.0109818 1278.00141,71.9000472 L1278,72.8 C1278,73.4627417 1277.46274,74 1276.8,74 L1093.2,74 Z" id="形状结合备份-10" fill="#FFFFFF" opacity="0.100000001" mask="url(#mask-2)"></path>
                            <path d="M1879.2,91 C1878.95103,91 1878.71976,90.924177 1878.52804,90.7943627 C1865.25622,89.217684 1855,78.7178551 1855,66 C1855,53.4818675 1864.93662,43.1126439 1877.90504,41.2856734 C1881.50127,26.2245399 1895.40127,15 1912,15 C1929.3614,15 1943.77036,27.2797091 1946.52512,43.3859798 C1955.67189,47.3889005 1962,56.0101862 1962,66 C1962,77.9541968 1952.93849,87.9487382 1940.82853,90.4159903 C1940.61984,90.7661672 1940.23723,91 1939.8,91 L1879.2,91 Z" id="形状结合备份-7" fill="url(#linearGradient-10)" opacity="0.5" mask="url(#mask-2)"></path>
                        </g>
                    </g>
                </g>
            </g>
        </g>
    </g>
</svg>