<?xml version="1.0" encoding="UTF-8"?>
<svg width="1920px" height="434px" viewBox="0 0 1920 434" version="1.1" xmlns="http://www.w3.org/2000/svg" xmlns:xlink="http://www.w3.org/1999/xlink">
    <!-- Generator: Sketch 62 (91390) - https://sketch.com -->
    <title>footer 2备份</title>
    <desc>Created with Sketch.</desc>
    <defs>
        <rect id="path-1" x="0" y="0" width="1920" height="434"></rect>
        <linearGradient x1="-3.03198159%" y1="-49.795707%" x2="94.4609845%" y2="135.832867%" id="linearGradient-3">
            <stop stop-color="#D982FF" offset="0%"></stop>
            <stop stop-color="#6E7AEF" offset="100%"></stop>
        </linearGradient>
        <linearGradient x1="-50.7568913%" y1="-35.3877018%" x2="134.472623%" y2="123.440746%" id="linearGradient-4">
            <stop stop-color="#D982FF" offset="0%"></stop>
            <stop stop-color="#6E7AEF" offset="100%"></stop>
        </linearGradient>
        <linearGradient x1="-10.4717763%" y1="0.917694904%" x2="119.973741%" y2="101.713935%" id="linearGradient-5">
            <stop stop-color="#F7D822" offset="0%"></stop>
            <stop stop-color="#FFBB1E" offset="100%"></stop>
        </linearGradient>
        <linearGradient x1="-50.7568913%" y1="-49.795707%" x2="134.472623%" y2="135.832867%" id="linearGradient-6">
            <stop stop-color="#68DAFF" offset="0%"></stop>
            <stop stop-color="#4589FC" offset="100%"></stop>
        </linearGradient>
        <linearGradient x1="-25.7062592%" y1="17.7315927%" x2="137.025067%" y2="83.8908692%" id="linearGradient-7">
            <stop stop-color="#44CAE0" offset="0%"></stop>
            <stop stop-color="#68FF87" offset="100%"></stop>
        </linearGradient>
        <linearGradient x1="-25.7062592%" y1="-14.5274022%" x2="137.025067%" y2="117.771853%" id="linearGradient-8">
            <stop stop-color="#44CAE0" offset="0%"></stop>
            <stop stop-color="#68FF87" offset="100%"></stop>
        </linearGradient>
        <linearGradient x1="-18.9802899%" y1="-14.5274022%" x2="129.293501%" y2="117.771853%" id="linearGradient-9">
            <stop stop-color="#44CAE0" offset="0%"></stop>
            <stop stop-color="#68FF87" offset="100%"></stop>
        </linearGradient>
        <linearGradient x1="11.1396679%" y1="32.8463059%" x2="116.101997%" y2="90.1319958%" id="linearGradient-10">
            <stop stop-color="#4DCCFF" offset="0%"></stop>
            <stop stop-color="#4489FF" offset="100%"></stop>
        </linearGradient>
        <path d="M-145,647 C-145.549824,647 -146.047827,646.778133 -146.409367,646.419044 C-244.099143,638.839781 -321,557.376774 -321,458 C-321,360.543475 -247.042328,280.315113 -152.050176,270.098467 C-122.111975,168.310433 -27.9840534,94 83.5,94 C200.709643,94 298.734626,176.139296 323.152696,285.995636 C388.550503,315.790638 434,381.601674 434,458 C434,562.381818 349.15796,647 244.5,647 C243.43867,647 242.379379,646.991298 241.322193,646.973962 C241.21772,646.991137 241.109895,647 241,647 L-145,647 Z" id="path-11"></path>
        <filter x="-13.3%" y="-18.2%" width="126.6%" height="136.3%" filterUnits="objectBoundingBox" id="filter-12">
            <feGaussianBlur stdDeviation="100" in="SourceAlpha" result="shadowBlurInner1"></feGaussianBlur>
            <feOffset dx="0" dy="1" in="shadowBlurInner1" result="shadowOffsetInner1"></feOffset>
            <feComposite in="shadowOffsetInner1" in2="SourceAlpha" operator="arithmetic" k2="-1" k3="1" result="shadowInnerInner1"></feComposite>
            <feColorMatrix values="0 0 0 0 1   0 0 0 0 1   0 0 0 0 1  0 0 0 0.5 0" type="matrix" in="shadowInnerInner1"></feColorMatrix>
        </filter>
        <linearGradient x1="11.1396679%" y1="32.2583147%" x2="116.101997%" y2="91.5076329%" id="linearGradient-13">
            <stop stop-color="#4DCCFF" offset="0%"></stop>
            <stop stop-color="#4489FF" offset="100%"></stop>
        </linearGradient>
        <path d="M1328,134 C1327.86939,134 1327.7417,133.98748 1327.61808,133.963575 C1314.45382,133.260466 1304,122.576627 1304,109.5 C1304,97.2887199 1313.11604,87.1640206 1325.04268,85.3052252 C1328.67415,71.3230414 1341.38154,61 1356.5,61 C1372.48217,61 1385.76991,72.5362299 1388.4904,87.7358761 C1396.5164,91.8133588 1402,100.029106 1402,109.5 C1402,123.030976 1390.80712,134 1377,134 C1376.73693,134 1376.4748,133.996018 1376.21369,133.988112 C1376.14354,133.996172 1376.07222,134 1376,134 L1328,134 Z" id="path-14"></path>
        <filter x="-102.6%" y="-137.7%" width="305.1%" height="375.3%" filterUnits="objectBoundingBox" id="filter-15">
            <feGaussianBlur stdDeviation="100" in="SourceAlpha" result="shadowBlurInner1"></feGaussianBlur>
            <feOffset dx="0" dy="1" in="shadowBlurInner1" result="shadowOffsetInner1"></feOffset>
            <feComposite in="shadowOffsetInner1" in2="SourceAlpha" operator="arithmetic" k2="-1" k3="1" result="shadowInnerInner1"></feComposite>
            <feColorMatrix values="0 0 0 0 1   0 0 0 0 1   0 0 0 0 1  0 0 0 0.5 0" type="matrix" in="shadowInnerInner1"></feColorMatrix>
        </filter>
    </defs>
    <g id="页面-1" stroke="none" stroke-width="1" fill="none" fill-rule="evenodd">
        <g id="重构-Support页面" transform="translate(0.000000, -70.000000)">
            <g id="footer-2备份" transform="translate(0.000000, 70.000000)">
                <g id="footer">
                    <g id="编组-19">
                        <g id="编组-29">
                            <mask id="mask-2" fill="white">
                                <use xlink:href="#path-1"></use>
                            </mask>
                            <use id="矩形" fill="#F2F7FA" fill-rule="nonzero" xlink:href="#path-1"></use>
                            <g id="语音-(2)" mask="url(#mask-2)" fill="url(#linearGradient-3)" fill-rule="nonzero">
                                <g transform="translate(1792.000000, 165.000000)" id="形状结合">
                                    <path d="M41.4832968,27.6 C43.0941475,27.6 44.4,28.8977813 44.4,30.4986758 C44.4,41.6808006 35.9833669,50.9401371 25.1167032,52.3653194 L25.1167032,52.3653194 L25.1167032,55.4026485 L41.4832968,55.4026485 C43.0941475,55.4026485 44.4,56.7004298 44.4,58.3013242 C44.4,59.9022187 43.0941475,61.2 41.4832968,61.2 L41.4832968,61.2 L2.91670318,61.2 C1.30585249,61.2 0,59.9022187 0,58.3013242 C0,56.7004298 1.30585249,55.4026485 2.91670318,55.4026485 L2.91670318,55.4026485 L19.2832968,55.4026485 L19.2832968,52.3653194 C8.41711929,50.9406203 0,41.6808005 0,30.4986758 C0,28.8979533 1.30602552,27.6004403 2.91670321,27.6004403 C4.5273809,27.6004403 5.83316172,28.8979533 5.83340635,30.4986758 C5.83340635,39.4671786 13.1752343,46.7641117 22.1995139,46.7641117 C31.2242796,46.7641116 38.5665936,39.4671785 38.5665936,30.4986758 C38.5665936,28.8977813 39.8724461,27.6 41.4832968,27.6 Z M21.0002479,0 C27.2860044,0 32.4,5.15257426 32.4,11.485749 L32.4,11.485749 L32.4,30.5142511 C32.4,36.8479254 27.2860044,42 21.0002479,42 C14.7134997,42 9.6,36.8479254 9.6,30.5142511 L9.6,30.5142511 L9.6,11.485749 C9.6,5.15257426 14.7134996,0 21.0002479,0 Z"></path>
                                </g>
                            </g>
                            <path d="M419.842105,270 L386.157895,270 C384.368421,270 383,271.418879 383,273.274336 L383,303.725664 C383,305.471976 384.368421,307 386.157895,307 L419.842105,307 C421.526316,307 423,305.471976 423,303.725664 L423,273.274336 C423,271.528024 421.631579,270 419.842105,270 Z M393.5,276 C395.359375,276 397,277.53125 397,279.5 C397,281.46875 395.46875,283 393.5,283 C391.640625,283 390,281.46875 390,279.5 C390,277.53125 391.640625,276 393.5,276 Z M391.42408,302 C391.110718,302 390.797355,301.890338 390.483992,301.671013 C389.857267,301.122701 389.857267,300.355065 390.379538,299.697091 L396.855701,290.156469 C397.377972,289.608158 398.109152,289.498495 398.735877,289.937145 L404.376406,294.104313 L414.508468,282.699432 C415.030739,282.15112 417.537641,279.2999 419,282.480107 L419,301.890338 C419,302 391.42408,302 391.42408,302 L391.42408,302 Z" id="形状" fill="url(#linearGradient-4)" fill-rule="nonzero" mask="url(#mask-2)"></path>
                            <path d="M1543.85584,377.233642 C1543.85584,376.274753 1543.56753,376 1542.56133,376 L1499.44155,376 C1498.43535,376 1498,376.274753 1498,377.373766 L1498,398.878702 C1498,401.755368 1499.29452,403 1502.16898,403 L1539.83102,403 C1542.71413,403 1544,401.766358 1544,399.027068 C1543.85584,391.616974 1543.85584,384.492622 1543.85584,377.233642 L1543.85584,377.233642 Z M1499.30317,373 L1541.55512,373 C1544,373 1544,373 1544,370.856091 C1544,368.318238 1542.84676,367.372238 1540.25196,367.372238 L1522.01341,367.372238 C1519.70693,367.372238 1519.70693,367.372238 1519.70693,365.228329 C1519.70693,362.955786 1518.55368,362.012466 1516.11457,362.012466 L1501.74804,362.012466 C1499.15324,361.878471 1498.15569,362.816431 1498,365.228329 L1498,371.799411 C1498.02018,372.868686 1498.30849,373 1499.30317,373 Z" id="形状" fill="url(#linearGradient-5)" fill-rule="nonzero" opacity="0.889999986" mask="url(#mask-2)"></path>
                            <g id="编组-5" mask="url(#mask-2)" fill-rule="nonzero">
                                <g transform="translate(278.000000, 82.000000)">
                                    <path d="M61.2,30.6 C61.2,13.7051782 47.5016812,2.13162821e-14 30.6,2.13162821e-14 C13.6983188,2.13162821e-14 2.13162821e-14,13.7051782 2.13162821e-14,30.6 C2.13162821e-14,47.5016812 13.6983188,61.2 30.6,61.2 L57.9623403,61.2 C58.9226631,61.2 59.6977808,60.4248823 59.6977808,59.4782784 L53.8466711,50.4992603 C58.4356422,45.1488904 61.2,38.200269 61.2,30.6 Z" id="路径" fill="url(#linearGradient-6)"></path>
                                    <path d="M43.0154746,26.4 C40.926525,26.4 39.2309491,28.0129032 39.2309491,30 C39.2309491,31.9870968 40.926525,33.6 43.0154746,33.6 C45.1044241,33.6 46.8,31.9870968 46.8,30 C46.8,28.0129032 45.1044241,26.4 43.0154746,26.4 L43.0154746,26.4 Z M15.7845254,26.4 C13.6955759,26.4 12,28.0129032 12,30 C12,31.9870968 13.6955759,33.6 15.7845254,33.6 C17.873475,33.6 19.5690509,31.9870968 19.5690509,30 C19.5690509,28.0129032 17.873475,26.4 15.7845254,26.4 L15.7845254,26.4 Z M29.4033912,26.4 C27.3144416,26.4 25.6188657,28.0129032 25.6188657,30 C25.6188657,31.9870968 27.3144416,33.6 29.4033912,33.6 C31.4923407,33.6 33.1879166,31.9870968 33.1879166,30 C33.1811343,28.0129032 31.4923407,26.4 29.4033912,26.4 L29.4033912,26.4 Z" id="形状" fill="#FFFFFF"></path>
                                </g>
                            </g>
                            <path d="M1647.2,585 C1646.66824,585 1646.21726,584.654119 1646.05978,584.17506 C1588.53216,577.585286 1544,532.113727 1544,477 C1544,422.49782 1587.54938,377.425015 1644.14912,370.055347 C1660.00553,306.350415 1719.51338,259 1790.5,259 C1864.98407,259 1926.83041,311.131187 1938.87636,379.589011 C1977.99275,397.00698 2005,434.079665 2005,477 C2005,527.864191 1967.07038,570.515806 1916.00137,581.973342 L1916,583.8 C1916,584.462742 1915.46274,585 1914.8,585 L1647.2,585 Z" id="形状结合备份-7" fill="url(#linearGradient-7)" opacity="0.300000012" mask="url(#mask-2)"></path>
                            <path d="M1597,266 L1634,266 L1634,229 L1597,229 L1597,266 Z M1622.2,272.8 L1609.8,272.8 L1609.8,279 L1603.6,279 L1603.6,272.8 L1594.3,272.8 C1592.58792,272.8 1591.2,271.412083 1591.2,269.7 L1591.2,260.4 L1585,260.4 L1585,254.2 L1591.2,254.2 L1591.2,241.8 L1585,241.8 L1585,235.6 L1591.2,235.6 L1591.2,226.3 C1591.2,224.587917 1592.58792,223.2 1594.3,223.2 L1603.6,223.2 L1603.6,217 L1609.8,217 L1609.8,223.2 L1622.2,223.2 L1622.2,217 L1628.4,217 L1628.4,223.2 L1637.7,223.2 C1639.41208,223.2 1640.8,224.587917 1640.8,226.3 L1640.8,235.6 L1647,235.6 L1647,241.8 L1640.8,241.8 L1640.8,254.2 L1647,254.2 L1647,260.4 L1640.8,260.4 L1640.8,269.7 C1640.8,271.412083 1639.41208,272.8 1637.7,272.8 L1628.4,272.8 L1628.4,279 L1622.2,279 L1622.2,272.8 Z M1603,235 L1628,235 L1628,260 L1603,260 L1603,235 Z" id="形状" fill="url(#linearGradient-6)" fill-rule="nonzero" mask="url(#mask-2)"></path>
                            <rect id="矩形" fill="url(#linearGradient-8)" opacity="0.200000003" mask="url(#mask-2)" x="1685" y="113" width="43" height="43" rx="21.5"></rect>
                            <rect id="矩形备份-10" fill="url(#linearGradient-9)" opacity="0.200000003" mask="url(#mask-2)" x="1804" y="59" width="21" height="22" rx="10.5"></rect>
                            <g id="形状结合" opacity="0.200000003" mask="url(#mask-2)">
                                <use fill="url(#linearGradient-10)" fill-rule="evenodd" xlink:href="#path-11"></use>
                                <use fill="black" fill-opacity="1" filter="url(#filter-12)" xlink:href="#path-11"></use>
                            </g>
                            <g id="形状结合备份" opacity="0.200000003" mask="url(#mask-2)">
                                <use fill="url(#linearGradient-13)" fill-rule="evenodd" xlink:href="#path-14"></use>
                                <use fill="black" fill-opacity="1" filter="url(#filter-15)" xlink:href="#path-14"></use>
                            </g>
                        </g>
                        <g id="编组-3" transform="translate(423.000000, 87.000000)"></g>
                    </g>
                </g>
            </g>
        </g>
    </g>
</svg>