<svg xmlns="http://www.w3.org/2000/svg" viewBox="0 0 375.36 430.49"><defs><style>.cls-1{fill:#fff;}.cls-2{fill:none;stroke:#000;stroke-miterlimit:10;opacity:0.1;}</style></defs><title>资源 7</title><g id="图层_2" data-name="图层 2"><g id="图层_1-2" data-name="图层 1"><path class="cls-1" d="M.33,28.55H375a0,0,0,0,1,0,0V390.49a40,40,0,0,1-40,40H40.33a40,40,0,0,1-40-40V28.55a0,0,0,0,1,0,0Z"/><path class="cls-1" d="M20,0H355.36a20,20,0,0,1,20,20V145.55a0,0,0,0,1,0,0H0a0,0,0,0,1,0,0V20A20,20,0,0,1,20,0Z"/><line class="cls-2" x1="375.36" y1="145.55" y2="145.55"/></g></g></svg>