<?xml version="1.0" encoding="UTF-8"?>
<svg width="13px" height="18px" viewBox="0 0 13 18" version="1.1" xmlns="http://www.w3.org/2000/svg" xmlns:xlink="http://www.w3.org/1999/xlink">
    <!-- Generator: Sketch 62 (91390) - https://sketch.com -->
    <title>下载 (3)</title>
    <desc>Created with Sketch.</desc>
    <g id="页面-1" stroke="none" stroke-width="1" fill="none" fill-rule="evenodd">
        <g id="同步助手web首页" transform="translate(-591.000000, -553.000000)" fill="#FFFFFF" fill-rule="nonzero">
            <g id="编组-18备份" transform="translate(360.000000, 534.000000)">
                <g id="下载-(3)" transform="translate(231.000000, 19.000000)">
                    <path d="M11.1645839,8.08370295 L7.57209962,11.6399062 L7.57209962,1.56298315 C7.57209962,0.97674566 7.09049012,0.5 6.49827174,0.5 C5.90605335,0.5 5.42444385,0.97674566 5.42444385,1.56298315 L5.42444385,11.6399062 L1.83426394,8.08370295 C1.41487193,7.66854645 0.735088186,7.66854645 0.31569618,8.08370295 C-0.103695826,8.49885946 -0.103695826,9.17177797 0.31569618,9.58693448 L5.74014003,14.9565961 C5.83922716,15.0546825 5.95905344,15.1345203 6.09270584,15.1869852 C6.09731454,15.1892663 6.1042276,15.1892663 6.1088363,15.1915473 C6.23096694,15.23945 6.36231499,15.266823 6.50057609,15.266823 C6.63883719,15.266823 6.77018523,15.23945 6.89231587,15.1915473 C6.89692458,15.1892663 6.90383763,15.1892663 6.90844634,15.1869852 C7.04209873,15.1322393 7.15962067,15.0546825 7.26101214,14.9565961 L12.685456,9.58693448 C13.104848,9.17177797 13.104848,8.49885946 12.685456,8.08370295 C12.2637596,7.66854645 11.5839759,7.66854645 11.1645839,8.08370295 Z M11.9227156,15.3740337 L1.07382788,15.3740337 C0.481609501,15.3740337 0,15.8507794 0,16.4370169 C0,17.0232543 0.481609501,17.5 1.07382788,17.5 L11.9227156,17.5 C12.514934,17.5 12.9965435,17.0232543 12.9965435,16.4370169 C12.9965435,15.8507794 12.5172383,15.3740337 11.9227156,15.3740337 Z" id="形状"></path>
                </g>
            </g>
        </g>
    </g>
</svg>