<svg width="346" height="144" viewBox="0 0 346 144" fill="none" xmlns="http://www.w3.org/2000/svg" class="wsc-svg-logo-drfone-horizontal">
<path d="M214.354 61.8442C214.294 59.2056 215.374 58.0062 218.252 58.0062C219.092 58.0062 219.872 58.0662 221.311 58.426V51.5896C219.991 51.1098 218.792 50.75 215.674 50.75C208.717 50.75 204.819 53.9883 204.819 62.3839V65.0225H199.422V73.4181H204.819V95.0067H214.354V73.4181H221.311V65.0225H214.354V61.8442Z" fill="#044886"/>
<path fill-rule="evenodd" clip-rule="evenodd" d="M152.748 51.5898H162.283V95.0069H152.748V90.8691C150.829 93.8675 147.77 95.7266 143.213 95.7266C135.537 95.7266 129 89.25 129 80.0148C129 70.5398 135.597 64.3031 143.213 64.3031C147.53 64.3031 150.709 66.1021 152.748 69.2805V51.5898ZM145.611 87.6304C149.689 87.6304 152.748 84.3921 152.748 80.0144C152.748 76.1165 150.169 72.3984 145.611 72.3984C141.054 72.3984 138.475 76.1165 138.475 80.0144C138.475 84.3921 141.534 87.6304 145.611 87.6304Z" fill="#044886"/>
<path d="M187.769 73.5381L187.709 65.0226C186.87 64.6028 186.03 64.4229 184.951 64.4229C181.113 64.4229 177.395 66.5218 175.656 69.88V65.0226H166.121V95.0068H175.656V83.313C175.656 77.3161 176.855 72.9384 183.751 72.9384C185.251 72.9384 186.57 73.2383 187.769 73.5381Z" fill="#044886"/>
<path d="M193.126 95.3664C189.947 95.3664 187.369 92.9077 187.369 89.7294C187.369 86.611 189.947 84.1523 193.126 84.1523C196.244 84.1523 198.823 86.611 198.823 89.7294C198.823 92.9077 196.244 95.3664 193.126 95.3664Z" fill="#044886"/>
<path fill-rule="evenodd" clip-rule="evenodd" d="M221.791 80.0144C221.791 89.3695 228.447 95.7261 238.102 95.7261C247.757 95.7261 254.414 89.3695 254.414 80.0144C254.414 70.7792 247.997 64.3026 238.102 64.3026C228.207 64.3026 221.791 70.7792 221.791 80.0144ZM244.939 80.0144C244.939 84.3921 242.18 87.6304 238.102 87.6304C234.024 87.6304 231.266 84.3921 231.266 80.0144C231.266 76.1165 233.545 72.3984 238.102 72.3984C242.66 72.3984 244.939 76.1165 244.939 80.0144Z" fill="#044886"/>
<path d="M286.977 77.2558C286.977 71.7387 286.197 69.5799 284.638 67.7808C282.659 65.442 280.2 64.3026 276.302 64.3026C270.605 64.3026 267.607 67.0012 266.347 69.3999V65.0222H256.812V95.0065H266.347V79.9544C266.347 75.6367 268.027 72.3984 272.224 72.3984C275.643 72.3984 277.442 74.7971 277.442 79.6546V95.0065H286.977V77.2558Z" fill="#044886"/>
<path fill-rule="evenodd" clip-rule="evenodd" d="M305.648 89.0096C301.51 89.0096 299.171 86.6109 299.171 82.4131H320.64C320.88 81.3337 321 80.1943 321 78.9949C321 70.4194 314.883 64.3026 305.408 64.3026C295.873 64.3026 289.636 70.6593 289.636 80.0144C289.636 89.6093 295.933 95.7261 305.408 95.7261C313.804 95.7261 318.781 91.8881 320.52 85.6514H311.225C310.446 88.29 308.527 89.0096 305.648 89.0096ZM305.409 71.0196C309.846 71.0196 311.645 73.958 311.645 76.9565H299.172C299.172 72.5788 302.53 71.0196 305.409 71.0196Z" fill="#044886"/>
<path d="M107 83.9814V59.9903H80V36H56V108H80V83.9814H107Z" fill="#044886"/>
<path d="M48.4457 59.9861H29L29.0042 84H53.0042V56.472H52.8751C52.3963 58.4872 50.6108 59.9861 48.4457 59.9861Z" fill="#044886"/>
</svg>
