<svg xmlns="http://www.w3.org/2000/svg" xmlns:xlink="http://www.w3.org/1999/xlink" width="42" height="27" viewBox="0 0 42 27">
  <defs>
    <linearGradient id="free-c" x1="66.802%" x2="0%" y1="29.863%" y2="67.9%">
      <stop offset="0%" stop-color="#6DD400"/>
      <stop offset="100%" stop-color="#21B40D"/>
    </linearGradient>
    <path id="free-b" d="M2.42307692,0 L39.5769223,-3.10862447e-15 C40.9151507,2.11303799e-16 41.9999992,1.08484849 41.9999992,2.42307692 L41.9999992,18.5769231 C41.9999992,19.9151515 40.9151507,21 39.5769223,21 L6.76501697,21 C6.5693752,21 6.3803833,21.0710109 6.23314787,21.1998419 L1.33956141,25.4817299 C1.00385489,25.7754731 0.493585087,25.7414551 0.199841894,25.4057486 C0.07101089,25.2585132 2.26065367e-13,25.0695213 2.26041408e-13,24.8738795 L2.27373675e-13,2.42307692 C2.2720979e-13,1.08484849 1.08484849,6.89917785e-16 2.42307692,4.4408921e-16 Z"/>
    <filter id="free-a" width="123.8%" height="133.9%" x="-11.9%" y="-15%" filterUnits="objectBoundingBox">
      <feOffset dy="1" in="SourceAlpha" result="shadowOffsetOuter1"/>
      <feGaussianBlur in="shadowOffsetOuter1" result="shadowBlurOuter1" stdDeviation="1.5"/>
      <feColorMatrix in="shadowBlurOuter1" values="0 0 0 0 0.17053877   0 0 0 0 0.17053877   0 0 0 0 0.343948143  0 0 0 0.186653191 0"/>
    </filter>
  </defs>
  <g fill="none" fill-rule="evenodd">
    <use fill="#000" filter="url(#free-a)" xlink:href="#free-b"/>
    <use fill="url(#free-c)" xlink:href="#free-b"/>
    <path fill="#FFF" fill-rule="nonzero" d="M7.005,16 L7.005,5.5 L12.375,5.5 L12.375,7.405 L9.12,7.405 L9.12,9.88 L11.97,9.88 L11.97,11.77 L9.12,11.77 L9.12,16 L7.005,16 Z M14.055,16 L14.055,5.5 L17.22,5.5 C19.515,5.5 20.775,6.895 20.775,8.62 C20.775,9.895 20.145,10.87 19.185,11.395 L21.675,16 L19.335,16 L17.295,11.89 L16.17,11.89 L16.17,16 L14.055,16 Z M16.17,10.105 L17.16,10.105 C17.925,10.105 18.6,9.625 18.6,8.695 C18.6,7.855 18.015,7.33 17.055,7.33 L16.17,7.33 L16.17,10.105 Z M22.83,16 L22.83,5.5 L28.23,5.5 L28.23,7.405 L24.945,7.405 L24.945,9.745 L27.765,9.745 L27.765,11.62 L24.945,11.62 L24.945,14.11 L28.365,14.11 L28.365,16 L22.83,16 Z M30.045,16 L30.045,5.5 L35.445,5.5 L35.445,7.405 L32.16,7.405 L32.16,9.745 L34.98,9.745 L34.98,11.62 L32.16,11.62 L32.16,14.11 L35.58,14.11 L35.58,16 L30.045,16 Z"/>
  </g>
</svg>
