<?xml version="1.0" encoding="UTF-8"?>
<svg width="284px" height="275px" viewBox="0 0 284 275" version="1.1" xmlns="http://www.w3.org/2000/svg" xmlns:xlink="http://www.w3.org/1999/xlink">
    <!-- Generator: Sketch 62 (91390) - https://sketch.com -->
    <title>instantly</title>
    <desc>Created with Sketch.</desc>
    <defs>
        <linearGradient x1="-25.7062592%" y1="16.5489947%" x2="137.025067%" y2="85.1329284%" id="linearGradient-1">
            <stop stop-color="#44CAE0" offset="0%"></stop>
            <stop stop-color="#68FF87" offset="100%"></stop>
        </linearGradient>
        <linearGradient x1="11.1396679%" y1="32.7806778%" x2="116.101997%" y2="90.2855362%" id="linearGradient-2">
            <stop stop-color="#4DCCFF" offset="0%"></stop>
            <stop stop-color="#4489FF" offset="100%"></stop>
        </linearGradient>
        <path d="M177,0 C213.332297,0 243.678509,25.6294742 250.945395,59.7951807 C270.390866,69.2156233 283.8,89.1418761 283.8,112.2 C283.8,144.342972 257.742972,170.4 225.6,170.4 C225.074786,170.4 224.551197,170.393043 224.029319,170.379216 C223.955564,170.392431 223.878666,170.4 223.8,170.4 L109.92,170.399 L109.8,170.4 C109.759946,170.4 109.719902,170.39996 109.679868,170.399879 L106.8,170.4 C106.626349,170.4 106.461313,170.363115 106.312299,170.296752 C75.7928263,168.493128 51.6,143.171833 51.6,112.2 C51.6,81.857307 74.8199375,56.937921 104.459944,54.24171 C113.674859,22.8899903 142.664308,0 177,0 Z" id="path-3"></path>
        <filter x="-26.1%" y="-35.5%" width="152.1%" height="171.0%" filterUnits="objectBoundingBox" id="filter-4">
            <feGaussianBlur stdDeviation="60" in="SourceAlpha" result="shadowBlurInner1"></feGaussianBlur>
            <feOffset dx="0" dy="1" in="shadowBlurInner1" result="shadowOffsetInner1"></feOffset>
            <feComposite in="shadowOffsetInner1" in2="SourceAlpha" operator="arithmetic" k2="-1" k3="1" result="shadowInnerInner1"></feComposite>
            <feColorMatrix values="0 0 0 0 1   0 0 0 0 1   0 0 0 0 1  0 0 0 0.5 0" type="matrix" in="shadowInnerInner1"></feColorMatrix>
        </filter>
        <linearGradient x1="-50.7568913%" y1="-49.795707%" x2="134.472623%" y2="135.832867%" id="linearGradient-5">
            <stop stop-color="#68DAFF" offset="0%"></stop>
            <stop stop-color="#4589FC" offset="100%"></stop>
        </linearGradient>
        <linearGradient x1="-25.7062592%" y1="-14.5274022%" x2="137.025067%" y2="117.771853%" id="linearGradient-6">
            <stop stop-color="#44CAE0" offset="0%"></stop>
            <stop stop-color="#B6FDC5" offset="100%"></stop>
        </linearGradient>
        <linearGradient x1="-3.03198159%" y1="-49.795707%" x2="94.4609845%" y2="135.832867%" id="linearGradient-7">
            <stop stop-color="#D982FF" offset="0%"></stop>
            <stop stop-color="#6E7AEF" offset="100%"></stop>
        </linearGradient>
        <linearGradient x1="-50.7568913%" y1="-35.5587337%" x2="134.472623%" y2="123.587849%" id="linearGradient-8">
            <stop stop-color="#D982FF" offset="0%"></stop>
            <stop stop-color="#6E7AEF" offset="100%"></stop>
        </linearGradient>
        <linearGradient x1="-10.4717763%" y1="-1.06079006%" x2="119.973741%" y2="103.7985%" id="linearGradient-9">
            <stop stop-color="#F7D822" offset="0%"></stop>
            <stop stop-color="#FFBB1E" offset="100%"></stop>
        </linearGradient>
        <filter x="-85.8%" y="-50.0%" width="271.6%" height="200.0%" filterUnits="objectBoundingBox" id="filter-10">
            <feOffset dx="0" dy="11" in="SourceAlpha" result="shadowOffsetOuter1"></feOffset>
            <feGaussianBlur stdDeviation="14" in="shadowOffsetOuter1" result="shadowBlurOuter1"></feGaussianBlur>
            <feColorMatrix values="0 0 0 0 0   0 0 0 0 0   0 0 0 0 0  0 0 0 0.0508085664 0" type="matrix" in="shadowBlurOuter1" result="shadowMatrixOuter1"></feColorMatrix>
            <feMerge>
                <feMergeNode in="shadowMatrixOuter1"></feMergeNode>
                <feMergeNode in="SourceGraphic"></feMergeNode>
            </feMerge>
        </filter>
        <linearGradient x1="19.1189323%" y1="-49.4870446%" x2="73.6931433%" y2="146.905997%" id="linearGradient-11">
            <stop stop-color="#FFFFFF" offset="0%"></stop>
            <stop stop-color="#FEFFFF" offset="0%"></stop>
            <stop stop-color="#E6EFFF" offset="100%"></stop>
        </linearGradient>
        <filter x="-37.1%" y="-48.1%" width="174.3%" height="196.1%" filterUnits="objectBoundingBox" id="filter-12">
            <feOffset dx="0" dy="9" in="SourceAlpha" result="shadowOffsetOuter1"></feOffset>
            <feGaussianBlur stdDeviation="11.5" in="shadowOffsetOuter1" result="shadowBlurOuter1"></feGaussianBlur>
            <feColorMatrix values="0 0 0 0 0   0 0 0 0 0   0 0 0 0 0  0 0 0 0.0508085664 0" type="matrix" in="shadowBlurOuter1" result="shadowMatrixOuter1"></feColorMatrix>
            <feMerge>
                <feMergeNode in="shadowMatrixOuter1"></feMergeNode>
                <feMergeNode in="SourceGraphic"></feMergeNode>
            </feMerge>
        </filter>
        <linearGradient x1="69.6735537%" y1="-4.72526475%" x2="50%" y2="100%" id="linearGradient-13">
            <stop stop-color="#EDEEFF" offset="0%"></stop>
            <stop stop-color="#D7D8FF" offset="100%"></stop>
        </linearGradient>
        <linearGradient x1="-48.2456127%" y1="59.2951662%" x2="180.501259%" y2="32.2077416%" id="linearGradient-14">
            <stop stop-color="#66C7FF" stop-opacity="0.805179196" offset="0%"></stop>
            <stop stop-color="#3695FF" offset="100%"></stop>
        </linearGradient>
        <linearGradient x1="121.809031%" y1="24.1695753%" x2="-10.4902236%" y2="76.8813643%" id="linearGradient-15">
            <stop stop-color="#44CAE0" offset="0%"></stop>
            <stop stop-color="#BAF9C7" offset="98.8307644%"></stop>
        </linearGradient>
    </defs>
    <g id="页面-1" stroke="none" stroke-width="1" fill="none" fill-rule="evenodd">
        <g id="同步助手web首页" transform="translate(-482.000000, -815.000000)">
            <g id="编组" transform="translate(360.000000, 684.000000)">
                <g id="评论">
                    <g id="编组-4">
                        <g id="instantly" transform="translate(122.000000, 131.000000)">
                            <path d="M14.52,236.4 C14.4537258,236.4 14.3895431,236.391046 14.3285955,236.374281 C6.32667183,235.905857 0,229.783817 0,222.3 C0,215.222314 5.65863381,209.362614 13.0340753,208.353564 C14.9208376,199.692737 22.7403415,193.2 32.1,193.2 C41.9103398,193.2 50.0286326,200.33306 51.3969533,209.61907 C56.4904358,211.907537 60,216.726062 60,222.3 C60,228.862942 55.1345146,234.378619 48.5463627,235.950706 C48.4404994,236.21412 48.181957,236.4 47.88,236.4 L14.52,236.4 Z" id="形状结合备份-7" fill="url(#linearGradient-1)" opacity="0.100000001"></path>
                            <g id="形状结合" opacity="0.08">
                                <use fill="url(#linearGradient-2)" fill-rule="evenodd" xlink:href="#path-3"></use>
                                <use fill="black" fill-opacity="1" filter="url(#filter-4)" xlink:href="#path-3"></use>
                            </g>
                            <path d="M114,18.9 C114,10.4525891 107.150841,3.6 98.7,3.6 C90.2491594,3.6 83.4,10.4525891 83.4,18.9 C83.4,27.3508406 90.2491594,34.2 98.7,34.2 L112.38117,34.2 C112.861332,34.2 113.24889,33.8124412 113.24889,33.3391392 L110.323336,28.8496301 C112.617821,26.1744452 114,22.7001345 114,18.9 Z" id="路径" fill="url(#linearGradient-5)" fill-rule="nonzero"></path>
                            <path d="M104.907737,16.8 C103.863263,16.8 103.015475,17.6064516 103.015475,18.6 C103.015475,19.5935484 103.863263,20.4 104.907737,20.4 C105.952212,20.4 106.8,19.5935484 106.8,18.6 C106.8,17.6064516 105.952212,16.8 104.907737,16.8 L104.907737,16.8 Z M91.2922627,16.8 C90.247788,16.8 89.4,17.6064516 89.4,18.6 C89.4,19.5935484 90.247788,20.4 91.2922627,20.4 C92.3367375,20.4 93.1845254,19.5935484 93.1845254,18.6 C93.1845254,17.6064516 92.3367375,16.8 91.2922627,16.8 L91.2922627,16.8 Z M98.1016956,16.8 C97.0572208,16.8 96.2094329,17.6064516 96.2094329,18.6 C96.2094329,19.5935484 97.0572208,20.4 98.1016956,20.4 C99.1461703,20.4 99.9939583,19.5935484 99.9939583,18.6 C99.9905671,17.6064516 99.1461703,16.8 98.1016956,16.8 L98.1016956,16.8 Z" id="形状" fill="#FFFFFF" fill-rule="nonzero"></path>
                            <g id="表情" transform="translate(156.000000, 210.600000)" fill="url(#linearGradient-6)" fill-rule="nonzero">
                                <path d="M13.2,26.4 C5.90984533,26.4 0,20.4901547 0,13.2 C0,5.90984533 5.90984533,0 13.2,0 C20.4901547,0 26.4,5.90984533 26.4,13.2 C26.4,20.4901547 20.4901547,26.4 13.2,26.4 Z M8.1,11.4 C9.259788,11.4 10.2,10.459788 10.2,9.3 C10.2,8.140212 9.259788,7.2 8.1,7.2 C6.940212,7.2 6,8.140212 6,9.3 C6,10.459788 6.940212,11.4 8.1,11.4 Z M18.3,11.4 C19.459788,11.4 20.4,10.459788 20.4,9.3 C20.4,8.140212 19.459788,7.2 18.3,7.2 C17.140212,7.2 16.2,8.140212 16.2,9.3 C16.2,10.459788 17.140212,11.4 18.3,11.4 Z M7.2,16.2 C7.2,19.51371 9.88629,22.2 13.2,22.2 C16.51371,22.2 19.2,19.51371 19.2,16.2 L7.2,16.2 Z" id="形状"></path>
                            </g>
                            <g id="语音-(2)" transform="translate(243.000000, 88.800000)" fill="url(#linearGradient-7)" fill-rule="nonzero">
                                <path d="M20.7416484,13.8 C21.5470738,13.8 22.2,14.4488907 22.2,15.2493379 C22.2,20.8404003 17.9916834,25.4700686 12.5583516,26.1826597 L12.5583516,26.1826597 L12.5583516,27.7013242 L20.7416484,27.7013242 C21.5470738,27.7013242 22.2,28.3502149 22.2,29.1506621 C22.2,29.9511093 21.5470738,30.6 20.7416484,30.6 L20.7416484,30.6 L1.45835159,30.6 C0.652926246,30.6 0,29.9511093 0,29.1506621 C0,28.3502149 0.652926246,27.7013242 1.45835159,27.7013242 L1.45835159,27.7013242 L9.64164841,27.7013242 L9.64164841,26.1826597 C4.20855965,25.4703101 0,20.8404003 0,15.2493379 C0,14.4489766 0.653012761,13.8002201 1.4583516,13.8002201 C2.26369045,13.8002201 2.91658086,14.4489766 2.91670318,15.2493379 C2.91670318,19.7335893 6.58761716,23.3820558 11.0997569,23.3820558 C15.6121398,23.3820558 19.2832968,19.7335893 19.2832968,15.2493379 C19.2832968,14.4488907 19.9362231,13.8 20.7416484,13.8 Z M10.500124,0 C13.6430022,0 16.2,2.57628713 16.2,5.74287449 L16.2,5.74287449 L16.2,15.2571255 C16.2,18.4239627 13.6430022,21 10.500124,21 C7.35674984,21 4.8,18.4239627 4.8,15.2571255 L4.8,15.2571255 L4.8,5.74287449 C4.8,2.57628713 7.3567498,0 10.500124,0 Z" id="形状结合"></path>
                            </g>
                            <path d="M201.521053,15.6 L187.878947,15.6 C187.154211,15.6 186.6,16.1752212 186.6,16.9274336 L186.6,29.2725664 C186.6,29.980531 187.154211,30.6 187.878947,30.6 L201.521053,30.6 C202.203158,30.6 202.8,29.980531 202.8,29.2725664 L202.8,16.9274336 C202.8,16.219469 202.245789,15.6 201.521053,15.6 Z M190.777895,17.8566372 C191.502632,17.8566372 192.142105,18.4761062 192.142105,19.2725664 C192.142105,20.0690265 191.545263,20.6884956 190.777895,20.6884956 C190.053158,20.6884956 189.413684,20.0690265 189.413684,19.2725664 C189.413684,18.4761062 190.053158,17.8566372 190.777895,17.8566372 Z M189.797368,28.6088496 C189.669474,28.6088496 189.541579,28.5646018 189.413684,28.4761062 C189.157895,28.2548673 189.157895,27.9451327 189.371053,27.679646 L192.014211,23.8300885 C192.227368,23.6088496 192.525789,23.5646018 192.781579,23.7415929 L195.083684,25.4230088 L199.218947,20.8212389 C199.432105,20.6 200.455263,19.4495575 201.052105,20.7327434 L201.052105,28.5646018 C201.052105,28.6088496 189.797368,28.6088496 189.797368,28.6088496 L189.797368,28.6088496 Z" id="形状" fill="url(#linearGradient-8)" fill-rule="nonzero"></path>
                            <g id="文件-(1)" transform="translate(95.700000, 58.200000)" fill="url(#linearGradient-9)" fill-rule="nonzero" opacity="0.889999986">
                                <path d="M20.0381521,6.53985107 C20.0381521,6.1133644 19.9144562,5.99116192 19.4827575,5.99116192 L0.982801274,5.99116192 C0.551102643,5.99116192 0.364321859,6.1133644 0.364321859,6.60217433 L0.364321859,16.1669627 C0.364321859,17.4464227 0.919716374,18 2.15296433,18 L18.3113575,18 C19.5483164,18 20.1,17.4513108 20.1,16.2329521 C20.0381521,12.9371511 20.0381521,9.76844069 20.0381521,6.53985107 L20.0381521,6.53985107 Z M0.859105391,5.01598609 L18.9867371,5.01598609 C20.0356781,5.01598609 20.0356781,5.01598609 20.0356781,4.03836622 C20.0356781,2.8811087 19.5408946,2.44973393 18.4276317,2.44973393 L10.6026301,2.44973393 C9.61306303,2.44973393 9.61306303,2.44973393 9.61306303,1.47211406 C9.61306303,0.435837001 9.1182795,0.00568425825 8.07181233,0.00568425825 L1.90804648,0.00568425825 C0.794783532,-0.0554169837 0.366795777,0.37229171 0.3,1.47211406 L0.3,4.46851897 C0.308658712,4.95610688 0.432354595,5.01598609 0.859105391,5.01598609 Z" id="形状"></path>
                            </g>
                            <g id="编组-21" filter="url(#filter-10)" transform="translate(34.200000, 85.200000)">
                                <path d="M12,0 L75.48,0 C82.107417,-1.21743675e-15 87.48,5.372583 87.48,12 L87.48,138.84 C87.48,145.467417 82.107417,150.84 75.48,150.84 L12,150.84 C5.372583,150.84 8.11624501e-16,145.467417 0,138.84 L0,12 C9.64732338e-16,5.372583 5.372583,1.21743675e-15 12,0 Z" id="矩形" fill="#676669"></path>
                                <path d="M11.4,8.4 L19.6821961,8.4 C21.4955915,8.4 23.1042133,9.56385097 23.6714392,11.2862498 L24.1293749,12.676786 C24.9396976,15.1373558 27.2377287,16.8 29.8282936,16.8 L56.6515288,16.8 C59.2293502,16.8 61.4915476,15.0828716 62.184737,12.6 L62.5000531,11.4705983 C63.0068404,9.65538368 64.6607212,8.4 66.5453531,8.4 L76.32,8.4 C78.9709668,8.4 81.12,10.5490332 81.12,13.2 L81.12,138 C81.12,140.650967 78.9709668,142.8 76.32,142.8 L11.4,142.8 C8.7490332,142.8 6.6,140.650967 6.6,138 L6.6,13.2 C6.6,10.5490332 8.7490332,8.4 11.4,8.4 Z" id="矩形" fill="url(#linearGradient-11)"></path>
                                <text id="iOS" font-family="PingFangSC-Semibold, PingFang SC" font-size="11.52" font-weight="500" fill="#50A2FF">
                                    <tspan x="34.2" y="98.4">iOS</tspan>
                                </text>
                            </g>
                            <g id="编组-21备份" filter="url(#filter-12)" transform="translate(65.400000, 34.800000)">
                                <path d="M99.6,0 L161.1,0 C164.082338,7.39869728e-15 166.5,2.41766235 166.5,5.4 L166.5,120.3 C166.5,123.282338 164.082338,125.7 161.1,125.7 L99.6,125.7 C96.6176624,125.7 94.2,123.282338 94.2,120.3 L94.2,5.4 C94.2,2.41766235 96.6176624,5.47846538e-16 99.6,0 Z" id="矩形" fill="#7C7FF4"></path>
                                <path d="M102.3,8.4 L159,8.4 C160.491169,8.4 161.7,9.60883118 161.7,11.1 L161.7,104.7 C161.7,106.191169 160.491169,107.4 159,107.4 L102.3,107.4 C100.808831,107.4 99.6,106.191169 99.6,104.7 L99.6,11.1 C99.6,9.60883118 100.808831,8.4 102.3,8.4 Z" id="矩形" fill="url(#linearGradient-13)"></path>
                                <g id="social-whatsapp" transform="translate(0.000000, 99.600000)">
                                    <path d="M0,28.2 L1.78033303,21.5753125 C0.680426929,19.6319867 0.102718879,17.4274062 0.10546995,15.1839 C0.108106708,8.13458749 5.73703884,2.4 12.6527046,2.4 C16.0092863,2.4016125 19.1591468,3.73300001 21.5280023,6.1490625 C23.8881036,8.54320186 25.2103349,11.8002425 25.2,15.1941125 C25.1967751,22.2428875 19.5678429,27.97855 12.6527046,27.97855 L12.6474311,27.97855 C10.547524,27.977475 8.48400412,27.44105 6.65146345,26.4224875 L0,28.2 Z" id="路径备份-2" fill="#78B7FF" opacity="0.800000012"></path>
                                    <path d="M0,25.8 L1.78033303,19.1753125 C0.680426929,17.2319867 0.102718879,15.0274062 0.10546995,12.7839 C0.108106708,5.73458749 5.73703884,0 12.6527046,0 C16.0092863,0.0016125 19.1591468,1.33300001 21.5280023,3.7490625 C23.8881036,6.14320186 25.2103349,9.40024254 25.2,12.7941125 C25.1967751,19.8428875 19.5678429,25.57855 12.6527046,25.57855 L12.6474311,25.57855 C10.547524,25.577475 8.48400412,25.04105 6.65146345,24.0224875 L0,25.8 Z" id="路径" fill="#FFFFFF"></path>
                                    <path d="M9.20291135,7.75652964 C8.95155946,7.13685527 8.69603576,7.22086984 8.50569667,7.21070248 C8.32474417,7.20160535 8.1182393,7.2 7.91121296,7.2 C7.70418663,7.2 7.36887694,7.27919844 7.08467202,7.59759761 C6.80046708,7.91599678 6,8.68550607 6,10.2507457 C6,11.8165205 7.11074588,13.3287828 7.26562453,13.5406922 C7.42050318,13.7531367 9.45165585,16.96549 12.5617443,18.342901 C13.3011986,18.6703973 13.8784736,18.8662529 14.3290297,19.012877 C15.0716128,19.2547534 15.7474469,19.2210405 16.2814393,19.1391665 C16.876966,19.0476601 18.1154737,18.3696572 18.3741263,17.6269042 C18.6322573,16.883616 18.6322573,16.2468176 18.5550788,16.1141067 C18.4773787,15.9819309 18.2708738,15.9021973 17.9605951,15.7427302 C17.6508378,15.5837982 16.1265607,14.8142889 15.8423557,14.7083342 C15.5581508,14.6018444 15.3516459,14.5488671 15.1446196,14.8672662 C14.9381147,15.1856654 14.3441525,15.9021974 14.1632,16.1141067 C13.9822475,16.3265512 13.801295,16.3533074 13.4915377,16.1943754 C13.1812589,16.0349083 12.1826306,15.6988499 10.9988779,14.6157576 C10.0769067,13.7724012 9.45478471,12.7305134 9.2738322,12.4121142 C9.0928797,12.0937151 9.25453757,11.9219401 9.40941622,11.763008 C9.54917203,11.6206649 9.71969499,11.3916315 9.87457364,11.2064784 C10.0299738,11.020255 10.0816,10.8875441 10.1848524,10.6756347 C10.2881049,10.4631902 10.2364786,10.277502 10.1587786,10.1180348 C10.0816,9.95910277 9.4615639,8.39386312 9.20291135,7.75706478 L9.20291135,7.75652964 Z" id="路径" fill="#50A2FF"></path>
                                </g>
                                <g id="social-whatsapp备份" transform="translate(118.200000, 31.800000)">
                                    <path d="M0,27 L1.69555527,20.6834375 C0.648025647,18.8304989 0.0978275035,16.7284571 0.100447572,14.5893 C0.102958769,7.86786249 5.46384651,2.4 12.0501948,2.4 C15.2469393,2.4015375 18.2468065,3.67100001 20.5028593,5.9746875 C22.7505749,8.25747154 24.0098428,11.363022 24,14.5990375 C23.9969286,21.3199625 18.6360409,26.78885 12.0501948,26.78885 L12.0451724,26.78885 C10.045261,26.787825 8.08000392,26.27635 6.3347271,25.3051625 L0,27 Z" id="路径备份-2" fill="#7C7FF4" opacity="0.800000012"></path>
                                    <path d="M0.6,24.6 L2.29555527,18.2834375 C1.24802565,16.4304989 0.697827503,14.3284571 0.700447572,12.1893 C0.702958769,5.46786249 6.06384651,0 12.6501948,0 C15.8469393,0.0015375 18.8468065,1.27100001 21.1028593,3.5746875 C23.3505749,5.85747154 24.6098428,8.96302196 24.6,12.1990375 C24.5969286,18.9199625 19.2360409,24.38885 12.6501948,24.38885 L12.6451724,24.38885 C10.645261,24.387825 8.68000392,23.87635 6.9347271,22.9051625 L0.6,24.6 Z" id="路径" fill="#FFFFFF"></path>
                                    <path d="M9.65039176,7.72870316 C9.41100901,7.14001251 9.16765311,7.21982635 8.98637778,7.21016735 C8.81404207,7.20152508 8.61737076,7.2 8.42020282,7.2 C8.22303488,7.2 7.90369232,7.27523852 7.63302098,7.57771773 C7.3623496,7.88019694 6.6,8.61123077 6.6,10.0982084 C6.6,11.5856945 7.65785322,13.0223437 7.8053567,13.2236576 C7.95286017,13.4254798 9.88729128,16.4772155 12.8492803,17.7857559 C13.5535225,18.0968774 14.1033082,18.2829402 14.5324092,18.4222332 C15.2396313,18.6520157 15.8832828,18.6199885 16.391847,18.5422081 C16.9590152,18.4552771 18.1385464,17.8111743 18.3848822,17.1055589 C18.6307213,16.3994352 18.6307213,15.7944767 18.5572179,15.6684014 C18.4832178,15.5428344 18.2865465,15.4670875 17.9910429,15.3155937 C17.696036,15.1646083 16.2443435,14.4335745 15.9736721,14.3329175 C15.7030008,14.2317522 15.5063295,14.1814237 15.3091615,14.4839029 C15.1124902,14.7863821 14.5468119,15.4670875 14.3744762,15.6684014 C14.2021405,15.8702236 14.0298048,15.8956421 13.7347978,15.7446566 C13.4392942,15.5931628 12.4882196,15.2739075 11.3608361,14.2449698 C10.4827683,13.4437811 9.89027115,12.4539878 9.71793543,12.1515085 C9.54559971,11.8490293 9.69955959,11.6858431 9.84706306,11.5348576 C9.98016384,11.3996316 10.1425667,11.1820499 10.2900701,11.0061545 C10.4380702,10.8292422 10.4872381,10.7031669 10.5855737,10.501853 C10.6839094,10.3000307 10.6347416,10.1236269 10.5607415,9.97213306 C10.4872381,9.82114763 9.89672753,8.33416996 9.65039176,7.72921154 L9.65039176,7.72870316 Z" id="路径" fill="#7C7FF4"></path>
                                </g>
                                <text id="Android" font-family="PingFangSC-Semibold, PingFang SC" font-size="9.6" font-weight="500" fill="#7C7FF4">
                                    <tspan x="112.8" y="78.4">Android</tspan>
                                </text>
                                <rect id="矩形" fill="#9FA1F1" x="120" y="113.4" width="20.4" height="7.2" rx="3.6"></rect>
                            </g>
                            <path d="M79.6673453,75.9 L79.6673453,51.483813 C79.6673453,48.1701045 82.3536368,45.483813 85.6673453,45.483813 L143.55,45.483813 L143.55,45.483813 L134.962933,37.7922339 L134.962933,44.0922339" id="路径-11" stroke="url(#linearGradient-14)" stroke-width="6"></path>
                            <path d="M135.6,207.398785 L135.6,186.963652 C135.6,183.649944 138.286292,180.963652 141.6,180.963652 L186.091192,180.963652 L186.091192,180.963652 L193.674,180.963652 L186.4044,174.346611 L186.4044,178.836076" id="路径-11备份" stroke="url(#linearGradient-15)" stroke-width="6" transform="translate(164.637000, 190.872698) scale(-1, -1) translate(-164.637000, -190.872698) "></path>
                        </g>
                    </g>
                </g>
            </g>
        </g>
    </g>
</svg>