<?xml version="1.0" encoding="UTF-8"?>
<svg width="55px" height="51px" viewBox="0 0 55 51" version="1.1" xmlns="http://www.w3.org/2000/svg" xmlns:xlink="http://www.w3.org/1999/xlink">
    <!-- Generator: Sketch 62 (91390) - https://sketch.com -->
    <title>赞-24</title>
    <desc>Created with Sketch.</desc>
    <g id="页面-1" stroke="none" stroke-width="1" fill="none" fill-rule="evenodd">
        <g id="重构-购买页面" transform="translate(-1383.000000, -1292.000000)" fill="#50677B" fill-rule="nonzero">
            <g id="banner备份-4" transform="translate(0.000000, 1188.000000)">
                <g id="编组-10" transform="translate(366.000000, 100.000000)">
                    <g id="编组-7">
                        <g id="编组-12备份-3" transform="translate(918.000000, 4.000000)">
                            <g id="赞-24" transform="translate(99.000000, 0.000000)">
                                <path d="M15.3008418,50.9937021 L15.3008418,17.6528773 C19.6642243,16.097308 23.0543855,11.60694 24.3047492,4.84304767 C24.8268083,1.96492961 27.4371035,0 30.4469995,0 C33.843606,0 36.5892499,2.75216103 36.5892499,6.15300074 L36.5892499,15.6438627 L48.4805949,15.6438627 C52.792416,15.6438627 55.9247703,19.7059768 54.7517487,23.8940479 L48.8737505,45.237466 C47.9585359,48.6446036 44.8261816,51 41.2942265,51 L15.3008418,51 L15.3008418,50.9937021 Z M12.000913,50.9937021 L5.22703569,50.9937021 C2.35248832,50.9937021 0,48.6383058 0,45.7538898 L0,23.6295382 C0,20.7514201 2.35248832,18.2637688 5.22703569,18.2637688 L12.000913,18.2637688 L12.000913,50.9937021 Z" id="形状"></path>
                            </g>
                        </g>
                    </g>
                </g>
            </g>
        </g>
    </g>
</svg>