<?xml version="1.0" encoding="UTF-8"?>
<svg width="64px" height="52px" viewBox="0 0 64 52" version="1.1" xmlns="http://www.w3.org/2000/svg" xmlns:xlink="http://www.w3.org/1999/xlink">
    <!-- Generator: Sketch 62 (91390) - https://sketch.com -->
    <title>钱包</title>
    <desc>Created with Sketch.</desc>
    <g id="页面-1" stroke="none" stroke-width="1" fill="none" fill-rule="evenodd">
        <g id="重构-购买页面" transform="translate(-777.000000, -1291.000000)">
            <g id="banner备份-4" transform="translate(0.000000, 1188.000000)">
                <g id="编组-10" transform="translate(366.000000, 100.000000)">
                    <g id="编组-7">
                        <g id="编组-12备份" transform="translate(321.000000, 3.000000)">
                            <g id="钱包" transform="translate(90.000000, 0.000000)">
                                <path d="M52.6329114,0 C58.3746835,0 63,4.7125 63,10.5625 L63,10.5625 L63,13 C62.5215189,12.8375 62.0430379,12.8375 61.5645569,12.8375 L61.5645569,12.8375 L48.1670886,12.8375 C43.2227848,12.8375001 39.0759494,16.9 39.0759494,22.1 L39.0759494,22.1 L39.0759494,30.0625 C39.0759494,35.1 43.0632911,39.325 48.1670886,39.325 L48.1670886,39.325 L61.5645569,39.325 C62.043038,39.325 62.521519,39.1625 63,39.1625 L63,39.1625 L63,41.6 C63,47.2875 58.3746835,52 52.6329114,52 L52.6329114,52 L10.3670886,52 C4.62531645,52 0,47.2875 0,41.4375 L0,41.4375 L0,10.4 C0,4.7125 4.62531645,0 10.3670886,0 L10.3670886,0 Z M61.75,20 C62.875,20 64,20.9350649 64,22.1818182 L64,22.1818182 L64,29.8181818 C64,30.9090909 63.0357143,32 61.75,32 L61.75,32 L48.25,32 C47.125,32 46,31.064935 46,29.8181818 L46,29.8181818 L46,22.1818182 C46,21.0909091 46.9642857,20 48.25,20 L48.25,20 Z" id="形状结合" fill="#50677B" fill-rule="nonzero"></path>
                                <g id="编组-5" transform="translate(5.000000, 17.000000)">
                                    <path d="M5.60868375,19.6 C5.81724038,19.6 6.01309495,19.5074692 6.19624744,19.3224077 C6.37939994,19.1373462 6.4974451,18.9072056 6.5503829,18.6319859 L7.94339186,11.5 L1.57496609,11.5 L1.31719355,12.8381371 L5.56281073,12.8381371 L5.19131509,14.7314587 L1.37025963,14.7314587 L1.11128999,16.0838313 L4.93234545,16.0838313 L4.50458682,18.2476274 L0.270142316,18.2476274 L0,19.6 L5.60868375,19.6 Z M13.8652919,19.6 C14.081297,19.6 14.2790137,19.5074692 14.4584419,19.3224077 C14.6378702,19.1373462 14.7577775,18.9072056 14.8181637,18.6319859 L16.2,11.5 L10.6024889,11.5 C10.3864838,11.5 10.1869051,11.5925308 10.0037526,11.7775923 C9.82060006,11.9626538 9.7025549,12.1927944 9.6496171,12.4680141 L8.26778082,19.6 L13.8652919,19.6 Z M12.761195,18.2476274 L10.6495591,18.2476274 L11.707783,12.8381371 L13.8194189,12.8381371 L12.761195,18.2476274 Z" id="30" fill="#FFFFFF" fill-rule="nonzero"></path>
                                    <path d="M17,18 C21.9705627,18 26,13.9705627 26,9 C26,4.02943725 21.9705627,0 17,0 C12.0294373,0 8,4.02943725 8,9" id="路径" stroke="#FFFFFF" stroke-width="4"></path>
                                </g>
                            </g>
                        </g>
                    </g>
                </g>
            </g>
        </g>
    </g>
</svg>