<?xml version="1.0" encoding="UTF-8"?>
<svg width="59px" height="53px" viewBox="0 0 59 53" version="1.1" xmlns="http://www.w3.org/2000/svg" xmlns:xlink="http://www.w3.org/1999/xlink">
    <!-- Generator: Sketch 62 (91390) - https://sketch.com -->
    <title>服务 (2)</title>
    <desc>Created with Sketch.</desc>
    <g id="页面-1" stroke="none" stroke-width="1" fill="none" fill-rule="evenodd">
        <g id="重构-购买页面" transform="translate(-1071.000000, -1291.000000)" fill="#50677B" fill-rule="nonzero">
            <g id="banner备份-4" transform="translate(0.000000, 1188.000000)">
                <g id="编组-10" transform="translate(366.000000, 100.000000)">
                    <g id="编组-7">
                        <g id="编组-12备份-2" transform="translate(613.000000, 3.000000)">
                            <g id="服务-(2)" transform="translate(92.000000, 0.000000)">
                                <path d="M41.3114865,1.83972459e-05 C51.0890213,1.83972459e-05 59.0163934,7.83976037 59.0163934,17.5091904 C59.0163934,21.9842382 57.3196732,26.0667891 54.5252487,29.1629911 L54.5473798,29.1819594 L32.6375574,50.8495368 C30.9091165,52.5583511 28.1073137,52.5583511 26.3788728,50.8495368 L4.46905044,29.1819594 L4.49118157,29.1629911 C1.59310422,25.958459 -0.00624932433,21.808393 1.83520809e-05,17.5091904 C1.83520809e-05,7.83976037 7.92740891,1.83972459e-05 17.7049438,1.83972459e-05 C22.2300229,1.83972459e-05 26.3582171,1.67799742 29.4890348,4.44152552 L29.5082151,4.41963908 L29.5288709,4.44006638 C32.7690695,1.57489685 36.9649214,-0.00622119168 41.3114865,1.83972459e-05 Z M38.8800125,23.3455748 C38.3119801,23.3455748 37.7941116,23.5556847 37.4001774,23.8985723 L30.5513293,30.6716965 L30.4126408,30.7928015 C29.8253022,31.2433736 28.9907428,31.1914777 28.465101,30.6716965 L21.6162528,23.8985723 C20.9650822,23.3236212 20.0329957,23.1809291 19.2365198,23.5342615 C18.4400438,23.8875939 17.9279992,24.6709311 17.9292038,25.534219 C17.9292038,26.0930529 18.1416648,26.6022774 18.4854351,26.9933152 L26.3788728,34.7994794 C28.1073137,36.5082937 30.9091165,36.5082937 32.6375574,34.7994794 L40.3642739,27.1567339 C40.4188641,27.1071247 40.4719788,27.0545972 40.5295197,26.9933152 L40.6416508,26.8576193 C41.1507007,26.1956542 41.2364011,25.3055665 40.8628258,24.5604883 C40.4892504,23.8154101 39.720954,23.3440925 38.8800125,23.3441158 L38.8800125,23.3455748 Z" id="形状"></path>
                            </g>
                        </g>
                    </g>
                </g>
            </g>
        </g>
    </g>
</svg>