<svg xmlns="http://www.w3.org/2000/svg" viewBox="0 0 214.83 37.13"><defs><style>.cls-1{fill:#f6c348;}.cls-2{fill:#fff91a;}</style></defs><title>资源 12</title><g id="图层_2" data-name="图层 2"><g id="图层_1-2" data-name="图层 1"><path class="cls-1" d="M19.42,2,24.8,12.9l12,1.75-8.71,8.49,2.06,12L19.42,29.47,8.65,35.13l2.06-12L2,14.65,14,12.9,19.42,2m0-2a2,2,0,0,0-1.79,1.11l-4.92,10-11,1.6A2,2,0,0,0,.6,16.09l8,7.75L6.68,34.79a2,2,0,0,0,2.9,2.11l9.83-5.17,9.83,5.17a2,2,0,0,0,2.9-2.11L30.27,23.84l8-7.75a2,2,0,0,0-1.11-3.41l-11-1.6-4.92-10A2,2,0,0,0,19.42,0Z"/><path class="cls-1" d="M63.42,2,68.8,12.9l12,1.75-8.71,8.49,2.06,12L63.42,29.47,52.65,35.13l2.06-12L46,14.65,58,12.9,63.42,2m0-2a2,2,0,0,0-1.79,1.11l-4.92,10-11,1.6a2,2,0,0,0-1.11,3.41l8,7.75L50.68,34.79a2,2,0,0,0,2.9,2.11l9.83-5.17,9.83,5.17a2,2,0,0,0,2.9-2.11L74.27,23.84l8-7.75a2,2,0,0,0-1.11-3.41l-11-1.6-4.92-10A2,2,0,0,0,63.42,0Z"/><path class="cls-1" d="M107.42,2l5.38,10.9,12,1.75-8.71,8.49,2.06,12-10.76-5.66L96.65,35.13l2.06-12L90,14.65l12-1.75L107.42,2m0-2a2,2,0,0,0-1.79,1.11l-4.92,10-11,1.6a2,2,0,0,0-1.11,3.41l8,7.75L94.68,34.79a2,2,0,0,0,2.9,2.11l9.83-5.17,9.83,5.17a2,2,0,0,0,2.9-2.11l-1.88-10.95,8-7.75a2,2,0,0,0-1.11-3.41l-11-1.6-4.92-10A2,2,0,0,0,107.42,0Z"/><path class="cls-1" d="M151.42,2l5.38,10.9,12,1.75-8.71,8.49,2.06,12-10.76-5.66-10.76,5.66,2.06-12L134,14.65l12-1.75L151.42,2m0-2a2,2,0,0,0-1.79,1.11l-4.92,10-11,1.6a2,2,0,0,0-1.11,3.41l8,7.75-1.88,10.95a2,2,0,0,0,2.9,2.11l9.83-5.17,9.83,5.17a2,2,0,0,0,2.9-2.11l-1.88-10.95,8-7.75a2,2,0,0,0-1.11-3.41l-11-1.6-4.92-10A2,2,0,0,0,151.42,0Z"/><path class="cls-1" d="M195.42,2l5.38,10.9,12,1.75-8.71,8.49,2.06,12-10.76-5.66-10.76,5.66,2.06-12L178,14.65l12-1.75L195.42,2m0-2a2,2,0,0,0-1.79,1.11l-4.92,10-11,1.6a2,2,0,0,0-1.11,3.41l8,7.75-1.88,10.95a2,2,0,0,0,2.9,2.11l9.83-5.17,9.83,5.17a2,2,0,0,0,2.9-2.11l-1.88-10.95,8-7.75a2,2,0,0,0-1.11-3.41l-11-1.6-4.92-10A2,2,0,0,0,195.42,0Z"/><polygon class="cls-2" points="19.41 2 24.8 12.9 36.83 14.65 28.12 23.14 30.18 35.13 19.41 29.47 8.65 35.13 10.71 23.14 2 14.65 14.03 12.9 19.41 2"/><polygon class="cls-2" points="63.41 2 68.8 12.9 80.83 14.65 72.12 23.14 74.18 35.13 63.41 29.47 52.65 35.13 54.71 23.14 46 14.65 58.03 12.9 63.41 2"/><polygon class="cls-2" points="107.42 2 112.8 12.9 124.83 14.65 116.12 23.14 118.18 35.13 107.42 29.47 96.65 35.13 98.71 23.14 90 14.65 102.03 12.9 107.42 2"/><polygon class="cls-2" points="151.41 2 156.8 12.9 168.83 14.65 160.12 23.14 162.18 35.13 151.41 29.47 140.65 35.13 142.71 23.14 134 14.65 146.03 12.9 151.41 2"/><polygon class="cls-2" points="195.41 2 200.8 12.9 212.83 14.65 204.12 23.14 206.18 35.13 195.41 29.47 184.65 35.13 186.71 23.14 178 14.65 190.03 12.9 195.41 2"/></g></g></svg>