<?xml version="1.0" encoding="UTF-8"?>
<svg width="125px" height="29px" viewBox="0 0 125 29" version="1.1" xmlns="http://www.w3.org/2000/svg" xmlns:xlink="http://www.w3.org/1999/xlink">
    <!-- Generator: Sketch 62 (91390) - https://sketch.com -->
    <title>logo1</title>
    <desc>Created with Sketch.</desc>
    <g id="页面-1" stroke="none" stroke-width="1" fill="none" fill-rule="evenodd">
        <g id="同步助手web-竞品词" transform="translate(-443.000000, -314.000000)" fill="#FFFFFF">
            <g id="banner备份-5" transform="translate(0.000000, 70.000000)">
                <g id="编组-10" transform="translate(360.000000, 40.000000)">
                    <g id="编组-7" transform="translate(0.000000, 164.000000)">
                        <g id="logo1" transform="translate(83.000000, 40.000000)">
                            <g id="编组备份">
                                <path d="M16.0446,1.93267624e-13 C24.9057879,1.93267624e-13 32.0892,5.60523823 32.0892,12.51965 C32.0892,19.4340618 24.9057879,25.0393 16.0446,25.0393 C14.6930911,25.0393 13.3806113,24.9089089 12.1266944,24.663369 C12.015669,24.6416282 11.8058494,24.5947431 11.4972357,24.5227137 C11.0980013,24.4295338 10.6790138,24.473625 10.3079158,24.6478572 L10.3079158,24.6478572 L6.59162459,26.3928103 C6.49864249,26.4364692 6.39422165,26.449557 6.29334088,26.4301961 C6.02963266,26.3795856 5.85688283,26.1247799 5.90749332,25.8610717 L5.90749332,25.8610717 L6.29818851,23.8253372 C6.43751621,23.099364 6.12471008,22.3611109 5.50622247,21.9562377 C5.41688833,21.8977565 5.34590956,21.8499702 5.29328616,21.8128787 C2.04272303,19.5217289 -1.09423581e-13,16.2068321 -1.09423581e-13,12.51965 C-1.09423581e-13,5.60523823 7.1834121,1.93267624e-13 16.0446,1.93267624e-13 Z M13.8559248,6.5637 L10.9060522,6.5637 L10.8841573,6.56434954 C10.7172194,6.57426572 10.572737,6.69671752 10.5361056,6.86268867 L10.5361056,6.86268867 L8.74014095,14.9995799 C8.62016561,15.5431464 8.11114014,15.9099475 7.5575407,15.8517554 L7.5575407,15.8517554 L7.30631242,15.8253474 C7.27130853,15.8216655 7.23592257,15.8256285 7.20260036,15.8369625 C7.0754914,15.8801964 7.00749726,16.0182866 7.0507312,16.1453956 L7.0507312,16.1453956 L7.82308979,18.4161509 C7.8740143,18.5658704 7.9764529,18.6858424 8.10536014,18.7605515 C8.14955082,18.7970179 8.20356611,18.8230445 8.26457132,18.8342896 C8.28608424,18.838255 8.30798605,18.84025 8.33000824,18.84025 L8.33000824,18.84025 C8.38452136,18.8470064 8.43355362,18.8482171 8.48308074,18.8435449 L8.48308074,18.8435449 L8.51029445,18.84025 L8.66068422,18.84025 L8.68257906,18.8396005 C8.84951697,18.8296843 8.99399945,18.7072325 9.03063083,18.5412613 L9.03063083,18.5412613 L10.8366003,10.3586907 L10.8418566,10.3377264 C10.8942483,10.1514346 11.0822766,10.0306938 11.2719838,10.0656625 C11.4230377,10.0935061 11.5364941,10.2142542 11.5550833,10.3669565 L11.5550833,10.3669565 L12.5491798,18.5329956 L12.5523652,18.5540058 C12.5825977,18.7202072 12.7256518,18.84025 12.8977162,18.84025 L12.8977162,18.84025 L14.6048795,18.84025 L14.6293257,18.839435 C14.7590803,18.8307776 14.8778758,18.7537319 14.9399607,18.6361636 L14.9399607,18.6361636 L19.0831997,10.7902304 L19.0943182,10.7705793 C19.1950153,10.6041051 19.4065373,10.5380042 19.5774419,10.6233967 C19.7213239,10.6952874 19.7962149,10.8558557 19.7607691,11.0164553 L19.7607691,11.0164553 L18.1289585,18.4099387 L18.1249116,18.4311259 C18.094189,18.621412 18.2163025,18.799321 18.4060098,18.8342896 C18.4275227,18.838255 18.4494245,18.84025 18.4714467,18.84025 L18.4714467,18.84025 L20.6565571,18.84025 L20.678452,18.8396005 C20.8453899,18.8296843 20.9898723,18.7072325 21.0265037,18.5412613 L21.0265037,18.5412613 L22.7431561,10.7631975 C22.8537894,10.2619234 23.2980919,9.90499842 23.8114295,9.90501312 L23.8114295,9.90501312 L24.0439918,9.90501978 C24.0795213,9.90501978 24.11486,9.89982723 24.1488878,9.88960675 C24.341766,9.83167431 24.4511612,9.62835208 24.3932288,9.43547383 L24.3932288,9.43547383 L23.5671784,6.68525 L23.4998111,6.68521453 C23.4499142,6.62690176 23.3803366,6.58483048 23.298038,6.56966042 C23.2765251,6.56569496 23.2546233,6.5637 23.2326011,6.5637 L23.2326011,6.5637 L20.4614817,6.5637 L20.4372426,6.56450138 C20.3085756,6.57301426 20.1905685,6.6487867 20.1279808,6.76482556 L20.1279808,6.76482556 L15.8505228,14.6953092 L15.8392302,14.7148654 C15.7370605,14.8804769 15.5250194,14.9446804 15.3549553,14.8577132 C15.2523519,14.805244 15.183047,14.7057789 15.1686224,14.5902915 L15.1686224,14.5902915 L14.2043242,6.86984327 L14.2010826,6.84889445 C14.1704263,6.68318731 14.0275803,6.5637 13.8559248,6.5637 L13.8559248,6.5637 Z" id="形状结合"></path>
                                <path d="M38.6529,19.1334816 C38.6529,21.6331147 37.3146724,23.8893798 35.1656315,25.4916174 L34.9235393,25.6669315 L34.9235393,25.6669315 C34.3981092,26.0364845 34.1382318,26.6798146 34.259559,27.3106283 L34.4373686,28.2351243 C34.488084,28.4988124 34.3154357,28.7536868 34.0517476,28.8044022 C33.9509444,28.8237898 33.8465912,28.8107755 33.7536374,28.7672235 L31.5582196,27.7385961 C31.1903282,27.5662462 30.7754142,27.5216876 30.3793198,27.6120083 C30.254463,27.6404791 30.1643872,27.6601168 30.1090926,27.6709213 C29.2256511,27.843544 28.3009494,27.9352133 27.34875,27.9352133 C24.6095032,27.9352133 22.0978204,27.1765826 20.1413491,25.9144371 C27.5675614,24.8170932 33.18315,19.7270658 33.18315,13.6136 C33.18315,12.889253 33.104316,12.1792734 32.9529776,11.4886004 C36.3584266,13.0046486 38.6529,15.8604305 38.6529,19.1334816 Z" id="形状结合"></path>
                            </g>
                            <path d="M49.879258,21.910603 L51.5615888,9.522227 L54.133508,21.910603 L56.771143,21.910603 L62.1888109,9.709414 L60.5319,21.910603 L63.969334,21.910603 L65.9220394,7.531238 L61.8890104,7.531238 L57.0150411,18.234931 L54.7588874,7.531238 L50.5727054,7.531238 L48.62,21.910603 L49.879258,21.910603 Z M75.217571,21.910603 C75.6525826,19.7097377 75.9586727,17.9569867 76.1358412,16.65235 C76.3777148,14.8712373 76.5468986,13.1241587 76.6433926,11.411114 L68.0327906,11.411114 C67.6538009,13.282984 67.3595455,14.9903563 67.1500245,16.533231 C66.942044,18.064761 66.7610255,19.8572183 66.606969,21.910603 L75.217571,21.910603 Z M69.9338936,20.719413 C70.0392115,19.1084703 70.1796845,17.656353 70.3553124,16.363061 C70.5417245,14.9903563 70.7686837,13.7367707 71.03619,12.602304 L73.316468,12.602304 C73.267172,13.8842513 73.1554803,15.1661987 72.9813929,16.448146 C72.7949808,17.8208507 72.5392404,19.2446063 72.2141716,20.719413 L69.9338936,20.719413 Z M86.363706,21.910603 C86.8370947,20.0954563 87.1839416,18.3767393 87.4042469,16.754452 C87.6322551,15.0754413 87.760682,13.2943287 87.7895276,11.411114 L84.7264676,11.411114 L82.2440897,12.3981 L82.9050054,7.531238 L79.6717754,7.531238 L77.71907,21.910603 L86.363706,21.910603 Z M81.1140626,20.719413 L82.0684618,13.691392 L84.4487376,12.704406 C84.4333347,13.7367707 84.326055,15.069769 84.1268985,16.703401 C83.9035121,18.3483777 83.6649985,19.6870483 83.4113576,20.719413 L81.1140626,20.719413 Z M93.7774074,10.424128 L94.1702594,7.531238 L90.9370294,7.531238 L90.5441774,10.424128 L93.7774074,10.424128 Z M92.217554,21.910603 L93.6433756,11.411114 L90.4101456,11.411114 L88.984324,21.910603 L92.217554,21.910603 Z M97.901232,21.910603 L99.9962112,21.144838 L100.157974,19.953648 L98.1674075,20.702396 L99.267393,12.602304 L101.15628,12.602304 L101.318043,11.411114 L99.4291556,11.411114 L99.7942768,8.722428 L96.5610468,8.722428 L96.1959256,11.411114 L95.2599906,11.411114 L95.098228,12.602304 L96.034163,12.602304 L94.770104,21.910603 L97.901232,21.910603 Z M104.401726,21.910603 L105.494779,13.861562 L108.404052,12.73844 L108.584302,11.411114 L105.670407,12.56827 L105.827548,11.411114 L102.594318,11.411114 L101.168496,21.910603 L104.401726,21.910603 Z M113.227838,10.424128 L113.62069,7.531238 L110.38746,7.531238 L109.994608,10.424128 L113.227838,10.424128 Z M111.667985,21.910603 L113.093807,11.411114 L109.860577,11.411114 L108.434755,21.910603 L111.667985,21.910603 Z M114.884198,21.910603 L117.846406,18.643339 L119.444754,21.910603 L123.392698,21.910603 L120.394325,15.920619 L124.444146,11.411114 L122.640344,11.411114 L119.73843,14.61031 L118.147856,11.411114 L114.370082,11.411114 L117.197444,17.281979 L112.978294,21.910603 L114.884198,21.910603 Z" id="MobitrixWhatsAppTransfer" fill-rule="nonzero"></path>
                        </g>
                    </g>
                </g>
            </g>
        </g>
    </g>
</svg>