<?xml version="1.0" encoding="UTF-8"?>
<svg width="280px" height="27px" viewBox="0 0 280 27" version="1.1" xmlns="http://www.w3.org/2000/svg" xmlns:xlink="http://www.w3.org/1999/xlink">
    <!-- Generator: Sketch 62 (91390) - https://sketch.com -->
    <title>logo</title>
    <desc>Created with Sketch.</desc>
    <g id="页面-1" stroke="none" stroke-width="1" fill="none" fill-rule="evenodd">
        <g id="同步助手web-导航条上滑" transform="translate(-360.000000, -22.000000)">
            <g id="头部bar-黑">
                <g id="nav">
                    <g id="logo" transform="translate(360.000000, 22.000000)">
                        <g id="编组备份">
                            <path d="M14.52,22.66 C22.5391746,22.66 29.04,17.5873862 29.04,11.33 C29.04,5.07261378 22.5391746,0 14.52,0 C6.50082543,0 0,5.07261378 0,11.33 C0,14.6668164 1.84861812,17.666723 4.79030422,19.7401618 C4.8379272,19.7737287 4.90216138,19.8169742 4.98300676,19.8698984 C5.54272406,20.2362995 5.82580653,20.9044018 5.69971811,21.5613911 L5.3461478,23.4036848 C5.30034645,23.6423348 5.45668114,23.8729281 5.69533111,23.9187295 C5.78662593,23.9362507 5.88112443,23.9244066 5.96527112,23.8848962 L9.32837365,22.3057799 C9.66420065,22.1480645 10.0433843,22.1081621 10.4046912,22.1924902 C10.6840053,22.2576813 10.873903,22.3001149 10.974384,22.319791 C12.1091505,22.541999 13.296915,22.66 14.52,22.66 Z" id="椭圆形" fill="#1890FF"></path>
                            <path d="M34.98,17.315368 C34.98,19.5710346 33.7758252,21.6077119 31.8407055,23.0569296 L31.6050129,23.2279923 L31.6050129,23.2279923 C31.1295106,23.5624294 30.8943275,24.1446286 31.0041258,24.7155007 L31.1650394,25.5521487 C31.2109358,25.7907804 31.0546929,26.021436 30.8160612,26.0673323 C30.7248365,26.0848777 30.6303993,26.0731 30.5462782,26.0336864 L28.5594748,25.1028019 C28.2265414,24.9468291 27.8510536,24.9065046 27.4925971,24.9882428 C27.3796045,25.0140083 27.298088,25.0317799 27.2480476,25.0415577 C26.4485531,25.1977774 25.6117189,25.280736 24.75,25.280736 C22.271037,25.280736 19.9980153,24.5941887 18.227451,23.45197 C24.947471,22.459405 30.03,17.8528468 30.03,12.32 C30.03,11.6641137 29.9585767,11.0212444 29.8214681,10.3958691 C32.9032836,11.7685769 34.98,14.3531383 34.98,17.315368 Z" id="形状结合" fill="#1890FF"></path>
                            <path d="M12.5392985,5.94 C12.6946428,5.94 12.8239152,6.04813331 12.8516584,6.19809452 L12.8545921,6.21705273 L13.7272601,13.2038837 C13.740314,13.3083972 13.8030333,13.3984109 13.8958871,13.4458943 C14.0497913,13.5245976 14.2416837,13.4664949 14.334145,13.3166203 L14.3443645,13.2989223 L18.2153672,6.12201408 C18.2720077,6.01700154 18.3788014,5.9484292 18.4952422,5.94072523 L18.517178,5.94 L21.0249783,5.94 C21.0449079,5.94 21.0647286,5.94180539 21.0841973,5.94539405 C21.1586757,5.9591226 21.2216418,5.99719617 21.2667974,6.0499679 L21.3277632,6.05 L22.0753202,8.53889034 C22.1277477,8.7134408 22.0287475,8.89744282 21.8541971,8.94987036 C21.8234028,8.95911966 21.791422,8.9638188 21.7592686,8.9638188 L21.5488049,8.96381277 C21.0842461,8.96379947 20.6821624,9.28680853 20.5820417,9.7404502 L19.0285102,16.779422 L19.0285102,16.779422 C18.9953596,16.9296222 18.8646062,17.0404383 18.7135312,17.0494122 L18.6937168,17.05 L16.7162413,17.05 C16.6963118,17.05 16.6764911,17.0481946 16.6570224,17.044606 C16.4853416,17.0129601 16.3748316,16.8519565 16.4026349,16.6797519 L16.4062973,16.660578 L17.8830489,9.96964281 C17.9151266,9.82430383 17.847352,9.67899314 17.717142,9.61393369 C17.5624772,9.53665541 17.3710546,9.5964752 17.2799259,9.74713058 L17.269864,9.76491438 L13.5203264,16.8653064 C13.464141,16.9717031 13.3566338,17.0414277 13.2392088,17.0492624 L13.2170855,17.05 L11.6721414,17.05 C11.516427,17.05 11.3869663,16.941364 11.3596065,16.7909555 L11.3567238,16.7719417 L10.457089,9.38186105 C10.4402661,9.243669 10.3375907,9.13439468 10.2008904,9.1091968 C10.0292096,9.07755099 9.85904822,9.18681862 9.81163496,9.35540854 L9.80687811,9.37438073 L8.17251659,16.779422 C8.13936602,16.9296222 8.00861264,17.0404383 7.85753761,17.0494122 L7.83772328,17.05 L7.70162394,17.05 L7.67699614,17.0529818 C7.63217522,17.05721 7.58780213,17.0561144 7.54459888,17.0501399 L7.538469,17.05 C7.51853941,17.05 7.49871877,17.0481946 7.47925006,17.044606 C7.42404173,17.0344294 7.37515911,17.0108759 7.33516754,16.9778746 C7.21850941,16.9102646 7.1258048,16.8016926 7.07971927,16.6661999 L6.38075222,14.6112177 C6.34162648,14.496187 6.40315964,14.3712185 6.51819037,14.3320928 C6.54834622,14.3218358 6.58036971,14.3182493 6.61204744,14.3215813 L6.83940335,14.34548 C7.34039831,14.3981425 7.80105485,14.0661959 7.90962981,13.5742804 L9.53493717,6.21057798 L9.53493717,6.21057798 C9.56808774,6.06037784 9.69884112,5.94956173 9.84991615,5.94058782 L9.86973049,5.94 L12.5392985,5.94 Z" id="路径" fill="#FFFFFF" fill-rule="nonzero"></path>
                        </g>
                        <path d="M45.1396,19.8286 L46.6620713,8.6174 L48.9896,19.8286 L51.3766,19.8286 L56.2794669,8.7868 L54.78,19.8286 L57.8908,19.8286 L59.6579542,6.8156 L56.0081542,6.8156 L51.5973223,16.5022 L49.5555542,6.8156 L45.7671542,6.8156 L44,19.8286 L45.1396,19.8286 Z M68.0702,19.8286 C68.4638757,17.8368667 68.7408803,16.2506667 68.9012138,15.07 C69.1201039,13.4581333 69.2732114,11.8770667 69.3605362,10.3268 L61.5681362,10.3268 C61.2251592,12.0208 60.9588647,13.5659333 60.7692529,14.9622 C60.5810353,16.3482 60.4172177,17.9703333 60.2778,19.8286 L68.0702,19.8286 Z M63.2885915,18.7506 C63.3839018,17.2927333 63.5110267,15.9786 63.669966,14.8082 C63.8386647,13.5659333 64.0440577,12.4314667 64.2861448,11.4048 L66.3497448,11.4048 C66.305133,12.5649333 66.2040546,13.7250667 66.0465095,14.8852 C65.8778107,16.1274667 65.6463714,17.4159333 65.3521915,18.7506 L63.2885915,18.7506 Z M78.1572,19.8286 C78.585606,18.1859333 78.8994947,16.6305333 79.0988659,15.1624 C79.3052082,13.6429333 79.4214316,12.0310667 79.4475362,10.3268 L76.6755362,10.3268 L74.4290405,11.22 L75.0271542,6.8156 L72.1011542,6.8156 L70.334,19.8286 L78.1572,19.8286 Z M73.4063915,18.7506 L74.2701011,12.3904 L76.4241969,11.4972 C76.4102577,12.4314667 76.313172,13.6378 76.1329399,15.1162 C75.9307802,16.6048667 75.7149307,17.8163333 75.4853915,18.7506 L73.4063915,18.7506 Z M84.866432,9.4336 L85.2219542,6.8156 L82.2959542,6.8156 L81.940432,9.4336 L84.866432,9.4336 Z M83.4548,19.8286 L84.7451362,10.3268 L81.8191362,10.3268 L80.5288,19.8286 L83.4548,19.8286 Z M88.5984,19.8286 L90.4943088,19.1356 L90.6407003,18.0576 L88.8392828,18.7352 L89.8347448,11.4048 L91.5441448,11.4048 L91.6905362,10.3268 L89.9811362,10.3268 L90.3115627,7.8936 L87.3855627,7.8936 L87.0551362,10.3268 L86.2081362,10.3268 L86.0617448,11.4048 L86.9087448,11.4048 L85.7648,19.8286 L88.5984,19.8286 Z M94.4812,19.8286 L95.4703881,12.5444 L98.1032143,11.528 L98.2663362,10.3268 L95.6293274,11.374 L95.7715362,10.3268 L92.8455362,10.3268 L91.5552,19.8286 L94.4812,19.8286 Z M102.468632,9.4336 L102.824154,6.8156 L99.8981542,6.8156 L99.542632,9.4336 L102.468632,9.4336 Z M101.057,19.8286 L102.347336,10.3268 L99.4213362,10.3268 L98.131,19.8286 L101.057,19.8286 Z M103.9676,19.8286 L106.648331,16.8718 L108.0948,19.8286 L111.6676,19.8286 L108.95414,14.4078 L112.619136,10.3268 L110.986736,10.3268 L108.360571,13.222 L106.921136,10.3268 L103.502336,10.3268 L106.061035,15.6398 L102.2428,19.8286 L103.9676,19.8286 Z M123.7566,19.8286 L124.415183,18.381 L127.34344,11.22 L128.2534,19.8286 L130.625,19.8286 L136.011154,6.8156 L134.717554,6.8156 L130.89097,16.0556 L129.897354,6.8156 L127.849154,6.8156 L124.123335,15.994 L123.013554,6.8156 L119.748754,6.8156 L121.3696,19.8286 L123.7566,19.8286 Z M138.325,19.8286 L139.335101,12.3904 L141.550797,11.4972 L140.4194,19.8286 L143.3454,19.8286 L144.635736,10.3268 L141.802136,10.3268 L139.49404,11.22 L140.092154,6.8156 L137.166154,6.8156 L135.399,19.8286 L138.325,19.8286 Z M148.4582,19.8286 L150.750896,18.9354 L150.6296,19.8286 L153.3862,19.8286 L154.344231,19.3512 L154.50317,18.1808 L153.720813,18.612 L154.845936,10.3268 L147.022736,10.3268 C146.637551,11.6512 146.350152,13.0115333 146.16054,14.4078 C145.963957,15.8554 145.821244,17.6623333 145.7324,19.8286 L148.4582,19.8286 Z M148.759922,18.6274 C148.752821,17.6212667 148.853138,16.3533333 149.060875,14.8236 C149.240727,13.4992 149.46735,12.3596 149.740745,11.4048 L151.773545,11.4048 L150.909835,17.765 L148.759922,18.6274 Z M158.576,19.8286 L160.471909,19.1356 L160.6183,18.0576 L158.816883,18.7352 L159.812345,11.4048 L161.521745,11.4048 L161.668136,10.3268 L159.958736,10.3268 L160.289163,7.8936 L157.363163,7.8936 L157.032736,10.3268 L156.185736,10.3268 L156.039345,11.4048 L156.886345,11.4048 L155.7424,19.8286 L158.576,19.8286 Z M168.74,19.8286 C169.071699,18.8224667 169.294013,17.9036 169.406944,17.072 C169.524057,16.2096 169.545031,15.3369333 169.469866,14.454 L165.034666,14.454 C164.987768,14.0433333 165.001265,13.5659333 165.075158,13.0218 C165.174146,12.2928667 165.298675,11.7538667 165.448745,11.4048 L169.791545,11.4048 L169.937936,10.3268 L162.730736,10.3268 C162.456707,10.9838667 162.252074,11.8103333 162.116836,12.8062 C161.981598,13.8020667 161.950611,14.7106667 162.023875,15.532 L166.459075,15.532 C166.530689,15.9118667 166.522579,16.4252 166.434744,17.072 C166.348303,17.7085333 166.210719,18.2680667 166.021991,18.7506 L161.525191,18.7506 L161.3788,19.8286 L168.74,19.8286 Z M171.0962,19.8286 L172.709957,16.5638 L177.237557,16.5638 L177.8876,19.8286 L181.1524,19.8286 L178.592154,6.8156 L176.220554,6.8156 L169.8026,19.8286 L171.0962,19.8286 Z M177.029748,15.4858 L173.241348,15.4858 L175.941654,10.0034 L177.029748,15.4858 Z M184.756582,23.3398 L185.2334,19.8286 L190.1306,19.8286 C190.543163,18.227 190.856798,16.6356667 191.071505,15.0546 C191.286213,13.4735333 191.40269,11.8976 191.420936,10.3268 L188.648936,10.3268 L186.40244,11.22 L186.523736,10.3268 L183.597736,10.3268 L181.830582,23.3398 L184.756582,23.3398 Z M185.379791,18.7506 L186.243501,12.3904 L188.397597,11.4972 C188.383658,12.4314667 188.286572,13.6378 188.10634,15.1162 C187.90418,16.6048667 187.688331,17.8163333 187.458791,18.7506 L185.379791,18.7506 Z M194.951382,23.3398 L195.4282,19.8286 L200.3254,19.8286 C200.737963,18.227 201.051598,16.6356667 201.266305,15.0546 C201.481013,13.4735333 201.59749,11.8976 201.615736,10.3268 L198.843736,10.3268 L196.59724,11.22 L196.718536,10.3268 L193.792536,10.3268 L192.025382,23.3398 L194.951382,23.3398 Z M195.574591,18.7506 L196.438301,12.3904 L198.592397,11.4972 C198.578458,12.4314667 198.481372,13.6378 198.30114,15.1162 C198.09898,16.6048667 197.883131,17.8163333 197.653591,18.7506 L195.574591,18.7506 Z M215.0632,19.8286 L216.688145,7.8628 L220.784545,7.8628 L220.926754,6.8156 L209.623154,6.8156 L209.480945,7.8628 L213.577345,7.8628 L211.9524,19.8286 L215.0632,19.8286 Z M223.2406,19.8286 L224.229788,12.5444 L226.862614,11.528 L227.025736,10.3268 L224.388727,11.374 L224.530936,10.3268 L221.604936,10.3268 L220.3146,19.8286 L223.2406,19.8286 Z M229.8472,19.8286 L232.139896,18.9354 L232.0186,19.8286 L234.7752,19.8286 L235.733231,19.3512 L235.89217,18.1808 L235.109813,18.612 L236.234936,10.3268 L228.411736,10.3268 C228.026551,11.6512 227.739152,13.0115333 227.54954,14.4078 C227.352957,15.8554 227.210244,17.6623333 227.1214,19.8286 L229.8472,19.8286 Z M230.148922,18.6274 C230.141821,17.6212667 230.242138,16.3533333 230.449875,14.8236 C230.629727,13.4992 230.85635,12.3596 231.129745,11.4048 L233.162545,11.4048 L232.298835,17.765 L230.148922,18.6274 Z M239.9034,19.8286 L240.913501,12.3904 L243.129197,11.4972 L241.9978,19.8286 L244.9238,19.8286 L246.214136,10.3268 L243.380536,10.3268 L241.07244,11.22 L241.193736,10.3268 L238.267736,10.3268 L236.9774,19.8286 L239.9034,19.8286 Z M254.287,19.8286 C254.618699,18.8224667 254.841013,17.9036 254.953944,17.072 C255.071057,16.2096 255.092031,15.3369333 255.016866,14.454 L250.581666,14.454 C250.534768,14.0433333 250.548265,13.5659333 250.622158,13.0218 C250.721146,12.2928667 250.845675,11.7538667 250.995745,11.4048 L255.338545,11.4048 L255.484936,10.3268 L248.277736,10.3268 C248.003707,10.9838667 247.799074,11.8103333 247.663836,12.8062 C247.528598,13.8020667 247.497611,14.7106667 247.570875,15.532 L252.006075,15.532 C252.077689,15.9118667 252.069579,16.4252 251.981744,17.072 C251.895303,17.7085333 251.757719,18.2680667 251.568991,18.7506 L247.072191,18.7506 L246.9258,19.8286 L254.287,19.8286 Z M259.7386,19.8286 L260.882545,11.4048 L262.899945,11.4048 L263.046336,10.3268 L261.028936,10.3268 L261.346815,7.986 L263.412315,7.6318 L263.552432,6.6 L258.506558,7.3546 L258.102936,10.3268 L256.947936,10.3268 L256.801545,11.4048 L257.956545,11.4048 L256.8126,19.8286 L259.7386,19.8286 Z M271.0422,19.8286 L271.188591,18.7506 L265.983391,18.7506 L266.371805,16.1172 L271.545253,15.6706 C271.820549,14.7774 272.02233,13.8585333 272.150597,12.914 C272.252374,12.1645333 272.292487,11.3021333 272.270936,10.3268 L264.201336,10.3268 L262.911,19.8286 L271.0422,19.8286 Z M266.485305,15.0546 L266.980945,11.4048 L269.260145,11.4048 C269.288032,12.0310667 269.266423,12.606 269.195318,13.1296 C269.129791,13.6121333 268.996643,14.1768 268.795875,14.8236 L266.485305,15.0546 Z M276.001,19.8286 L276.990188,12.5444 L279.623014,11.528 L279.786136,10.3268 L277.149127,11.374 L277.291336,10.3268 L274.365336,10.3268 L273.075,19.8286 L276.001,19.8286 Z" id="MobitrixWhatsAppTransfer" fill="#333333" fill-rule="nonzero"></path>
                    </g>
                </g>
            </g>
        </g>
    </g>
</svg>