<?xml version="1.0" encoding="UTF-8"?>
<svg width="117px" height="61px" viewBox="0 0 117 61" version="1.1" xmlns="http://www.w3.org/2000/svg" xmlns:xlink="http://www.w3.org/1999/xlink">
    <!-- Generator: Sketch 62 (91390) - https://sketch.com -->
    <title>secure</title>
    <desc>Created with Sketch.</desc>
    <defs>
        <rect id="path-1" x="0" y="0" width="117" height="60.3" rx="5.4"></rect>
    </defs>
    <g id="页面-1" stroke="none" stroke-width="1" fill="none" fill-rule="evenodd">
        <g id="重构-购买页面" transform="translate(-1191.000000, -160.000000)">
            <g id="编组-9" transform="translate(1191.000000, 160.000000)">
                <g id="secure">
                    <mask id="mask-2" fill="white">
                        <use xlink:href="#path-1"></use>
                    </mask>
                    <use id="矩形" fill="#FFFFFF" xlink:href="#path-1"></use>
                    <path d="M0,42.3 L117,42.3 L117,51.3 C117,56.2705627 112.970563,60.3 108,60.3 L9,60.3 C4.02943725,60.3 6.08718376e-16,56.2705627 0,51.3 L0,42.3 L0,42.3 Z" id="矩形" fill="#FAFAFA" mask="url(#mask-2)"></path>
                    <g id="锁-1" mask="url(#mask-2)">
                        <g transform="translate(17.550000, 11.700000)" id="编组-2">
                            <g>
                                <path d="M7.08818999,0.944999957 C9.64275073,0.944999957 11.7190809,2.98066172 11.7190809,5.48391248 L11.7190809,5.48391248 L11.7190809,8.47302795 L13.0308974,8.47302795 C13.6628302,8.47298774 14.1749994,8.97461501 14.1749994,9.5938985 L14.1749994,9.5938985 L14.1749994,17.7777212 C14.1749994,18.3979698 13.6640048,18.8999991 13.0320719,18.8999991 L13.0320719,18.8999991 L1.14430803,18.8999991 C0.512375194,18.8999991 0,18.3979296 0,17.7777212 L0,17.7777212 L0,9.5938985 C0,8.97465522 0.512375194,8.47298774 1.14430803,8.47298774 L1.14430803,8.47298774 L2.45472331,8.47298774 L2.45472331,5.48409343 C2.45472331,2.98066172 4.53342318,0.944999957 7.08818999,0.944999957 Z M10.4257829,11.2983659 C10.1396825,11.0312228 9.69119006,11.0465908 9.424047,11.3326912 L9.424047,11.3326912 L6.13210472,14.8572893 L4.70902901,13.5725927 L4.62613096,13.5081245 C4.33850072,13.3167141 3.94643907,13.3596995 3.70801731,13.6238627 C3.44575338,13.9144423 3.46870774,14.3626105 3.7592873,14.6248744 L3.7592873,14.6248744 L5.70030574,16.3767496 L5.78219456,16.4405395 C6.06627903,16.6302674 6.45325056,16.5912988 6.69320718,16.3343141 L6.69320718,16.3343141 L10.4601082,12.3001018 L10.5259698,12.2183064 C10.7222196,11.9339561 10.6858742,11.5412232 10.4257829,11.2983659 Z M7.0891997,2.76046846 C5.51578645,2.76046846 4.23415816,4.01614506 4.23415816,5.55804073 L4.23415816,5.55804073 L4.23415816,8.47302795 L9.94207758,8.47302795 L9.94207758,5.55804073 C9.94207758,4.01612495 8.662819,2.76046846 7.0891997,2.76046846 Z" id="形状结合" fill="#5BC613" fill-rule="nonzero"></path>
                                <text id="SECURE" font-family="PingFangSC-Semibold, PingFang SC" font-size="15.1199993" font-weight="500" fill="#000000">
                                    <tspan x="20.5216191" y="16">SECURE</tspan>
                                </text>
                            </g>
                        </g>
                    </g>
                    <text id="SSL-ENCRYPTION" mask="url(#mask-2)" font-family="PingFangSC-Regular, PingFang SC" font-size="8" font-weight="normal" line-spacing="8" letter-spacing="0.300000012" fill="#666666">
                        <tspan x="22" y="55">SSL ENCRYPTION</tspan>
                    </text>
                </g>
            </g>
        </g>
    </g>
</svg>