<svg xmlns="http://www.w3.org/2000/svg" viewBox="0 0 91.33 91.33"><defs><style>.cls-1{fill:#ffab57;}.cls-2{fill:#fff;}</style></defs><title>Steps</title><g id="图层_2" data-name="图层 2"><g id="图层_1-2" data-name="图层 1"><rect class="cls-1" width="91.33" height="91.33" rx="45.66" ry="45.66"/><path class="cls-2" d="M50.24,44.34a14.94,14.94,0,0,1,4.65,1.09A13.69,13.69,0,0,1,59,48a12.86,12.86,0,0,1,2.93,4,12.52,12.52,0,0,1,1.13,5.43,16.57,16.57,0,0,1-1.33,6.76,14.88,14.88,0,0,1-3.67,5.12,16.19,16.19,0,0,1-5.63,3.24,21.93,21.93,0,0,1-7.19,1.13,18.16,18.16,0,0,1-7.78-1.52,17,17,0,0,1-5.32-3.75,14.35,14.35,0,0,1-3-4.73,11.73,11.73,0,0,1-.86-4.53A4.28,4.28,0,0,1,29.68,56a4.57,4.57,0,0,1,3.13-1.17,6.18,6.18,0,0,1,1.49.2,4.76,4.76,0,0,1,1.49.66A4.49,4.49,0,0,1,37,56.88a3.8,3.8,0,0,1,.59,1.92,7,7,0,0,0,.55,2.07A6.79,6.79,0,0,0,39.53,63,7.5,7.5,0,0,0,42,64.62a9.26,9.26,0,0,0,3.71.66,7.3,7.3,0,0,0,3.09-.66,8.16,8.16,0,0,0,2.5-1.76,7.7,7.7,0,0,0,1.64-2.62,8.74,8.74,0,0,0,.59-3.17,6.91,6.91,0,0,0-.86-3.52,7.23,7.23,0,0,0-2.27-2.42,9.9,9.9,0,0,0-3.17-1.37,15.29,15.29,0,0,0-3.63-.43,5,5,0,0,1-3.28-1.25,4.62,4.62,0,0,1-1.49-3.75,4.28,4.28,0,0,1,4.46-4.46,6.61,6.61,0,0,0,2.77-.63,8.28,8.28,0,0,0,4.1-4.1,6.62,6.62,0,0,0,.63-2.78,6.77,6.77,0,0,0-1.84-4.89,5.73,5.73,0,0,0-8.56,0,6.91,6.91,0,0,0-1.64,4.65,3.57,3.57,0,0,1-1.21,2.7A5.28,5.28,0,0,1,33.83,36a3.6,3.6,0,0,1-2.77-1.25,4.7,4.7,0,0,1-1.13-3.28,13.37,13.37,0,0,1,1.17-5.67,13.16,13.16,0,0,1,3.24-4.38,14.54,14.54,0,0,1,4.81-2.81,17.31,17.31,0,0,1,5.86-1,21,21,0,0,1,5.78.78,14.14,14.14,0,0,1,4.85,2.42A11.46,11.46,0,0,1,59,25a13.77,13.77,0,0,1,1.21,6,13.3,13.3,0,0,1-.82,4.85,14,14,0,0,1-2.15,3.75A13.15,13.15,0,0,1,54,42.38,22.74,22.74,0,0,1,50.24,44.34Z"/></g></g></svg>