<svg xmlns="http://www.w3.org/2000/svg" viewBox="0 0 91.33 91.33"><defs><style>.cls-1{fill:#ffab57;}.cls-2{fill:#fff;}</style></defs><title>资源 5</title><g id="图层_2" data-name="图层 2"><g id="图层_1-2" data-name="图层 1"><rect class="cls-1" width="91.33" height="91.33" rx="45.66" ry="45.66"/><path class="cls-2" d="M54.11,50.91a24.17,24.17,0,0,1,2.49,1.14,2,2,0,0,1-1.91,3.62,20.19,20.19,0,0,0-29.22,14,2,2,0,0,1-4-.78,24.26,24.26,0,0,1,15-18,18.09,18.09,0,1,1,17.67,0Zm5.16-15.78a14,14,0,1,0-14,14A14,14,0,0,0,59.27,35.13Zm.92,25V54a2,2,0,1,1,4.1,0v6.14h6.08a2,2,0,0,1,0,4.09H64.29v6.07a2,2,0,1,1-4.1,0V64.26H54a2,2,0,0,1,0-4.09h6.15Z"/></g></g></svg>