<svg xmlns="http://www.w3.org/2000/svg" viewBox="0 0 91.33 91.33"><defs><style>.cls-1{fill:#4b9afc;}.cls-2{fill:#fff;}</style></defs><title>资源 3</title><g id="图层_2" data-name="图层 2"><g id="图层_1-2" data-name="图层 1"><rect class="cls-1" width="91.33" height="91.33" rx="45.66" ry="45.66"/><path class="cls-2" d="M51.5,54.68h0A12.89,12.89,0,0,0,41,55.23a15.86,15.86,0,0,1-5.85-8.71c3.11-2,7.71-6.69,4.71-15.93C38.3,26,36.06,23.17,33,21.81a10.65,10.65,0,0,0-8.54.58h-.12l0,0c-.11.05-10.65,6.51-6.74,23.59S33.47,73.86,43,76.52a17.49,17.49,0,0,0,4.79.72h.48a13,13,0,0,0,8.92-3.51,9.62,9.62,0,0,0,2.3-9.91A13.4,13.4,0,0,0,51.5,54.68ZM32.26,46.11a18.43,18.43,0,0,0,8,12,1.38,1.38,0,0,0,1.38,0,10.07,10.07,0,0,1,8.84-.82,10.8,10.8,0,0,1,6.19,7.25,7,7,0,0,1-1.5,7.27c-2.54,2.54-7,3.36-11.44,2.09-7.58-2.1-19.92-12.32-23.6-28.45-3-13.23,2-18.5,5.33-20.46l.15-.09a7.9,7.9,0,0,1,6.25-.47c2.26.91,4,3.24,5.35,7.12,1.18,3.5,1.15,6.55-.1,9a8.67,8.67,0,0,1-4.07,4A1.38,1.38,0,0,0,32.26,46.11Z"/><path class="cls-2" d="M69.56,29.06a24.81,24.81,0,0,0-20-10.46h0a24,24,0,0,0-9.78,2,1.38,1.38,0,1,0,1.08,2.49A22,22,0,0,1,62,61.35a1.38,1.38,0,0,0-.28,1.93,1.38,1.38,0,0,0,1.1.55h0l.74-.25,0,0A24.78,24.78,0,0,0,69.56,29.06Z"/><path class="cls-2" d="M47.11,32H47a2.92,2.92,0,0,0-2.54,3.25v0A2.92,2.92,0,0,0,47,38.55h.09a2.92,2.92,0,0,0,2.54-3.25v0A2.92,2.92,0,0,0,47.11,32Z"/><path class="cls-2" d="M61.55,44.78l0,0a1.39,1.39,0,0,0-1.94,0,5.61,5.61,0,0,1-4.22,2.07,5.48,5.48,0,0,1-3.55-1.94,1.38,1.38,0,1,0-2.2,1.66,8.22,8.22,0,0,0,5.49,2.92h.37a8.53,8.53,0,0,0,5.94-2.9A1.37,1.37,0,0,0,61.55,44.78Z"/><path class="cls-2" d="M64.94,33.15A2.9,2.9,0,0,0,63,32h-.09a2.92,2.92,0,0,0-2.54,3.25v0a2.92,2.92,0,0,0,2.49,3.27H63a2.92,2.92,0,0,0,2.54-3.25v0A2.9,2.9,0,0,0,64.94,33.15Z"/></g></g></svg>