<svg xmlns="http://www.w3.org/2000/svg" xmlns:xlink="http://www.w3.org/1999/xlink" viewBox="0 0 156.67 160.95"><defs><style>.cls-1{fill:none;}.cls-2{fill:#ffac9d;}.cls-3{fill:#e08880;}.cls-4{fill:#5996bf;}.cls-5{clip-path:url(#clip-path);}.cls-6{fill:#fff;}.cls-7{fill:#f7cfb6;}.cls-8{fill:#ffdebf;}.cls-9{fill:#352836;}</style><clipPath id="clip-path"><path class="cls-1" d="M9.88,130.62c2.2-5.85,8.48-10.59,15.89-14.48,13.24,9,32,14.56,52.84,14.56s39.59-5.6,52.83-14.56c7.41,3.89,13.7,8.62,15.89,14.48a174.86,174.86,0,0,1,8.31,30.32H1.58A174.87,174.87,0,0,1,9.88,130.62Z"/></clipPath></defs><title>资源 11</title><g id="图层_2" data-name="图层 2"><g id="图层_1-2" data-name="图层 1"><path class="cls-2" d="M11.13,130.84c5.95-16,42.31-23.61,48.68-28.24C68,96.65,65.39,77,65.39,77l13.38.35L92.15,77s-2.6,19.7,5.57,25.64c6.37,4.63,42.74,12.26,48.68,28.24a174.81,174.81,0,0,1,8.18,30.1H3A174.81,174.81,0,0,1,11.13,130.84Z"/><path class="cls-3" d="M94.63,98.93c-6.26-.64-12.56-1.91-18-5a61.43,61.43,0,0,1-10.88-7.8A60.76,60.76,0,0,0,65.39,77l13.38.35L92.15,77S90.3,91,94.63,98.93Z"/><path class="cls-4" d="M9.88,130.62c2.2-5.85,8.48-10.59,15.89-14.48,13.24,9,32,14.56,52.84,14.56s39.59-5.6,52.83-14.56c7.41,3.89,13.7,8.62,15.89,14.48a174.86,174.86,0,0,1,8.31,30.32H1.58A174.87,174.87,0,0,1,9.88,130.62Z"/><g class="cls-5"><rect class="cls-6" y="133.07" width="156.67" height="4"/><rect class="cls-6" y="143.18" width="156.67" height="4"/><rect class="cls-6" y="122.96" width="156.67" height="4"/><rect class="cls-6" y="153.29" width="156.67" height="4"/></g><path class="cls-7" d="M80,80.63l4.33,2.67s20.33-.67,26.33-13.67-13-21.33-13-21.33L81,79.29"/><path class="cls-8" d="M71,6S54.67-.71,46,19.63s-9.67,48.33,6,60L51.33,75s4,7.67,16.33,7.33S71,6,71,6Z"/><path class="cls-7" d="M40.67,59.51C42.2,67.79,45.78,75,52,79.63L51.33,75s4,7.67,16.33,7.33c2.69-.07,4.37-3.75,5.34-9.45C61.47,72.89,49.36,67.68,40.67,59.51Z"/><path class="cls-3" d="M57,46.25c-2.16-6.7-7.28-5.15-7.76-5s-5.79.84-4.88,7.83,5,10.83,8.82,9.71C57.09,58.18,59.15,53,57,46.25Z"/><path class="cls-2" d="M52.51,35.71C55.19,6.32,77.53,8,79.64,8.19c2.11-.22,24.45-1.87,27.13,27.52,2.69,29.56-10.47,48.87-27.13,47.81C63,84.58,49.82,65.27,52.51,35.71Z"/><path class="cls-3" d="M80.49,45.74a44.85,44.85,0,0,1,1.35,5.75c.33,1.93.59,3.88.76,5.83l0,.25-.16.13q-.88.76-1.8,1.48c-.63.46-1.23,1-1.88,1.39.47-.63,1-1.2,1.49-1.8s1-1.16,1.57-1.72l-.13.39c-.39-1.92-.68-3.86-.91-5.81A44.84,44.84,0,0,1,80.49,45.74Z"/><path class="cls-3" d="M89.26,66a15.57,15.57,0,0,1-9.76,3.34,14.32,14.32,0,0,1-5.18-1A13.18,13.18,0,0,1,70,65.45a25,25,0,0,0,4.67,1.93,18.44,18.44,0,0,0,4.87.72,20.43,20.43,0,0,0,4.92-.54A33.71,33.71,0,0,0,89.26,66Z"/><ellipse class="cls-9" cx="91.7" cy="46.18" rx="1.83" ry="4.01"/><ellipse class="cls-9" cx="66.49" cy="46.18" rx="1.83" ry="4.01"/><path class="cls-9" d="M98,39.63A35.18,35.18,0,0,0,94.77,38a10.27,10.27,0,0,0-3.14-.86,6.69,6.69,0,0,0-3.11.42,11.66,11.66,0,0,0-1.6.68c-.54.27-1,.62-1.67.89a9.17,9.17,0,0,1,1-1.7A7.07,7.07,0,0,1,87.76,36,6,6,0,0,1,91.82,35a7.34,7.34,0,0,1,3.82,1.55A7.59,7.59,0,0,1,98,39.63Z"/><path class="cls-9" d="M72.65,39.63A35.17,35.17,0,0,0,69.38,38a10.27,10.27,0,0,0-3.14-.86,6.69,6.69,0,0,0-3.11.42,11.66,11.66,0,0,0-1.6.68c-.54.27-1,.62-1.67.89a9.17,9.17,0,0,1,1-1.7A7.07,7.07,0,0,1,62.36,36,6,6,0,0,1,66.43,35a7.34,7.34,0,0,1,3.82,1.55A7.59,7.59,0,0,1,72.65,39.63Z"/><path class="cls-8" d="M64,16.29S65.33,33,83,34.63c0,0-4.33-2.67-6-6.33a35.49,35.49,0,0,0,13,4.33l-1.67-5S100.67,33,100,46.29c0,0,3.67-3.67,3.67-8.33,0,0,3.67,25.33-5.67,44a26.89,26.89,0,0,0,12.67-9.33l-3.33,6.67s9-5,11.67-14.33,4.56-43.38-11.33-56C96.33,0,66-8.37,64,16.29Z"/><path class="cls-3" d="M111.1,45.34a4.93,4.93,0,0,1,3.51,5.11A11.09,11.09,0,0,1,108,60.7,103.38,103.38,0,0,0,111.1,45.34Z"/><path class="cls-8" d="M47.67,35.63s-2,15.33,5.33,20c0,0-1.33-32,11-39.33s.33-7,.33-7S51.67,10,47.67,35.63Z"/></g></g></svg>