<svg xmlns="http://www.w3.org/2000/svg" viewBox="0 0 152.74 177.33"><defs><style>.cls-1{fill:#ff9c7b;}.cls-2{fill:#ef8970;}.cls-3{fill:#ff6a59;}.cls-4{fill:#ff8278;}.cls-5{fill:#c66e57;}.cls-6{fill:#352836;}.cls-7{fill:#a9534f;}.cls-8{fill:#1d161e;opacity:0.3;}</style></defs><title>资源 8</title><g id="图层_2" data-name="图层 2"><g id="图层_1-2" data-name="图层 1"><path class="cls-1" d="M9.29,147.23c5.95-16,42.31-23.61,48.68-28.24,8.18-5.95,5.57-25.64,5.57-25.64l13.38.35,13.38-.35S87.7,113,95.88,119c6.37,4.63,42.74,12.26,48.68,28.24a174.81,174.81,0,0,1,8.18,30.1H1.11A174.81,174.81,0,0,1,9.29,147.23Z"/><path class="cls-2" d="M92.78,115.31c-6.26-.64-12.56-1.91-18-5a61.43,61.43,0,0,1-10.88-7.8,60.76,60.76,0,0,0-.35-9.21l13.38.35,13.38-.35S88.45,107.36,92.78,115.31Z"/><path class="cls-3" d="M8.24,147c5.79-15.57,40.23-23.27,48.3-28a44.89,44.89,0,0,0,22.54,5.89,45.45,45.45,0,0,0,20-4.51c11.31,4.81,40.19,12.46,45.45,26.6a176.1,176.1,0,0,1,8.24,30.32H0A176.09,176.09,0,0,1,8.24,147Z"/><path class="cls-4" d="M13.32,139.82A19.42,19.42,0,0,0,8.24,147,176.09,176.09,0,0,0,0,177.33H26.94C24.52,159.29,18.34,147.09,13.32,139.82Z"/><path class="cls-4" d="M144.5,147a18.26,18.26,0,0,0-4-6.13c-6.09,8.46-10.82,24.84-13.51,36.45h25.76A176.1,176.1,0,0,0,144.5,147Z"/><path class="cls-4" d="M79.12,131.6a46.65,46.65,0,0,0,26.39-8.71c-2.48-.91-4.69-1.73-6.46-2.49a45.44,45.44,0,0,1-20,4.51A44.89,44.89,0,0,1,56.54,119a45.4,45.4,0,0,1-6.1,2.67C55.18,126,64.52,132,79.12,131.6Z"/><path class="cls-2" d="M99.39,62.64c2.16-6.7,7.28-5.15,7.76-5s5.79.84,4.88,7.83-5,10.83-8.82,9.71C99.27,74.56,97.22,69.38,99.39,62.64Z"/><path class="cls-2" d="M55.13,62.64c-2.16-6.7-7.28-5.15-7.76-5s-5.79.84-4.88,7.83,5,10.83,8.82,9.71C55.25,74.56,57.31,69.38,55.13,62.64Z"/><path class="cls-1" d="M50.67,52.09c2.68-29.39,25-27.74,27.13-27.52,2.11-.22,24.45-1.87,27.13,27.52C107.62,81.65,94.45,101,77.8,99.9,61.15,101,48,81.65,50.67,52.09Z"/><path class="cls-5" d="M79.87,62.12a44.84,44.84,0,0,1,1.35,5.75c.33,1.93.59,3.88.76,5.83L82,74l-.16.13q-.88.76-1.8,1.48c-.63.46-1.23,1-1.88,1.39.47-.63,1-1.2,1.49-1.8s1-1.16,1.57-1.72l-.13.39c-.39-1.92-.68-3.86-.91-5.81A44.84,44.84,0,0,1,79.87,62.12Z"/><path class="cls-5" d="M87.19,83.55a13.92,13.92,0,0,1-8.6,3.32,12.8,12.8,0,0,1-4.66-.75,11.9,11.9,0,0,1-4-2.39,18.32,18.32,0,0,0,8.62,2A22.26,22.26,0,0,0,87.19,83.55Z"/><ellipse class="cls-6" cx="89.86" cy="62.57" rx="1.83" ry="4.01"/><ellipse class="cls-6" cx="64.65" cy="62.57" rx="1.83" ry="4.01"/><path class="cls-6" d="M96.2,56a35.18,35.18,0,0,0-3.27-1.67,10.28,10.28,0,0,0-3.14-.86,6.69,6.69,0,0,0-3.11.42,11.66,11.66,0,0,0-1.6.68c-.54.27-1,.62-1.67.89a9.17,9.17,0,0,1,1-1.7,7.07,7.07,0,0,1,1.5-1.36A6,6,0,0,1,90,51.36a7.34,7.34,0,0,1,3.82,1.55A7.59,7.59,0,0,1,96.2,56Z"/><path class="cls-6" d="M70.81,56a35.17,35.17,0,0,0-3.27-1.67,10.28,10.28,0,0,0-3.14-.86,6.69,6.69,0,0,0-3.11.42,11.66,11.66,0,0,0-1.6.68c-.54.27-1,.62-1.67.89a9.17,9.17,0,0,1,1-1.7,7.07,7.07,0,0,1,1.5-1.36,6,6,0,0,1,4.06-1.06,7.35,7.35,0,0,1,3.82,1.55A7.6,7.6,0,0,1,70.81,56Z"/><path class="cls-7" d="M50.75,67.56c1-.08.8-.16,1.78-.23L54,49.5C57.78,46,57,36,57,36c17.5,3.5,33-3.5,33-3.5,2,12,10.75,12.5,10.75,12.5l1.75,21.09c1.1,0,1.37-.11,2.47-.17.64-11.22,1.59-32,.53-41.92-1.5-14-18-21.75-18-21.75a63.23,63.23,0,0,0,2.79,5.68A36.61,36.61,0,0,0,72.53,0c2.68,3.49,6.22,7.54,8.93,10.56C70.87,1,56.53,1,56.53,1c2.83,1.7,7.09,5.63,10.26,8.72C59.22,3.85,49.53,3.5,49.53,3.5l4,12.5c-2.5-2.5-9-4.25-9-4.25-1.5,11.75,5,22.75,5,22.75Z"/><path class="cls-8" d="M105.53,24c-.71-6.61-4.76-11.82-8.84-15.49A50.45,50.45,0,0,1,77,36.15,57.83,57.83,0,0,0,90,32.5c2,12,10.75,12.5,10.75,12.5l1.75,21.09c1.1,0,1.37-.11,2.47-.17C105.64,54.7,106.6,33.94,105.53,24Z"/></g></g></svg>