<svg xmlns="http://www.w3.org/2000/svg" xmlns:xlink="http://www.w3.org/1999/xlink" viewBox="0 0 214.31 137.46"><defs><style>.cls-1{isolation:isolate;}.cls-2{fill:url(#未命名的渐变_44);}.cls-3{fill:#b8b8b8;}.cls-4{fill:url(#未命名的渐变_89);}.cls-5{fill:url(#未命名的渐变_98);}.cls-6{fill:url(#未命名的渐变_41);}.cls-7{fill:#fbfbfb;}.cls-8{fill:#fff;opacity:0.5;}</style><linearGradient id="未命名的渐变_44" x1="-11148.34" y1="62.86" x2="-11069.5" y2="62.86" gradientTransform="matrix(-1, 0, 0, 1, -10934.03, 0)" gradientUnits="userSpaceOnUse"><stop offset="0" stop-color="#ff9d22"/><stop offset="1" stop-color="#ff6422"/></linearGradient><linearGradient id="未命名的渐变_89" x1="-11121.99" y1="8.15" x2="-11038.73" y2="93.05" gradientTransform="matrix(-1, 0, 0, 1, -10934.03, 0)" gradientUnits="userSpaceOnUse"><stop offset="0" stop-color="#ffdf6c"/><stop offset="0.59" stop-color="#ffae1a"/><stop offset="0.69" stop-color="#ff9122"/><stop offset="0.98" stop-color="#ff7022"/></linearGradient><linearGradient id="未命名的渐变_98" x1="-11034.53" y1="69.62" x2="-11044.83" y2="98.56" gradientTransform="matrix(-1, 0, 0, 1, -10934.03, 0)" gradientUnits="userSpaceOnUse"><stop offset="0" stop-color="#ff9d22"/><stop offset="1" stop-color="#ff3116"/></linearGradient><linearGradient id="未命名的渐变_41" x1="-11235.76" y1="-328.19" x2="-11196.11" y2="-328.19" gradientTransform="matrix(-1, -0.07, -0.07, 1, -11113.9, -389.01)" gradientUnits="userSpaceOnUse"><stop offset="0" stop-color="#ffdf6c"/><stop offset="0.98" stop-color="#ff7022"/></linearGradient></defs><title>video</title><g id="图层_2" data-name="图层 2"><g id="图层_1-2" data-name="图层 1"><g class="cls-1"><path class="cls-2" d="M146.15,52.46c-5.89,3.4-10.7,11.73-10.68,18.5l.08,29.22c0,6.77,4.86,9.52,10.75,6.12l57.33-33.05c5.89-3.4,10.7-11.72,10.68-18.49l-.08-29.22c0-6.77-4.86-9.53-10.75-6.13Z"/><polygon class="cls-3" points="138.69 107.04 138.69 107.04 138.69 107.04 138.69 107.04"/><path class="cls-4" d="M104.58,52.53s0-.06,0-.09,0-.13,0-.19,0-.15,0-.22,0-.12,0-.18l0-.2V51.5c0-.1,0-.21,0-.31l0-.16v0q0-.27.08-.53v0l0-.11c0-.13,0-.27.07-.4l0-.09,0-.22,0-.24,0-.16.05-.23,0-.17.06-.23.06-.23,0-.1.1-.34.05-.18v0l.18-.56v0l0-.1.15-.43,0-.09.07-.19L106,46l.07-.18.08-.21.06-.14.13-.31.07-.15,0,0,.24-.52v0l.08-.17.18-.37,0-.07.17-.32.13-.25,0,0q.23-.42.47-.83l0-.07,0-.08q.34-.58.72-1.14l0-.06.07-.1c.2-.29.4-.58.61-.87h0l.08-.1.37-.49,0,0,.28-.35.12-.15h0l.41-.48h0l.1-.11L111,38l0,0,.18-.19.22-.23.07-.07.2-.2.18-.18L112,37l.22-.2.16-.15.11-.1.22-.19.14-.12.14-.11.22-.18.12-.1.18-.14.2-.15.09-.07.24-.17.17-.12,0,0,.45-.3h0l.44-.27.1-.06L172.59,1.46l.34-.19.13-.07.17-.09.13-.07.22-.1.15-.07.06,0,.43-.18h0l0,0,.38-.14.06,0,.16-.05.2-.07.12,0,.19-.05.14,0,.16,0,.19,0,.09,0,.19,0,.21,0h.07l.19,0,.23,0h.68l.34,0H178l.49.07h.07l.12,0,.29.07.15,0,.18.06,0,0,.28.12.14.06.4.21h0l30.89,18-.4-.21-.14-.06-.29-.12-.23-.08-.15,0-.28-.07-.12,0h-.07l-.49-.07-.17,0-.34,0h-.68l-.23,0-.25,0-.21,0-.28.05-.19,0-.3.07-.19.05-.32.1-.16.05-.45.16h0l-.49.21-.15.07-.36.17-.17.09-.47.26L146.15,52.46l-.54.33h0l-.5.33-.17.12-.33.24-.2.15-.3.23-.22.18-.28.24-.22.19-.28.25-.22.2-.28.27-.2.2-.29.29-.18.19-.34.38-.1.11-.44.51-.12.15-.3.38-.37.49-.08.11c-.21.28-.41.57-.61.87l-.11.16q-.37.56-.72,1.14l-.09.15q-.24.41-.47.83l-.16.3-.17.32-.21.44-.08.17-.27.6-.06.15-.19.45-.08.2-.16.42-.07.19-.18.51,0,.11q-.1.31-.2.62l-.05.19-.12.44-.06.23-.1.4-.05.24-.09.4,0,.22q0,.25-.09.5l0,.11q0,.3-.09.6l0,.16c0,.15,0,.3,0,.44l0,.2q0,.21,0,.41c0,.06,0,.13,0,.19s0,.38,0,.57l.08,29.22c0,.2,0,.39,0,.58s0,.11,0,.16,0,.26,0,.39l0,.22c0,.11,0,.22,0,.32l0,.23.05.29.05.25.06.26.08.29.07.22.11.33.07.18c.07.19.15.37.23.54l0,0a6.75,6.75,0,0,0,.37.66l0,.06c.11.17.23.33.35.49l.09.11c.12.14.24.28.37.4l0,0a5.31,5.31,0,0,0,.43.37l.11.08a5.15,5.15,0,0,0,.47.32h0l-30.89-18a5.16,5.16,0,0,1-.47-.32l-.11-.08a5.29,5.29,0,0,1-.43-.37l0,0c-.13-.13-.25-.26-.37-.4l-.09-.11c-.12-.15-.24-.32-.35-.49v0l0,0a6.77,6.77,0,0,1-.37-.66v0h0c-.08-.17-.16-.36-.23-.54l0-.05,0-.13-.11-.33,0-.1,0-.13-.08-.29,0-.13,0-.13-.05-.25,0-.14,0-.15,0-.23,0-.13c0-.06,0-.13,0-.2l0-.22v-.09c0-.1,0-.2,0-.3s0-.11,0-.16v0q0-.25,0-.51v0h0L104.58,53h0Q104.58,52.77,104.58,52.53Z"/></g><path class="cls-5" d="M89.74,60.36s27.62,3.53,31,4.38,7,9.48,6.68,13.93-16,29.09-16,29.09L86.54,99.9l-5.64-30Z"/><path class="cls-6" d="M115.76,98.25c-.93,12.52-10.2,17-20.65,9.88s-18.2-23-17.26-35.55,10.2-17,20.65-9.89S116.7,85.72,115.76,98.25Zm-20.08,2.19c6.91,4.68,13,1.75,13.66-6.53s-4.5-18.83-11.42-23.52-13-1.75-13.66,6.54,4.5,18.83,11.42,23.51"/><polygon class="cls-7" points="191.44 59.35 170.79 50.5 170.79 85.39 191.44 59.35"/><path class="cls-8" d="M73.12,137.46,109.9,98.67S113.71,72.32,90.16,68L0,95.32l5.17,42.14Z"/></g></g></svg>