<?xml version="1.0" encoding="UTF-8"?>
<svg width="26px" height="17px" viewBox="0 0 26 17" version="1.1" xmlns="http://www.w3.org/2000/svg" xmlns:xlink="http://www.w3.org/1999/xlink">
    <!-- Generator: Sketch 62 (91390) - https://sketch.com -->
    <title>视频 (3)</title>
    <desc>Created with Sketch.</desc>
    <g id="页面-1" stroke="none" stroke-width="1" fill="none" fill-rule="evenodd">
        <g id="同步助手web首页" transform="translate(-881.000000, -1032.000000)" fill="#1890FF" fill-rule="nonzero">
            <g id="编组" transform="translate(360.000000, 684.000000)">
                <g id="评论">
                    <g id="编组-4">
                        <g id="视频-(3)" transform="translate(521.000000, 348.000000)">
                            <path d="M16.1732284,0 L2.32020998,0 C2.32020998,0 0,0 0,2.3185503 L0,14.0518201 C0,16.3703704 2.32020998,16.3703704 2.32020998,16.3703704 L16.1732284,16.3703704 C16.1732284,16.3703704 18.4934383,16.3703704 18.4934383,14.0518201 L18.4934383,2.38880942 C18.4934383,0 16.1732284,0 16.1732284,0 Z M25.6587926,1.19440469 C25.4540682,1.12414558 25.2493438,1.12414558 25.1128609,1.26466381 L20.5406824,4.91813703 C20.4041995,5.05865523 20.335958,5.19917342 20.335958,5.33969162 L20.335958,11.1711969 C20.335958,11.3117151 20.4041995,11.5224925 20.5406824,11.5927516 L25.1128609,15.2462248 C25.1811024,15.3164839 25.3175853,15.386743 25.4540682,15.386743 C25.5223097,15.386743 25.5905512,15.386743 25.7270341,15.3164839 C25.9317585,15.2462248 26,15.0354475 26,14.8246702 L26,1.6862184 C26,1.47544109 25.8635171,1.26466381 25.6587926,1.19440469 Z" id="形状"></path>
                        </g>
                    </g>
                </g>
            </g>
        </g>
    </g>
</svg>