<?xml version="1.0" encoding="UTF-8"?>
<svg width="256px" height="220px" viewBox="0 0 256 220" version="1.1" xmlns="http://www.w3.org/2000/svg" xmlns:xlink="http://www.w3.org/1999/xlink">
    <!-- Generator: Sketch 62 (91390) - https://sketch.com -->
    <title>配图2</title>
    <desc>Created with Sketch.</desc>
    <defs>
        <linearGradient x1="-25.7062592%" y1="16.5489947%" x2="137.025067%" y2="85.1329284%" id="linearGradient-1">
            <stop stop-color="#44CAE0" offset="0%"></stop>
            <stop stop-color="#68FF87" offset="100%"></stop>
        </linearGradient>
        <linearGradient x1="11.1396679%" y1="32.7806778%" x2="116.101997%" y2="90.2855362%" id="linearGradient-2">
            <stop stop-color="#4DCCFF" offset="0%"></stop>
            <stop stop-color="#4489FF" offset="100%"></stop>
        </linearGradient>
        <path d="M96.12,153.36 C95.9632142,153.36 95.8142316,153.326591 95.6797828,153.266503 C68.2126032,151.642831 46.44,128.854047 46.44,100.98 C46.44,73.6715351 67.3380069,51.2440612 94.0140709,48.817528 C102.306976,20.6013051 128.397641,2.84217094e-13 159.3,2.84217094e-13 C191.999102,2.84217094e-13 219.310716,23.0665758 225.850876,53.8157606 C243.351951,62.2943168 255.42,80.2278365 255.42,100.98 C255.42,129.908675 231.968675,153.36 203.04,153.36 C202.566683,153.36 202.094832,153.353722 201.624525,153.341245 C201.558662,153.353319 201.490111,153.36 201.42,153.36 L96.12,153.36 Z" id="path-3"></path>
        <filter x="-26.1%" y="-35.5%" width="152.2%" height="171.1%" filterUnits="objectBoundingBox" id="filter-4">
            <feGaussianBlur stdDeviation="54" in="SourceAlpha" result="shadowBlurInner1"></feGaussianBlur>
            <feOffset dx="0" dy="1" in="shadowBlurInner1" result="shadowOffsetInner1"></feOffset>
            <feComposite in="shadowOffsetInner1" in2="SourceAlpha" operator="arithmetic" k2="-1" k3="1" result="shadowInnerInner1"></feComposite>
            <feColorMatrix values="0 0 0 0 1   0 0 0 0 1   0 0 0 0 1  0 0 0 0.5 0" type="matrix" in="shadowInnerInner1"></feColorMatrix>
        </filter>
        <filter x="-29.2%" y="-59.2%" width="158.4%" height="214.3%" filterUnits="objectBoundingBox" id="filter-5">
            <feOffset dx="4" dy="14" in="SourceAlpha" result="shadowOffsetOuter1"></feOffset>
            <feGaussianBlur stdDeviation="7" in="shadowOffsetOuter1" result="shadowBlurOuter1"></feGaussianBlur>
            <feColorMatrix values="0 0 0 0 0.396078431   0 0 0 0 0.647058824   0 0 0 0 0.929411765  0 0 0 0.124535621 0" type="matrix" in="shadowBlurOuter1" result="shadowMatrixOuter1"></feColorMatrix>
            <feMerge>
                <feMergeNode in="shadowMatrixOuter1"></feMergeNode>
                <feMergeNode in="SourceGraphic"></feMergeNode>
            </feMerge>
        </filter>
        <linearGradient x1="-50.7568913%" y1="-49.795707%" x2="134.472623%" y2="135.832867%" id="linearGradient-6">
            <stop stop-color="#68DAFF" offset="0%"></stop>
            <stop stop-color="#4589FC" offset="100%"></stop>
        </linearGradient>
        <linearGradient x1="-25.7062592%" y1="-14.5274022%" x2="137.025067%" y2="117.771853%" id="linearGradient-7">
            <stop stop-color="#44CAE0" offset="0%"></stop>
            <stop stop-color="#B6FDC5" offset="100%"></stop>
        </linearGradient>
        <linearGradient x1="-4.18481707%" y1="-49.795707%" x2="95.4274994%" y2="135.832867%" id="linearGradient-8">
            <stop stop-color="#D982FF" offset="0%"></stop>
            <stop stop-color="#6E7AEF" offset="100%"></stop>
        </linearGradient>
        <linearGradient x1="-50.7568913%" y1="-32.4757909%" x2="134.472623%" y2="120.936253%" id="linearGradient-9">
            <stop stop-color="#D982FF" offset="0%"></stop>
            <stop stop-color="#6E7AEF" offset="100%"></stop>
        </linearGradient>
        <linearGradient x1="-10.4717763%" y1="-3.82034209%" x2="119.973741%" y2="106.70601%" id="linearGradient-10">
            <stop stop-color="#F7D822" offset="0%"></stop>
            <stop stop-color="#FFBB1E" offset="100%"></stop>
        </linearGradient>
    </defs>
    <g id="页面-1" stroke="none" stroke-width="1" fill="none" fill-rule="evenodd">
        <g id="重构-安装成功" transform="translate(-815.000000, -2393.000000)">
            <g id="编组-24" transform="translate(0.000000, 2148.000000)">
                <g id="配图2" transform="translate(815.000000, 245.000000)">
                    <path d="M13.068,212.76 C13.0039917,212.76 12.942151,212.750719 12.8837501,212.733431 C5.69143275,212.312782 0,206.803914 0,200.07 C0,193.699924 5.09302342,188.426091 11.7311624,187.51814 C13.4279874,179.7241 20.4658486,173.88 28.89,173.88 C37.7193988,173.88 45.0259232,180.299889 46.2572969,188.657427 C50.8412509,190.716589 54,195.053344 54,200.07 C54,205.976997 49.6205462,210.941343 43.6906763,212.355886 C43.5962177,212.592874 43.363626,212.76 43.092,212.76 L13.068,212.76 Z" id="形状结合备份-7" fill="url(#linearGradient-1)" opacity="0.100000001"></path>
                    <g id="形状结合" opacity="0.08">
                        <use fill="url(#linearGradient-2)" fill-rule="evenodd" xlink:href="#path-3"></use>
                        <use fill="black" fill-opacity="1" filter="url(#filter-4)" xlink:href="#path-3"></use>
                    </g>
                    <g id="编组-27" transform="translate(35.000000, 65.800000)">
                        <g id="编组-17" filter="url(#filter-5)">
                            <rect id="矩形" stroke="#78B7FF" stroke-width="6.48" fill="#DAEBFF" x="19" y="0" width="145.8" height="87.48" rx="2.16"></rect>
                            <g id="奖章" transform="translate(70.000000, 21.000000)">
                                <g id="编组-26">
                                    <path d="M22.4321717,2.75399995 C31.6698615,2.75399995 39.1559238,10.1698747 39.1559238,19.3097905 C39.1559238,24.4774535 36.7654574,29.0914003 33.0192721,32.1272757 C34.8333215,31.9051623 36.4840204,31.4448692 37.3790567,30.2487055 L37.3790567,30.2487055 L42.7248018,35.5407617 C43.1740665,35.9905115 43.3507436,36.6451473 43.1892102,37.2598054 C43.0226289,37.8744635 42.5380288,38.3491994 41.9171349,38.5091105 L41.9171349,38.5091105 L37.0559899,39.76841 L35.7839146,44.580733 C35.6223812,45.1903939 35.142829,45.6751242 34.5219351,45.8400325 C34.3654497,45.8800103 34.2089642,45.8999991 34.0524788,45.8999991 C33.5830224,45.8999991 33.1236619,45.715102 32.7854514,45.3802882 L32.7854514,45.3802882 L24.875364,37.5496442 L24.875364,37.5496442 L24.8754811,35.6902327 C24.0779567,35.8057592 23.2621339,35.865581 22.4321717,35.865581 C21.3870623,35.865581 20.364373,35.7707246 19.3724078,35.5892325 L19.3720918,37.4349838 L11.4882857,45.375291 C11.1450272,45.715102 10.6907146,45.8950019 10.2212583,45.8950019 C10.0647728,45.8950019 9.90828734,45.875013 9.75180189,45.8350353 C9.13090798,45.670127 8.65135578,45.1903939 8.48982241,44.5757358 L8.48982241,44.5757358 L7.21774709,39.7634127 L2.35660213,38.5041132 C1.74075614,38.3442022 1.2511081,37.8694663 1.08452681,37.2548082 C0.912897602,36.6451473 1.08957473,35.9905115 1.54388734,35.5407617 L1.54388734,35.5407617 L7.23793876,29.9038973 C8.32441631,31.4269752 10.9739339,32.547574 13.5208862,33.3225938 C8.82617833,30.3909258 5.70841963,25.2114494 5.70841963,19.3097905 C5.70841963,10.1648775 13.1944819,2.75399995 22.4321717,2.75399995 Z" id="形状备份" fill="#8BC1FF"></path>
                                    <path d="M22.3301717,0 C13.0924819,0 5.60641963,7.41087755 5.60641963,16.5557905 C5.60641963,25.7007035 13.0924819,33.111581 22.3301717,33.111581 C31.5678615,33.111581 39.0539238,25.7007035 39.0539238,16.5557905 C39.0539238,7.41587477 31.5678615,0 22.3301717,0 Z M22.3301717,5.33579073 C16.1325866,5.33579073 11.1101719,10.3582054 11.1101719,16.5557905 C11.1101719,22.7533757 16.1325866,27.7757903 22.3301717,27.7757903 C28.5277569,27.7757903 33.5501715,22.7533757 33.5501715,16.5557905 C33.5501715,10.361592 28.5277569,5.33579073 22.3301717,5.33579073 Z M7.13593876,27.1498973 L1.44188734,32.7867617 C0.987574732,33.2365115 0.810897604,33.8911474 0.982526814,34.5008082 C1.14910811,35.1154663 1.63875614,35.5902023 2.25460213,35.7501133 L7.11574709,37.0094128 L8.38782241,41.8217358 C8.54935578,42.4363939 9.02890798,42.9161271 9.64980189,43.0810353 C9.80628734,43.1210131 9.9627728,43.141002 10.1192583,43.141002 C10.5887146,43.141002 11.0430272,42.961102 11.3862857,42.6212911 L19.3720918,34.7156887 C14.3241739,33.9211307 9.9627728,31.112693 7.13593876,27.1498973 Z M42.6228018,32.7867617 L37.2770567,27.4947055 C34.3492643,31.4075289 29.8869048,34.131014 24.773364,34.7956442 L32.6834514,42.6262883 C33.0216619,42.961102 33.4810224,43.1459992 33.9504788,43.1459992 C34.1069642,43.1459992 34.2634497,43.1260103 34.4199351,43.0860326 C35.040829,42.9211243 35.5203812,42.4363939 35.6819146,41.8267331 L36.9539899,37.01441 L41.8151349,35.7551105 C42.4360288,35.5951995 42.9206289,35.1204636 43.0872102,34.5058055 C43.2487436,33.8911474 43.0720665,33.2365115 42.6228018,32.7867617 Z" id="形状" fill="#FFFFFF"></path>
                                    <path d="M21.3196814,21.8347206 L19.6863411,22.737609 C19.0100813,23.1114361 18.1588177,22.8662661 17.7849905,22.1900064 C17.6331638,21.9153492 17.5780864,21.5976226 17.62861,21.2878884 L17.9787434,19.1413968 C18.0725589,18.5662618 17.8877741,17.9807413 17.4808196,17.5636446 L16.0395652,16.0864707 C15.4743622,15.5071815 15.4857813,14.5793871 16.0650705,14.0141841 C16.2841242,13.800457 16.5645958,13.660675 16.8671305,13.6144518 L18.717885,13.3316816 C19.3231341,13.2392078 19.8424576,12.8511092 20.1026106,12.2968545 L20.9471304,10.4976092 C21.2739627,9.80129448 22.1033873,9.50176983 22.799702,9.82860217 C23.0939368,9.96670846 23.3306027,10.2033744 23.468709,10.4976092 L24.3132288,12.2968545 C24.5733818,12.8511092 25.0927053,13.2392078 25.6979544,13.3316816 L27.5487089,13.6144518 C28.3487642,13.7366894 28.8982441,14.4843555 28.7760065,15.2844108 C28.7297833,15.5869454 28.5900013,15.867417 28.3762742,16.0864707 L26.9350198,17.5636446 C26.5280653,17.9807413 26.3432805,18.5662618 26.437096,19.1413968 L26.7872294,21.2878884 C26.9116283,22.0505148 26.3942426,22.7695907 25.6316163,22.8939895 C25.3218821,22.944513 25.0041555,22.8894357 24.7294983,22.737609 L23.096158,21.8347206 C22.5434143,21.5291715 21.8724251,21.5291715 21.3196814,21.8347206 Z" id="星形备份-6" fill="#FFFFFF"></path>
                                </g>
                            </g>
                            <path d="M4.64880563,87.48 L178.553386,87.48 C179.746321,87.48 180.713386,88.4470649 180.713386,89.64 C180.713386,90.2759197 180.433163,90.8795278 179.94741,91.2899386 L174.993054,95.4758461 C173.433742,96.7933004 171.458316,97.5160918 169.416958,97.5160918 L8.46840084,97.5160918 L8.46840084,97.5160918 L2.99797238,91.0329643 C2.22865943,90.1212343 2.34411129,88.7584797 3.25584132,87.9891667 C3.6455164,87.660361 4.13894301,87.48 4.64880563,87.48 Z" id="路径-21" fill="#65A5ED"></path>
                        </g>
                    </g>
                    <g id="消息-(1)" transform="translate(9.000000, 54.000000)" fill-rule="nonzero">
                        <path d="M30,15 C30,6.71822461 23.2851379,0 15,0 C6.71486214,0 0,6.71822461 0,15 C0,23.2851379 6.71486214,30 15,30 L28.4129119,30 C28.8836584,30 29.263618,29.6200403 29.263618,29.1560188 L26.395427,24.7545393 C28.6449227,22.131809 30,18.7256221 30,15 Z" id="路径" fill="url(#linearGradient-6)"></path>
                        <path d="M21.1512376,14 C20.1307737,14 19.3024752,14.672043 19.3024752,15.5 C19.3024752,16.327957 20.1307737,17 21.1512376,17 C22.1717014,17 23,16.327957 23,15.5 C23,14.672043 22.1717014,14 21.1512376,14 L21.1512376,14 Z M7.84876242,14 C6.82829858,14 6,14.672043 6,15.5 C6,16.327957 6.82829858,17 7.84876242,17 C8.86922627,17 9.69752485,16.327957 9.69752485,15.5 C9.69752485,14.672043 8.86922627,14 7.84876242,14 L7.84876242,14 Z M14.5016566,14 C13.4811927,14 12.6528942,14.672043 12.6528942,15.5 C12.6528942,16.327957 13.4811927,17 14.5016566,17 C15.5221204,17 16.350419,16.327957 16.350419,15.5 C16.3471058,14.672043 15.5221204,14 14.5016566,14 L14.5016566,14 Z" id="形状" fill="#FFFFFF"></path>
                    </g>
                    <g id="表情" transform="translate(104.000000, 173.000000)" fill="url(#linearGradient-7)" fill-rule="nonzero">
                        <path d="M23.5,47 C10.5213156,47 0,36.4786844 0,23.5 C0,10.5213156 10.5213156,0 23.5,0 C36.4786844,0 47,10.5213156 47,23.5 C47,36.4786844 36.4786844,47 23.5,47 Z M14.4204545,20.2954545 C16.4852286,20.2954545 18.1590909,18.6215923 18.1590909,16.5568182 C18.1590909,14.4920441 16.4852286,12.8181818 14.4204545,12.8181818 C12.3556805,12.8181818 10.6818182,14.4920441 10.6818182,16.5568182 C10.6818182,18.6215923 12.3556805,20.2954545 14.4204545,20.2954545 Z M32.5795455,20.2954545 C34.6443195,20.2954545 36.3181818,18.6215923 36.3181818,16.5568182 C36.3181818,14.4920441 34.6443195,12.8181818 32.5795455,12.8181818 C30.5147714,12.8181818 28.8409091,14.4920441 28.8409091,16.5568182 C28.8409091,18.6215923 30.5147714,20.2954545 32.5795455,20.2954545 Z M12.8181818,28.8409091 C12.8181818,34.740317 17.600592,39.5227273 23.5,39.5227273 C29.399408,39.5227273 34.1818182,34.740317 34.1818182,28.8409091 L12.8181818,28.8409091 Z" id="形状"></path>
                    </g>
                    <g id="语音-(2)" transform="translate(225.000000, 58.000000)" fill="url(#linearGradient-8)" fill-rule="nonzero">
                        <path d="M20.5547867,13.5294118 C21.352956,13.5294118 22,14.1655791 22,14.9503313 C22,20.431765 17.8295962,24.9706555 12.4452133,25.6692742 L12.4452133,25.6692742 L12.4452133,27.158161 L20.5547867,27.158161 C21.352956,27.158161 22,27.7943283 22,28.5790805 C22,29.3638327 21.352956,30 20.5547867,30 L20.5547867,30 L1.44521329,30 C0.647044028,30 0,29.3638327 0,28.5790805 C0,27.7943283 0.647044028,27.158161 1.44521329,27.158161 L1.44521329,27.158161 L9.55478671,27.158161 L9.55478671,25.6692742 C4.17064469,24.9708923 0,20.431765 0,14.9503313 C0,14.1656634 0.647129764,13.5296276 1.4452133,13.5296276 C2.24329684,13.5296276 2.89030536,14.1656634 2.89042657,14.9503313 C2.89042657,19.3466562 6.52826926,22.9235842 10.9997591,22.9235842 C15.4714899,22.9235841 19.1095734,19.3466561 19.1095734,14.9503313 C19.1095734,14.1655791 19.7566175,13.5294118 20.5547867,13.5294118 Z M10.4055282,0 C13.5200923,0 16.0540541,2.52577169 16.0540541,5.63026911 L16.0540541,5.63026911 L16.0540541,14.9579662 C16.0540541,18.0627085 13.5200923,20.5882353 10.4055282,20.5882353 C7.29047281,20.5882353 4.75675676,18.0627085 4.75675676,14.9579662 L4.75675676,14.9579662 L4.75675676,5.63026911 C4.75675676,2.52577169 7.29047278,0 10.4055282,0 Z" id="形状结合"></path>
                    </g>
                    <path d="M182.394737,10 L154.605263,10 C153.128947,10 152,11.1504425 152,12.6548673 L152,37.3451328 C152,38.761062 153.128947,40 154.605263,40 L182.394737,40 C183.784211,40 185,38.7610619 185,37.3451328 L185,12.6548673 C185,11.2389381 183.871053,10 182.394737,10 Z M161,16 C162.59375,16 164,17.3125 164,19 C164,20.6875 162.6875,22 161,22 C159.40625,22 158,20.6875 158,19 C158,17.3125 159.40625,16 161,16 Z M157.178549,36 C156.919215,36 156.65988,35.9112257 156.400545,35.7336772 C155.881876,35.2898059 155.881876,34.6683861 156.3141,34.1357406 L161.673684,26.41238 C162.105908,25.9685087 162.711022,25.8797344 163.229692,26.2348315 L167.897716,29.6082533 L176.28287,20.3757303 C176.715094,19.931859 178.789772,17.6237283 180,20.1981818 L180,35.9112258 C180,36 157.178549,36 157.178549,36 L157.178549,36 Z" id="形状" fill="url(#linearGradient-9)" fill-rule="nonzero"></path>
                    <g id="文件-(1)" transform="translate(72.000000, 11.000000)" fill="url(#linearGradient-10)" fill-rule="nonzero">
                        <path d="M29.906291,10.1731017 C29.906291,9.50967795 29.718873,9.3195852 29.0647842,9.3195852 L1.03454739,9.3195852 C0.380458549,9.3195852 0.0974573624,9.50967795 0.0974573624,10.270049 L0.0974573624,25.1486087 C0.0974573624,27.1388798 0.938964203,28 2.80752171,28 L27.2899357,28 C29.1641157,28 30,27.1464835 30,25.2512588 C29.906291,20.1244573 29.906291,15.1953522 29.906291,10.1731017 L29.906291,10.1731017 Z M0.847129381,7.80264504 L28.313238,7.80264504 C29.9025426,7.80264504 29.9025426,7.80264504 29.9025426,6.28190302 C29.9025426,4.48172465 29.1528706,3.81069723 27.4661086,3.81069723 L15.6100456,3.81069723 C14.1107016,3.81069723 14.1107016,3.81069723 14.1107016,2.28995521 C14.1107016,0.677968669 13.3610295,0.0088421795 11.7754732,0.0088421795 L2.43643406,0.0088421795 C0.749672018,-0.0862041968 0.101205722,0.579120437 0,2.28995521 L0,6.9510295 C0.0131192603,7.70949959 0.200537265,7.80264504 0.847129381,7.80264504 Z" id="形状"></path>
                    </g>
                </g>
            </g>
        </g>
    </g>
</svg>