<?xml version="1.0" encoding="UTF-8"?>
<svg width="243px" height="193px" viewBox="0 0 243 193" version="1.1" xmlns="http://www.w3.org/2000/svg" xmlns:xlink="http://www.w3.org/1999/xlink">
    <!-- Generator: Sketch 62 (91390) - https://sketch.com -->
    <title>配图3</title>
    <desc>Created with Sketch.</desc>
    <defs>
        <linearGradient x1="-25.7062592%" y1="16.5489947%" x2="137.025067%" y2="85.1329284%" id="linearGradient-1">
            <stop stop-color="#44CAE0" offset="0%"></stop>
            <stop stop-color="#68FF87" offset="100%"></stop>
        </linearGradient>
        <linearGradient x1="11.1396679%" y1="32.7806778%" x2="116.101997%" y2="90.2855362%" id="linearGradient-2">
            <stop stop-color="#4DCCFF" offset="0%"></stop>
            <stop stop-color="#4489FF" offset="100%"></stop>
        </linearGradient>
        <path d="M49.68,192.36 C49.5232142,192.36 49.3742316,192.326591 49.2397828,192.266503 C21.7726032,190.642831 -2.13162821e-13,167.854047 -2.13162821e-13,139.98 C-2.13162821e-13,112.671535 20.8980069,90.2440612 47.5740709,87.817528 C55.8669756,59.6013051 81.9576415,39 112.86,39 C145.559102,39 172.870716,62.0665758 179.410876,92.8157606 C196.911951,101.294317 208.98,119.227837 208.98,139.98 C208.98,168.908675 185.528675,192.36 156.6,192.36 C156.126683,192.36 155.654832,192.353722 155.184525,192.341245 C155.118662,192.353319 155.050111,192.36 154.98,192.36 L49.68,192.36 Z" id="path-3"></path>
        <filter x="-26.1%" y="-35.5%" width="152.2%" height="171.1%" filterUnits="objectBoundingBox" id="filter-4">
            <feGaussianBlur stdDeviation="54" in="SourceAlpha" result="shadowBlurInner1"></feGaussianBlur>
            <feOffset dx="0" dy="1" in="shadowBlurInner1" result="shadowOffsetInner1"></feOffset>
            <feComposite in="shadowOffsetInner1" in2="SourceAlpha" operator="arithmetic" k2="-1" k3="1" result="shadowInnerInner1"></feComposite>
            <feColorMatrix values="0 0 0 0 1   0 0 0 0 1   0 0 0 0 1  0 0 0 0.5 0" type="matrix" in="shadowInnerInner1"></feColorMatrix>
        </filter>
        <linearGradient x1="-50.7568913%" y1="28.5851448%" x2="134.472623%" y2="68.418612%" id="linearGradient-5">
            <stop stop-color="#68DAFF" offset="0%"></stop>
            <stop stop-color="#4589FC" offset="100%"></stop>
        </linearGradient>
        <linearGradient x1="-25.7062592%" y1="44.8666564%" x2="137.025067%" y2="55.3914492%" id="linearGradient-6">
            <stop stop-color="#44CAE0" offset="0%"></stop>
            <stop stop-color="#B6FDC5" offset="100%"></stop>
        </linearGradient>
        <linearGradient x1="-10.4717763%" y1="-6.29452104%" x2="119.973741%" y2="109.312846%" id="linearGradient-7">
            <stop stop-color="#F7D822" offset="0%"></stop>
            <stop stop-color="#FFBB1E" offset="100%"></stop>
        </linearGradient>
        <linearGradient x1="-50.7568913%" y1="-40.9295595%" x2="134.472623%" y2="128.207219%" id="linearGradient-8">
            <stop stop-color="#68DAFF" offset="0%"></stop>
            <stop stop-color="#4589FC" offset="100%"></stop>
        </linearGradient>
    </defs>
    <g id="页面-1" stroke="none" stroke-width="1" fill="none" fill-rule="evenodd">
        <g id="重构-安装成功" transform="translate(-1228.000000, -2412.000000)">
            <g id="编组-24" transform="translate(0.000000, 2148.000000)">
                <g id="配图3" transform="translate(1228.000000, 264.000000)">
                    <g id="编组-31">
                        <path d="M202.068,38.88 C202.003992,38.88 201.942151,38.8707195 201.88375,38.8534306 C194.691433,38.4327818 189,32.923914 189,26.19 C189,19.8199243 194.093023,14.5460907 200.731162,13.6381398 C202.427987,5.84409958 209.465849,-3.55271368e-15 217.89,-3.55271368e-15 C226.719399,-3.55271368e-15 234.025923,6.41988942 235.257297,14.7774268 C239.841251,16.8365893 243,21.1733439 243,26.19 C243,32.0969968 238.620546,37.061343 232.690676,38.4758859 C232.596218,38.7128742 232.363626,38.88 232.092,38.88 L202.068,38.88 Z" id="形状结合备份-12" fill="url(#linearGradient-1)" opacity="0.100000001"></path>
                        <g id="形状结合备份" opacity="0.08">
                            <use fill="url(#linearGradient-2)" fill-rule="evenodd" xlink:href="#path-3"></use>
                            <use fill="black" fill-opacity="1" filter="url(#filter-4)" xlink:href="#path-3"></use>
                        </g>
                        <g id="服务-(4)" transform="translate(28.500000, 1.000000)">
                            <path d="M2.72323234,106.095757 C-0.452813862,101.912157 -0.225953419,94.9394898 3.40381367,91.4531563 C11.5707896,83.085956 25.4092767,71 34.4836944,71 C48.095321,71 94.6017119,71.4648445 97.3240372,75.1836002 C100.046363,78.6699336 97.7777581,89.8262007 84.6198524,90.9883119 C75.3185742,91.9180008 63.5218311,91.6855786 57.3965992,92.150423 C56.262297,92.150423 56.0354365,94.2422231 56.9428783,94.9394898 C61.933808,98.193401 71.6888071,103.30669 83.4855502,102.841846 C93.2405492,102.377001 102.541827,97.0312899 109.801362,88.6640896 C115.926594,81.6914226 125.001011,71.9296889 129.084499,71.9296889 C132.033685,71.9296889 134.075429,72.6269556 135.436592,73.3242223 C136.570894,74.021489 136.797754,75.6484446 136.117173,77.042978 C131.353104,85.1777561 112.523687,114.927802 92.106247,123.06258 C74.8648533,129.570402 56.0354365,127.478602 46.5072979,125.619224 C42.6506704,124.921958 38.5671824,126.084069 35.3911362,128.873136 L31.5345086,132.359469 C28.5853229,134.916114 24.5018349,134.451269 22.00637,131.197358 L2.72323234,106.095757 Z" id="路径" fill="url(#linearGradient-5)" fill-rule="nonzero"></path>
                            <g id="编组-30" transform="translate(10.000000, 145.000000)">
                                <rect id="矩形" fill="url(#linearGradient-6)" fill-rule="nonzero" x="0.5" y="0" width="117" height="33" rx="16.5"></rect>
                                <text id="7x24-365" font-family="Geomanist-Medium, Geomanist" font-size="20" font-weight="400" fill="#FFFFFF">
                                    <tspan x="18.57" y="24">7x24 365</tspan>
                                </text>
                            </g>
                            <path d="M86.3858131,63 C85.9290657,63 85.4723183,62.7666667 85.0155709,62.3 L58.5242215,33.1333333 C55.3269896,29.4 53.5,24.7333333 53.5,19.6 C53.5,14.4666667 55.3269896,9.56666667 58.7525952,5.83333333 C61.949827,2.1 66.517301,0 71.0847751,0 C74.967128,0 78.849481,1.4 81.8183391,3.96666667 C83.6453287,5.6 85.2439446,7.46666667 86.3858131,9.56666667 C87.5276817,7.46666667 89.1262976,5.36666667 90.9532872,3.96666667 C94.150519,1.4 97.8044983,0 101.686851,0 C106.482699,0 110.821799,2.1 114.247405,5.83333333 C117.67301,9.56666667 119.5,14.4666667 119.5,19.6 C119.5,24.7333333 117.67301,29.4 114.475779,33.1333333 L87.7560554,62.5333333 C87.5276817,62.7666667 87.0709343,63 86.3858131,63 Z" id="路径" fill="url(#linearGradient-7)" fill-rule="nonzero"></path>
                            <path d="M68.5,66 C68.0448276,66 67.5896552,65.7675277 67.1344828,65.302583 L40.5068966,36.0110701 C37.3206897,32.2915129 35.5,27.6420664 35.5,22.5276753 C35.5,17.4132841 37.3206897,12.5313653 40.7344828,8.81180812 C44.1482759,5.09225092 48.4724138,3 53.2517241,3 C57.1206897,3 60.9896552,4.39483395 63.9482759,6.95202952 C65.7689655,8.57933579 67.362069,10.4391144 68.5,12.5313653 C69.637931,10.4391144 71.2310345,8.34686347 73.0517241,6.95202952 C76.237931,4.39483395 79.8793103,3 83.7482759,3 C88.5275862,3 92.8517241,5.09225092 96.2655172,8.81180812 C99.6793103,12.5313653 101.5,17.4132841 101.5,22.5276753 C101.5,27.6420664 99.6793103,32.2915129 96.4931034,36.0110701 L69.637931,65.5350554 C69.4103448,65.7675277 68.9551724,66 68.5,66 Z" id="路径" fill="url(#linearGradient-8)" fill-rule="nonzero"></path>
                        </g>
                    </g>
                </g>
            </g>
        </g>
    </g>
</svg>