<?xml version="1.0" encoding="UTF-8"?>
<svg width="109px" height="105px" viewBox="0 0 109 105" version="1.1" xmlns="http://www.w3.org/2000/svg" xmlns:xlink="http://www.w3.org/1999/xlink">
    <!-- Generator: Sketch 63 (92445) - https://sketch.com -->
    <title>answer</title>
    <desc>Created with Sketch.</desc>
    <g id="页面-1" stroke="none" stroke-width="1" fill="none" fill-rule="evenodd">
        <g id="20201222-support页面" transform="translate(-360.000000, -3301.000000)" fill="#1890FF">
            <g id="footer-2备份" transform="translate(0.000000, 3207.000000)">
                <g id="footer">
                    <g id="编组-19">
                        <path d="M412.345079,94 C441.254467,94 464.690157,117.505051 464.690157,146.5 C464.690157,157.908959 461.061674,168.467933 454.898981,177.079409 L468.851634,197.434608 C469.163891,197.890145 469.047741,198.512565 468.592204,198.824822 C468.425735,198.938932 468.228635,199 468.026812,199 L412.345079,199 C383.43569,199 360,175.494949 360,146.5 C360,117.505051 383.43569,94 412.345079,94 Z M412.419214,166.14011 C410.593886,166.14011 409.100437,166.736264 407.855895,167.928571 C406.611354,169.120879 406.030568,170.653846 406.030568,172.527473 C406.030568,174.401099 406.611354,175.934066 407.855895,177.126374 C409.100437,178.318681 410.593886,179 412.419214,179 C414.244541,179 415.737991,178.403846 416.982533,177.211538 C418.227074,176.019231 418.89083,174.401099 418.89083,172.527473 C418.89083,170.653846 418.227074,169.120879 417.065502,167.928571 C415.820961,166.736264 414.244541,166.14011 412.419214,166.14011 Z M413.912664,117 C407.772926,117 402.960699,118.788462 399.393013,122.365385 C395.742358,125.942308 394,130.881868 394,137.184066 L403.458515,137.184066 C403.458515,133.607143 404.122271,130.796703 405.532751,128.837912 C407.10917,126.453297 409.681223,125.346154 413.331878,125.346154 C416.152838,125.346154 418.393013,126.112637 419.969432,127.730769 C421.462882,129.348901 422.292576,131.563187 422.292576,134.373626 C422.292576,136.502747 421.545852,138.546703 420.052402,140.42033 L419.056769,141.612637 C413.663755,146.552198 410.427948,150.129121 409.349345,152.428571 C408.187773,154.728022 407.689956,157.538462 407.689956,160.774725 L407.689956,161.967033 L417.231441,161.967033 L417.231441,160.774725 C417.231441,158.730769 417.646288,156.942308 418.475983,155.239011 C419.222707,153.706044 420.30131,152.258242 421.79476,150.980769 C425.777293,147.403846 428.183406,145.104396 428.930131,144.252747 C430.921397,141.527473 432,138.035714 432,133.777473 C432,128.582418 430.340611,124.494505 427.021834,121.513736 C423.703057,118.447802 419.305677,117 413.912664,117 Z" id="answer"></path>
                    </g>
                </g>
            </g>
        </g>
    </g>
</svg>