<?xml version="1.0" encoding="UTF-8"?>
<svg width="15px" height="15px" viewBox="0 0 15 15" version="1.1" xmlns="http://www.w3.org/2000/svg" xmlns:xlink="http://www.w3.org/1999/xlink">
    <!-- Generator: Sketch 63 (92445) - https://sketch.com -->
    <title>?</title>
    <desc>Created with Sketch.</desc>
    <g id="页面-1" stroke="none" stroke-width="1" fill="none" fill-rule="evenodd">
        <g id="202011216-FAQs" transform="translate(-360.000000, -815.000000)">
            <g id="Registration-Code" transform="translate(354.000000, 755.000000)">
                <g id="编组-2" transform="translate(0.000000, 54.000000)">
                    <g id="1?">
                        <g id="编组" transform="translate(6.000000, 0.000000)">
                            <g id="?" transform="translate(0.000000, 6.000000)">
                                <circle id="椭圆形" fill="#2C8FFF" cx="7.5" cy="7.5" r="7.5"></circle>
                                <path d="M8.11589404,9.5 L8.11589404,9.27589454 C8.11589404,8.95951036 8.18211921,8.66949153 8.32781457,8.40583804 C8.44701987,8.16854991 8.63245033,7.93126177 8.88410596,7.72033898 C9.50662252,7.17984934 9.87748344,6.83709981 9.99668874,6.6920904 C10.3278146,6.27024482 10.5,5.72975518 10.5,5.08380414 C10.5,4.29284369 10.2350993,3.66007533 9.70529801,3.19868173 C9.17549669,2.72410546 8.48675497,2.5 7.63907285,2.5 C6.6589404,2.5 5.89072848,2.77683616 5.33443709,3.34369115 C4.7781457,3.89736347 4.5,4.64877589 4.5,5.61111111 L5.89072848,5.61111111 C5.89072848,5.03107345 6.00993377,4.58286252 6.24834437,4.26647834 C6.51324503,3.88418079 6.95033113,3.69962335 7.54635762,3.69962335 C8.02317881,3.69962335 8.40728477,3.83145009 8.67218543,4.09510358 C8.92384106,4.35875706 9.05629139,4.71468927 9.05629139,5.17608286 C9.05629139,5.51883239 8.92384106,5.83521657 8.68543046,6.13841808 L8.4602649,6.38888889 C7.63907285,7.11393597 7.13576159,7.65442561 6.96357616,8.02354049 C6.7781457,8.36629002 6.6986755,8.78813559 6.6986755,9.27589454 L6.6986755,9.5 L8.11589404,9.5 Z M7.49319728,12.5 C7.76530612,12.5 8.01020408,12.4020979 8.20068027,12.2202797 C8.39115646,12.0244755 8.5,11.7867133 8.5,11.493007 C8.5,11.1993007 8.4047619,10.9615385 8.21428571,10.7797203 C8.02380952,10.5839161 7.77891156,10.5 7.49319728,10.5 C7.22108844,10.5 6.97619048,10.5839161 6.78571429,10.7797203 C6.5952381,10.9615385 6.5,11.1993007 6.5,11.493007 C6.5,11.7727273 6.5952381,12.0104895 6.78571429,12.2062937 C6.97619048,12.4020979 7.22108844,12.5 7.49319728,12.5 Z" id="？" fill="#FFFFFF" fill-rule="nonzero"></path>
                            </g>
                        </g>
                    </g>
                </g>
            </g>
        </g>
    </g>
</svg>