<svg xmlns="http://www.w3.org/2000/svg" viewBox="0 0 78.55 35.66"><defs><style>.cls-1{fill:#fff;}.cls-2{fill:#fc623a;}</style></defs><title>40% off</title><g id="图层_2" data-name="图层 2"><g id="图层_1-2" data-name="图层 1"><path class="cls-1" d="M73.78,2l.15,0a2.81,2.81,0,0,1,2.61,2.85V30.8a2.81,2.81,0,0,1-2.76,2.86H34.55a6.43,6.43,0,0,1-4.17-1.61L18.91,22.28l-.23-.2-.07,0-.48.21a23.54,23.54,0,0,1-8.29,1.6c-2.63,0-5-.57-6.23-1.76A5.72,5.72,0,0,1,2,17.86H2a5.72,5.72,0,0,1,1.6-4.32c1.24-1.18,3.6-1.76,6.23-1.76a23.58,23.58,0,0,1,8,1.51l.26.09.52.23h0l11.73-10A6.43,6.43,0,0,1,34.55,2H73.78m0-2H34.55a8.38,8.38,0,0,0-5.47,2.09L18.27,11.3A25.44,25.44,0,0,0,9.83,9.78c-1.94,0-5.52.3-7.62,2.31A7.64,7.64,0,0,0,0,17.85a7.64,7.64,0,0,0,2.21,5.76c2.1,2,5.68,2.31,7.62,2.31a25.77,25.77,0,0,0,8.47-1.53l10.77,9.17a8.38,8.38,0,0,0,5.47,2.09H73.78a4.82,4.82,0,0,0,4.76-4.86V4.86A4.82,4.82,0,0,0,74.12,0l-.33,0Z"/><path class="cls-2" d="M73.93,2l-.15,0H34.55a6.43,6.43,0,0,0-4.17,1.61l-11.73,10-.14.12a5.2,5.2,0,0,0-1,1.1,5.48,5.48,0,0,0,0,6h0a10.34,10.34,0,0,0,2.64-1.46,2.31,2.31,0,0,1,0-3.11,2.15,2.15,0,0,1,1.5-.72h.1a2.09,2.09,0,0,1,.73.14A2.26,2.26,0,0,1,24,17.83a2.23,2.23,0,0,1-2.19,2.27h-.07a9.41,9.41,0,0,1-3.06,2l.23.2,11.47,9.77a6.43,6.43,0,0,0,4.17,1.61H73.78a2.81,2.81,0,0,0,2.76-2.86V4.86A2.81,2.81,0,0,0,73.93,2ZM69.58,16.14v0a2.43,2.43,0,0,1-2.38,2.59,2.39,2.39,0,0,1-2.36-2.56v0a2.42,2.42,0,0,1,2.38-2.59A2.39,2.39,0,0,1,69.58,16.14Zm-1-7.62L61.48,18.64H59.82L66.94,8.53ZM58.84,11a2.42,2.42,0,0,1,2.38-2.59A2.39,2.39,0,0,1,63.58,11v0a2.43,2.43,0,0,1-2.38,2.59A2.39,2.39,0,0,1,58.84,11ZM44,17.49c0-4.52,2.71-8.06,6.7-8.06s6.66,3.5,6.66,8v0c0,4.52-2.68,8.06-6.7,8.06s-6.66-3.5-6.66-8Zm19.38,5.69a2.66,2.66,0,1,1-5.32,0h0a2.66,2.66,0,1,1,5.32,0Zm1.72-1.56v1.11h2.39v1H65.08v2H64V20.59h3.81v1H65.08Zm7,0H69.42v1.11h2.39v1H69.42v2h-1.1V20.59h3.81v1Z"/><path class="cls-2" d="M60.69,21.55a1.53,1.53,0,0,0-1.5,1.62h0a1.55,1.55,0,0,0,1.52,1.63,1.53,1.53,0,0,0,1.5-1.62h0A1.55,1.55,0,0,0,60.69,21.55Zm5.61-5.41v0c0,.68.36,1.27.92,1.27s.89-.59.89-1.24v0c0-.68-.36-1.27-.92-1.27S66.3,15.48,66.3,16.14Zm-5.07-3.87c.59,0,.89-.59.89-1.24v0c0-.68-.36-1.27-.92-1.27s-.89.58-.89,1.24v0C60.31,11.68,60.67,12.27,61.23,12.27ZM50.67,22.46c2,0,3.26-2.09,3.26-4.92v0c0-2.83-1.33-5-3.31-5s-3.26,2.07-3.26,4.92v0C47.37,20.34,48.68,22.46,50.67,22.46Z"/><path class="cls-1" d="M50.63,25.55c4,0,6.7-3.54,6.7-8.06v0c0-4.52-2.68-8-6.66-8S44,13,44,17.49v0C44,22.06,46.62,25.55,50.63,25.55Zm-3.26-8.11c0-2.85,1.29-4.92,3.26-4.92s3.31,2.14,3.31,5v0c0,2.83-1.27,4.92-3.26,4.92s-3.31-2.12-3.31-5Zm17.47-1.27v0a2.39,2.39,0,0,0,2.36,2.56,2.43,2.43,0,0,0,2.38-2.59v0a2.39,2.39,0,0,0-2.36-2.56A2.42,2.42,0,0,0,64.84,16.17Zm3.28,0v0c0,.65-.31,1.24-.89,1.24s-.92-.59-.92-1.27v0c0-.66.31-1.24.89-1.24S68.11,15.49,68.11,16.17Zm-8.29,2.47h1.66L68.6,8.53H66.94Zm1.38-5.06A2.43,2.43,0,0,0,63.58,11v0a2.39,2.39,0,0,0-2.36-2.56A2.42,2.42,0,0,0,58.84,11v0A2.39,2.39,0,0,0,61.2,13.59ZM60.31,11c0-.66.31-1.24.89-1.24s.92.59.92,1.27v0c0,.65-.31,1.24-.89,1.24s-.92-.59-.92-1.27Zm-19.84,8.3V9.48H37.38l-7.73,9.78v3.09H37v3.2h3.46v-3.2h2.26V19.27Zm-6.73,0,3.49-4.62v4.62Z"/><path class="cls-1" d="M60.7,20.5A2.64,2.64,0,0,0,58,23.18h0a2.66,2.66,0,1,0,5.32,0h0A2.61,2.61,0,0,0,60.7,20.5Zm1.5,2.7a1.53,1.53,0,0,1-1.5,1.62,1.55,1.55,0,0,1-1.52-1.63h0a1.53,1.53,0,0,1,1.5-1.62,1.55,1.55,0,0,1,1.52,1.63Zm5.59-2.61H64v5.19h1.1v-2h2.39v-1H65.08v-1.1h2.71Zm.52,0v5.19h1.1v-2h2.39v-1H69.42v-1.1h2.71v-1ZM21.73,20.1a4.5,4.5,0,0,0,.41-.49,3,3,0,0,0,.61-1.75h0a3.3,3.3,0,0,0-1-2.28,2.15,2.15,0,0,0-1.5.72,2.26,2.26,0,0,1,1,1.56h0a2.24,2.24,0,0,1-1,1.54,10.39,10.39,0,0,1-2.64,1.46h0l-.26.1a22.37,22.37,0,0,1-7.46,1.39c-5.17,0-6.31-2.4-6.31-4.5h0c0-2.1,1.15-4.5,6.31-4.5a22.46,22.46,0,0,1,7.12,1.26l.58.22a5.28,5.28,0,0,1,1-1.1l.14-.12-.52-.23-.26-.09a23.58,23.58,0,0,0-8-1.51c-2.63,0-5,.57-6.23,1.76A5.72,5.72,0,0,0,2,17.85H2a5.72,5.72,0,0,0,1.6,4.32c1.24,1.18,3.6,1.76,6.23,1.76a23.54,23.54,0,0,0,8.29-1.6l.48-.21.07,0a9.45,9.45,0,0,0,3.05-2Z"/></g></g></svg>