<svg xmlns="http://www.w3.org/2000/svg" viewBox="0 0 443.99 57.79"><defs><style>.cls-1{fill:#66d128;}.cls-2{fill:#fff;}.cls-3{fill:#0079ff;}.cls-4,.cls-5,.cls-6,.cls-7{fill:none;stroke-miterlimit:10;stroke-width:2px;}.cls-4,.cls-5{stroke:#0079ff;}.cls-5,.cls-7{stroke-dasharray:5.67 5.67;}.cls-6,.cls-7{stroke:#66d128;}</style></defs><title>苹果往返安卓</title><g id="图层_2" data-name="图层 2"><g id="图层_1-2" data-name="图层 1"><circle class="cls-1" cx="100.61" cy="28.9" r="28.9"/><path class="cls-2" d="M112,20.94c.07-.57,0-.63-.56-.63H90.1c-.65,0-.65,0-.65.64V39.2c0,.13,0,.27,0,.4a1.94,1.94,0,0,0,2,1.89h1.72c.3,0,.45.12.45.43q0,2.65,0,5.29c0,1.23.48,1.95,1.54,2.16a5.61,5.61,0,0,0,2.11,0,2.12,2.12,0,0,0,1.45-1.82c0-1.86,0-3.72,0-5.58,0-.37.13-.49.49-.48,1,0,2.06,0,3.09,0,.63,0,.66,0,.66.65,0,1.78,0,3.56,0,5.33a1.85,1.85,0,0,0,1.67,1.93,6.67,6.67,0,0,0,1.64,0,1.93,1.93,0,0,0,.61-.18,2,2,0,0,0,1.15-2c0-1.75,0-3.5,0-5.25,0-.49,0-.51.53-.52s1.1,0,1.64,0A2,2,0,0,0,112,39.75c0-.7,0-1.39,0-2.08q0-7.86,0-15.72a8.24,8.24,0,0,1,0-1ZM90,19h21.46c.53,0,.58-.06.4-.55a11.84,11.84,0,0,0-5.09-6.28c-.38-.24-.42-.4-.17-.78l.83-1.28q.39-.61.76-1.23a.35.35,0,0,0-.1-.53c-.21-.15-.38-.06-.52.11s-.12.18-.18.26c-.56.81-1,1.69-1.6,2.49a.39.39,0,0,1-.57.16,7.7,7.7,0,0,0-1.12-.42,11.92,11.92,0,0,0-7.85.39.37.37,0,0,1-.54-.17c-.26-.42-.53-.84-.79-1.25l-.93-1.45a.36.36,0,0,0-.52-.14c-.22.12-.23.31-.12.51s.13.26.21.39l1.33,2.05c.27.42.24.59-.15.82a11,11,0,0,0-2.64,2.07,11.65,11.65,0,0,0-2.54,4.23c-.18.55-.15.58.44.58Zm15.37-4.79a1.29,1.29,0,0,1,1.19,1.15,1.3,1.3,0,0,1-1.16,1.22,1.25,1.25,0,0,1-1.2-1.17A1.3,1.3,0,0,1,105.33,14.24Zm-9.48.17a1.15,1.15,0,0,1,1.07,1.18,1.18,1.18,0,0,1-1.08,1.17,1.21,1.21,0,0,1-1.17-1.18A1.12,1.12,0,0,1,95.85,14.41Zm22.57,12.25c0-1.12,0-2.24,0-3.37a1.89,1.89,0,0,0-1.1-1.76,3.74,3.74,0,0,0-1.8-.25,2,2,0,0,0-2.15,2.15q0,2.76,0,5.53t0,5.65a1.93,1.93,0,0,0,1,1.79,3.38,3.38,0,0,0,2,.26c.21,0,.44.06.63,0a2.24,2.24,0,0,0,1.41-2.16c0-2.6,0-5.21,0-7.81ZM85.9,21.27H85a2.13,2.13,0,0,0-2.16,2.42,9.33,9.33,0,0,1,0,1v4.77c0,1.75,0,3.5,0,5.25a1.87,1.87,0,0,0,1,1.68,3.34,3.34,0,0,0,2.11.25,2,2,0,0,0,1.91-2.16c0-.72-.06-1.44-.06-2.16,0-3-.07-6,.06-9A2.05,2.05,0,0,0,85.9,21.27Z"/><circle class="cls-3" cx="28.9" cy="28.9" r="28.9"/><path class="cls-2" d="M42.19,34a7.82,7.82,0,0,0,3.93,3.14,26.45,26.45,0,0,1-3.05,6.19q-3.22,4.85-6.36,4.85a11.81,11.81,0,0,1-3.47-.79,10.9,10.9,0,0,0-3.72-.79,8.9,8.9,0,0,0-3.51.84,9.44,9.44,0,0,1-3.3.79q-3.76,0-7.4-6.4a24.77,24.77,0,0,1-3.64-12.42,14.75,14.75,0,0,1,2.76-9.24,8.64,8.64,0,0,1,7-3.6,10.35,10.35,0,0,1,2,.23,9.06,9.06,0,0,1,2.34.86,13.17,13.17,0,0,0,2.13,1,4.55,4.55,0,0,0,1.3.27,8.6,8.6,0,0,0,1.67-.25,7.72,7.72,0,0,0,2.26-.92,17,17,0,0,1,2.09-1,5,5,0,0,1,1.8-.33A9.17,9.17,0,0,1,42.36,18a11.61,11.61,0,0,1,2.55,2.47,17.39,17.39,0,0,0-2.8,2.93,8.74,8.74,0,0,0-1.63,5.1A9.45,9.45,0,0,0,42.19,34Zm-8.4-19.53a7.87,7.87,0,0,1-2.68,1.8,8.55,8.55,0,0,1-1.07.23q-.65.1-1.48.19a11,11,0,0,1,1.92-6.36,10,10,0,0,1,6.19-3.68q.08.42.13.59v.46a9.71,9.71,0,0,1-.71,3.39,10.29,10.29,0,0,1-2.3,3.39Z"/><circle class="cls-1" cx="415.09" cy="28.9" r="28.9"/><path class="cls-2" d="M426.43,20.94c.07-.57,0-.63-.56-.63h-21.3c-.65,0-.65,0-.65.64V39.2c0,.13,0,.27,0,.4a1.94,1.94,0,0,0,2,1.89h1.72c.3,0,.45.12.45.43q0,2.65,0,5.29c0,1.23.48,1.95,1.54,2.16a5.61,5.61,0,0,0,2.11,0,2.12,2.12,0,0,0,1.45-1.82c0-1.86,0-3.72,0-5.58,0-.37.13-.49.49-.48,1,0,2.06,0,3.09,0,.63,0,.66,0,.66.65,0,1.78,0,3.56,0,5.33a1.85,1.85,0,0,0,1.67,1.93,6.67,6.67,0,0,0,1.64,0,1.93,1.93,0,0,0,.61-.18,2,2,0,0,0,1.15-2c0-1.75,0-3.5,0-5.25,0-.49,0-.51.53-.52s1.1,0,1.64,0a2,2,0,0,0,1.79-1.75c0-.7,0-1.39,0-2.08q0-7.86,0-15.72a8.24,8.24,0,0,1,0-1Zm-22-1.92H425.9c.53,0,.58-.06.4-.55a11.84,11.84,0,0,0-5.09-6.28c-.38-.24-.42-.4-.17-.78l.83-1.28q.39-.61.76-1.23a.35.35,0,0,0-.1-.53c-.21-.15-.38-.06-.52.11s-.12.18-.18.26c-.56.81-1,1.69-1.6,2.49a.39.39,0,0,1-.57.16,7.7,7.7,0,0,0-1.12-.42,11.92,11.92,0,0,0-7.85.39.37.37,0,0,1-.54-.17c-.26-.42-.53-.84-.79-1.25l-.93-1.45a.36.36,0,0,0-.52-.14c-.22.12-.23.31-.12.51s.13.26.21.39l1.33,2.05c.27.42.24.59-.15.82a11,11,0,0,0-2.64,2.07A11.65,11.65,0,0,0,404,18.44c-.18.55-.15.58.44.58Zm15.37-4.79A1.29,1.29,0,0,1,421,15.38a1.3,1.3,0,0,1-1.16,1.22,1.25,1.25,0,0,1-1.2-1.17A1.3,1.3,0,0,1,419.81,14.24Zm-9.48.17a1.15,1.15,0,0,1,1.07,1.18,1.18,1.18,0,0,1-1.08,1.17,1.21,1.21,0,0,1-1.17-1.18A1.12,1.12,0,0,1,410.33,14.41ZM432.9,26.66c0-1.12,0-2.24,0-3.37a1.89,1.89,0,0,0-1.1-1.76,3.74,3.74,0,0,0-1.8-.25,2,2,0,0,0-2.15,2.15q0,2.76,0,5.53t0,5.65a1.93,1.93,0,0,0,1,1.79,3.38,3.38,0,0,0,2,.26c.21,0,.44.06.63,0a2.24,2.24,0,0,0,1.41-2.16c0-2.6,0-5.21,0-7.81Zm-32.52-5.38h-.92a2.13,2.13,0,0,0-2.16,2.42,9.33,9.33,0,0,1,0,1v4.77c0,1.75,0,3.5,0,5.25a1.87,1.87,0,0,0,1,1.68,3.34,3.34,0,0,0,2.11.25,2,2,0,0,0,1.91-2.16c0-.72-.06-1.44-.06-2.16,0-3-.07-6,.06-9A2.05,2.05,0,0,0,400.37,21.27Z"/><circle class="cls-3" cx="343.38" cy="28.9" r="28.9"/><path class="cls-2" d="M356.67,34a7.82,7.82,0,0,0,3.93,3.14,26.45,26.45,0,0,1-3.05,6.19q-3.22,4.85-6.36,4.85a11.81,11.81,0,0,1-3.47-.79,10.9,10.9,0,0,0-3.72-.79,8.9,8.9,0,0,0-3.51.84,9.44,9.44,0,0,1-3.3.79q-3.76,0-7.4-6.4a24.77,24.77,0,0,1-3.64-12.42,14.75,14.75,0,0,1,2.76-9.24,8.64,8.64,0,0,1,7-3.6,10.35,10.35,0,0,1,2,.23,9.06,9.06,0,0,1,2.34.86,13.17,13.17,0,0,0,2.13,1,4.55,4.55,0,0,0,1.3.27,8.6,8.6,0,0,0,1.67-.25,7.72,7.72,0,0,0,2.26-.92,17,17,0,0,1,2.09-1,5,5,0,0,1,1.8-.33A9.17,9.17,0,0,1,356.84,18a11.61,11.61,0,0,1,2.55,2.47,17.39,17.39,0,0,0-2.8,2.93,8.74,8.74,0,0,0-1.63,5.1A9.45,9.45,0,0,0,356.67,34Zm-8.4-19.53a7.87,7.87,0,0,1-2.68,1.8,8.55,8.55,0,0,1-1.07.23q-.65.1-1.48.19A11,11,0,0,1,345,10.37a10,10,0,0,1,6.19-3.68q.08.42.13.59v.46a9.71,9.71,0,0,1-.71,3.39,10.29,10.29,0,0,1-2.3,3.39Z"/><path class="cls-4" d="M291.14,25.66l-9.66-7.13"/><path class="cls-5" d="M156.68,25.66H291.14"/><path class="cls-6" d="M156.68,39.94l9.66,7.13"/><path class="cls-7" d="M291.14,39.94H156.68"/></g></g></svg>