<svg width="74" height="40" viewBox="0 0 74 40" xmlns="http://www.w3.org/2000/svg"><g fill="none" fill-rule="evenodd"><rect fill="#0172D5" width="74" height="40" rx="1"/><g fill-rule="nonzero"><path d="M20 30v-8h8.87l.951 1.185.984-1.185H63v7.448s-.842.544-1.816.552H43.357l-1.073-1.261V30h-3.516v-2.153s-.48.3-1.518.3h-1.197V30h-5.324l-.95-1.21-.965 1.21H20zM10 15.453L12.008 11h3.472l1.14 2.495V11h4.316l.679 1.803.657-1.803H41.65v.906S42.667 11 44.34 11l6.287.02 1.12 2.463V11h3.612l.995 1.414V11H60v8h-3.645l-.953-1.419V19h-5.307l-.534-1.261h-1.427L47.61 19h-3.6a3.642 3.642 0 0 1-2.36-.888V19h-5.427l-1.077-1.261V19h-20.18l-.533-1.261H13.01L12.48 19H10v-3.547z" fill="#FFF"/><path fill="#016FD0" d="M18 18v-6l2.547.009 1.48 3.868L23.475 12H26v6h-1.6v-4.421L22.704 18h-1.403L19.6 13.579V18zM27 18v-6h5v1.342h-3.452v1.026h3.371v1.264h-3.37v1.065H32V18zM33 12v6h1.562v-2.132h.657L37.092 18H39l-2.055-2.21c.844-.069 1.713-.764 1.713-1.843 0-1.263-1.031-1.947-2.183-1.947H33zm1.562 1.342h1.785c.428 0 .74.322.74.632 0 .398-.404.631-.717.631h-1.808v-1.263zM41 18h-2v-6h2zM22 29v-6h5v1.342h-3.452v1.026h3.371v1.264h-3.37v1.065H27V29zM27.06 29l2.521-2.963L27 23h2l1.537 1.877L32.079 23H34l-2.547 3 2.526 3h-2l-1.492-1.848L29.031 29zM34 23v6h1.69v-1.895h1.732c1.467 0 2.578-.709 2.578-2.087C40 23.876 39.128 23 37.636 23H34zm1.69 1.357h1.824c.474 0 .813.264.813.69 0 .401-.337.691-.818.691h-1.82v-1.381zM40 23v6h1.562v-2.132h.657L44.092 29H46l-2.055-2.21c.844-.069 1.713-.764 1.713-1.843 0-1.263-1.031-1.947-2.183-1.947H40zm1.562 1.342h1.785c.428 0 .74.322.74.632 0 .398-.404.631-.717.631h-1.808v-1.263z"/><g fill="#016FD0"><path d="M12.72 12.394L10.01 18.6h1.764l.5-1.243h2.905l.498 1.243h1.802l-2.706-6.207h-2.054zm1.001 1.444l.886 2.172h-1.774l.888-2.172zM44.432 18.6h-.347c-1.679 0-2.698-1.304-2.698-3.078 0-1.818 1.008-3.13 3.128-3.13h1.74v1.47h-1.804c-.86 0-1.469.663-1.469 1.675 0 1.202.696 1.707 1.699 1.707h.414l-.663 1.356zM47.858 12.394L45.15 18.6h1.763l.5-1.243h2.906l.497 1.243h1.802l-2.706-6.207h-2.054zm1.003 1.444l.885 2.172h-1.774l.889-2.172zM52.802 18.6v-6.207h2.002l2.556 3.9v-3.9h1.574V18.6h-1.937l-2.62-4.002V18.6zM46.653 29.462v-6.207h5.138v1.388h-3.547v1.062h3.448v1.306h-3.448v1.103h3.547v1.348zM52.52 29.462v-1.348h3.151c.467 0 .669-.248.669-.52 0-.262-.202-.525-.669-.525h-1.424c-1.237 0-1.927-.744-1.927-1.86 0-.995.632-1.954 2.47-1.954h3.067l-.663 1.396h-2.652c-.507 0-.663.262-.663.513 0 .257.193.54.58.54h1.492c1.38 0 1.979.772 1.979 1.782 0 1.086-.668 1.976-2.054 1.976H52.52zM58.3 29.462v-1.348h3.15c.467 0 .668-.248.668-.52 0-.262-.2-.525-.668-.525h-1.424c-1.237 0-1.927-.744-1.927-1.86 0-.995.631-1.954 2.47-1.954h3.067l-.663 1.396h-2.652c-.507 0-.663.262-.663.513 0 .257.193.54.58.54h1.492c1.38 0 1.978.772 1.978 1.782 0 1.086-.667 1.976-2.053 1.976h-3.356z"/></g></g></g></svg>