<svg width="71px" height="30px" viewBox="0 0 71 30" version="1.1" xmlns="http://www.w3.org/2000/svg" xmlns:xlink="http://www.w3.org/1999/xlink">
    <g id="页面-1" stroke="none" stroke-width="1" fill="none" fill-rule="evenodd">
        <g id="icon" transform="translate(-607.000000, -214.000000)">
            <g id="Mobitrix-User-Guides" transform="translate(177.000000, 174.000000)">
                <g id="android-to-ios" transform="translate(408.000000, 0.000000)">
                    <g id="Android-to-iPhone-icon-white" transform="translate(22.000000, 40.000000)">
                        <path d="M20.0943396,9.37735849 L20.0943396,21.9362947 C20.0943396,22.62704 19.5417508,23.1921953 18.8663607,23.1921953 L18.8663607,23.1921953 L17.6383818,23.1921953 L17.6383818,27.5878125 C17.6383818,28.6302031 16.8156165,29.4716981 15.7963964,29.4716981 C14.7771762,29.4716981 13.954411,28.6302031 13.954411,27.5878125 L13.954411,27.5878125 L13.954411,23.1921953 L11.4984192,23.1921953 L11.4984192,27.5878473 C11.4984192,28.6302378 10.6756539,29.4716981 9.65643381,29.4716981 C8.63721368,29.4716981 7.81444844,28.6302378 7.81444844,27.5878473 L7.81444844,27.5878473 L7.81444844,23.19223 L6.5864695,23.19223 C5.91107938,23.19223 5.35849057,22.6270747 5.35849057,21.9363294 L5.35849057,21.9363294 L5.35849057,9.37735849 L20.0943396,9.37735849 Z M65.4944678,6.7199576 C66.3536266,6.75675303 68.7567729,7.08107626 70.3051194,9.33737277 C70.1832933,9.42071035 67.4296977,11.0545261 67.4603738,14.3797548 C67.5017524,18.3940884 70.9627527,19.7106784 71,19.7243826 C70.9669167,19.8253166 70.4500421,21.63804 69.1800251,23.5020153 C68.0808249,25.1098944 66.9442149,26.7307908 65.1490606,26.759246 C63.3837041,26.7904485 62.8187823,25.7001914 60.8032025,25.7001914 C58.7901925,25.7001914 58.1573473,26.7307908 56.4889638,26.7904485 C54.7642377,26.8614228 53.4370649,25.0340794 52.3337009,23.4340501 C50.0787303,20.1563448 48.3424559,14.1458338 50.6710752,10.1177959 C51.8167937,8.10241956 53.8761269,6.82134945 56.1186709,6.78635291 C57.8086221,6.75423457 59.4164991,7.93737977 60.4429289,7.93737977 C61.4974324,7.93737977 63.4424865,6.50575904 65.4944678,6.7199576 Z M2.00943396,9.37735849 C3.1213079,9.37735849 4.01886792,10.1851598 4.01886792,11.1858541 L4.01886792,11.1858541 L4.01886792,19.6254667 C4.01886792,20.6261609 3.1213079,21.4339623 2.00943396,21.4339623 C0.89756002,21.4339623 0,20.6261609 0,19.6254667 L0,19.6254667 L0,11.1858541 C0,10.1851598 0.89756002,9.37735849 2.00943396,9.37735849 Z M23.4433962,9.37735849 C24.5552702,9.37735849 25.4528302,10.1851598 25.4528302,11.1858541 L25.4528302,11.1858541 L25.4528302,19.6254667 C25.4528302,20.6261609 24.5552702,21.4339623 23.4433962,21.4339623 C22.3315223,21.4339623 21.4339623,20.6261609 21.4339623,19.6254667 L21.4339623,19.6254667 L21.4339623,11.1858541 C21.4339623,10.1851598 22.3315223,9.37735849 23.4433962,9.37735849 Z M6.76453322,0.167894756 C7.00398329,-0.0559649187 7.39080817,-0.0559649187 7.63025823,0.167894756 L7.63025823,0.167894756 L9.45381751,1.87274798 C10.4423435,1.41352909 11.5475526,1.1494846 12.7264151,1.1494846 C13.8991596,1.1494846 14.9982167,1.41352909 15.9805908,1.86699819 L15.9805908,1.86699819 L17.7979981,0.173644509 C18.0374482,-0.0502151659 18.4242731,-0.0502151659 18.6637231,0.173644509 C18.9031732,0.397535941 18.9031732,0.759167629 18.6637231,0.983027304 L18.6637231,0.983027304 L17.0611921,2.48120662 C18.8970553,3.73259074 20.0943396,5.75314105 20.0943396,8.03773585 L20.0943396,8.03773585 L5.35849057,8.03773585 C5.35849057,5.75885905 6.54962297,3.73830874 8.37318224,2.48120662 L8.37318224,2.48120662 L6.76453322,0.977277551 C6.52508316,0.753386119 6.52508316,0.391754431 6.76453322,0.167894756 Z M10.7169811,5.35849057 L9.37735849,5.35849057 L9.37735849,6.69811321 L10.7169811,6.69811321 L10.7169811,5.35849057 Z M17.4150943,5.35849057 L16.0754717,5.35849057 L16.0754717,6.69811321 L17.4150943,6.69811321 L17.4150943,5.35849057 Z M65.60944,0 C65.8104206,1.69654762 65.0465471,3.40487907 63.8841042,4.64766008 C62.7279138,5.84470268 60.8317566,6.7892707 58.9876224,6.6910961 C58.7264047,5.01424786 59.6630203,3.27930434 60.7256676,2.20146097 C61.9275057,0.966058278 63.9496946,0.0570566157 65.60944,0 Z" id="形状结合" fill="currentColor" fill-rule="nonzero"></path>
                        <polyline id="路径-2" stroke="currentColor" stroke-width="1.5" stroke-linecap="round" stroke-linejoin="round" points="30.8113208 16.0754717 45.5471698 16.0754717 40.852356 12.0566038"></polyline>
                    </g>
                </g>
            </g>
        </g>
    </g>
</svg>