<svg width="76" height="42" viewBox="0 0 76 42" xmlns="http://www.w3.org/2000/svg" xmlns:xlink="http://www.w3.org/1999/xlink"><defs><rect id="a" width="74" height="40" rx="1"/></defs><g transform="translate(1 1)" fill="none" fill-rule="evenodd"><mask id="b" fill="#fff"><use xlink:href="#a"/></mask><rect stroke="#E9EDF2" x="-.5" y="-.5" width="75" height="41" rx="1"/><g mask="url(#b)"><path d="M45.236 17.143c.002 2.112-1.43 3.954-3.43 4.414-1.447.333-2.798.09-3.986-.844-1.009-.793-1.536-1.872-1.654-3.161-.148-1.608.42-2.918 1.634-3.921.987-.817 2.138-1.138 3.401-.997 1.444.162 2.578.857 3.365 2.111.463.738.658 1.56.67 2.398" fill="#FF6000" fill-rule="nonzero"/><path d="M12.883 19.99c.617.012 1.206.014 1.786-.135.598-.153 1.087-.467 1.436-.965.746-1.064.814-2.182.194-3.319a2.488 2.488 0 0 0-1.748-1.286c-.405-.082-.827-.084-1.242-.116-.139-.01-.278-.002-.426-.002v5.823zm-1.74 1.484V12.69c.077-.006.149-.017.22-.017.77-.002 1.54 0 2.308-.001.936-.002 1.83.174 2.65.63 1.232.685 1.932 1.734 2.138 3.104.17 1.119-.056 2.161-.696 3.101-.82 1.205-1.982 1.871-3.452 1.951-1.008.056-2.022.027-3.033.035-.04 0-.08-.01-.135-.018zM62.62 16.724c.45.023.882.026 1.3-.103.406-.124.705-.37.837-.778.086-.263.09-.532.033-.801-.084-.402-.33-.673-.712-.825-.468-.187-.957-.16-1.458-.144v2.65zm-.007 1.261v3.453c-.185.066-1.411.082-1.741.026v-8.766c.038-.009.076-.025.114-.025.995.005 1.99-.007 2.983.025.617.02 1.2.2 1.71.564.594.426.867 1.024.934 1.725.043.438.007.87-.144 1.287-.274.756-.833 1.208-1.6 1.434-.08.023-.16.043-.279.075l2.803 3.69c-.106.01-.176.02-.246.02-.552.001-1.103-.006-1.654.004-.172.004-.272-.052-.366-.191-.721-1.066-1.452-2.127-2.176-3.191-.081-.12-.16-.212-.338-.13zM67.64 13.594c.07.003.135.003.2-.011.062-.015.108-.042.128-.089a.131.131 0 0 0 .005-.09c-.013-.046-.05-.077-.109-.094-.072-.021-.147-.018-.224-.016v.3zm0 .143v.391c-.03.008-.217.01-.268.003v-.993l.018-.003c.152 0 .305 0 .457.003a.588.588 0 0 1 .262.064.249.249 0 0 1 .144.195.25.25 0 0 1-.022.146c-.043.086-.128.137-.246.163l-.043.008.43.418-.038.003h-.253c-.026 0-.042-.006-.056-.022l-.334-.361c-.012-.014-.024-.024-.052-.015zM54.747 21.487v-8.802h4.934v1.48h-3.183v1.96h3.077c.001.502.007.981-.007 1.49h-3.07v2.377h3.194c.01.509.012.994-.003 1.495h-4.942zM27.623 13.511l-.903 1.163c-.118-.107-.219-.206-.327-.295-.546-.447-1.152-.531-1.803-.26-.298.123-.51.34-.581.664-.059.267-.005.515.21.695.151.126.322.239.502.319.357.159.726.291 1.09.434.42.166.826.356 1.196.615.525.367.825.862.9 1.498.059.506.036 1.002-.14 1.482-.34.928-1.018 1.51-1.976 1.76a3.74 3.74 0 0 1-2.454-.168c-.681-.288-1.18-.784-1.602-1.394l1.118-1.062.132.2c.445.665 1.073.99 1.883.968.827-.023 1.42-.757 1.227-1.51a.988.988 0 0 0-.566-.683c-.378-.17-.767-.32-1.156-.469-.49-.187-.98-.376-1.402-.697-.44-.333-.677-.77-.758-1.31-.238-1.6.974-2.826 2.527-2.92.989-.06 1.884.197 2.671.795.066.05.127.105.212.175M52.034 12.681h1.843c-.013.194-3.492 8.39-3.828 9.023h-.94l-3.795-9.018h1.91l2.361 5.84c.857-1.939 1.641-3.895 2.45-5.845M35.416 19.22v1.928c-1.488.854-4.06.816-5.702-.926-1.495-1.586-1.678-4.175-.224-5.976 1.461-1.81 4.094-2.26 5.923-1.221v1.97c-.067-.048-.119-.08-.164-.118-.31-.266-.637-.506-1.025-.653-.928-.352-2.27-.211-3.154.785-.658.74-.872 1.609-.741 2.569.095.697.383 1.304.916 1.788.458.415 1.004.635 1.617.72.916.128 1.698-.138 2.367-.754.043-.04.09-.074.135-.11.005-.003.015 0 .052-.003M21.056 21.476H19.34v-8.759c.174-.058 1.438-.07 1.717-.012v8.771z" fill="#000" fill-rule="nonzero"/><path d="M67.611 12.926a.544.544 0 0 0-.561.538.546.546 0 0 0 .532.567.537.537 0 0 0 .558-.538c.003-.318-.224-.561-.529-.567m.671.56a.695.695 0 0 1-.692.673.681.681 0 1 1 .692-.674" fill="#000" fill-rule="nonzero"/><path d="M74.714 19.857v20.714c0 .395-.32.715-.714.715H26.857c14.082-3.541 24.082-6.636 30-9.286 5.918-2.65 11.87-6.697 17.857-12.143z" fill="#FF6000" fill-rule="nonzero"/><path d="M25.88 25.063v4.08h.623v-3.069h.023l2.108 3.069h.606v-4.08h-.623v3.034h-.023l-2.085-3.034h-.629zm4.166 0v4.08h3.028v-.532H30.67v-1.297h2.171v-.531h-2.171v-1.189h2.308v-.531h-2.931zm3.348 0v.531h1.366v3.549h.617v-3.549h1.36v-.531h-3.343zm3.463 0l1.172 4.08h.668l.829-3.149h.023l.828 3.149h.663l1.177-4.08h-.703l-.794 3.177h-.023l-.834-3.177h-.652l-.834 3.177h-.023l-.794-3.177h-.703zm7.594-.08c-.622 0-1.114.2-1.468.611-.343.389-.509.892-.509 1.515 0 .617.166 1.12.509 1.508.354.4.846.606 1.468.606.618 0 1.109-.2 1.469-.6.343-.389.514-.892.514-1.514 0-.629-.171-1.138-.514-1.52-.36-.406-.851-.606-1.469-.606zm0 .548c.435 0 .772.138 1.006.423.229.28.349.663.349 1.155 0 .485-.12.868-.349 1.142-.234.28-.571.423-1.006.423-.434 0-.771-.148-1.011-.434-.229-.28-.343-.657-.343-1.131 0-.48.114-.858.343-1.138.24-.297.577-.44 1.011-.44zm2.612-.468v4.08h.623v-1.686h1.103c.234 0 .411.046.537.149.12.103.194.263.217.491l.051.509c.023.228.08.411.177.537h.675c-.137-.149-.217-.349-.24-.6l-.069-.652c-.046-.4-.246-.64-.611-.72v-.011a.913.913 0 0 0 .531-.36.978.978 0 0 0 .172-.571c0-.389-.126-.68-.378-.886-.24-.189-.571-.28-.982-.28h-1.806zm.623.531h1.097c.286 0 .491.052.628.16.126.103.195.269.195.497 0 .218-.069.383-.2.498-.137.114-.343.177-.617.177h-1.103v-1.332zm5.925-.531h.789l-1.806 1.754 2.069 2.326h-.834l-1.658-1.92-.531.508v1.412h-.623v-4.08h.623v1.971l1.971-1.971z" fill="#000" fill-rule="nonzero"/></g></g></svg>