<svg width="76" height="42" viewBox="0 0 76 42" xmlns="http://www.w3.org/2000/svg"><defs><linearGradient x1="-57.527%" y1="50.124%" x2="232.391%" y2="50.124%" id="a"><stop stop-color="#007940" offset="0%"/><stop stop-color="#00873F" offset="22.85%"/><stop stop-color="#40A737" offset="74.33%"/><stop stop-color="#5CB531" offset="100%"/></linearGradient><linearGradient x1=".183%" y1="49.96%" x2="100.273%" y2="49.96%" id="b"><stop stop-color="#007940" offset="0%"/><stop stop-color="#00873F" offset="22.85%"/><stop stop-color="#40A737" offset="74.33%"/><stop stop-color="#5CB531" offset="100%"/></linearGradient><linearGradient x1="-62.802%" y1="49.858%" x2="253.671%" y2="49.858%" id="c"><stop stop-color="#007940" offset="0%"/><stop stop-color="#00873F" offset="22.85%"/><stop stop-color="#40A737" offset="74.33%"/><stop stop-color="#5CB531" offset="100%"/></linearGradient><linearGradient x1=".176%" y1="50.006%" x2="101.808%" y2="50.006%" id="d"><stop stop-color="#1F286F" offset="0%"/><stop stop-color="#004E94" offset="47.51%"/><stop stop-color="#0066B1" offset="82.61%"/><stop stop-color="#006FBC" offset="100%"/></linearGradient><linearGradient x1="-.576%" y1="49.914%" x2="98.133%" y2="49.914%" id="e"><stop stop-color="#6C2C2F" offset="0%"/><stop stop-color="#882730" offset="17.35%"/><stop stop-color="#BE1833" offset="57.31%"/><stop stop-color="#DC0436" offset="85.85%"/><stop stop-color="#E60039" offset="100%"/></linearGradient></defs><g transform="translate(1 1)" fill="none" fill-rule="evenodd"><rect stroke="#E9EDF2" fill="#FFF" x="-.5" y="-.5" width="75" height="41" rx="1"/><g fill-rule="nonzero"><path d="M27 17h2.71c.077 0 .258-.031.335-.031.516-.125.955-.688.955-1.469 0-.75-.439-1.313-.955-1.469C29.968 14 29.813 14 29.71 14H27v3z" fill="url(#a)" transform="translate(19 7)"/><path d="M29.483 0c-2.45 0-4.459 2.005-4.459 4.504v4.677h6.297c.147 0 .318 0 .44.025 1.422.074 2.475.817 2.475 2.104 0 1.014-.71 1.88-2.033 2.054v.05c1.445.098 2.548.915 2.548 2.177 0 1.361-1.225 2.252-2.842 2.252H25V27h6.541C33.991 27 36 24.995 36 22.496V0h-6.517z" fill="url(#b)" transform="translate(19 7)"/><path d="M31 11c0-.545-.479-.91-1.042-.977-.057 0-.197-.023-.282-.023H27v2h2.676c.085 0 .254 0 .282-.023C30.52 11.91 31 11.545 31 11z" fill="url(#c)" transform="translate(19 7)"/><path d="M4.483 0C2.033 0 .024 2.006.024 4.508V15.63c1.25.62 2.548 1.016 3.847 1.016 1.543 0 2.376-.941 2.376-2.23v-5.25h3.822v5.226c0 2.03-1.25 3.69-5.488 3.69-2.572 0-4.581-.57-4.581-.57V27h6.541C8.991 27 11 24.994 11 22.492V0H4.483z" fill="url(#d)" transform="translate(19 7)"/><path d="M16.459 0C14.009 0 12 2.003 12 4.5v5.885c1.127-.965 3.087-1.583 6.247-1.434 1.69.074 3.504.544 3.504.544v1.903c-.907-.47-1.985-.89-3.381-.989-2.401-.173-3.847 1.014-3.847 3.091 0 2.102 1.446 3.288 3.847 3.09 1.396-.098 2.474-.543 3.38-.988v1.903s-1.788.47-3.503.544c-3.16.149-5.12-.47-6.247-1.434V27h6.541C20.991 27 23 24.997 23 22.5V0h-6.541z" fill="url(#e)" transform="translate(19 7)"/></g></g></svg>