<svg width="76" height="42" viewBox="0 0 76 42" xmlns="http://www.w3.org/2000/svg"><g transform="translate(1 1)" fill="none" fill-rule="evenodd"><rect stroke="#E9EDF2" fill="#FFF" x="-.5" y="-.5" width="75" height="41" rx="1"/><g fill-rule="nonzero"><path fill="#FF5F00" d="M31 11h11v19H31z"/><path d="M32.292 20c0-3.833 1.856-7.233 4.708-9.433A12.537 12.537 0 0 0 29.371 8C22.533 8 17 13.367 17 20s5.533 12 12.371 12c2.887 0 5.533-.967 7.629-2.567-2.852-2.166-4.708-5.6-4.708-9.433z" fill="#EB001B"/><path d="M57 20c0 6.633-5.533 12-12.371 12-2.887 0-5.533-.967-7.629-2.567 2.887-2.2 4.708-5.6 4.708-9.433S39.852 12.767 37 10.567A12.537 12.537 0 0 1 44.629 8C51.467 8 57 13.4 57 20z" fill="#F79E1B"/></g></g></svg>