<svg xmlns="http://www.w3.org/2000/svg" viewBox="0 0 91.33 91.33"><defs><style>.cls-1{fill:#52c41a;}.cls-2{fill:#fff;}</style></defs><title>Success</title><g id="图层_2" data-name="图层 2"><g id="图层_1-2" data-name="图层 1"><rect class="cls-1" width="91.33" height="91.33" rx="45.66" ry="45.66"/><path class="cls-1" d="M42,4.23a38.06,38.06,0,1,1-35.5,35.5A38.06,38.06,0,0,1,42,4.23Zm-4.21,49-8.08-8.08a3.81,3.81,0,1,0-5.47,5.29l.09.09L35,61.3a3.81,3.81,0,0,0,5.38,0L67.33,34.4a3.81,3.81,0,0,0-5.21-5.55L62,29,37.73,53.23Z"/><path class="cls-2" d="M34.9,56.47,24.14,45.72a5.07,5.07,0,1,0-7.29,7l.12.12L31.31,67.21a5.07,5.07,0,0,0,7.16,0L74.29,31.39A5.07,5.07,0,0,0,67.36,24l-.23.23L34.89,56.46Z"/></g></g></svg>