<svg width="76" height="42" viewBox="0 0 76 42" xmlns="http://www.w3.org/2000/svg" xmlns:xlink="http://www.w3.org/1999/xlink"><defs><rect id="a" width="74" height="40" rx="1"/><path id="c" d="M.01 15.928h64.078V.132H.01z"/><path id="e" d="M.01 15.928h64.078V.132H.01z"/><path id="g" d="M.01 15.928h64.078V.132H.01z"/><path id="i" d="M.01 15.928h64.078V.132H.01z"/></defs><g transform="translate(1 1)" fill="none" fill-rule="evenodd"><mask id="b" fill="#fff"><use xlink:href="#a"/></mask><rect stroke="#E9EDF2" x="-.5" y="-.5" width="75" height="41" rx="1"/><g mask="url(#b)"><path d="M54.762 19.017c-.193 1.285-1.159 1.285-2.093 1.285h-.532l.373-2.4a.295.295 0 0 1 .29-.251h.244c.636 0 1.237 0 1.546.368.186.22.242.547.172.998zm-.407-3.353h-3.524a.492.492 0 0 0-.484.42l-1.424 9.18a.297.297 0 0 0 .29.345h1.808a.344.344 0 0 0 .338-.294l.404-2.603a.492.492 0 0 1 .484-.42h1.115c2.321 0 3.66-1.14 4.011-3.402.158-.99.006-1.767-.45-2.311-.5-.598-1.389-.915-2.568-.915z" fill="#2790C3" fill-rule="nonzero"/><path d="M29.628 19.017c-.193 1.285-1.159 1.285-2.093 1.285h-.532l.373-2.4a.295.295 0 0 1 .29-.251h.244c.636 0 1.237 0 1.546.368.186.22.242.547.172.998zm-.407-3.353h-3.524a.492.492 0 0 0-.484.42l-1.425 9.18a.297.297 0 0 0 .29.345h1.683c.241 0 .446-.179.484-.42l.384-2.477a.492.492 0 0 1 .484-.42h1.115c2.321 0 3.66-1.14 4.011-3.402.158-.99.006-1.767-.45-2.311-.5-.598-1.39-.915-2.568-.915zM37.402 22.312c-.163.98-.928 1.637-1.905 1.637-.489 0-.88-.16-1.133-.462-.25-.3-.343-.728-.264-1.204.152-.971.93-1.65 1.891-1.65.48 0 .868.162 1.125.467.259.308.36.739.286 1.212zm2.352-3.336h-1.688a.295.295 0 0 0-.29.252l-.074.48-.118-.175c-.365-.538-1.18-.718-1.993-.718-1.864 0-3.457 1.435-3.767 3.448-.161 1.004.068 1.963.628 2.633.515.616 1.25.872 2.126.872 1.502 0 2.336-.98 2.336-.98l-.076.475a.297.297 0 0 0 .29.346h1.52c.241 0 .446-.178.484-.42l.912-5.868a.297.297 0 0 0-.29-.345z" fill="#27346A" fill-rule="nonzero"/><path d="M62.536 22.312c-.163.98-.928 1.637-1.904 1.637-.49 0-.882-.16-1.134-.462-.25-.3-.343-.728-.264-1.204.152-.971.93-1.65 1.891-1.65.48 0 .868.162 1.125.467.259.308.36.739.286 1.212zm2.352-3.336H63.2a.295.295 0 0 0-.29.252l-.074.48-.118-.175c-.365-.538-1.18-.718-1.993-.718-1.864 0-3.457 1.435-3.767 3.448-.161 1.004.068 1.963.628 2.633.515.616 1.25.872 2.126.872 1.502 0 2.336-.98 2.336-.98l-.076.475a.297.297 0 0 0 .29.346h1.52c.241 0 .446-.178.484-.42l.912-5.868a.297.297 0 0 0-.29-.345z" fill="#2790C3" fill-rule="nonzero"/><g transform="translate(5 12)"><mask id="d" fill="#fff"><use xlink:href="#c"/></mask><path d="M43.74 6.976h-1.695a.488.488 0 0 0-.405.218l-2.34 3.5-.991-3.363a.49.49 0 0 0-.47-.355h-1.667a.298.298 0 0 0-.278.395l1.868 5.568-1.757 2.518a.299.299 0 0 0 .24.471h1.694c.161 0 .311-.08.403-.214l5.64-8.27a.299.299 0 0 0-.241-.468" fill="#27346A" fill-rule="nonzero" mask="url(#d)"/></g><g transform="translate(5 12)"><mask id="f" fill="#fff"><use xlink:href="#e"/></mask><path d="M61.877 3.917l-1.447 9.347a.297.297 0 0 0 .29.345h1.455c.241 0 .446-.179.484-.42l1.426-9.18a.297.297 0 0 0-.29-.345h-1.628a.295.295 0 0 0-.29.253" fill="#2790C3" fill-rule="nonzero" mask="url(#f)"/></g><g transform="translate(5 12)"><mask id="h" fill="#fff"><use xlink:href="#g"/></mask><path d="M6.676 15.278l.474-3.052.03-.17a.629.629 0 0 1 .209-.377.612.612 0 0 1 .4-.15h.377c.627 0 1.203-.069 1.712-.203a4.312 4.312 0 0 0 1.436-.662 3.92 3.92 0 0 0 1.084-1.205c.301-.513.522-1.13.657-1.834.12-.622.142-1.179.067-1.655-.08-.504-.27-.933-.567-1.277a2.4 2.4 0 0 0-.685-.537l-.007-.003v-.008c.096-.621.092-1.14-.01-1.585a2.825 2.825 0 0 0-.642-1.229C10.53.544 9.293.144 7.533.144H2.701a.674.674 0 0 0-.442.166.694.694 0 0 0-.23.417L.018 13.69a.412.412 0 0 0 .092.33.4.4 0 0 0 .306.143h2.998l-.002.015-.206 1.326a.36.36 0 0 0 .08.287c.066.08.163.125.266.125h2.515a.587.587 0 0 0 .385-.145.606.606 0 0 0 .2-.363l.025-.13" fill="#27346A" fill-rule="nonzero" mask="url(#h)"/></g><g transform="translate(5 12)"><mask id="j" fill="#fff"><use xlink:href="#i"/></mask><path d="M4.953 4.162a.613.613 0 0 1 .598-.52h3.788c.449 0 .867.03 1.25.093a5.427 5.427 0 0 1 .62.14 3.745 3.745 0 0 1 .666.27c.19-1.229 0-2.065-.655-2.822C10.5.489 9.198.133 7.533.133H2.701c-.34 0-.63.25-.683.592L.005 13.689a.42.42 0 0 0 .41.487h2.983L4.953 4.162" fill="#27346A" fill-rule="nonzero" mask="url(#j)"/></g><path d="M16.875 16.145c-.014.094-.03.19-.05.288-.636 3.324-2.817 4.473-5.602 4.473H9.805a.693.693 0 0 0-.68.593l-.932 6.003a.367.367 0 0 0 .358.426h2.515c.297 0 .55-.22.597-.518l.025-.13.474-3.052.03-.169a.608.608 0 0 1 .598-.518h.376c2.436 0 4.344-1.006 4.901-3.914.233-1.215.113-2.23-.503-2.942a2.4 2.4 0 0 0-.689-.54" fill="#2790C3" fill-rule="nonzero"/><path d="M16.208 15.875a4.57 4.57 0 0 0-.62-.14 7.782 7.782 0 0 0-1.25-.092h-3.787a.613.613 0 0 0-.597.519l-.806 5.186-.023.151a.693.693 0 0 1 .68-.593h1.418c2.785 0 4.966-1.15 5.603-4.473.019-.099.035-.194.05-.288a3.396 3.396 0 0 0-.668-.27" fill="#1F264F" fill-rule="nonzero"/></g></g></svg>