<svg width="76" height="42" viewBox="0 0 76 42" xmlns="http://www.w3.org/2000/svg" xmlns:xlink="http://www.w3.org/1999/xlink"><defs><rect id="a" width="74" height="40" rx="1"/></defs><g transform="translate(1 1)" fill="none" fill-rule="evenodd"><mask id="b" fill="#fff"><use xlink:href="#a"/></mask><rect stroke="#E9EDF2" x="-.5" y="-.5" width="75" height="41" rx="1"/><g mask="url(#b)" fill-rule="nonzero"><path d="M12 13.211c.598-.309 1.281-.184 1.924-.196 1.47.039 2.944-.036 4.415.03.663-.003 1.232.55 1.323 1.195.462 2.249.885 4.506 1.338 6.76-.749-2.64-2.726-4.797-5.049-6.168-1.228-.74-2.598-1.172-3.951-1.62z" fill="#F4A929"/><path d="M26.079 13c1.309.015 2.615.009 3.921 0-1.986 4.655-3.84 9.363-5.868 14-1.276-.039-2.552-.02-3.827-.02-1.13-4.048-2.184-8.116-3.305-12.166 2.384 1.373 4.413 3.532 5.182 6.176.115.512.197 1.037.297 1.555 1.191-3.184 2.397-6.364 3.6-9.545zM30.288 13c1.237.009 2.475.009 3.712 0-.76 4.667-1.561 9.328-2.303 13.998-1.232.003-2.463.003-3.697 0 .709-4.673 1.543-9.328 2.288-13.998zM37.5 14.182c2.197-1.477 5.07-1.433 7.5-.616-.112 1.074-.288 2.139-.47 3.2-1.292-.634-2.8-.916-4.204-.547-.663.16-1.316 1.003-.765 1.634 1.132 1.186 2.915 1.455 3.98 2.746 1.235 1.235 1.19 3.315.348 4.76-.89 1.527-2.603 2.325-4.27 2.554-1.887.202-3.851.08-5.619-.665.188-1.084.345-2.173.536-3.257 1.528.808 3.302 1.214 5.006.827.579-.198 1.175-.684 1.123-1.378-.19-.826-1.035-1.179-1.692-1.554-1.274-.64-2.645-1.427-3.217-2.835-.712-1.78.23-3.863 1.743-4.87zM50.26 14.422c.24-.644.718-1.344 1.473-1.383 1.11-.077 2.225-.012 3.335-.033.993 4.662 1.954 9.326 2.932 13.988L54.653 27a98.04 98.04 0 0 1-.45-2.11c-1.549 0-3.094.003-4.639-.006a89.411 89.411 0 0 1-.77 2.113c-1.264 0-2.53 0-3.794.003 1.748-4.194 3.514-8.381 5.26-12.578z" fill="#1B4DA2"/><path d="M50 22.997c.673-1.66 1.224-3.368 1.978-4.997.224 1.686.662 3.337 1.022 5-1.001 0-1.999 0-3-.003z" fill="#FFF"/></g></g></svg>