<svg xmlns="http://www.w3.org/2000/svg" xmlns:xlink="http://www.w3.org/1999/xlink" viewBox="0 0 164 163.46"><defs><style>.cls-1{fill:none;}.cls-2{fill:#ff9c7b;}.cls-3{fill:#ef8970;}.cls-4{fill:#5996bf;}.cls-5{fill:#c9b8ba;}.cls-6{fill:#ffedee;}.cls-7{clip-path:url(#clip-path);}.cls-8{fill:#69b7e1;}.cls-9{fill:#853f38;}.cls-10{fill:#352836;}.cls-11{fill:#1d161e;opacity:0.7;}</style><clipPath id="clip-path"><path class="cls-1" d="M17.49,133.14c5.79-15.57,40.23-23.27,48.3-28A44.89,44.89,0,0,0,88.34,111a45.45,45.45,0,0,0,20-4.51c11.31,4.81,40.19,12.46,45.45,26.6A176.1,176.1,0,0,1,162,163.46H9.25A176.09,176.09,0,0,1,17.49,133.14Z"/></clipPath></defs><title>资源 10</title><g id="图层_2" data-name="图层 2"><g id="图层_1-2" data-name="图层 1"><path class="cls-2" d="M18.54,133.36c5.95-16,42.31-23.61,48.68-28.24,8.18-5.95,5.57-25.64,5.57-25.64l13.38.35,13.38-.35s-2.6,19.7,5.57,25.64c6.37,4.63,42.74,12.26,48.68,28.24a174.81,174.81,0,0,1,8.18,30.1H10.37A174.81,174.81,0,0,1,18.54,133.36Z"/><path class="cls-3" d="M102,101.44c-6.26-.64-12.56-1.91-18-5a61.43,61.43,0,0,1-10.88-7.8,60.74,60.74,0,0,0-.35-9.21l13.38.35,13.38-.35S97.7,93.49,102,101.44Z"/><path class="cls-4" d="M17.49,133.14c5.79-15.57,40.23-23.27,48.3-28A44.89,44.89,0,0,0,88.34,111a45.45,45.45,0,0,0,20-4.51c11.31,4.81,40.19,12.46,45.45,26.6A176.1,176.1,0,0,1,162,163.46H9.25A176.09,176.09,0,0,1,17.49,133.14Z"/><path class="cls-5" d="M84.33,107.63l.88,3.62,1.62-3.12.91,3.27a34.26,34.26,0,0,1-5.81-.3C77.92,110.66,84.33,107.63,84.33,107.63Z"/><polygon class="cls-6" points="65.83 101.63 84.33 107.63 79.33 118.63 59.83 106.13 65.83 101.63"/><polygon class="cls-6" points="86.83 108.13 88.83 120.13 110.83 106.13 106.33 102.13 86.83 108.13"/><g class="cls-7"><rect class="cls-8" y="134.96" width="164" height="20"/></g><path class="cls-3" d="M108.64,48.77c2.16-6.7,7.28-5.15,7.76-5s5.79.84,4.88,7.83-5,10.83-8.82,9.71C108.52,60.7,106.47,55.51,108.64,48.77Z"/><path class="cls-3" d="M64.38,48.77c-2.16-6.7-7.28-5.15-7.76-5s-5.79.84-4.88,7.83,5,10.83,8.82,9.71C64.5,60.7,66.56,55.51,64.38,48.77Z"/><path class="cls-2" d="M59.92,38.22C62.6,8.83,84.94,10.48,87,10.7c2.11-.22,24.45-1.87,27.13,27.52C116.87,67.78,103.7,87.09,87,86,70.4,87.09,57.23,67.78,59.92,38.22Z"/><path class="cls-9" d="M85.27,63.09a7.89,7.89,0,0,1,1.54-2,11.69,11.69,0,0,1,2-1.54L88.6,60c-.54-3.89-1-7.8-1.41-11.72.88,3.84,1.63,7.7,2.34,11.57l0,.21-.2.23a11.71,11.71,0,0,1-1.84,1.66A7.9,7.9,0,0,1,85.27,63.09Z"/><ellipse class="cls-10" cx="99.11" cy="48.7" rx="1.83" ry="4.01"/><ellipse class="cls-10" cx="73.9" cy="48.7" rx="1.83" ry="4.01"/><path class="cls-10" d="M105.45,42.14a35.18,35.18,0,0,0-3.27-1.67A10.27,10.27,0,0,0,99,39.61a6.69,6.69,0,0,0-3.11.42,11.67,11.67,0,0,0-1.6.68c-.54.27-1,.62-1.67.89a9.17,9.17,0,0,1,1-1.7,7.07,7.07,0,0,1,1.5-1.36,6,6,0,0,1,4.06-1.06A7.35,7.35,0,0,1,103,39,7.6,7.6,0,0,1,105.45,42.14Z"/><path class="cls-10" d="M80.06,42.14a35.17,35.17,0,0,0-3.27-1.67,10.28,10.28,0,0,0-3.14-.86,6.69,6.69,0,0,0-3.11.42,11.66,11.66,0,0,0-1.6.68c-.54.27-1,.62-1.67.89a9.17,9.17,0,0,1,1-1.7,7.07,7.07,0,0,1,1.5-1.36,6,6,0,0,1,4.06-1.06A7.34,7.34,0,0,1,77.66,39,7.59,7.59,0,0,1,80.06,42.14Z"/><path class="cls-9" d="M95.91,68.34a13.92,13.92,0,0,1-8.6,3.34,12.79,12.79,0,0,1-4.66-.74,11.9,11.9,0,0,1-4-2.39,18.32,18.32,0,0,0,8.62,2A22.26,22.26,0,0,0,95.91,68.34Z"/><path class="cls-10" d="M58.33,24.63c0,10,1,21.27,1.55,27.23l2.52-.13.43-26.1c24.5,11,43.5-14,42.5-4s7,17.5,7,17.5l-.61,11.55h4.08c1.85-9.16,4.71-25,4-32.56-1-11-9.5-8.5-9.5-8.5-4-12.5-30-1-38.5-5.5s-24-8-25.5,4.5S58.33,24.63,58.33,24.63Z"/><path class="cls-11" d="M119.83,18.13c-1-11-9.5-8.5-9.5-8.5-1-3.09-3.32-4.71-6.4-5.47a68,68,0,0,1-2.1,15.72c2.5-1.1,3.77-1,3.5,1.75-1,10,7,17.5,7,17.5l-.61,11.55h4.08C117.66,41.53,120.52,25.69,119.83,18.13Z"/></g></g></svg>