<svg xmlns="http://www.w3.org/2000/svg" viewBox="0 0 275.32 64"><defs><style>.cls-1,.cls-5{fill:#fff;}.cls-2{fill:#ff3000;}.cls-3{fill:#ad2d00;}.cls-4{fill:#ff6d00;}.cls-5{font-size:36.8px;font-family:Impact, Impact;letter-spacing:0.02em;}</style></defs><title>资源 1</title><g id="图层_2" data-name="图层 2"><g id="图层_1-2" data-name="图层 1"><path class="cls-1" d="M242.65,2V18.77h30.67L257.8,40l15.52,22H213V47.22H62.65V62H2L17.59,40,2,18.77H33V2H242.65m30.67,16.77h0M242.65,0H33a2,2,0,0,0-2,2V16.77H2A2,2,0,0,0,.39,20L15.13,40,.37,60.84A2,2,0,0,0,2,64H62.65a2,2,0,0,0,2-2V49.22H211V62a2,2,0,0,0,2,2h60.35A2,2,0,0,0,275,60.85L260.26,40l14.63-20a2,2,0,0,0-1.57-3.24H244.65V2a2,2,0,0,0-2-2Z"/><polygon class="cls-2" points="2 18.77 62.65 18.77 62.65 62 2 62 17.59 39.98 2 18.77"/><polygon class="cls-3" points="62.53 62 32.97 47.22 62.53 47.22 62.53 62"/><polygon class="cls-2" points="273.32 18.77 212.97 18.77 212.97 62 273.32 62 257.8 39.98 273.32 18.77"/><rect class="cls-4" x="32.97" y="2" width="209.68" height="45.22"/><polygon class="cls-3" points="213.09 62 242.65 47.22 213.09 47.22 213.09 62"/><text class="cls-5" transform="translate(61.12 39.55) scale(1.23 1)">70% OFF</text></g></g></svg>