<svg xmlns="http://www.w3.org/2000/svg" viewBox="0 0 55.81 59.65"><defs><style>.cls-1{fill:#05f;}</style></defs><title>资源 15</title><g id="图层_2" data-name="图层 2"><g id="图层_1-2" data-name="图层 1"><path class="cls-1" d="M42.86,42.24,17.41,16.81A8.56,8.56,0,0,0,5.93,6a1.64,1.64,0,0,0-.5,2.66l2.81,2.81-2,2L3.4,10.67a1.63,1.63,0,0,0-1.47-.46,1.65,1.65,0,0,0-1.2,1A8.56,8.56,0,0,0,11.58,22.63L37,48.08a8.56,8.56,0,0,0,2,9.08A8.68,8.68,0,0,0,45,59.65a8.58,8.58,0,0,0,3.46-.73,1.64,1.64,0,0,0,.5-2.66l-2.81-2.81,2-2L51,54.21a1.63,1.63,0,0,0,1.47.46,1.65,1.65,0,0,0,1.2-1A8.56,8.56,0,0,0,42.86,42.24Z"/><path class="cls-1" d="M20.82,34.56a1.64,1.64,0,0,0-2.32,0L1.33,51.73a1.68,1.68,0,0,0-.47,1.16,1.63,1.63,0,0,0,.48,1.17l4.29,4.29a1.68,1.68,0,0,0,1.16.47,1.71,1.71,0,0,0,1.17-.48L25.1,41.15a1.64,1.64,0,0,0,0-2.32"/><path class="cls-1" d="M25.1,38.83a1.64,1.64,0,0,0-2.32,0l-16,16L4.83,52.89l16-16a1.64,1.64,0,0,0,0-2.32"/><path class="cls-1" d="M29.43,25.65a1.64,1.64,0,0,0,2.32,0L44.06,13.33a1.64,1.64,0,0,0,0-2.32L39.63,6.58,42.3,3.91C44.46,6,49.09,10.62,50.76,14a17.39,17.39,0,0,1,1.52,5.37,14.22,14.22,0,0,0-1.7-2.18,17.44,17.44,0,0,0-2.48-2.12,1.64,1.64,0,0,0-2.06.21L33.72,27.61a1.64,1.64,0,0,0,0,2.32"/><path class="cls-1" d="M33.73,29.93a1.68,1.68,0,0,0,1.16.47,1.64,1.64,0,0,0,1.17-.49L47.33,18.68c.24.21.55.5.92.87,1.46,1.45,3.64,5.72,4.29,7.11a1.66,1.66,0,0,0,1.75.91,1.64,1.64,0,0,0,1.37-1.43c0-.08.92-7.72-2-13.56C51.4,7.87,44.71,1.65,43.39.45l0,0a1.66,1.66,0,0,0-2.26.07L36.15,5.43a1.64,1.64,0,0,0,0,2.32l4.43,4.43L29.43,23.33a1.64,1.64,0,0,0,0,2.32"/></g></g></svg>