<svg xmlns="http://www.w3.org/2000/svg" viewBox="0 0 181 49.95"><defs><style>.cls-1{fill:#f6c348;}.cls-2{fill:#009cde;}.cls-3{fill:#003087;}</style></defs><title>资源 9</title><g id="图层_2" data-name="图层 2"><g id="图层_1-2" data-name="图层 1"><rect class="cls-1" width="181" height="49.95" rx="5.93" ry="5.93"/><path class="cls-2" d="M107.88,16.69h-6a.86.86,0,0,0-.83.7L98.62,32.76a.49.49,0,0,0,.48.57h3.07a.56.56,0,0,0,.57-.48l.7-4.36a.82.82,0,0,1,.83-.7h1.88c4,0,6.22-1.91,6.81-5.71a4.72,4.72,0,0,0-.75-3.88c-.81-1-2.31-1.51-4.33-1.51Zm.7,5.6c-.32,2.15-2,2.15-3.55,2.15h-.92l.65-4a.49.49,0,0,1,.48-.43h.4c1.08,0,2.1,0,2.64.62A2,2,0,0,1,108.58,22.29Z"/><path class="cls-3" d="M65.17,16.69h-6a.86.86,0,0,0-.83.7L55.91,32.76a.49.49,0,0,0,.48.57h2.85a.86.86,0,0,0,.83-.7l.65-4.14a.82.82,0,0,1,.83-.7h1.88c4,0,6.22-1.91,6.81-5.71a4.72,4.72,0,0,0-.75-3.88c-.81-1-2.31-1.51-4.33-1.51Zm.7,5.6c-.32,2.15-2,2.15-3.55,2.15H61.4l.65-4a.49.49,0,0,1,.48-.43h.4c1.08,0,2.1,0,2.64.62A2,2,0,0,1,65.87,22.29Zm17.2-.08H80.19a.49.49,0,0,0-.48.43l-.13.81-.19-.3c-.62-.89-2-1.21-3.39-1.21a6.6,6.6,0,0,0-6.41,5.76,5.41,5.41,0,0,0,1.08,4.41,4.52,4.52,0,0,0,3.61,1.45,5.43,5.43,0,0,0,4-1.64l-.13.81a.49.49,0,0,0,.48.57h2.58a.86.86,0,0,0,.83-.7l1.56-9.82a.49.49,0,0,0-.48-.57Zm-4,5.6a3.2,3.2,0,0,1-3.23,2.75,2.24,2.24,0,0,1-2.4-2.8A3.24,3.24,0,0,1,76.66,25a2.31,2.31,0,0,1,2.42,2.83Z"/><path class="cls-2" d="M125.78,22.21H122.9a.49.49,0,0,0-.48.43l-.13.81-.19-.3c-.62-.89-2-1.21-3.39-1.21a6.6,6.6,0,0,0-6.41,5.76,5.41,5.41,0,0,0,1.08,4.41A4.52,4.52,0,0,0,117,33.57a5.43,5.43,0,0,0,4-1.64l-.13.81a.49.49,0,0,0,.48.57h2.58a.86.86,0,0,0,.83-.7l1.56-9.82a.49.49,0,0,0-.48-.57Zm-4,5.6a3.2,3.2,0,0,1-3.23,2.75,2.24,2.24,0,0,1-2.4-2.8,3.24,3.24,0,0,1,3.2-2.77,2.31,2.31,0,0,1,2.42,2.83Z"/><path class="cls-3" d="M98.35,22.21H95.47a.85.85,0,0,0-.7.38l-4,5.87-1.7-5.63a.84.84,0,0,0-.81-.59H85.46a.51.51,0,0,0-.48.67l3.18,9.31-3,4.2a.49.49,0,0,0,.4.78h2.88a.8.8,0,0,0,.67-.35L98.7,23a.48.48,0,0,0-.35-.81Z"/><path class="cls-2" d="M129.17,17.1l-2.45,15.64a.49.49,0,0,0,.48.57h2.48a.86.86,0,0,0,.83-.7l2.42-15.37a.49.49,0,0,0-.48-.57h-2.77a.52.52,0,0,0-.51.43Z"/></g></g></svg>