<svg xmlns="http://www.w3.org/2000/svg" viewBox="0 0 71.15 65.71"><defs><style>.cls-1{fill:#05f;}</style></defs><title>资源 14</title><g id="图层_2" data-name="图层 2"><g id="图层_1-2" data-name="图层 1"><path class="cls-1" d="M48.3,20.6a2.48,2.48,0,0,0-3.5,0l-6.52,6.52L31.77,20.6a2.48,2.48,0,0,0-3.5,3.5l4,4H28.36a.48.48,0,0,0-.48.48v4a.48.48,0,0,0,.48.48h7.44v3.32H28.36a.48.48,0,0,0-.48.48v4a.48.48,0,0,0,.48.48h7.44v7.45a2.48,2.48,0,0,0,5,0V41.36h7.45a.48.48,0,0,0,.48-.48v-4a.48.48,0,0,0-.48-.48H40.76V33.1h7.45a.48.48,0,0,0,.48-.48v-4a.48.48,0,0,0-.48-.48H44.26l4-4a2.48,2.48,0,0,0,0-3.5ZM30.53,61.72a2.75,2.75,0,0,0,2.18,3.51A32.87,32.87,0,0,0,68.57,20.07h0A32.86,32.86,0,0,0,6.38,25L4.79,21.44A2.57,2.57,0,0,0,3.16,20a2.51,2.51,0,0,0-1.69.12A2.48,2.48,0,0,0,.21,23.35L5.29,34.77l.09.18v0l.09.15h0l.08.11,0,.05.06.07.09.1h0l0,0,0,0h0l.06.06.05,0,.09.07,0,0,.14.09h0l.14.08h0l.31.14h0l.14,0h0l.13,0H7l.15,0h.59l.2,0H8l.19,0h0l.15,0h0l0,0,.13-.05h0l.06,0,.16-.08h0a2.52,2.52,0,0,0,.37-.27l9.34-8.18a2.53,2.53,0,0,0,.88-2.33,2.48,2.48,0,0,0-4.08-1.45l-4.47,3.91A27.91,27.91,0,1,1,33,60.25a2.14,2.14,0,0,0-2.45,1.47Z"/><path class="cls-1" d="M6.72,55.73A3.77,3.77,0,0,0,7,57.4a2.21,2.21,0,0,0,2.18,1.21,2.41,2.41,0,0,0,1.69-.66A2.47,2.47,0,0,0,11.63,56a2.16,2.16,0,0,0-1.34-2.21,6.77,6.77,0,0,0-2.4-.31V51.15a6.21,6.21,0,0,0,2.23-.31,1.93,1.93,0,0,0,1.09-2,2.2,2.2,0,0,0-.56-1.56,2,2,0,0,0-1.57-.6,2,2,0,0,0-1.71.74,3.14,3.14,0,0,0-.52,2H3.78a8.28,8.28,0,0,1,.43-2.37,5.32,5.32,0,0,1,1.27-1.81A4.42,4.42,0,0,1,7,44.35,6.64,6.64,0,0,1,9.2,44a5.81,5.81,0,0,1,3.87,1.24,4.14,4.14,0,0,1,1.47,3.34,3.69,3.69,0,0,1-.88,2.5,3,3,0,0,1-1.16.87,2.38,2.38,0,0,1,1.29.77,4.14,4.14,0,0,1,1.26,3.19,5.38,5.38,0,0,1-1.47,3.74,5.61,5.61,0,0,1-4.36,1.61q-3.56,0-4.94-2.32a6.9,6.9,0,0,1-.81-3.24Z"/><path class="cls-1" d="M27,46.25a13,13,0,0,1,1.29,6.4A13,13,0,0,1,27,59a4.74,4.74,0,0,1-4.49,2.24A4.74,4.74,0,0,1,18.05,59a13,13,0,0,1-1.29-6.39,13,13,0,0,1,1.29-6.4A4.73,4.73,0,0,1,22.54,44,4.74,4.74,0,0,1,27,46.25ZM20.6,57.08a1.91,1.91,0,0,0,1.94,1.53,1.88,1.88,0,0,0,1.92-1.53,16.34,16.34,0,0,0,.46-4.42,16.15,16.15,0,0,0-.46-4.48,1.86,1.86,0,0,0-1.92-1.46,1.89,1.89,0,0,0-1.94,1.46,15.61,15.61,0,0,0-.47,4.48A15.79,15.79,0,0,0,20.6,57.08Z"/></g></g></svg>