<svg xmlns="http://www.w3.org/2000/svg" viewBox="0 0 55.88 53.05"><defs><style>.cls-1{fill:#05f;}</style></defs><title>资源 16</title><g id="图层_2" data-name="图层 2"><g id="图层_1-2" data-name="图层 1"><path class="cls-1" d="M54.58,20.62a6.3,6.3,0,0,0-4.9-2.27H36.62c1.65-5.07,3-11.83.24-15.66A6.66,6.66,0,0,0,31.16,0c-4,0-5.8,2.2-7.14,4.27L16.11,16.49a13,13,0,0,0-1,1.85H7.7A4.8,4.8,0,0,0,2.91,23L0,44.73l0,.33a8,8,0,0,0,8,8H42.26c4.61,0,8.57-3.84,9.86-9.6l3.65-18.12a5.63,5.63,0,0,0-1.19-4.71ZM8,48.11a3,3,0,0,1-3-2.91l2.9-21.9,6.19,0V48.1ZM50.93,24.35,47.28,42.42c-.75,3.35-2.81,5.68-5,5.68H19c0-7.49,0-24.84,0-24.85a7.53,7.53,0,0,1,1.23-4.09L28.17,6.94c1.09-1.69,1.57-2,3-2,1.22,0,1.56.46,1.7.65,1.12,1.56.75,6-.93,11.21a4.41,4.41,0,0,0,.18,4.16,4.84,4.84,0,0,0,4.18,2.33h13.4a1.39,1.39,0,0,1,1.08.46.71.71,0,0,1,.17.61Z"/></g></g></svg>