<svg xmlns="http://www.w3.org/2000/svg" viewBox="0 0 49.91 60.97"><defs><style>.cls-1{fill:#05f;}</style></defs><title>资源 13</title><g id="图层_2" data-name="图层 2"><g id="图层_1-2" data-name="图层 1"><path class="cls-1" d="M46,10.21,28.95.91A7.49,7.49,0,0,0,21.89.85L4,10.21a7.38,7.38,0,0,0-4,6.55L.46,37.84c0,4.1,2.1,8.21,6.21,12.22C13,56.18,23.11,61,25.2,61h0c2.12,0,24.2-9.15,24.23-23.11l.46-21.1v0A7.4,7.4,0,0,0,46,10.21ZM44.89,37.79v0c0,10-16.77,17.53-19.72,18.53C21.79,55.26,5,46.92,5,37.81L4.57,16.74a2.86,2.86,0,0,1,1.55-2.52L24,4.87a2.91,2.91,0,0,1,2.74,0l17.09,9.3a2.87,2.87,0,0,1,1.5,2.5Zm-10.27-12H27.24V19.25a2.28,2.28,0,0,0-4.57,0v6.57H15.29a2.27,2.27,0,0,0,0,4.53h7.38v6.57a2.28,2.28,0,0,0,4.57,0V30.36h7.38a2.27,2.27,0,1,0,0-4.53h0Z"/></g></g></svg>